<svg width="34" height="50" viewBox="0 0 34 50" fill="none" xmlns="http://www.w3.org/2000/svg">
<g id="Group 2611">
<path id="Vector 8746" d="M9.67285 25.1906C10.4392 25.0948 4.57599 14.2046 3.8524 12.7017C2.60533 10.1117 1 6.75632 1 3.8747C1 1.60305 1.7516 1.25357 4.04513 1.25357C6.80135 1.25357 8.97902 -0.120298 8.97902 3.52779C8.97902 9.26863 12.4374 13.7009 14.8766 18.7535C15.3405 19.7145 18.3947 25.3344 17.2279 26.5012C16.4456 27.2835 13.8683 25.8439 13.142 26.7518C12.4742 27.5864 9.44227 26.849 8.97902 26.2314" stroke="#5668E6" stroke-width="2" stroke-linecap="round"/>
<path id="Vector 8747" d="M12.1016 33.5165C12.1016 34.7747 10.8668 38.2436 12.6027 38.7395C14.1249 39.1745 17.2916 39.1895 18.2689 37.3326C18.7902 36.3421 19.6235 34.4951 19.3675 33.3431C19.1676 32.4434 17.1441 32.4758 16.4573 32.4758C14.3169 32.4758 12.5468 31.0908 11.7546 33.8635" stroke="#5668E6" stroke-width="2" stroke-linecap="round"/>
<path id="Vector 8748" d="M27.3657 29.0063C27.3657 25.9419 27.3657 22.8775 27.3657 19.8131C27.3657 18.0999 29.3178 18.252 30.4879 18.252C32.9432 18.252 31.6994 22.2879 31.3552 23.8026C30.5198 27.4783 30.8348 31.3101 30.8348 35.0581C30.8348 35.693 31.286 39.1553 30.7577 39.6836C29.9411 40.5002 27.8955 38.5891 27.7319 37.8526C27.1931 35.4283 27.3657 32.6595 27.3657 30.0471" stroke="#5668E6" stroke-width="2" stroke-linecap="round"/>
<path id="Vector 8749" d="M28.7535 44.2705C28.7535 45.1712 28.405 46.9358 28.8306 47.7396C29.5075 49.0184 30.7723 48.22 31.259 47.3927C32.2886 45.6423 32.9492 43.5767 29.7942 43.5767" stroke="#5668E6" stroke-width="2" stroke-linecap="round"/>
</g>
</svg>
