<svg width="1440" height="908" viewBox="0 0 1440 908" fill="none" xmlns="http://www.w3.org/2000/svg">
<mask id="mask0_3272_5097" style="mask-type:alpha" maskUnits="userSpaceOnUse" x="0" y="0" width="1440" height="908">
<rect width="1440" height="908" rx="50" transform="matrix(-1 0 0 1 1440 0)" fill="#5668E6"/>
</mask>
<g mask="url(#mask0_3272_5097)">
<path d="M772.044 -498V942" stroke="#333333" stroke-width="2"/>
<path d="M355.697 -498V942" stroke="#333333" stroke-width="2"/>
<path d="M1188.39 -498V942" stroke="#333333" stroke-width="2"/>
<path d="M147.525 -498V942" stroke="#333333" stroke-width="2"/>
<path d="M980.216 -498V942" stroke="#333333" stroke-width="2"/>
<path d="M563.872 -498V942" stroke="#333333" stroke-width="2"/>
<path d="M1396.56 -498V942" stroke="#333333" stroke-width="2"/>
<path d="M43.4391 -498V942" stroke="#333333" stroke-width="2"/>
<path d="M876.128 -498V942" stroke="#333333" stroke-width="2"/>
<path d="M459.784 -498V942" stroke="#333333" stroke-width="2"/>
<path d="M1292.48 -498V942" stroke="#333333" stroke-width="2"/>
<path d="M251.611 -498V942" stroke="#333333" stroke-width="2"/>
<path d="M1084.3 -498V942" stroke="#333333" stroke-width="2"/>
<path d="M667.956 -498V942" stroke="#333333" stroke-width="2"/>
<path d="M1440 274.043L5.36861e-06 274.043" stroke="#333333" stroke-width="2"/>
<path d="M1440 690.39L5.36861e-06 690.39" stroke="#333333" stroke-width="2"/>
<path d="M1440 482.218L5.36861e-06 482.218" stroke="#333333" stroke-width="2"/>
<path d="M1440 65.8696L5.36861e-06 65.8696" stroke="#333333" stroke-width="2"/>
<path d="M1440 898.565L5.36861e-06 898.565" stroke="#333333" stroke-width="2"/>
<path d="M1440 378.13L5.36861e-06 378.13" stroke="#333333" stroke-width="2"/>
<path d="M1440 794.474L5.36861e-06 794.474" stroke="#333333" stroke-width="2"/>
<path d="M1440 586.298L5.36861e-06 586.298" stroke="#333333" stroke-width="2"/>
<path d="M1440 169.957L5.36861e-06 169.957" stroke="#333333" stroke-width="2"/>
</g>
</svg>
