<svg width="58" height="56" viewBox="0 0 58 56" fill="none" xmlns="http://www.w3.org/2000/svg">
<path d="M2.77727 33.162C2.63799 32.543 2.46003 31.9356 2.31301 31.3205C2.09249 30.392 2.01511 29.4518 2.00351 28.5001C1.97256 25.9041 2.14278 23.3662 2.6612 20.8244C2.80048 20.1473 2.94363 19.4354 3.23766 18.8087C3.63615 17.9576 4.10814 17.1529 4.5221 16.3095C4.9322 15.4699 5.45449 14.8122 6.03868 14.0849C6.3714 13.6709 6.73506 13.2763 7.0407 12.843C7.27283 12.5103 7.45466 12.135 7.70614 11.8178C7.92666 11.5431 8.20908 11.3264 8.4296 11.0518C8.63078 10.8042 8.78553 10.5217 8.99832 10.2819C9.27687 9.96849 9.62507 9.73636 9.89201 9.40751C10.0971 9.15604 10.2673 8.87749 10.4878 8.63762C11.0565 8.02248 11.78 7.4847 12.4764 7.02431C13.3469 6.44786 14.3953 5.98361 15.1846 5.29883C15.9312 4.64887 16.8249 3.91764 17.7341 3.48046C18.3454 3.18257 19.0379 3.06266 19.6917 2.88083C21.3244 2.42044 22.9028 2.0645 24.6051 2.0026C25.2473 1.97939 25.8663 2.11866 26.5008 2.14187C27.0657 2.16121 27.6344 2.13413 28.1992 2.13413C29.267 2.13413 30.3155 2.0993 31.3794 2.03353C32.3389 1.9755 33.2751 2.05674 34.2346 2.12251C35.1244 2.18441 35.9291 2.49394 36.8073 2.63322C37.5269 2.74541 38.2852 2.70671 38.9274 3.10133C39.2834 3.31798 39.6006 3.52303 39.9914 3.67778C41.0746 4.10335 42.0534 4.71851 43.0361 5.34139C43.8331 5.84433 44.7577 6.33568 45.4 7.04755C45.6205 7.29128 45.8023 7.55819 46.0538 7.77871C46.8508 8.47896 47.787 8.96647 48.5298 9.7441C49.3075 10.5604 50.0077 11.4386 50.6422 12.3749C50.9943 12.8971 51.3231 13.4311 51.6907 13.9417C52.0234 14.4021 52.3793 14.8084 52.5921 15.3461C52.8668 16.0425 53.1376 16.735 53.4045 17.4353C53.6715 18.1394 53.9346 18.8474 54.2093 19.5438C54.4453 20.1396 54.8167 20.6851 55.014 21.2925C55.2384 21.985 55.4511 22.7201 55.6446 23.4203C55.8419 24.1361 55.7607 24.8518 55.8574 25.5714C56.0276 26.8442 56.0547 28.0204 55.8883 29.3203C55.6678 31.0728 55.3235 32.7442 54.8399 34.4426C54.4066 35.963 54.3137 37.6963 53.6135 39.1084C53.3504 39.6384 53.1453 40.2032 52.8397 40.7139C52.4141 41.4335 51.857 42.0719 51.385 42.7644C50.6616 43.8245 49.6944 44.6717 48.9631 45.7434C48.29 46.7338 47.2918 47.5424 46.3672 48.2968C45.489 49.0164 44.4715 49.4381 43.5662 50.1151C42.6763 50.7806 41.5621 50.8889 40.5485 51.3106C38.4284 52.1927 36.1612 52.6376 34.0992 53.6396C33.0739 54.1387 31.9636 54.1 30.8494 54.0962C29.4063 54.0923 28.0329 54.0265 26.6053 53.8214C25.7425 53.6976 24.8682 53.4462 24.0093 53.3649C23.3826 53.3069 22.7906 53.3456 22.1639 53.2218C21.4056 53.0709 20.6937 52.8658 19.9664 52.6066C19.3783 52.3938 18.7284 52.3165 18.1635 52.065C17.5291 51.7787 16.883 51.4886 16.2562 51.1829C15.5134 50.8193 15.0491 50.3357 14.3992 49.8598C13.9349 49.5193 13.4436 49.264 12.9948 48.8926C12.341 48.3509 11.7452 47.7435 11.1494 47.14C10.5458 46.5287 10.1241 45.813 9.55543 45.1785C9.06409 44.6292 8.55341 44.1146 8.07754 43.5498C7.38889 42.7335 6.50294 41.863 6.0232 40.8958C5.58603 40.0137 5.05987 39.1123 4.38283 38.3849C4.13135 38.1141 3.87601 37.8587 3.70965 37.5221C3.15254 36.3924 3.10225 34.9417 2.88946 33.7152C2.85465 33.5257 2.81983 33.3439 2.77727 33.162Z" stroke="white" stroke-width="3" stroke-miterlimit="10" stroke-linecap="round" stroke-linejoin="round"/>
<path d="M54.9094 34.8295C54.6309 35.1854 54.2517 35.4291 54.0351 35.8276C53.888 36.0946 53.8532 36.2029 53.5476 36.1952C53.3309 36.1913 53.2303 36.1372 53.0562 36.0095C52.8125 35.8277 52.5572 35.7077 52.3018 35.5413C51.6287 35.1119 51.3114 34.3536 50.9748 33.6572C50.5725 32.8138 50.3519 31.8815 49.9186 31.0497C49.7794 30.7827 49.5666 30.5777 49.4776 30.2875C49.2996 29.684 49.3228 28.9992 49.2184 28.3802C49.0598 27.4439 48.7967 26.5193 48.286 25.7107C48.0539 25.3393 47.8875 24.9718 47.7212 24.5694C47.636 24.3682 47.5625 23.9659 47.3459 23.904C46.9822 23.7995 46.1272 24.3024 45.8487 24.4224C44.982 24.7977 44.1696 25.4322 43.2682 25.7069C42.8232 25.8423 42.092 26.0512 41.6239 25.8887C41.3183 25.6798 41.0358 25.4438 40.7766 25.1807C40.4168 24.8596 40.0454 24.5617 39.6547 24.2792C39.3839 24.0819 39.1092 23.8808 38.8345 23.6835C38.7532 23.6254 38.6643 23.5713 38.5753 23.5326C38.5018 23.4049 38.5637 23.0954 38.5637 22.9754C38.5637 22.5228 38.583 22.1321 38.6643 21.6794C38.9699 19.9655 39.3181 18.2865 39.7901 16.6074C39.9526 16.0309 40.2273 15.5628 40.4207 15.0096C41.5659 14.6923 42.7652 13.5975 43.8678 13.1603C44.3089 12.9862 44.8118 12.7386 45.307 12.7579C45.7984 12.7811 46.2587 13.11 46.6766 13.3228C47.1911 13.582 48.0268 13.6052 48.5994 13.5162C48.9244 13.4659 49.1565 13.2454 49.4699 13.168C49.7097 13.11 49.9651 13.1525 50.2088 13.1487" stroke="white" stroke-width="3" stroke-miterlimit="10" stroke-linecap="round" stroke-linejoin="round"/>
<path d="M37.6932 2.99316C37.6468 3.28719 37.5269 3.5503 37.3373 3.79016C36.9466 4.40917 36.5751 5.04367 36.227 5.68589C36.0296 6.09985 35.5963 6.86588 35.9561 7.33788C36.1844 7.52358 36.3856 7.74021 36.5519 7.98394C36.7144 8.24702 36.8498 8.52171 36.9504 8.808C37.0587 9.08269 37.4418 9.73266 37.3489 10.0344C37.2677 10.3014 36.9504 10.3865 36.7222 10.5025C36.1767 10.7811 35.6273 11.0597 35.2714 11.5781C34.9735 12.0114 34.6601 12.495 34.5015 12.9979C34.3544 13.4583 34.5595 13.5164 34.9928 13.5047C35.6118 13.4893 36.2927 13.1643 36.7995 13.6749C37.0897 13.969 37.1245 14.3907 37.3528 14.7196C37.6042 15.0794 37.7667 15.1296 38.0298 14.7582C38.2852 14.3946 38.4709 13.9729 38.6798 13.586C38.9196 13.1449 39.2291 12.7619 39.4961 12.3402C39.705 12.0075 39.9217 11.3731 40.324 11.2067C40.5407 11.1177 40.8308 11.1757 41.0591 11.1448C41.4731 11.0906 41.8599 10.9939 42.243 10.8353C42.2894 10.9474 42.2623 11.0519 42.2855 11.1835C42.3435 11.5046 42.5602 11.6825 42.8233 11.8721C43.5467 12.3983 44.4791 12.9631 45.3922 13.0289C45.4038 12.9012 45.3999 12.7774 45.3767 12.6536" stroke="white" stroke-width="3" stroke-miterlimit="10" stroke-linecap="round" stroke-linejoin="round"/>
<path d="M48.4679 13.2766C47.551 12.7311 46.7695 11.9767 45.9415 11.3035C45.6127 11.0365 45.0092 10.6496 44.986 10.1699C44.9705 9.83333 45.2568 9.73659 45.4966 9.52768C46.1621 8.95122 46.6418 8.27033 47.4775 7.94922" stroke="white" stroke-width="3" stroke-miterlimit="10" stroke-linecap="round" stroke-linejoin="round"/>
<path d="M19.3589 7.94902C20.2449 7.27198 21.0032 6.49433 21.951 5.89853C22.6939 5.43041 23.4444 4.94679 24.1872 4.48641C24.3033 4.4129 24.2917 4.37811 24.4271 4.37424C24.5006 4.44001 24.5896 4.47483 24.6902 4.47096C24.814 4.49804 24.9416 4.50189 25.0693 4.49028C26.11 4.51349 27.1469 4.34714 28.1876 4.35101C28.9265 4.35488 29.6964 4.28912 30.4315 4.3665C30.7332 4.39745 31.3484 4.38969 31.6076 4.5367C31.9016 4.69919 31.7778 5.40721 31.7546 5.72058C31.6772 6.76903 30.9809 7.74012 30.238 8.44424C29.708 8.95105 29.1006 9.36888 28.5474 9.84475C28.0522 10.2664 27.6034 10.7384 27.1275 11.1795C26.9186 11.3729 26.5781 11.8023 26.2919 11.8952C26.2029 11.9261 26.1178 11.8913 26.0443 11.9107C25.8083 11.9726 25.874 12.0538 25.5606 11.93C24.9262 11.6786 24.2839 11.4658 23.6804 11.1447C22.9956 10.781 22.3263 10.4985 21.5796 10.2896C21.0806 10.1503 20.5544 10.2703 20.0669 10.1194C19.5911 9.9724 19.27 9.43849 19.0185 9.03226C18.7283 8.57187 18.6587 8.39393 19.3589 7.94902Z" stroke="white" stroke-width="3" stroke-miterlimit="10" stroke-linecap="round" stroke-linejoin="round"/>
<path d="M7.46622 16.9901C7.31534 17.6787 7.21475 18.3558 7.09868 19.0483C6.98262 19.7524 6.80078 20.4488 6.74275 21.1607C6.70793 21.6017 6.66538 22.0312 6.60734 22.4645C6.59187 22.5805 6.56866 22.685 6.59961 22.8011C6.7002 22.9945 6.80465 23.1879 6.91685 23.3736C7.11803 23.7064 7.28825 24.0545 7.42366 24.4221C7.73704 25.1881 8.05815 25.9038 8.51854 26.6002C8.92863 27.2231 9.26909 27.8963 9.69079 28.5076C9.85715 28.7436 10.0931 28.9795 10.3601 29.1111C10.863 29.3587 11.5323 29.2503 12.0662 29.3122C12.8748 29.4012 13.6718 29.6024 14.4533 29.8268C15.3818 30.0937 15.9621 30.4961 16.7823 30.9681C17.9468 31.6374 19.2738 31.9005 20.5389 32.3106C21.1773 32.5156 21.8002 32.7323 22.4501 32.8754C22.7364 32.9373 23.4135 33.3745 23.7075 33.2314C24.0286 33.0727 23.7268 32.8213 23.5721 32.7013C23.4444 32.6007 23.3748 32.4847 23.2664 32.3609C23.0459 32.1094 22.7906 32.0204 22.4811 31.9121C20.8871 31.3356 19.4208 30.5348 17.9739 29.6527C17.6296 29.4399 16.821 29.1768 16.6469 28.7706C16.4612 28.3373 16.6005 27.3701 16.8752 27.0374C17.3085 26.5151 17.943 26.2675 18.5968 26.2791C19.1268 26.2869 19.6298 26.3333 20.1559 26.3836C20.4074 26.4068 20.7053 26.4687 20.9529 26.399C21.0922 25.6407 21.2934 24.9289 21.5526 24.1938C21.7924 23.5129 22.0052 22.8552 22.0749 22.1318C22.1368 21.4741 22.1793 20.8163 22.3418 20.1741C22.5701 19.2649 22.8912 18.1159 23.6069 17.4582C23.8352 17.2493 23.8777 17.2338 24.1601 17.2416C24.5702 17.2532 24.872 17.2299 25.2434 17.0249C25.6226 16.816 26.435 16.2705 26.1448 15.7289C25.9669 15.4 25.1622 15.1563 24.8991 14.9938C24.5199 14.7616 24.1911 14.4637 23.8274 14.2123C23.4676 13.9685 22.6436 13.6513 22.1909 13.7596C21.7228 13.8718 21.2044 14.3631 20.8794 14.6456C20.2488 15.1872 19.622 15.7172 18.9411 16.197C18.4885 16.5181 17.5793 17.2377 16.9216 17.0636C16.5579 16.9669 16.2678 16.5606 15.9621 16.3362C15.8267 16.2473 15.6952 16.1583 15.5598 16.0693C15.3625 15.9726 15.3006 15.8333 15.3818 15.6515C15.3509 14.3787 18.562 12.7654 16.5618 11.6782C16.496 11.6434 16.0782 11.4151 15.935 11.419C15.7068 11.4229 15.3779 11.7053 15.1652 11.8059C14.5075 12.1154 13.784 12.274 13.1069 12.541C12.5189 12.7731 11.9618 13.0981 11.4201 13.4231C10.4684 13.9918 9.56312 14.6185 8.60365 15.1602C8.14326 15.4194 7.9034 16.2279 7.74477 16.7347C7.78346 16.7386 7.81054 16.7425 7.46622 16.9901Z" stroke="white" stroke-width="3" stroke-miterlimit="10" stroke-linecap="round" stroke-linejoin="round"/>
<path d="M24.4387 29.6261C24.4271 29.5952 24.4193 29.5681 24.4077 29.5371C24.1756 29.8002 24.3149 30.4657 24.3149 30.7752C24.3187 31.665 24.3187 32.5548 24.3071 33.4446C24.2955 34.4815 24.694 35.4216 24.6863 36.443C24.6824 36.795 24.7598 37.0929 25.0074 37.3715C25.1738 37.5572 25.3324 37.5339 25.5568 37.6152C26.0481 37.797 26.5781 38.1607 27.0269 38.4238C27.3596 38.6172 27.5763 38.8765 27.8742 39.1047C28.0135 39.213 28.2765 39.4529 28.4352 39.5148C28.7021 39.6154 28.7021 39.5109 28.9033 39.7585C29.6268 40.6445 30.18 41.5537 30.6133 42.6215C31.2981 44.3237 31.7507 46.2001 32.7605 47.7554C33.1512 48.3589 33.6464 48.9315 33.983 49.5582C33.9482 48.9856 34.0565 48.4092 34.0991 47.8405C34.1997 46.4671 34.3622 45.0897 34.3622 43.7124C34.3622 43.1631 34.1881 42.3932 34.3622 41.8748C34.4628 41.5807 34.7723 41.4802 34.9851 41.279C35.4803 40.8031 35.8169 40.099 36.1805 39.5148C36.6912 38.6907 37.1477 37.8203 37.5075 36.9188C37.6429 36.5861 37.7706 36.2495 37.8944 35.913C38.0337 35.5996 38.1768 35.2862 38.3161 34.9728C38.3432 34.7291 38.2774 34.7136 38.1227 34.4931C37.7667 33.9747 37.465 33.433 37.229 32.845C37.0123 32.226 36.8111 31.6031 36.6254 30.9725C36.5635 30.8061 36.5016 30.6359 36.4436 30.4695C36.2966 30.2954 36.1844 30.3689 35.9755 30.3689C35.1475 30.3767 34.3119 30.2451 33.4801 30.2335C31.9558 30.2103 30.3966 30.1523 28.8839 30.3689C28.2262 30.4618 27.8703 30.5043 27.2242 30.3728C26.7522 30.2761 26.2918 30.2025 25.8469 30.0207C25.5529 29.9085 25.2008 29.7229 24.4387 29.6261Z" stroke="white" stroke-width="3" stroke-miterlimit="10" stroke-linecap="round" stroke-linejoin="round"/>
</svg>
