<svg width="83" height="52" viewBox="0 0 83 52" fill="none" xmlns="http://www.w3.org/2000/svg">
<path d="M24.4533 32.0128C23.3478 30.2965 22.0359 28.6792 21.081 26.864C20.7067 26.15 20.2508 25.2768 20.139 24.4552C19.9884 23.3283 20.6852 22.0637 21.1842 21.1001C22.3929 18.7645 24.0102 17.1257 26.3071 15.8481C30.3892 13.5684 34.6217 11.9812 39.1597 10.8414C42.4589 10.0112 45.8182 9.47781 49.2249 9.46921C50.0809 9.41759 50.9283 9.47349 51.767 9.64125C52.352 9.86492 52.9155 10.1273 53.4618 10.4327C54.6619 11.0478 55.8491 11.693 57.0018 12.3941C59.0966 13.6588 61.4151 14.7298 63.4324 16.1062C64.8131 17.0482 66.1595 18.3688 66.8477 19.8828C67.622 21.5776 67.9532 23.7369 67.6521 25.5951C67.2477 28.1114 64.925 30.2836 62.8603 31.5439C60.5333 32.9677 57.9739 33.2602 55.4146 33.9742C54.064 34.3527 52.8209 35.0366 51.4487 35.3851C50.1583 35.712 48.8593 35.7722 47.5388 35.9098C46.3774 36.0302 45.3365 36.3271 44.2181 36.5937C42.7169 36.9551 41.1555 36.8088 39.6242 36.8131C38.6994 36.8131 37.7402 36.9206 36.824 36.783C35.8519 36.6368 34.7809 36.2281 33.8604 35.9184C32.1871 35.3592 30.6386 34.3441 28.9568 33.8667C28.3159 33.686 27.7438 33.3978 27.1115 33.1913C26.6298 33.0236 26.1308 32.9548 25.6189 32.9892C24.9479 32.9978 24.3199 32.83 24.4533 32.0128Z" stroke="white" stroke-width="3" stroke-miterlimit="10" stroke-linecap="round" stroke-linejoin="round"/>
<path d="M34.7765 26.4937C34.1485 26.0722 33.4732 25.9302 33.5592 25.1302C33.6409 24.3602 34.1356 23.7064 34.6862 23.1817C36.5573 21.3837 39.4865 20.9191 41.9684 20.7514C43.2545 20.6654 44.5622 20.7342 45.8526 20.7342C46.7473 20.7342 47.6893 20.6395 48.5796 20.7385C49.8313 20.8761 52.1928 21.9902 52.8681 23.1343C53.2897 23.8484 53.1004 25.0442 52.5025 25.5345C51.3368 26.4851 49.8528 26.7174 48.4678 27.2164C46.3644 27.9777 43.9643 28.1842 41.7404 28.1799C40.549 28.1756 39.4134 28.2659 38.2563 27.9304C36.7809 27.4917 35.3228 27.083 34.7765 26.4937Z" stroke="white" stroke-width="3" stroke-miterlimit="10" stroke-linecap="round" stroke-linejoin="round"/>
<path d="M33.3356 36.5766C33.8732 37.4756 34.6905 38.4821 35.4734 39.1703C36.1358 39.751 37.2756 40.5769 38.1402 40.8608C38.8585 41.0973 39.9597 40.9425 40.7167 40.9124C41.4222 40.8823 42.0932 40.6801 42.8029 40.6543C43.5428 40.6285 44.2654 40.6543 45.0052 40.551C46.4849 40.3489 48.1452 40.1768 49.5518 39.7037C50.111 39.5144 50.4164 39.0628 50.8078 38.5724C51.7455 37.3938 52.6058 36.254 53.2639 34.9033" stroke="white" stroke-width="3" stroke-miterlimit="10" stroke-linecap="round" stroke-linejoin="round"/>
<path d="M5.36369 7.52918C5.30347 7.49477 5.24755 7.46036 5.18733 7.42595C5.66478 7.32272 6.18095 7.40013 6.67131 7.35712C8.05206 7.23238 10.6372 5.83872 11.9835 6.14412C12.418 6.24305 12.8481 6.19144 13.2739 5.98928C14.8267 5.62366 16.3838 5.28816 17.9495 4.97846C19.6056 4.67737 21.2702 4.55692 22.9262 4.26872C24.707 3.95902 26.4405 3.49447 28.2126 3.16326C30.0665 2.81485 31.9247 2.19547 33.8044 2.02341C34.9658 1.91588 35.2196 2.14815 34.9787 3.36544C34.5013 5.80863 31.0817 5.78712 29.1589 5.92047C27.4083 6.04091 25.6404 6.24305 23.894 6.32908C21.8681 6.43231 19.8163 6.33768 17.7904 6.29897C16.6935 6.27746 15.4934 6.28606 14.4439 6.32908C13.7428 6.35489 13.0675 6.81945 12.3749 6.74202C12.3663 5.89465 11.6996 5.13759 11.4889 4.31173C11.3297 3.68373 11.3469 3.40415 10.6372 3.27941C10.1855 3.20199 9.73389 3.32242 9.29085 3.38695C8.53811 3.49448 7.74665 3.51167 6.98961 3.50737C6.18525 3.50307 5.4067 3.32673 4.60664 3.31383C3.93132 3.30093 3.26461 3.39984 2.58929 3.30091C4.65395 2.9525 7.00251 3.35684 9.05857 3.55471C9.80271 3.62783 10.5684 3.75256 11.3168 3.76116C11.6222 3.76547 12.0824 3.62782 12.3491 3.81708C12.2932 4.59994 12.6029 5.21502 12.7793 5.95486C12.8997 6.45812 13.5234 7.9249 13.1019 8.38085C12.9599 8.5314 12.4524 8.583 12.2674 8.63892C11.0587 9.01744 9.88013 9.4691 8.66284 9.83041C7.17456 10.2735 5.7164 10.4971 4.1722 10.5445C3.49258 10.566 2.6108 10.4412 2 10.781C2.06022 10.8111 2.12474 10.8412 2.18496 10.8713" stroke="white" stroke-width="3" stroke-miterlimit="10" stroke-linecap="round" stroke-linejoin="round"/>
<path d="M79.7346 25.7241C79.2356 25.7972 78.7797 26.0424 78.371 26.3306C76.6634 27.5479 75.2009 29.2555 73.6352 30.6578C70.5425 33.4279 67.338 36.0775 64.1851 38.7788C61.6817 40.9209 59.2428 43.1619 56.5802 45.1104C55.5694 45.8503 54.2962 47.3902 54.6403 48.8956C55.264 51.6055 59.4535 49.2398 60.8085 48.4784C62.2839 47.644 63.3979 46.5256 64.6539 45.4072C65.5916 44.5728 66.4949 43.7254 67.1057 42.6156C67.9746 41.037 68.3574 39.196 69.3209 37.7077C69.5489 37.3507 69.5231 37.0367 69.6995 36.6496C69.8844 36.241 70.0952 36.2625 70.5124 36.0947C72.5857 35.2645 74.4052 33.987 76.2935 32.8343C77.9108 31.8449 80.5389 30.7653 80.9304 28.6447C81.0293 28.0812 80.5992 25.595 79.7346 25.7241Z" stroke="white" stroke-width="3" stroke-miterlimit="10" stroke-linecap="round" stroke-linejoin="round"/>
</svg>
