<svg width="62" height="54" viewBox="0 0 62 54" fill="none" xmlns="http://www.w3.org/2000/svg">
<path d="M3.77869 31.7137C3.6044 30.8371 5.29596 28.9047 5.51125 28.6023C6.90551 26.6185 8.34077 24.3067 9.99644 22.5127C12.4723 19.8215 16.0502 17.7711 19.4538 16.5358C23.8775 14.9314 28.3985 13.8652 33.017 13.0143C34.7291 12.7016 36.4411 12.4504 38.1891 12.4453C39.6807 12.4453 40.9571 12.9835 42.3513 13.4654C44.6734 14.265 47.2056 15.0647 49.297 16.3667C51.0705 17.4739 52.8287 18.5964 54.6279 19.6575C56.0683 20.5084 56.7039 21.5541 57.519 22.9996C58.0008 23.8505 58.498 24.8039 59.1593 25.542C59.4822 25.906 59.8923 26.0546 59.9999 26.5672" stroke="white" stroke-width="3" stroke-miterlimit="10" stroke-linecap="round" stroke-linejoin="round"/>
<path d="M4.31191 28.1715C4.12737 27.9716 3.94796 27.7666 3.76343 27.5667C3.97872 31.0164 8.82785 35.7579 10.6168 37.4699C14.3844 41.0786 19.7205 43.7646 24.1903 44.9436C30.0595 46.4916 35.8671 45.9072 41.7209 44.6565C43.4894 44.2772 45.1656 44.4566 46.8059 43.498C48.5128 42.4985 50.5273 41.5758 52.1317 40.3046C53.6951 39.0641 55.2995 36.578 56.2273 34.4508C56.8783 32.9591 57.2987 31.1856 58.0112 29.7452C58.5699 28.6124 59.4106 27.7 60 26.562" stroke="white" stroke-width="3" stroke-miterlimit="10" stroke-linecap="round" stroke-linejoin="round"/>
<path d="M12.3595 18.4066C11.0985 19.0781 8.4792 16.2332 7.74106 15.6232C5.92136 14.1264 4.06064 12.7886 2.06152 11.543" stroke="white" stroke-width="3" stroke-miterlimit="10" stroke-linecap="round" stroke-linejoin="round"/>
<path d="M30.3874 13.2604C30.0849 9.36467 29.9619 5.59712 29.9568 1.67578" stroke="white" stroke-width="3" stroke-miterlimit="10" stroke-linecap="round" stroke-linejoin="round"/>
<path d="M52.7006 17.551C53.0081 15.7826 55.7402 13.9475 56.991 12.8301" stroke="white" stroke-width="3" stroke-miterlimit="10" stroke-linecap="round" stroke-linejoin="round"/>
<path d="M25.4973 20.2933C22.919 21.6927 21.2787 23.2971 20.5559 26.2445C19.7358 29.5815 21.0839 32.3495 23.4777 34.7023C26.6097 37.783 29.8749 38.9979 34.2729 38.7057C36.8872 38.5314 39.6398 37.3986 41.6543 35.748C43.638 34.118 45.6115 31.7242 44.9451 29.0023C44.1352 25.6909 42.1105 22.1643 39.2451 20.2472C37.0051 18.7505 35.1085 18.5403 32.4532 18.5659C29.5878 18.5967 27.6759 18.4685 25.4973 20.2933Z" stroke="white" stroke-width="3" stroke-miterlimit="10" stroke-linecap="round" stroke-linejoin="round"/>
<path d="M15.3634 41.5815C15.2506 42.4068 14.3587 43.0219 13.8461 43.6268C13.0003 44.6161 12.2724 45.6823 11.5035 46.7331" stroke="white" stroke-width="3" stroke-miterlimit="10" stroke-linecap="round" stroke-linejoin="round"/>
<path d="M37.2512 47.1636C37.2255 48.9474 37.328 50.557 37.6817 52.3152" stroke="white" stroke-width="3" stroke-miterlimit="10" stroke-linecap="round" stroke-linejoin="round"/>
<path d="M52.27 39.439C54.3409 41.5047 56.1145 42.7708 58.7082 44.1599" stroke="white" stroke-width="3" stroke-miterlimit="10" stroke-linecap="round" stroke-linejoin="round"/>
<path d="M26.5686 20.5083C28.701 22.3895 31.0487 24.0349 33.1452 25.9571C33.8064 26.562 34.4267 27.213 35.0571 27.8486C35.2571 28.0485 35.4518 28.3202 35.6979 28.4689C35.7748 28.2177 35.7184 27.9203 35.7543 27.6589C35.867 26.8644 36.2515 25.9674 36.5283 25.2446C36.9025 24.2707 37.2613 23.3019 37.6047 22.3177C37.6765 22.1178 38.0968 21.3335 37.8713 21.2054C37.1998 21.7129 36.7487 23.6607 36.5796 24.1887C36.3233 24.9884 36.1438 26.5518 35.3698 26.9926C35.9901 24.5373 36.964 22.1844 37.492 19.7086C36.1233 21.8922 35.3391 24.363 34.3293 26.7106C34.642 25.1677 35.134 23.671 35.58 22.1588C35.7953 21.4207 36.518 19.847 36.3335 19.0063C34.8931 20.7492 34.0883 22.9328 33.3605 25.0498C33.791 23.1174 34.5241 21.2977 35.0623 19.4062C34.3754 20.8158 33.8372 22.328 33.0631 23.6863C33.3656 22.1537 33.8731 20.6569 34.0474 19.1089C33.3861 19.3549 33.099 20.375 32.7812 20.9645C32.648 21.2157 32.1303 22.5894 31.8432 22.7226C32.0482 21.6513 32.2994 20.5903 32.5455 19.5292C32.0329 20.6159 31.7407 21.8359 31.3408 22.9739C31.2281 21.8667 31.3306 20.6979 31.3819 19.5856C30.982 20.5493 30.6027 21.6616 29.8492 22.3997C29.3622 21.6462 29.2597 20.5595 28.6549 19.9136C28.5165 20.1802 28.6087 20.4365 28.9265 20.6723C29.4699 21.4719 30.1363 22.1383 30.9308 22.6765C32.284 23.7581 33.9346 24.4758 35.1904 25.665C33.9858 24.5117 32.8223 23.3788 31.428 22.451C30.3772 21.7488 28.9727 20.8056 27.6451 20.8825C29.5006 22.5176 31.7868 23.6351 33.7295 25.1883C33.2426 24.7833 32.7607 24.3681 32.2892 23.9478" stroke="white" stroke-width="3" stroke-miterlimit="10" stroke-linecap="round" stroke-linejoin="round"/>
<path d="M23.1392 25.2754C23.1187 25.2241 23.0982 25.1728 23.0777 25.1216C24.3028 26.6081 26.5377 27.2693 28.1421 28.2433C28.9623 28.7405 29.7773 29.2582 30.4744 29.9246C30.782 30.2168 31.0742 30.673 31.4842 30.8165C31.1664 31.0728 31.0947 31.9391 30.9768 32.4209C30.7666 33.2513 30.659 34.42 30.0285 35.0556C29.9362 33.4256 30.0849 31.7904 30.0234 30.1604C29.0545 31.7289 28.5214 33.5384 28.0755 35.3119C28.096 34.0971 28.1011 32.8771 28.1011 31.6623C28.1011 31.0625 28.2088 30.2885 28.0755 29.6837C27.732 30.3193 27.6654 31.0779 27.527 31.7802C27.3425 32.708 27.1836 33.646 26.9632 34.5636C26.9888 32.4261 27.2297 30.2936 27.3835 28.1664C27.0657 28.4637 26.712 30.0732 26.5582 30.5499C26.143 31.8417 25.7893 33.1437 25.5023 34.4661C25.5689 31.8314 25.979 29.2069 26.2712 26.5927C25.6663 28.9763 25.0102 31.3445 24.4463 33.7332C24.3438 33.4205 24.6257 30.9652 24.6667 30.4628C24.7488 29.3966 25.0256 28.0434 24.8615 26.9669C24.4105 28.3304 23.9543 29.7042 23.2828 30.9754C23.0828 30.0271 23.1238 29.0737 23.1341 28.11C23.1392 27.7153 23.2776 26.8285 23.1392 26.4236C22.8983 27.1002 22.6574 27.7768 22.4062 28.4534C22.1192 28.9096 21.9808 29.3915 21.991 29.9092C23.0521 29.8528 23.9542 29.5863 24.8667 30.3295C25.6304 31.1958 26.1533 32.1954 26.4352 33.3231C26.4044 34.1073 26.6659 34.7122 27.2246 35.1377C27.7115 33.9946 28.1114 32.8208 28.4189 31.6162C28.4958 31.0216 28.706 30.4885 29.0443 30.022C29.1212 31.9801 29.0187 33.9433 29.0648 35.9066C29.6902 35.7169 29.6902 33.9023 29.8029 33.2821C29.9413 32.5081 30.1515 31.6828 30.213 30.8934C29.6338 33.0463 29.0699 35.1991 28.6393 37.393C28.7624 36.4704 28.9008 35.5478 29.0443 34.6302" stroke="white" stroke-width="3" stroke-miterlimit="10" stroke-linecap="round" stroke-linejoin="round"/>
<path d="M34.0114 37.2902C33.9703 36.916 34.283 36.4854 34.4624 36.1779C34.8264 35.5474 35.1596 34.9015 35.503 34.2608C35.7388 33.8148 35.9387 33.3023 36.2001 32.8819C36.3078 32.7025 36.2514 32.5488 36.4769 32.4924C36.928 32.3847 37.7123 33.1024 38.0044 33.3433C38.9322 34.1071 39.614 35.122 40.4956 35.9472C39.6089 34.9887 38.5222 34.1071 37.4611 33.3433C37.2919 33.8405 37.4713 34.4043 37.5534 34.9118C37.62 35.3526 37.661 35.9165 37.8661 36.3266C37.6508 35.45 37.2868 34.6042 36.7486 33.8815C36.3898 34.8708 36.359 36.0344 36.2975 37.0801C36.1643 36.4444 36.0566 35.7986 35.9592 35.1578C35.8977 34.7478 35.9131 34.23 35.6875 33.8712C35.2929 34.9425 35.1903 36.1318 35.0161 37.2595C35.3185 37.157 35.4927 36.9109 35.5337 36.5213" stroke="white" stroke-width="3" stroke-miterlimit="10" stroke-linecap="round" stroke-linejoin="round"/>
<path d="M41.6388 24.3223C41.0288 26.2035 40.3163 28.0335 39.8857 29.9762C40.4291 29.5456 40.7315 28.6434 41.0801 28.0488C41.3671 27.5362 41.6849 27.0441 42.0284 26.5674C42.3206 26.3829 42.4333 26.1625 42.3718 25.9011C41.4491 27.2902 41.1723 29.0587 40.711 30.6426C41.5209 29.6738 42.0284 28.464 42.828 27.4799C43.1305 27.7515 43.2637 29.1612 43.1663 29.5969C42.7306 29.4226 41.4696 28.0744 41.1416 28.6793C40.9263 29.0843 41.8541 30.2069 41.9412 30.3196C42.4282 30.9758 42.9357 31.6319 43.5815 32.1342C43.4841 31.1039 41.2031 30.253 40.4393 29.8737C40.5418 30.2479 41.5465 31.0014 41.6696 31.1193C42.1873 31.6267 42.7204 32.37 43.3714 32.693C42.746 31.6421 41.9412 30.7041 41.28 29.6738C41.6696 29.3765 43.4277 30.9655 43.7404 31.1808" stroke="white" stroke-width="3" stroke-miterlimit="10" stroke-linecap="round" stroke-linejoin="round"/>
</svg>
