<svg fill="none" height="163" viewBox="0 0 214 163" width="214" xmlns="http://www.w3.org/2000/svg" xmlns:xlink="http://www.w3.org/1999/xlink"><clipPath id="a"><path d="m-555-1014h1440v11481h-1440z"/></clipPath><path d="m0 0h214v163h-214z" fill="#474747"/><g clip-path="url(#a)"><path d="m0 0h1440v11481h-1440z" fill="#1a1a1a" transform="translate(-555 -1014)"/><rect fill="#fefefe" height="1184" rx="50" transform="matrix(-1 0 0 1 885 -241)" width="1440"/><rect fill="#ffecd0" height="402" rx="50" transform="matrix(-1 0 0 1 835 -191)" width="1340"/><path d="m281.858 36.35c-.5 0-1-.25-1.3-.65-.45-.65-.6-1.35-.4-2.15h1.85 2.1c-.25.65-.5 1.25-.8 1.9-.25.5-.7.85-1.3.9zm-31.75 3.9c-.1-1.3.65-2.25 1.15-2.85l.1-.15c1.2-1.55 3.2-3.1 4.85-4.25.3-.25.7-.35 1.1-.3.5.05 1 .15 1.45.25.35.05.7.15 1.05.2.15 0 .35.05.55.05 1.15.1 2.35.15 3.6.2-.4.45-.85.85-1.25 1.3-.25.3-.5.55-.75.8-.65.5-1.65.45-2.2-.15-.6-.65-.55-1.55.05-2.2 0-.05 0-.05 0-.05l.55-.55c.15-.15.25-.35.4-.5l.35-.45c.15-.2.35-.35.6-.45 1.25-1.3 2.45-2.65 3.7-3.95l.1-.1 3.6-4.05c2.45-2.85 5-5.8 8-8.35 2.55-2.25 5.1-3.05 8.25-2.7.2.05.35.05.5.05.65.05 1.4.1 2.2.45.55.25.85.7 1.25 1.2v.05c.25.05.5.2.65.35.35.3.55.7.55 1.15.05.6-.15 1.4-1.25 3.7l-.05.1c-.95 2.35-1.8 4.9-2.65 7.35l-.15.45c-.25.75-.55 1.55-.8 2.35-.45 1.4-.95 2.9-1.5 4.35h4.2c.2 0 .35 0 .5-.05.35 0 .8 0 1.2.05.75.05 1.35.65 1.45 1.35.1.85-.2 1.85-1.35 2.4-.8.7-1.6 1.35-2.4 2-.7.55-1.7.45-2.25-.25s-.4-1.7.25-2.25c.05 0 .1-.05.1-.05h-3.8-4.95c-3.45.05-7.1.05-10.65-.05-2.2-.05-4.3-.15-6.3-.3-.7-.05-1.3-.2-1.95-.3-.2-.05-.4-.1-.65-.1-1.3.95-2.8 2.15-3.6 3.2l-.15.15c-.15.2-.45.55-.45.7.05.9-.65 1.65-1.5 1.7h-.1c-.85 0-1.55-.65-1.6-1.5zm13.85-6.85c.8.05 1.65.1 2.55.1 3.5.1 7.1.1 10.55.05h3.1v-.05c.15-.55.5-.95 1-1.1.5-1.35.95-2.8 1.4-4.2.3-.8.55-1.6.8-2.4l.15-.45c.9-2.45 1.75-5.05 2.75-7.55l.1-.25c.35-.65.55-1.15.7-1.5-.15-.15-.25-.3-.4-.5-.05-.05-.1-.15-.1-.2-.25-.05-.6-.1-.9-.1-.25 0-.45-.05-.65-.05-2.3-.25-3.9.25-5.85 1.9-2.75 2.4-5.25 5.25-7.65 8.05-1.2 1.35-2.4 2.75-3.65 4.1l-.15.15c-1.2 1.3-2.5 2.7-3.75 4zm35.238-16.7c-1.2.9-2.3 2-3.3 3.35-1 1.4-4.3 6.25-3.05 9.95 1.3 3.9 5.75 3.9 9.3 3.2 3.9-.8 7.8-1.9 9.85-4.7 1.45-2 1.85-4.15 1.3-6.8l-.8-3c-.45-1.15-1.25-1.85-2.45-2.1-.1 0-.2-.05-.3-.1-3.6-1.55-6.6-1.55-10.4.1zm-9.4 14.3c-1.7-5.05 1.9-10.65 3.55-12.85 2.4-3.2 5.25-5.4 8.5-6.55l.45-.15c1.05-.35 2-.7 2.9-1.15.8-.45 1.75-.15 2.2.65.25.5.2 1 0 1.45 1.15.25 2.3.6 3.5 1.1 2.2.55 3.75 1.95 4.65 4.1 0 .05 0 .1.05.15l.8 3.15c0 .05.05.05.05.1.7 3.55.1 6.65-1.85 9.35-2.7 3.75-7.3 5.1-11.85 6-1.35.25-2.65.4-3.85.4-4.6 0-7.85-2-9.1-5.75zm22.291 5.15c-.4-.75-.15-1.75.65-2.2.65-.35 1.5-.2 2 .4.15-.1.35-.25.5-.35l.4-.3c1.5-1.2 2.95-2.5 4.35-3.8 1.75-1.6 3.5-3.15 5.25-4.7.95-.85 1.9-1.65 2.9-2.5-1.8-2-3.65-4-5.5-5.95-.1-.1-.3-.3-.45-.5-.25-.3-.95-1.1-1.35-1.35-.75-.1-1.35-.8-1.35-1.6 0-.85.7-1.6 1.6-1.6 1.3 0 2.4 1.15 3.55 2.45.1.15.2.3.3.35 1.9 2 3.8 4.1 5.6 6.15 2.1-1.75 4.2-3.5 6.3-5.15l1.9-1.6c.45-.35.85-.7 1.25-1.1.7-.6 1.4-1.25 2.25-1.85.7-.5 1.7-.3 2.2.4.5.75.35 1.75-.35 2.25-.7.45-1.3 1-1.95 1.6l-1.35 1.2-1.95 1.55c-2.05 1.65-4.1 3.35-6.15 5.05.8.95 1.65 1.9 2.5 2.8 1.85 2 3.65 3.95 5.6 5.75l.1.1c1.05.8 2.2 1.8 2.15 3.1-.05.85-.75 1.55-1.6 1.55h-.1c-.75-.05-1.35-.65-1.5-1.35-.15-.15-.45-.45-.9-.8-.15-.1-.25-.2-.3-.25-2.05-1.85-3.9-3.85-5.8-5.9l-2.6-2.9c-.95.8-1.9 1.65-2.85 2.5-1.75 1.55-3.5 3.1-5.2 4.65-1.5 1.35-3 2.7-4.55 4-.05 0-.1.05-.15.05-.1.1-.25.2-.4.3-.65.5-1.55 1.1-2.55 1.1-.2 0-.4 0-.55-.05-.55-.1-1.3-.45-1.9-1.5zm16.05-13.45c.8-.7 1.6-1.4 2.4-2.05.4.4.75.8 1.1 1.2s.7.8 1.05 1.15c-.85.7-1.65 1.4-2.45 2.1-.35-.4-.65-.75-1-1.15zm15.392 16.35c-.15 0-.25 0-.4-.05-.75-.15-1.25-.85-1.2-1.6v-.3c0-.45.15-.85.45-1.15.3-.7.55-1.45.85-2.25l.45-1.25c.7-2.05 1.55-4.05 2.3-6.05.45-1.1.9-2.2 1.3-3.3.6-1.5 1.15-3.05 1.7-4.55.7-1.95 1.45-4 2.25-5.95.3-.85 1.25-1.25 2.05-.9.85.35 1.25 1.25.9 2.1-.8 1.9-1.5 3.9-2.2 5.8-.55 1.55-1.1 3.15-1.7 4.7-.45 1.1-.85 2.2-1.3 3.3-.8 1.95-1.6 3.95-2.3 5.95l-.45 1.25c-.4 1.05-.75 2.2-1.25 3.3-.25.6-.85.95-1.45.95zm11-33.45c.15-.7.45-1.25.75-1.7.15-.3.3-.55.35-.8.25-.85 1.15-1.3 2-1.05s1.35 1.15 1.1 2c-.2.55-.45 1-.65 1.4-.2.3-.35.6-.4.8-.15.75-.8 1.25-1.55 1.25h-.35c-.85-.2-1.4-1.05-1.25-1.9zm28.29 30.75c-.5 0-1-.25-1.3-.65-.45-.65-.6-1.35-.4-2.15h1.85 2.1c-.25.65-.5 1.25-.8 1.9-.25.5-.7.85-1.3.9zm-31.75 3.9c-.1-1.3.65-2.25 1.15-2.85l.1-.15c1.2-1.55 3.2-3.1 4.85-4.25.3-.25.7-.35 1.1-.3.5.05 1 .15 1.45.25.35.05.7.15 1.05.2.15 0 .35.05.55.05 1.15.1 2.35.15 3.6.2-.4.45-.85.85-1.25 1.3-.25.3-.5.55-.75.8-.65.5-1.65.45-2.2-.15-.6-.65-.55-1.55.05-2.2 0-.05 0-.05 0-.05l.55-.55c.15-.15.25-.35.4-.5l.35-.45c.15-.2.35-.35.6-.45 1.25-1.3 2.45-2.65 3.7-3.95l.1-.1 3.6-4.05c2.45-2.85 5-5.8 8-8.35 2.55-2.25 5.1-3.05 8.25-2.7.2.05.35.05.5.05.65.05 1.4.1 2.2.45.55.25.85.7 1.25 1.2v.05c.25.05.5.2.65.35.35.3.55.7.55 1.15.05.6-.15 1.4-1.25 3.7l-.05.1c-.95 2.35-1.8 4.9-2.65 7.35l-.15.45c-.25.75-.55 1.55-.8 2.35-.45 1.4-.95 2.9-1.5 4.35h4.2c.2 0 .35 0 .5-.05.35 0 .8 0 1.2.05.75.05 1.35.65 1.45 1.35.1.85-.2 1.85-1.35 2.4-.8.7-1.6 1.35-2.4 2-.7.55-1.7.45-2.25-.25s-.4-1.7.25-2.25c.05 0 .1-.05.1-.05h-3.8-4.95c-3.45.05-7.1.05-10.65-.05-2.2-.05-4.3-.15-6.3-.3-.7-.05-1.3-.2-1.95-.3-.2-.05-.4-.1-.65-.1-1.3.95-2.8 2.15-3.6 3.2l-.15.15c-.15.2-.45.55-.45.7.05.9-.65 1.65-1.5 1.7h-.1c-.85 0-1.55-.65-1.6-1.5zm13.85-6.85c.8.05 1.65.1 2.55.1 3.5.1 7.1.1 10.55.05h3.1v-.05c.15-.55.5-.95 1-1.1.5-1.35.95-2.8 1.4-4.2.3-.8.55-1.6.8-2.4l.15-.45c.9-2.45 1.75-5.05 2.75-7.55l.1-.25c.35-.65.55-1.15.7-1.5-.15-.15-.25-.3-.4-.5-.05-.05-.1-.15-.1-.2-.25-.05-.6-.1-.9-.1-.25 0-.45-.05-.65-.05-2.3-.25-3.9.25-5.85 1.9-2.75 2.4-5.25 5.25-7.65 8.05-1.2 1.35-2.4 2.75-3.65 4.1l-.15.15c-1.2 1.3-2.5 2.7-3.75 4zm60.288-18.25c-.05.1-.1.2-.15.25l-.1.2c-.5.9-.9 1.75-1.3 2.6-1 2.2-2 4.45-2.9 6.65.05-.05.15-.1.25-.1.7-.15 1.35-.3 1.9-.5l.65-.3c.5-.25 1.1-.55 1.8-.7 1.3-.3 2.8-.3 4.15-.3h.75c.45-.05.85 0 1.3 0 1.2-.45 2.35-.9 3.4-1.55 1-.6 1.8-1.4 2.05-2.1s.1-2.3.05-2.85c-.1-1-.55-1.8-1.3-2.4-.5-.35-1.2-.3-2.3-.2-.15 0-.35.05-.55.05-2.1.15-4.5.35-6.45.95-.2.05-.45.1-.7.15zm-12.05 20.15c-.05-.3 0-.6.1-.85.1-.35.25-.7.35-1l.05-.15c0-.05.05-.15.1-.2.05-.15.1-.25.2-.35.55-1.65 1.25-3.25 1.95-4.8.2-.5.45-1 .65-1.5.4-.85.75-1.7 1.1-2.55 1-2.3 2-4.7 3.1-7.05.4-.9.85-1.8 1.35-2.75 0-.05.05-.05.05-.05 0-.45.15-.9.55-1.25l.2-.15c.25-.25.6-.4.95-.4.35-.15.8-.25 1.15-.35.2-.05.4-.1.5-.1 2.3-.7 4.9-.95 7.2-1.1l.5-.05c1.3-.1 2.95-.25 4.45.85s2.4 2.75 2.6 4.6c.15 1.5.2 3.05-.2 4.25-.6 1.6-1.9 2.75-2.9 3.45 1.2.45 2.3 1.25 2.95 2.85.85 2 .5 4.45-.9 6.65-2.65 4-7.35 6.35-12.15 6.35-1.45 0-2.85-.2-4.25-.65-1.5-.45-3.1-1.05-4.6-1.75-.6-.3-.9-.3-.95-.3-.65.35-1.35.2-1.85-.3-.2.1-.45.15-.7.15-.85-.05-1.5-.7-1.55-1.5zm3.9-1.75c0 .05.05.05.05.1l.15.1c.7 0 1.45.2 2.3.6 1.4.6 2.8 1.15 4.2 1.6 4.7 1.45 10.2-.45 12.75-4.4.65-1 1.15-2.45.65-3.65-.45-1.15-1.3-1.35-3.5-1.6h-.25l-1.4-.15c-1.3.45-2.6.8-3.9 1.15l-.15.05c-1.15.25-2.35.6-3.7.55h-.1c-.9 0-1.85-.05-2.75 0-.7.05-1.3-.35-1.55-1-.1.3-.25.55-.35.8-.2.5-.45 1.05-.7 1.55-.6 1.4-1.25 2.85-1.75 4.3zm23.966 5.5c-.15 0-.25 0-.4-.05-.75-.15-1.25-.85-1.2-1.6v-.3c0-.45.15-.85.45-1.15.3-.7.55-1.45.85-2.25l.45-1.25c.7-2.05 1.55-4.05 2.3-6.05.45-1.1.9-2.2 1.3-3.3.6-1.5 1.15-3.05 1.7-4.55.7-1.95 1.45-4 2.25-5.95.3-.85 1.25-1.25 2.05-.9.85.35 1.25 1.25.9 2.1-.8 1.9-1.5 3.9-2.2 5.8-.55 1.55-1.1 3.15-1.7 4.7-.45 1.1-.85 2.2-1.3 3.3-.8 1.95-1.6 3.95-2.3 5.95l-.45 1.25c-.4 1.05-.75 2.2-1.25 3.3-.25.6-.85.95-1.45.95zm11-33.45c.15-.7.45-1.25.75-1.7.15-.3.3-.55.35-.8.25-.85 1.15-1.3 2-1.05s1.35 1.15 1.1 2c-.2.55-.45 1-.65 1.4-.2.3-.35.6-.4.8-.15.75-.8 1.25-1.55 1.25h-.35c-.85-.2-1.4-1.05-1.25-1.9zm8.29 31c-.25 0-.5-.05-.75-.15-.7-.3-1.1-1-1-1.75l.05-.25c.05-.3.15-.55.35-.75 1.75-.15 3.4-.2 4.8-.2h1c-.5.45-1 .9-1.55 1.35-.05.1-.15.15-.25.25-.65.6-1.6 1.5-2.65 1.5zm-10.2 4.5c.5-1.6 1.1-2.85 1.85-4.05.1-.1.2-.25.25-.45.05-.05.1-.1.15-.2-.1-.65.25-1.4.85-1.75.3-.15.55-.2.85-.15 1.65-.4 3.3-.65 4.9-.8.35-.4.9-.65 1.45-.6.15-.1.25-.25.35-.35l.4-.35c1.05-.85 2.05-1.8 3.1-2.8.45-.5.95-.95 1.45-1.4l3.65-3.3c1.4-1.25 2.9-2.55 4.3-3.9.65-.6 1.3-1.25 1.9-1.9 1.2-1.15 2.4-2.35 3.7-3.5 2.1-1.75 4.5-3.1 6.6-4.3l.65-.35c.9-.55 1.95-1.15 3.05-1.45.95-.3 1.8-.25 2.6.1.1.05.4.15.65.2.95.3 2.05.6 2.65 1.45.5.7.7 1.85-.25 2.95l-3.8 10.85c-.9 2.65-2 5.25-3.15 7.8 0 .05-.05.1-.05.1-.05.05-.05.1-.1.2-.15.3-.25.65-.35 1-.25.85-1.1 1.35-1.95 1.15s-1.35-1.05-1.2-1.9c0-.05.05-.1.05-.15 1.15-.05 2.3-.1 3.45-.1 1.05-.05 2.05-.05 3.05-.05.1 0 .25 0 .35-.05.75-.05 1.75-.1 2.55.45.4.3.65.8.7 1.3 0 .5-.25 1-.65 1.3-.3.25-.6.7-.95 1.15l-1.6 2.35c-.55 1.45-1.75 2.3-3.2 2.35h-.05c-.85 0-1.6-.75-1.6-1.6 0-.9.75-1.6 1.6-1.6.1 0 .1-.05.1-.05.05 0 .15-.1.2-.35.05-.15.1-.25.2-.4.35-.55.75-1.1 1.15-1.65-2.95.05-5.9.2-8.95.35-3.75.2-7.5.15-11.15.1-2-.05-4.05-.05-6.1-.05-2.3 0-5.2.1-8.2.7-.05.1-.1.15-.2.2l-.35.55c-.1.25-.25.5-.35.7-.65.9-1.1 1.9-1.5 3.2-.2.7-.85 1.15-1.5 1.15-.2 0-.35-.05-.5-.1-.85-.25-1.3-1.15-1.05-2zm14.65-7.6c1.75 0 3.45 0 5.15.05 3.6.05 7.3.1 10.95-.1 1.25-.05 2.55-.15 3.8-.2v-.3c-.05-.6.25-1.15.7-1.5 1.15-2.4 2.15-4.95 3.05-7.45l3.8-11c-.1-.05-.2-.1-.3-.1-.4-.15-.75-.25-1.05-.35-.05-.05-.1-.05-.4 0-.75.25-1.5.7-2.3 1.15-.25.15-.5.3-.75.4-1.95 1.1-4.2 2.35-6.05 3.95-1.25 1.05-2.35 2.15-3.5 3.35l-1.95 1.9c-1.45 1.4-3 2.75-4.45 4-1.2 1.05-2.4 2.15-3.55 3.25l-1.45 1.35c-.55.55-1.15 1.05-1.7 1.6zm64.018 6.9c-.5 0-.95 0-1.45-.05-3.15-.35-6.05-1.45-8.6-3.3-1.2-.95-1.95-2.05-2.7-3.1l-.3-.4c-.5-.7-.35-1.7.4-2.2.7-.55 1.7-.35 2.2.35l.3.4c.65.95 1.25 1.8 2.05 2.4 2.05 1.5 4.4 2.4 7 2.65 2.2.25 4.05-.25 5.6-1.6.1-.1.25-.15.35-.25 1.35-.6 2.25-1.6 2.75-3 0-.1.05-.2.1-.25.3-.6.2-.75-.05-.95-2.55-1.15-5.2-2.1-7.9-2.85-3.25-.4-6-1.75-8.1-4-1.1-.65-1.8-1.5-2.1-2.5-.3-1.2-.05-2.5.8-3.85.85-1.6 1.95-3.05 3.3-4.2l.1-.1c1.4-1 2.85-1.8 4.45-2.4 1.5-.75 3.05-1.4 4.65-1.9.2-.05.35-.05.5-.1h2.35c2.8 0 5.45.6 7.9 1.9.2.1.3.25.45.35 1.9 2.1 1.25 4.65.8 6.45l-.05.35c-.2.8-1 1.3-1.85 1.2-.8-.15-1.4-.9-1.3-1.75v-.45c0-.35.1-.7.3-.95.25-1.1.3-1.85-.15-2.5-1.85-.95-3.85-1.4-6.05-1.4h-2.15c-1.4.5-2.75 1.05-4.1 1.7-.05 0-.05.05-.1.05-1.3.5-2.55 1.15-3.7 2-1.05.9-1.9 2-2.55 3.25 0 .05-.05.05-.05.1-.35.6-.5 1.1-.45 1.4.1.25.5.5.75.65.15.1.3.2.45.35 1.65 1.85 3.75 2.9 6.4 3.2.1 0 .15 0 .25.05 2.95.8 5.85 1.85 8.65 3.1.05.05.15.1.25.15 1.7 1.25 2.15 3.1 1.15 5.05-.75 2.15-2.15 3.7-4.15 4.7-1.85 1.5-4 2.25-6.4 2.25zm15.154-6.15h.1c.1.05.2.05.3.05-.1 0-.2-.05-.3-.05s-.2 0-.3.05c.1-.05.15-.05.2-.05zm-1.55 1.25c.05-.25.15-.45.3-.65.65-1.15 4.6-9.55 5.1-10.55v-.05c1.45-3.1 2.9-6.2 4.4-9.3.05-.15.2-.35.35-.45.25-.25.35-.4.35-.5-.05-.15-.05-.3-.1-.4-.2-.85.25-1.65 1.05-1.9s1.7.15 2 .95c.05.05.05.15.1.25l.2.55c.2.25.3.55.35.85v.25c0 .1 0 .25.15.5.1.1.15.25.2.4.55 1.95 1.25 3.85 2.05 5.75.6 1.5 1.25 2.9 1.95 4.25.05-.2.15-.35.25-.55.05-.15.15-.3.3-.4 3-3.25 6.4-6.2 10.05-8.8l.15-.1c3.65-2.9 5.75-3.85 7.3-3.35.55.2 1 .65 1.1 1.25.5 3.05-.2 5.85-.9 8.55l-.2.7c-1 4.05-2.4 7.85-3.75 11.55l-.45 1.25c.1.5-.05 1-.35 1.35-.6.7-1.6.75-2.3.2l-.15-.2c-.5-.4-.7-1.1-.45-1.75l.7-2c1.4-3.75 2.7-7.3 3.65-11.15l.2-.7c.45-1.9.95-3.75.95-5.55-.7.4-1.75 1.05-3.35 2.35-.15.1-.25.2-.3.2-3.4 2.4-6.6 5.15-9.4 8.2-.6 1.2-1.4 2.2-2.45 2.95-.35.3-.8.4-1.3.3-.45-.05-.8-.35-1.05-.75-1.15-2.05-2.2-4.2-3.2-6.6-.6-1.45-1.15-2.9-1.6-4.4l-3.6 7.6c0 .05-.05.05-.05.1-.55 1.2-2.5 5.35-2.55 5.4l-1.8 3.8c-.85 1.75-1.3 2.6-2.25 2.6-.15 0-.3-.05-.5-.1-.85-.2-1.35-1.05-1.15-1.9zm68.726 4.2c-.55 0-1.05-.3-1.35-.75-.55-.9-.3-1.85-.15-2.35v-.15c.05-.05.05-.1.05-.15 1.15-3.25 2.35-6.5 3.55-9.7l2.55-7.5c.4-1.2.75-2.4 1.1-3.7.05-.25.1-.45.15-.7l-.05.05c-1.55 1.25-3.05 2.45-4.6 3.65-2.8 2.3-5.5 4.75-8.15 7.1-1.5 1.35-3.1 2.8-4.65 4.15-.45.4-1.05.5-1.6.3-2.6-.95-3.15-3.95-3.55-5.95l-.15-.9c-.5-2.55-1.1-5.05-1.85-7.5-.2-.5-.35-1.05-.55-1.55l-2.15 5.6c-1.2 3.05-2.45 6.2-3.7 9.3l-.4.85c-1.2 3-2.5 6.05-4.1 8.9-.4.75-1.3 1.05-2.05.7s-1.15-1.2-.85-2l.35-.9c.1-.3.3-.6.5-.75 1.2-2.3 2.25-4.8 3.2-7.15l.4-.9c1.25-3.05 2.45-6.2 3.65-9.2 1.05-2.7 2.1-5.45 3.2-8.15.1-.2.2-.4.35-.6.9-1 1.9-.4 2.75.1.15.1.3.2.45.25.25.1.55.25.7.5.2.25.3.5.35.75.2 1.05.5 2.15.9 3.15 0 .05.05.1.05.1.75 2.6 1.4 5.25 1.9 7.85.05.25.15.6.2.95.2.95.4 2.25.9 3 1.2-1.1 2.45-2.2 3.6-3.3 2.65-2.35 5.4-4.85 8.3-7.2 1.55-1.2 3.05-2.4 4.6-3.65l3.95-3.15c.55-.45 1.4-.45 1.95 0 .9.65 1 1.75.25 3.15-.05.05-.05.1-.1.15l-1.1 3.8c-.3 1.3-.7 2.65-1.1 3.9l-2.6 7.6c-1.2 3.2-2.4 6.4-3.5 9.55 0 .05 0 .15-.05.2v.05c.05.15.05.25.05.35v.2c0 .75-.45 1.4-1.15 1.6-.15.05-.3.05-.45.05zm-423.598 49.05c-.2 0-.35 0-.55 0h-.15c-1.65-.3-3.25-.75-4.8-1.4-1.55-.5-2.8-1.4-3.7-2.7-1.1-1.65-1.4-3.3-1.5-4.6-.05-.9.6-1.65 1.5-1.75.85-.05 1.65.6 1.7 1.5.1 1.35.4 2.25.95 3 .5.75 1.2 1.25 2.05 1.5.05.05.1.05.149.05 1.301.55 2.701.95 4.101 1.2.7.05 1.4-.05 2.05-.2.05 0 .099-.05.15-.05 1.5-.25 3-.7 4.35-1.4.95-.7 1.7-1.55 2.3-2.65 0-.05.05-.1.1-.15.65-.9 1-1.85 1.05-2.9 0-1.15-.7-2.4-1.85-3.1-1.1-.65-2.5-.7-3.95-.55-1.05.8-2.25 1.45-3.6 1.95-1.1.35-2.4.75-3.85.75-.101 0-.2 0-.3.05-.5 0-1.1.05-1.7-.15-.35-.15-.7-.4-.9-.75-.3-.5-.3-1.1-.05-1.65.2-.45.8-1.65 7.4-2.95l1.7-.3c.7-.6 1.3-1.25 1.9-1.9.95-1 1.8-2.05 2.7-3.2l.75-.75.2-.15.05-.05c.05-.2.05-.5-.15-.85-.4-.6-1.35-1.2-2.2-1.3-.4-.1-.7-.1-1-.1-.25.05-.6.15-.95.25-.3.1-.6.2-.95.25-.45.1-.85.2-1.25.25-.65.05-1.2.15-1.7.35-.7.3-1.4.75-2.1 1.2-.25.15-.5.3-.7.45-.4.25-.75.6-1.15 1-.25.25-.451.45-.7.65l-.35.3c-.1.3-.25.55-.5.75-.65.6-1.65.55-2.25-.1l-.15-.15c-.4-.5-.5-1.2-.2-1.8s.8-.95 1.1-1.2l.2-.15c.2-.15.4-.35.55-.55.5-.45 1-1 1.75-1.45.2-.15.4-.25.65-.4.8-.55 1.65-1.1 2.6-1.5.9-.35 1.75-.5 2.5-.6.35-.05.7-.1 1.05-.15l.65-.2c.5-.15 1-.3 1.6-.35.55-.05 1.1-.05 1.8.05 1.75.3 3.5 1.4 4.4 2.8.7 1.1.85 2.35.5 3.55-.2.85-.75 1.3-1.1 1.55l-.1.1c-.15.1-.25.2-.35.35-.8 1-1.65 2-2.55 3 .85.15 1.65.45 2.4.9 2.05 1.3 3.35 3.6 3.35 5.95-.1 1.75-.65 3.25-1.6 4.6-.8 1.45-1.9 2.7-3.3 3.65-.05.05-.1.1-.2.15-1.65.85-3.45 1.45-5.3 1.75-.85.2-1.7.3-2.55.3zm12.136-1.35c-.1 0-.2-.05-.35-.05-.75-.15-1.3-.9-1.25-1.7.1-1.1.3-2.2.65-3.25.1-.4.35-.7.65-.9.8-2.35 1.6-4.75 2.45-7.15 1.1-3.2 2.45-6.5 3.85-9.8.05 0 .05-.1.1-.2.5-1.35 1-2.55 2.05-2.9 3.35-1.25 6.5-1.3 9.5-1.4 1.6-.05 3.3-.1 5-.3 1.5-.15 2.9-.15 4.3-.15h.25c.2 0 .45 0 .7-.05.4-.05.8-.15 1.3-.1.6 0 1.1.35 1.4.9.2.45.2.9.2 1.15.05.2.15.4.15.65.15.9-.5 1.7-1.35 1.8-.8.1-1.55-.4-1.75-1.15h-.65-.3c-1.35 0-2.6 0-3.85.15-1.85.2-3.6.25-5.3.3-2.8.1-5.45.15-8.2 1.1-.1.2-.25.6-.45 1.15-.05.15-.1.3-.15.35-.65 1.45-1.25 2.95-1.85 4.4l-1.35 3.5c-.4.25-.9.35-1.4.2-.85-.25-1.3-1.15-1.05-2 .35-1.15 1.6-1.35 2.3-1.5l1.1-.15c.15 0 .25-.05.4-.05 1.95-.35 3.55-.5 5.1-.55h.2c3.45-.15 7.3-.3 10.6 2.15 1.3.9 2.5 2.35 3.6 4.2.5.8 1.95 3.2.8 5.9-1.15 2.6-3.65 3.75-5.45 4.35-2.55.95-5.35 1.6-8.5 2.15-.95.1-1.95.25-3.05.25-.9 0-1.9-.1-2.9-.35-.8-.15-1.55-.4-2.3-.6-1.2-.35-2.3-.7-3.55-.8-.15 0-.35-.05-.5-.1-.6-.2-1.05-.85-1-1.55.05-.9.8-1.6 1.65-1.5.2 0 .35 0 .5.05l-.8 2.45c-.05.2-.2.4-.35.55-.3.35-.7.55-1.15.55zm2.3-3.55c1.45.1 2.65.5 3.85.85.7.2 1.35.4 2.05.55 1.4.3 2.75.3 4.75 0 2.95-.45 5.55-1.1 7.95-1.95 1.95-.7 3.05-1.5 3.55-2.65.35-.8.2-1.7-.55-2.95-.9-1.5-1.85-2.6-2.8-3.3-2.4-1.75-5.4-1.65-8.6-1.5h-.2c-1.5.05-3.1.25-5.2.6h-.25c-.25.05-.75.1-1.05.2 0 0-.05 0-.05.05l-.6 1.65c-.85 2.45-1.65 4.9-2.45 7.3zm30.51 5.2c-.15 0-.25 0-.4-.05-.75-.15-1.25-.85-1.2-1.6v-.3c0-.45.15-.85.45-1.15.3-.7.55-1.45.85-2.25l.45-1.25c.7-2.05 1.55-4.05 2.3-6.05.45-1.1.9-2.2 1.3-3.3.6-1.5 1.15-3.05 1.7-4.55.7-1.95 1.45-4 2.25-5.95.3-.85 1.25-1.25 2.05-.9.85.35 1.25 1.25.9 2.1-.8 1.9-1.5 3.9-2.2 5.8-.55 1.55-1.1 3.15-1.7 4.7-.45 1.1-.85 2.2-1.3 3.3-.8 1.95-1.6 3.95-2.3 5.95l-.45 1.25c-.4 1.05-.75 2.2-1.25 3.3-.25.6-.85.95-1.45.95zm11-33.45c.15-.7.45-1.25.75-1.7.15-.3.3-.55.35-.8.25-.85 1.15-1.3 2-1.05s1.35 1.15 1.1 2c-.2.55-.45 1-.65 1.4-.2.3-.35.6-.4.8-.15.75-.8 1.25-1.55 1.25h-.35c-.85-.2-1.4-1.05-1.25-1.9zm25.19 33.85c-.2 0-.35 0-.55-.1-.7-.25-1.1-.95-1.05-1.65.1-.75.4-1.35.65-1.85l.15-.65c.65-2 1.4-3.95 2.1-5.85l.05-.1c1.25-3.35 2.45-6.8 3.65-10.15l1.35-3.9c.1-.3.25-.65.4-1 .1-.15.15-.3.25-.5l-.55-.15c-.3-.1-.8-.25-1.05-.25-3.95 1.65-7.8 4.15-11.75 7.6-3.6 3.15-7.8 7-11.15 11.4l-.5.75c-.65.9-1.35 1.85-2.4 2.65s-2.25 1.35-3.35 1.9l-.4.2c-.8.35-1.75.05-2.1-.75-.4-.8-.05-1.75.7-2.15l.4-.2c1.05-.5 2-.95 2.85-1.6.6-.45 1.15-1.15 1.65-1.9.2-.3.4-.55.65-.85 3.5-4.6 7.8-8.6 11.55-11.9 4.25-3.7 8.4-6.35 12.75-8.15 1-.45 2.1-.1 3.1.2.3.1.85.25 1.05.25.45-.15.9-.1 1.3.15.45.25.75.7.8 1.2.15 1.15-.4 2.4-.85 3.4-.15.3-.25.55-.35.75l-1.35 3.95c-1.15 3.35-2.4 6.8-3.65 10.2l-.05.1c-.7 1.85-1.45 3.75-2.05 5.65 0 .1-.05.25-.1.35 0 .15-.05.3-.1.45-.15.55-.35 1.2-.7 1.8-.3.45-.85.7-1.35.7zm16.573-5.2 3 .5c2.3.1 4.5-.5 7.1-1.45 3.05-1.15 5.4-2.25 7.45-3.55 1.05-.7 1.6-1.1 1.95-1.85.3-.6.3-1-.05-1.6-.85-1.55-3.45-3.95-5.05-4.65-3.2-1.35-6.75-.85-10.35.45l-.2.35c-1.75 3.6-3.65 7.1-5.7 10.5.25.2.4.35.6.55.45.4.75.65 1.25.75zm-7.05.9c.55-1 1.15-2 1.9-2.9 1.6-2.65 3.15-5.4 4.6-8.15l-1.75.9c-.75.4-1.75.1-2.15-.7-.4-.75-.1-1.75.7-2.15 1.8-.95 3.65-1.85 5.5-2.6 1.25-2.4 2.6-4.75 4-7.05.2-.45.5-.85.85-1.15.65-.6 1.7-.55 2.25.15.6.65.55 1.65-.15 2.25 0 .05-.05.1-.1.15 0 .05-.05.15-.1.2-.8 1.3-1.6 2.7-2.35 4.05 3.2-.75 6.4-.75 9.45.55 2.3.95 5.5 3.85 6.7 6.05.8 1.5.85 3 .1 4.55-.8 1.65-2.1 2.45-3.15 3.15-2.2 1.4-4.8 2.65-8.05 3.85-2.25.8-4.8 1.65-7.65 1.65h-.8c-.05 0-.1-.05-.15-.05l-3.15-.5c-1.45-.25-2.3-1-2.85-1.55l-1.05 1.1c-.5.6-1.4.7-2.05.25s-.9-1.35-.55-2.05zm27.131.8c-.3-.5-.3-1.15 0-1.65.5-.75 1.1-1.45 1.8-2.05 1.35-1.25 2.45-2.75 3.3-4.4 0 0 0-.05.05-.05 2.3-3.9 4.5-7.9 6.55-11.9.1-.2.25-.4.45-.55.15-.1.3-.2.35-.3-.25-.65-.1-1.45.5-1.9.7-.5 1.7-.4 2.25.3.45.6.65 1.3.55 2-.1.85-.6 1.55-1.45 2.25-2 3.95-4.2 7.85-6.45 11.65-.8 1.55-1.8 3-2.95 4.25l2.6.15c2 .1 4.1.2 6.1.2.4 0 .8 0 1.2-.05.55-2.85 2-5 3.45-7.15.95-1.4 1.85-2.75 2.45-4.3.35-.8 1.25-1.2 2.1-.9.8.35 1.2 1.25.9 2.1-.75 1.85-1.8 3.4-2.8 4.9-1.15 1.75-2.25 3.35-2.8 5.25 2.85-.15 5.75-.35 8.6-.65.7-.2 1.35-.25 2-.25l2.35-4.6.7-1.25c2.5-4.7 5.1-9.6 8.5-13.95.55-.7 1.55-.8 2.25-.25s.8 1.55.25 2.25c-3.2 4.1-5.75 8.85-8.2 13.45l-.65 1.3c-.75 1.3-1.45 2.65-2.1 4 .45.35.7.9.6 1.5s-.5 1.1-1.05 1.25c-.1.1-.3.2-.55.3-.65.4-.9.5-1.2.6h-.35c-.35 0-.7-.1-.95-.3-.35-.25-.55-.6-.6-1-.1 0-.2.05-.3.05-.1.05-.15.05-.25.05-4.45.5-9 .75-13.5.85-2.15 0-4.25-.1-6.35-.2-1.95-.1-4-.2-5.95-.2h-.05c-.55 0-1.1-.3-1.35-.8zm14.8-1.75c0-.1.05-.2.05-.3 1.1 0 2.2-.05 3.3-.1-.1.3-.15.6-.2.9-.1.75-.8 1.35-1.55 1.35-.1 0-.15-.05-.25-.05-.9-.15-1.5-.95-1.35-1.8zm47.04 4.7c-.15 0-.35-.05-.55-.1-.8-.35-1.25-1.25-.95-2.1 1.4-3.75 3.2-8.7 4.65-13.7.65-1.9 1.15-3.8 1.5-5.7l-.5.35c-.15.1-.3.2-.45.3l-3 1.75c-1.8.95-3.45 2.15-5 3.45-4.3 3.4-8.35 7.1-11.9 10.4-1.15 1.05-2.25 2-3.5 2.9l-.1.1c-.55.45-1.35 1.2-2.4 1-.45-.05-.8-.3-1.05-.7-.25-.35-.35-.8-.25-1.25.55-2.1 1.2-4.15 1.8-6.15.25-.65.45-1.35.65-2 .45-1.5.85-3.05 1.25-4.55.2-.8.4-1.6.65-2.4.3-1.15.65-2.35 1-3.5.55-1.65 1.1-3.4 1.45-5.05.2-.85 1.05-1.4 1.9-1.2.85.15 1.4 1.05 1.2 1.9-.4 1.8-.95 3.6-1.5 5.3-.3 1.1-.7 2.25-1 3.4l-.6 2.35c-.4 1.55-.8 3.15-1.3 4.7-.2.65-.4 1.35-.65 2-.15.5-.3.95-.4 1.4.2-.2.45-.4.7-.6 3.6-3.35 7.7-7.1 12-10.5 1.65-1.45 3.5-2.7 5.5-3.8.95-.55 1.9-1.15 2.9-1.7l.3-.2c.45-.3 1-.7 1.75-.85.1-.05.2-.05.3-.05.2-.2.45-.6.6-.8.1-.15.25-.3.3-.4.35-.4.85-.65 1.35-.6.55.05 1 .3 1.3.75.6 1.05.65 2.2.1 3.35-.4 2.55-1 5.1-1.8 7.55-1.5 5.05-3.3 10.1-4.75 13.9-.2.65-.85 1.05-1.5 1.05zm6.52-1.1c-.351-.6-.3-1.3.1-1.85.15-.2.35-.35.45-.45.05-.05.05-.1.1-.15l.15-.35c.35-.7.6-1.45.9-2.2l.45-1.25c1.55-3.95 3.3-8.15 5.5-13.2.25-.6.55-1.2.8-1.8.5-1.05 1.05-2.1 1.35-3.15 0-.05.05-.1.05-.2.1-.6.55-1.15 1.15-1.35.2-.05.5-.1.85 0 .45-.25.9-.45 1.35-.55 1.55-.55 3.2-.9 5-1.05l.65-.1c1.85-.2 4.2-.45 6.15.3 1.6.6 2.899 1.95 3.65 3.6.75 1.65.8 3.5.2 5-.65 1.65-1.95 2.8-3.2 3.75-1.001.7-2.05 1.4-3.1 2.05 1.05.45 2.05.95 2.799 1.35 1.501.9 3.601 2.1 4.601 4 1.25 2.25 1.1 4.15-.4 5.65-.1.1-.2.15-.25.2l-2.25 1.45c-.05 0-.1.05-.15.05-2.35 1.2-4.85 1.85-7.5 2.05-.6.05-1.2.05-1.8.05-1.8 0-3.55-.2-5.25-.4-1.1-.1-2.2-.2-3.25-.3h-1.75c-.75 0-1.55.05-2.4-.05-.75-.05-1.35-.65-1.45-1.45v-.15c-.05-.2 0-.45.05-.65-.05.15-.1.3-.2.45-.05.1-.05.2-.1.25-.45 1-1.15 1.25-1.65 1.3-.65.05-1.25-.3-1.6-.85zm3.75-1.6c.3-.35.7-.6 1.15-.65.4-.05.75.05.999.2h1.401.9 1.1c1.15.1 2.3.2 3.4.35 2.25.25 4.35.45 6.5.3 2.2-.15 4.25-.7 6.2-1.65l2-1.3c.25-.25.35-.6-.25-1.7s-2.251-2.05-3.4-2.75c-1.6-.95-3.2-1.55-4.55-1.75-.3-.05-.6-.05-.9-.1l-.9.45c-1.75.8-3.4 1.2-5.2 1.6l-.3.05c-.25.05-.5.1-.75.2-.9.2-1.8.4-2.8.55-.75.05-1.45-.4-1.7-1.1-.5 1.35-1.05 2.6-1.5 3.85l-.45 1.1c-.25.8-.55 1.6-.95 2.35zm3.7-9.25c.05 0 .1-.05.2-.05l1.65-.7c.65-.35 1.35-.65 2.1-.9 1.95-.65 4-1.25 6.15-1.35 2.25-1.1 4.3-2.35 6.2-3.75 1.05-.8 1.8-1.45 2.1-2.3.3-.75.25-1.7-.1-2.55-.401-.9-1.101-1.6-1.9-1.9-1.25-.5-3.1-.25-4.65-.1l-.65.05c-1.6.2-3.05.5-4.35.95l-.2.05c-.35.1-.65.25-.95.5-.15.15-.3.25-.5.35-.35.95-.8 1.85-1.2 2.7-.25.55-.55 1.1-.75 1.65zm32.23 12.2h-.05l-3.75-.15h-.2c-2.5-.45-4.35-1.75-5.5-3.85-2.15-2.85-2.95-5.85-2.5-9.15.45-3.15 2.75-6.25 4.45-8.3 7.35-9.05 12.5-7.3 14.4-6.1 2.5 1.55 4 4.6 3.6 7.35-.15.8-.85 1.4-1.7 1.35-.8-.05-1.45-.7-1.5-1.5v-.35c-.05-.15 0-.35.05-.5-.05-1.4-.85-2.85-2.15-3.65-3.65-2.3-9.15 4.1-10.2 5.4-.85 1.05-3.4 4.15-3.75 6.75-.35 2.45.25 4.65 1.9 6.9.05.05.1.1.15.2.7 1.25 1.7 2 3.2 2.25l3.35.15 3.6-1.2c2.65-1.4 5.2-3.15 7.5-5.15.65-.6 1.65-.5 2.25.15.55.65.5 1.7-.15 2.25-2.5 2.2-5.3 4.1-8.25 5.65-.05.05-.15.1-.25.1l-4 1.35c-.15.05-.3.05-.5.05zm23.3-21.95-3.05 2.5c-1.05 1.15-2.05 3.5-2.45 5.15-.3 1.2-.45 2-.1 2.7.05.05.05.15.1.2.05.3.2.7 1.45.5h.15l4.5-.15c1.9-.2 3.75-.8 5.65-1.45 1.6-.5 3.2-1.05 4.95-1.4.2 0 .5-.05.75-.1l.5-.05c.75-1.8 1.5-3.6 2.2-5.4.75-1.95 1.65-4.1 2.45-6.35-.25-.1-.45-.15-.65-.25-.45-.2-1.1-.45-1.35-.45l-3.1.15c-1.9.1-3.75.5-5.5 1.25-.05 0-.15 0-.2.05-2.25.6-4.4 1.65-6.3 3.1zm-17.95 18.7c.55-.65 1.55-.75 2.25-.15l.15.1c2.9-1.05 5.75-2.3 8.55-3.7.05 0 .1-.05.15-.05l1.65-.65c-2.2-.25-3-1.75-3.3-2.6-.85-1.75-.4-3.5-.1-4.75.55-2.15 1.75-5 3.3-6.65l.15-.15 3.15-2.6c0-.05 0-.05.05-.05 2.2-1.65 4.7-2.85 7.3-3.6 2.05-.85 4.25-1.35 6.5-1.45l3.15-.15c1-.05 1.9.35 2.75.7.2.1.45.25.7.3.4-.2.85-.3 1.3-.15.8.25 1.3 1.1 1.1 1.9l-.1.4-.15.45c-.9 2.5-1.85 4.95-3 7.85-1.7 4.3-3.5 8.65-5.35 12.9 0 .05-.05.1-.05.1-.45.85-.8 1.75-1.15 2.65l-.45 1.75v.1c-.05.4-.2 1.45-1.2 1.9-.25.05-.45.1-.7.1-.2 0-.45-.05-.7-.15-.4-.2-.7-.6-.85-1.05-.1-.6-.15-1.2-.05-1.8.05-.45.35-.85.7-1.1.1-.25.15-.5.2-.75.4-1.1.85-2.1 1.35-3.05.5-1.15.95-2.3 1.45-3.4-3.35 1.1-6.7 2.3-10 3.5l-6.45 2.45c-3.15 1.6-6.4 3-9.75 4.15-.5.15-1.1.05-1.55-.3l-.85-.7c-.65-.6-.75-1.6-.15-2.3zm70.47-20.75c-.05.1-.1.2-.15.25l-.1.2c-.5.9-.9 1.75-1.3 2.6-1 2.2-2 4.45-2.9 6.65.05-.05.15-.1.25-.1.7-.15 1.35-.3 1.9-.5l.65-.3c.5-.25 1.1-.55 1.799-.7 1.301-.3 2.801-.3 4.151-.3h.75c.45-.05.85 0 1.3 0 1.2-.45 2.35-.9 3.4-1.55 1-.6 1.8-1.4 2.05-2.1s.1-2.3.05-2.85c-.1-1-.55-1.8-1.3-2.4-.5-.35-1.2-.3-2.3-.2-.15 0-.35.05-.55.05-2.1.15-4.5.35-6.45.95-.2.05-.45.1-.7.15zm-12.05 20.15c-.05-.3 0-.6.1-.85.1-.35.25-.7.35-1l.05-.15c0-.05.05-.15.1-.2.05-.15.1-.25.2-.35.549-1.65 1.25-3.25 1.95-4.8.2-.5.45-1 .65-1.5.4-.85.75-1.7 1.1-2.55 1-2.3 2-4.7 3.1-7.05.4-.9.85-1.8 1.35-2.75 0-.05.05-.05.05-.05 0-.45.15-.9.55-1.25l.2-.15c.25-.25.6-.4.95-.4.35-.15.8-.25 1.15-.35.2-.05.4-.1.5-.1 2.3-.7 4.9-.95 7.2-1.1l.5-.05c1.3-.1 2.95-.25 4.45.85s2.4 2.75 2.6 4.6c.149 1.5.2 3.05-.2 4.25-.6 1.6-1.9 2.75-2.9 3.45 1.2.45 2.3 1.25 2.95 2.85.85 2 .5 4.45-.9 6.65-2.65 4-7.35 6.35-12.15 6.35-1.45 0-2.85-.2-4.25-.65-1.5-.45-3.1-1.05-4.6-1.75-.6-.3-.9-.3-.95-.3-.65.35-1.35.2-1.85-.3-.2.1-.45.15-.7.15-.85-.05-1.5-.7-1.55-1.5zm3.9-1.75c0 .05.05.05.05.1l.15.1c.7 0 1.45.2 2.3.6 1.4.6 2.8 1.15 4.2 1.6 4.7 1.45 10.2-.45 12.75-4.4.65-1 1.15-2.45.65-3.65-.45-1.15-1.3-1.35-3.5-1.6h-.25l-1.4-.15c-1.3.45-2.6.8-3.9 1.15l-.15.05c-1.15.25-2.35.6-3.7.55h-.1c-.9 0-1.85-.05-2.75 0-.7.05-1.3-.35-1.55-1-.1.3-.25.55-.35.8-.2.5-.45 1.05-.7 1.55-.6 1.4-1.25 2.85-1.75 4.3zm63.615 4.55c-.95 0-1.85-.25-2.75-.85-.1-.05-.15-.1-.25-.2l-2.75-2.8c-.65-.7-1.4-1.25-2.2-1.7 0 0-.05 0-.05-.05-.5-.3-1-.45-1.5-.55-1.5 1.05-2.95 2.15-4.3 3.25-.15.15-.35.25-.6.45-.1.05-.25.15-.4.3-.25.9-.85 1.55-1.7 1.85-.5.2-1.05.15-1.45-.15-.45-.25-.7-.75-.75-1.25-.05-1.1.65-1.95 1.45-2.6.65-1 1.3-1.95 2.05-2.85 0-.05.05-.1.1-.15 1.35-1.35 2.95-2.05 4.65-2.1.45-.3.9-.6 1.3-.9 1.05-.65 2.1-1.25 3.1-1.85 2-1.15 4-2.3 5.6-3.75 1.4-1.3 2.3-3.55 2.3-5.85 0-.15.05-.25.05-.35.1-.45.05-.8-.2-1.15l-1.65-.6c-1.75-.45-5.05-.2-6.5.85-1.05.75-2.1 1.8-2.85 2.85-.55.75-.5 1-.5 1 .25.85-.2 1.75-1.05 2s-1.75-.25-2-1.05c-.55-1.75.6-3.3.95-3.85.95-1.3 2.25-2.6 3.6-3.55 2.35-1.65 6.65-2.05 9.25-1.3h.1l2.1.75c.2.1.45.2.6.4 1.15 1.15 1.6 2.6 1.3 4.2-.05 3.15-1.35 6.15-3.35 8-1.85 1.7-4 2.95-6.1 4.15-.65.4-1.3.75-1.9 1.1 1.05.6 2.05 1.35 2.85 2.25l2.6 2.65c1.55.85 4.4-1.1 6.3-2.35.55-.4 1.05-.7 1.45-.95.75-.45 1.75-.2 2.2.55s.2 1.75-.55 2.2c-.4.2-.85.5-1.3.85-1.95 1.3-4.65 3.1-7.25 3.1zm39.99-14.3-.3.7h.2c1.1.1 2.1.2 3.15.15h.05c2.5-.1 6.25-.25 8.45-1.4 2.3-1.2 4.15-3 5.35-5.15.05-.1.1-.2.2-.3.45-.55.55-1.1.25-1.8s-.8-1.15-1.5-1.45l-.15-.1c-1.55-.9-3.4-1.15-5.35-1.45h-.25c-2.35-.35-4.2-.3-5.75.1-.05.05-.05.1-.1.2.15 1.55-2.55 7.9-4.15 10.4-.05 0-.05.05-.1.1zm-10.05 12.85c1.4-1.7 2.45-3.6 3.15-5.75 0-.05.05-.1.1-.2l1.85-3.95c-.1-.2-.2-.5-.2-.75-.05-.85.55-1.55 1.35-1.65l.95-1.9.15-.3c.8-1.35 3.2-6.15 3.7-8.05 0-.05-.05-.1-.05-.15 0-1.05.45-3.35 2.2-3.85 2.1-.6 4.45-.7 7.4-.3l.25.05c2.15.3 4.35.6 6.4 1.8 1.4.6 2.45 1.65 3.1 3.1.75 1.85.5 3.55-.65 5-1.5 2.7-3.8 4.9-6.65 6.35-2.8 1.45-6.8 1.6-9.75 1.75h-.1c-1.25.05-2.4-.05-3.55-.15-.45-.05-.9-.1-1.35-.1l-2.15 4.4c-.8 2.5-2.05 4.75-3.7 6.7-.3.35-.75.55-1.2.55-.35 0-.75-.1-1.05-.35-.65-.6-.75-1.6-.2-2.25zm30.245.45c-.3 0-.65-.1-.9-.3-.75-.45-.951-1.45-.45-2.2l.35-.7c.2-.35.4-.8.7-1.25.35-.45.75-.9 1.1-1.3l.6-.6c.3-.35.6-.7.95-1.05 1-1.15 2.1-2.2 3.15-3.25l4.65-.15c-.7.7-1.45 1.5-2.2 2.2l-1.1 1.1c-1.5.05-3 .1-4.5.1-.3 0-.55 0-.801 0h-.899c-.85 0-1.55-.7-1.55-1.6s.7-1.6 1.6-1.6h.15.05c1.5 0 3.05 0 4.6-.05.05-.05.15-.15.2-.2l2.25-2.3c3.45-3.55 7.5-7.6 12.55-10.45 1.6-.85 2.9-1.3 4.3-1.45.95-.1 1.8-.05 2.55.05.25.05.5.05.75.1.35-.2.75-.25 1.15-.1.8.2 1.3 1 1.15 1.8l-.05.2c-.05.25-.15.45-.25.65-.85 2.05-1.6 4.2-2.35 6.25-.5 1.5-1.1 3.1-1.7 4.65-.05.25-.15.45-.251.7-.299.85-.649 1.7-.949 2.5-1.15 0-2.3.05-3.45.1.4-1.1.85-2.15 1.25-3.25 1.1-.05 2.2-.05 3.3-.05h.1c1.55.05 2.95.25 4.25.45 1.25.2 2.45.4 3.65.4.9 0 1.6.75 1.55 1.65 0 .85-.7 1.6-1.6 1.55-1.45 0-2.8-.25-4.1-.45s-2.55-.4-3.8-.4c-.4 0-.75 0-1.15 0l-1.95 5.25-.1.2c-.25.65-.5 1.4-1.05 2.05-.4.55-1.15.75-1.8.5-.65-.2-1.05-.85-1.05-1.55l.05-.35c0-.5.25-.95.65-1.2.05-.2.15-.4.2-.55l.1-.25c.45-1.25.95-2.6 1.5-4-2.5.05-4.95.2-7.4.35-2.35.1-4.75.25-7.15.3-1.05 1.05-2.1 2.15-3.05 3.25-.2.25-.4.45-.65.7l-.85 1c-.15.2-.3.45-.4.75-.15.35-.351.7-.6 1.05-.3.5-.8.75-1.3.75zm10.15-10.8c1.25-.1 2.5-.15 3.7-.2 2.9-.2 5.85-.35 8.8-.4l.2-.5c.649-1.75 1.3-3.5 1.9-5.25.55-1.55 1.1-3.15 1.7-4.7-.45-.05-.85-.1-1.3-.05-.95.1-1.85.45-3.05 1.1-4.7 2.65-8.4 6.35-11.85 9.9zm37.953 13c-2.05 0-4.1-.65-6.3-1.9-2.3-1.3-3.95-3-5.75-5.2l-.4-.45c-.75-.9-1.55-1.85-2.15-3-.4-.75-.1-1.75.7-2.15s1.75-.1 2.15.7c.45.8 1.05 1.6 1.75 2.4l.4.45c1.6 1.95 3 3.4 4.9 4.5 2.25 1.25 4.25 1.7 6.15 1.3 1.85-.4 4-1.9 5.8-4 .65-.8 2.05-2.8 1.1-4.85-.55-1.15-2.1-2.25-3.4-2.85-.05 0-.1-.05-.15-.05l-.4.15c-1.9.8-3.85 1.4-5.65 1.75-.7.1-1.35.15-1.95.1s-1.1-.4-1.35-.9c-.25-.55-.2-1.15.15-1.6.7-1.05 1.95-1.6 2.85-2l.3-.15c1.85-.85 3.8-1.15 5.65-.8 1.05-.65 2-1.6 2.4-2.8.55-1.55.55-2.7.1-3.55-.7-1.15-1.9-1-4.5-.2l-.25.05c-1.5.45-3.1 1.05-4.15 2.1l-.05.05-.55.55c0 .7-.45 1.3-1.15 1.5-.85.25-1.7-.2-2-1.05-.45-1.5.9-2.75 1.45-3.3 1.6-1.6 3.6-2.35 5.55-2.9l.2-.1c2.3-.7 6.2-1.85 8.2 1.75.95 1.65 1 3.7.2 6.15-.4 1.15-1.1 2.25-2.05 3.15 1.35.9 2.7 2.1 3.4 3.55 1.25 2.6.7 5.7-1.5 8.3-1.1 1.25-3.95 4.3-7.6 5.05-.7.15-1.4.25-2.1.25zm34.102-.4c-.15 0-.35-.05-.55-.1-.8-.35-1.25-1.25-.95-2.1 1.4-3.75 3.2-8.7 4.65-13.7.65-1.9 1.15-3.8 1.5-5.7l-.5.35c-.15.1-.3.2-.45.3l-3 1.75c-1.8.95-3.45 2.15-5 3.45-4.3 3.4-8.35 7.1-11.9 10.4-1.15 1.05-2.25 2-3.5 2.9l-.1.1c-.55.45-1.35 1.2-2.4 1-.45-.05-.8-.3-1.05-.7-.25-.35-.35-.8-.25-1.25.55-2.1 1.2-4.15 1.8-6.15.25-.65.45-1.35.65-2 .45-1.5.85-3.05 1.25-4.55.2-.8.4-1.6.65-2.4.3-1.15.65-2.35 1-3.5.55-1.65 1.1-3.4 1.45-5.05.2-.85 1.05-1.4 1.9-1.2.85.15 1.4 1.05 1.2 1.9-.4 1.8-.95 3.6-1.5 5.3-.3 1.1-.7 2.25-1 3.4l-.6 2.35c-.4 1.55-.8 3.15-1.3 4.7-.2.65-.4 1.35-.65 2-.15.5-.3.95-.4 1.4.2-.2.45-.4.7-.6 3.6-3.35 7.7-7.1 12-10.5 1.65-1.45 3.5-2.7 5.5-3.8.95-.55 1.9-1.15 2.9-1.7l.3-.2c.45-.3 1-.7 1.75-.85.1-.05.2-.05.3-.05.2-.2.45-.6.6-.8.1-.15.25-.3.3-.4.35-.4.85-.65 1.35-.6.55.05 1 .3 1.3.75.6 1.05.65 2.2.1 3.35-.4 2.55-1 5.1-1.8 7.55-1.5 5.05-3.3 10.1-4.75 13.9-.2.65-.85 1.05-1.5 1.05z" fill="#ff6b00"/><g stroke="#1a1a1a" stroke-linecap="round" stroke-width="3"><path d="m2 18.3499c75.8507-37.3499 111.2 2.0584 113.367 4.2247 5.2 5.2 10.253 11.2956 13.561 17.9131 4.938 9.875 5.028 23.0281 5.028 33.7983 0 12.1873 1.491 25.5012-.845 37.516-3.46 17.793-13.545 37.74-30.334 46.135-4.0921 2.046-12.8419 5.409-16.7302 1.521-4.5248-4.525-7.4235-13.183-8.1961-19.434-1.2785-10.345-1.6058-20.683 2.5771-30.503 8.1029-19.0245 23.2182-35.1254 36.7552-50.4443 17.016-19.2548 42.473-35.3904 68.442-38.4455 8.508-1.0009 16.594-2.2813 25.137-2.2813 3.971 0-3.151-3.369-3.802-4.1826-1.449-1.8106-4.737-2.1598-6.379-3.8023-.45-.44909 2.167-.43896 2.577-.2112 1.377.7652 2.616 3.208 3.802 4.3938 1.642 1.6416 3.741 2.2044 5.154 3.9713.977 1.2213-10.229 8.3666-11.998 8.9565"/><path d="m185.566 129.712c2.913 2.912 8.151 6.333 9.969 9.969"/><path d="m196.959 129c-2.877.32-7.841 4.96-9.257 7.437-1.254 2.196-4.565 4.249-6.408 6.092"/><path d="m179.158 135.408c7.631 0 14.465-.712 22.074-.712"/><path d="m-81.7339 2.642c1.5056-1.41861 3.64-1.935131 5.4579-2.817442 1.4808-.818531 2.9808-1.612068 4.4779-2.383428 2.8415-1.37369 5.7319-2.6058 8.6774-3.70918 4.7677-1.88156 9.6209-3.45473 14.4539-5.14765 3.7009-1.3013 7.9616-2.7857 10.8444-5.5363-.0013.7293 8.2617 3.6699 6.4605 2.9515 2.9207 1.1761 5.8382 2.3429 8.7556 3.5096 6.0634 2.44443 12.1573 4.79384 18.31587 6.99416-1.57234 1.37832-1.45284 2.45651-3.32659 3.4215257-4.16188 2.1367443-8.34398 4.1538443-12.40248 6.4977743-4.3941 2.53397-8.966 4.70694-13.5894 6.79204-5.1792 2.3408-10.4878 4.3989-15.654 6.7775-1.9408.8931-3.7667 1.9049-5.5817 3.0397-1.5894.9934-3.0975 2.191-4.7575 3.0716-2.4572 1.2936-5.1438 1.2828-7.7692 1.9375-.373-1.4448-2.7994-3.2989-3.873-4.7231-2.112-2.8079-4.2178-5.6284-6.2736-8.4874-1.4174-1.9602-2.6226-4.1312-4.1684-6.0047-1.0726-1.32956 1.0655-4.88932-.0476-6.1837z" stroke-linejoin="round" stroke-miterlimit="10"/></g></g></svg>