<svg width="61" height="33" viewBox="0 0 61 33" fill="none" xmlns="http://www.w3.org/2000/svg">
<path d="M29.5922 18.2305C28.6148 15.9115 28.5239 13.2995 29.9332 10.2943C32.3757 5.08609 38.6946 1.4112 44.3407 1.02392C46.7907 0.855868 49.1051 1.58315 51.1653 2.89428C51.7937 3.13425 52.4133 3.40693 53.0206 3.71056C57.0199 5.71021 59.0156 10.299 59.4021 14.7771C59.8466 16.4563 60.0553 18.1269 59.9881 19.6828C59.809 23.8272 56.4661 27.9138 52.9025 29.7207C46.8632 32.7829 35.0859 33.4925 31.4094 26.296C30.1339 23.7993 29.5515 21.013 29.5922 18.2305Z" fill="white"/>
<path d="M40.8569 29.1893C34.6611 24.5947 25.7788 19.153 29.9332 10.2943C32.3757 5.08609 38.6946 1.4112 44.3407 1.02392C53.2326 0.414009 60.3375 11.5971 59.9881 19.6828C59.809 23.8272 56.4661 27.9138 52.9025 29.7207C46.8632 32.7829 35.0859 33.4925 31.4094 26.296C28.0423 19.7051 29.5056 11.097 34.5094 5.86577C39.4165 0.735551 46.8566 0.628582 53.0206 3.71056C58.1083 6.25442 59.9535 12.9885 59.3681 18.3542C58.6527 24.9124 52.8 28.532 46.673 29.4255C39.0023 30.5442 32.9373 26.7738 31.2913 19.0923" stroke="#292927" stroke-width="2" stroke-linecap="round"/>
<path d="M2.15614 13.9551C1.84495 11.8875 2.083 9.40934 3.18474 7.81429C6.51918 2.98681 12.8971 3.18875 17.1819 6.18138C18.1207 6.68481 18.95 7.34476 19.5998 8.16857C22.2364 11.5114 23.7018 17.2179 20.3084 20.5684C18.6722 22.1839 16.6415 23.0003 14.4884 23.3363C13.3076 23.7249 12.0568 23.8839 10.8018 23.757C7.3531 23.4082 2.67249 21.6567 2.18094 17.6751C2.15877 17.4956 2.13955 17.3138 2.12338 17.1301C2.03346 16.109 2.03796 15.03 2.15614 13.9551Z" fill="white"/>
<path d="M13.2227 20.1551C9.24865 19.9326 3.92134 19.9968 2.47617 15.3723C1.78025 13.1453 1.81502 9.79731 3.18474 7.81429C8.65563 -0.106256 22.3194 5.51221 21.4893 14.7818C21.0227 19.9921 15.947 24.2773 10.8018 23.757C7.3531 23.4082 2.67249 21.6567 2.18094 17.6751C1.66428 13.4902 2.74568 8.09286 6.84565 6.04288C10.7026 4.11442 16.8084 4.62943 19.5998 8.16857C22.2364 11.5114 23.7018 17.2179 20.3084 20.5684C17.5799 23.2623 13.7543 23.7344 10.0932 23.4617C4.05586 23.0121 3.47088 19.6179 1 14.8409" stroke="#292927" stroke-width="2" stroke-linecap="round"/>
<path d="M44.4012 19.8C44.1412 19.8 43.9012 19.62 43.8012 19.36C43.7412 19.22 43.7412 19.08 43.7412 18.94C43.8812 18.92 44.0012 18.92 44.1412 18.92C44.4412 18.92 44.7412 18.9 45.0612 18.9C45.0412 18.94 45.0212 18.98 45.0212 19C45.1012 19.32 44.9412 19.64 44.6212 19.76C44.5612 19.78 44.4812 19.8 44.4012 19.8ZM38.2212 19.46C38.3412 19.12 38.7012 18.96 39.0412 19.08C39.3412 19.18 39.6812 19.2 40.0212 19.12C40.0612 19.1 40.1012 19.1 40.1212 19.1C41.3212 19.02 42.5412 18.98 43.7412 18.94C43.7812 18.42 44.1412 17.96 44.4012 17.6C44.4812 17.52 44.5212 17.44 44.5612 17.38C45.8012 15.48 46.9812 13.56 48.2812 11.46C48.0812 11.58 47.9012 11.7 47.7212 11.8C46.3012 12.72 44.9412 13.68 43.5812 14.76L42.0612 15.98C41.8012 16.26 41.4812 16.48 41.1412 16.6C40.8012 16.74 40.4412 16.56 40.3212 16.22C40.2012 15.9 40.3612 15.52 40.7012 15.4C40.8612 15.34 41.0012 15.24 41.1212 15.1C41.1412 15.06 41.1812 15.04 41.2012 15L42.8012 13.76C44.1812 12.66 45.5612 11.66 47.0412 10.74C47.7412 10.28 48.4612 9.82 49.1412 9.3C49.1612 9.28 49.2012 9.22 49.2612 9.18C49.6212 8.82 49.9012 8.58 50.2212 8.56C50.4412 8.52 50.6412 8.6 50.7812 8.74C50.9812 8.9 51.0612 9.18 50.9812 9.42C50.9612 9.5 50.9212 9.56 50.8812 9.62C50.7412 9.84 49.8012 11.38 49.6012 11.72C49.6012 11.74 49.6012 11.74 49.5812 11.76C48.2012 14.02 46.9412 16.06 45.6412 18.08C45.5812 18.16 45.5212 18.26 45.4212 18.38C45.3412 18.5 45.1612 18.72 45.0612 18.9C46.2412 18.88 47.5012 18.86 48.8612 18.86C49.2212 18.86 49.5012 19.14 49.5012 19.5C49.5012 19.86 49.2212 20.14 48.8612 20.14C47.1412 20.14 45.6212 20.16 44.1812 20.2C42.8812 20.24 41.5612 20.28 40.2612 20.36C40.0412 20.42 39.8012 20.44 39.5812 20.44C39.2412 20.44 38.9212 20.38 38.6012 20.28C38.2812 20.16 38.1012 19.8 38.2212 19.46Z" fill="#1A1A1A"/>
<path d="M43.8012 19.36L44.2678 19.1805L44.2645 19.1717L44.2607 19.163L43.8012 19.36ZM43.7412 18.94L43.6705 18.445L43.2412 18.5064V18.94H43.7412ZM45.0612 18.9L45.5084 19.1236L45.8702 18.4H45.0612V18.9ZM45.0212 19H44.5212V19.0616L44.5361 19.1213L45.0212 19ZM44.6212 19.76L44.7793 20.2343L44.7881 20.2314L44.7967 20.2282L44.6212 19.76ZM38.2212 19.46L38.6927 19.6264L38.2212 19.46ZM39.0412 19.08L38.8747 19.5516L38.8831 19.5543L39.0412 19.08ZM40.0212 19.12L40.1357 19.6067L40.1925 19.5933L40.2448 19.5672L40.0212 19.12ZM40.1212 19.1V19.6H40.1378L40.1544 19.5989L40.1212 19.1ZM43.7412 18.94L43.7578 19.4397L44.2054 19.4248L44.2397 18.9783L43.7412 18.94ZM44.4012 17.6L44.0476 17.2464L44.0193 17.2748L43.9958 17.3073L44.4012 17.6ZM44.5612 17.38L44.9772 17.6574L44.9799 17.6533L44.5612 17.38ZM48.2812 11.46L48.7063 11.7232L48.0239 11.0313L48.2812 11.46ZM47.7212 11.8L47.4784 11.3629L47.4635 11.3712L47.4493 11.3804L47.7212 11.8ZM43.5812 14.76L43.2702 14.3684L43.2682 14.3701L43.5812 14.76ZM42.0612 15.98L41.7482 15.5901L41.7197 15.613L41.6948 15.6398L42.0612 15.98ZM41.1412 16.6L40.9748 16.1285L40.9627 16.1328L40.9508 16.1377L41.1412 16.6ZM40.3212 16.22L40.7928 16.0536L40.7893 16.0444L40.3212 16.22ZM40.7012 15.4L40.8676 15.8716L40.8767 15.8682L40.7012 15.4ZM41.1212 15.1L41.5008 15.4254L41.5409 15.3787L41.5684 15.3236L41.1212 15.1ZM41.2012 15L40.8949 14.6048L40.8049 14.6745L40.754 14.7764L41.2012 15ZM42.8012 13.76L43.1075 14.1552L43.1128 14.151L42.8012 13.76ZM47.0412 10.74L47.3052 11.1648L47.3158 11.1579L47.0412 10.74ZM49.1412 9.3L49.4449 9.69718L49.4713 9.67702L49.4947 9.65355L49.1412 9.3ZM49.2612 9.18L49.5385 9.59603L49.5797 9.56856L49.6147 9.53355L49.2612 9.18ZM50.2212 8.56L50.2524 9.05903L50.2817 9.05719L50.3106 9.05193L50.2212 8.56ZM50.7812 8.74L50.4276 9.09355L50.4472 9.11313L50.4688 9.13043L50.7812 8.74ZM50.9812 9.42L50.5068 9.26189L50.5008 9.2801L50.4961 9.29873L50.9812 9.42ZM50.8812 9.62L50.4651 9.34258L50.4593 9.35156L50.8812 9.62ZM49.6012 11.72L49.1702 11.4665L49.1012 11.5838V11.72H49.6012ZM49.5812 11.76L49.2276 11.4064L49.1855 11.4486L49.1544 11.4994L49.5812 11.76ZM45.6412 18.08L46.0412 18.38L46.0519 18.3657L46.0616 18.3506L45.6412 18.08ZM45.4212 18.38L45.0371 18.0599L45.02 18.0804L45.0051 18.1026L45.4212 18.38ZM45.0612 18.9L44.6241 18.6572L44.2033 19.4146L45.0696 19.3999L45.0612 18.9ZM44.1812 20.2L44.1673 19.7002L44.1658 19.7002L44.1812 20.2ZM40.2612 20.36L40.2305 19.8609L40.1792 19.8641L40.1296 19.8776L40.2612 20.36ZM38.6012 20.28L38.4256 20.7482L38.4387 20.7531L38.452 20.7572L38.6012 20.28ZM44.4012 19.3C44.3881 19.3 44.3655 19.2955 44.3381 19.2752C44.3103 19.2547 44.2839 19.2223 44.2678 19.1805L43.3345 19.5395C43.4986 19.9663 43.9075 20.3 44.4012 20.3V19.3ZM44.2607 19.163C44.2551 19.15 44.2495 19.131 44.2458 19.0967C44.2416 19.0577 44.2412 19.0144 44.2412 18.94H43.2412C43.2412 19.0675 43.2353 19.3089 43.3416 19.557L44.2607 19.163ZM43.8119 19.435C43.9119 19.4207 43.9981 19.42 44.1412 19.42V18.42C44.0042 18.42 43.8505 18.4193 43.6705 18.445L43.8119 19.435ZM44.1412 19.42C44.3008 19.42 44.4592 19.4147 44.6101 19.4097C44.7634 19.4047 44.9106 19.4 45.0612 19.4V18.4C44.8918 18.4 44.7289 18.4053 44.5773 18.4103C44.4231 18.4153 44.2815 18.42 44.1412 18.42V19.42ZM44.614 18.6764C44.6058 18.6926 44.5886 18.7268 44.5741 18.7605C44.5666 18.778 44.5558 18.8046 44.5463 18.836C44.5386 18.8612 44.5212 18.9224 44.5212 19H45.5212C45.5212 19.0373 45.5167 19.0669 45.5133 19.0849C45.5097 19.1037 45.5057 19.1182 45.5029 19.1271C45.4978 19.1441 45.4932 19.1545 45.4932 19.1545C45.4928 19.1555 45.4935 19.1537 45.4966 19.1475C45.4996 19.1412 45.5031 19.1342 45.5084 19.1236L44.614 18.6764ZM44.5361 19.1213C44.5471 19.1653 44.5401 19.2002 44.5273 19.2248C44.515 19.2486 44.4913 19.2747 44.4456 19.2918L44.7967 20.2282C45.359 20.0173 45.6468 19.4408 45.5062 18.8787L44.5361 19.1213ZM44.4631 19.2857C44.4483 19.2906 44.4336 19.2946 44.4206 19.2972C44.4071 19.2999 44.4007 19.3 44.4012 19.3V20.3C44.5568 20.3 44.6943 20.2627 44.7793 20.2343L44.4631 19.2857ZM38.6927 19.6264C38.707 19.5857 38.731 19.5639 38.7567 19.5522C38.7839 19.5397 38.8245 19.5337 38.8748 19.5515L39.2076 18.6085C38.6224 18.402 37.9668 18.6783 37.7497 19.2936L38.6927 19.6264ZM38.8831 19.5543C39.271 19.6836 39.7054 19.708 40.1357 19.6067L39.9067 18.6333C39.657 18.692 39.4114 18.6764 39.1993 18.6057L38.8831 19.5543ZM40.2448 19.5672C40.2053 19.587 40.1707 19.5944 40.1494 19.5975C40.1288 19.6004 40.1129 19.6 40.1212 19.6V18.6C40.0968 18.6 39.9515 18.5958 39.7976 18.6728L40.2448 19.5672ZM40.1544 19.5989C41.3446 19.5195 42.5561 19.4798 43.7578 19.4397L43.7245 18.4403C42.5262 18.4802 41.2977 18.5205 40.0879 18.6011L40.1544 19.5989ZM44.2397 18.9783C44.2519 18.8198 44.3152 18.6479 44.4237 18.4565C44.534 18.2619 44.6674 18.0853 44.8065 17.8927L43.9958 17.3073C43.8749 17.4747 43.6984 17.7081 43.5537 17.9635C43.4071 18.2221 43.2704 18.5402 43.2426 18.9017L44.2397 18.9783ZM44.7547 17.9536C44.8814 17.8269 44.9738 17.6624 44.9772 17.6573L44.1451 17.1026C44.1293 17.1264 44.1143 17.1509 44.1052 17.1655C44.0946 17.1828 44.0874 17.1943 44.0801 17.2051C44.0671 17.2248 44.0574 17.2366 44.0476 17.2464L44.7547 17.9536ZM44.9799 17.6533C46.224 15.747 47.4078 13.8208 48.7063 11.7232L47.856 11.1968C46.5546 13.2992 45.3784 15.213 44.1425 17.1067L44.9799 17.6533ZM48.0239 11.0313C47.7921 11.1703 47.653 11.2659 47.4784 11.3629L47.964 12.2371C48.1494 12.1341 48.3702 11.9897 48.5384 11.8887L48.0239 11.0313ZM47.4493 11.3804C46.018 12.3077 44.6447 13.277 43.2702 14.3684L43.8921 15.1516C45.2376 14.083 46.5843 13.1323 47.993 12.2196L47.4493 11.3804ZM43.2682 14.3701L41.7482 15.5901L42.3741 16.3699L43.8941 15.1499L43.2682 14.3701ZM41.6948 15.6398C41.4828 15.868 41.2293 16.0387 40.9748 16.1285L41.3076 17.0715C41.733 16.9213 42.1195 16.652 42.4276 16.3202L41.6948 15.6398ZM40.9508 16.1377C40.9137 16.153 40.8856 16.149 40.863 16.1383C40.8381 16.1264 40.8092 16.1004 40.7927 16.0536L39.8497 16.3864C40.0576 16.9754 40.7068 17.3196 41.3315 17.0623L40.9508 16.1377ZM40.7893 16.0444C40.7781 16.0144 40.7784 15.9762 40.7946 15.9402C40.8099 15.9062 40.835 15.883 40.8676 15.8715L40.5348 14.9285C39.9187 15.1459 39.6393 15.8256 39.853 16.3956L40.7893 16.0444ZM40.8767 15.8682C41.1219 15.7762 41.3304 15.6242 41.5008 15.4254L40.7415 14.7746C40.672 14.8558 40.6005 14.9038 40.5256 14.9318L40.8767 15.8682ZM41.5684 15.3236C41.5508 15.3588 41.5319 15.3832 41.521 15.3961C41.5122 15.4065 41.5048 15.4135 41.5147 15.4036C41.5198 15.3985 41.5422 15.3765 41.5647 15.3498C41.5894 15.3207 41.6208 15.2788 41.6484 15.2236L40.754 14.7764C40.7715 14.7412 40.7905 14.7168 40.8014 14.7039C40.8101 14.6935 40.8175 14.6865 40.8076 14.6964C40.8025 14.7015 40.7801 14.7235 40.7576 14.7502C40.733 14.7793 40.7015 14.8212 40.674 14.8764L41.5684 15.3236ZM41.5075 15.3952L43.1075 14.1552L42.4949 13.3648L40.8949 14.6048L41.5075 15.3952ZM43.1128 14.151C44.4811 13.0603 45.8451 12.0722 47.3051 11.1646L46.7772 10.3154C45.2773 11.2478 43.8812 12.2597 42.4895 13.369L43.1128 14.151ZM47.3158 11.1579C48.0076 10.7032 48.7469 10.2309 49.4449 9.69718L48.8374 8.90282C48.1754 9.4091 47.4747 9.85681 46.7666 10.3221L47.3158 11.1579ZM49.4947 9.65355C49.5103 9.63799 49.5225 9.62393 49.5287 9.61681C49.5354 9.60903 49.5417 9.60134 49.5451 9.59722C49.5537 9.58681 49.5568 9.58317 49.5599 9.57968C49.5625 9.57677 49.5621 9.57736 49.5594 9.57986C49.5568 9.58232 49.5498 9.58848 49.5385 9.59603L48.9838 8.76397C48.9033 8.81768 48.8457 8.87793 48.8125 8.91532C48.7956 8.93433 48.7811 8.95194 48.7747 8.95966C48.7706 8.96459 48.7701 8.96519 48.7706 8.96468C48.771 8.96415 48.7726 8.96229 48.7751 8.95958C48.7775 8.95696 48.7818 8.9523 48.7876 8.94645L49.4947 9.65355ZM49.6147 9.53355C49.7936 9.35472 49.9262 9.23304 50.0411 9.15336C50.1509 9.0772 50.2138 9.06143 50.2524 9.05903L50.19 8.06097C49.9085 8.07856 49.6714 8.1928 49.4712 8.33164C49.2761 8.46696 49.0888 8.64528 48.9076 8.82645L49.6147 9.53355ZM50.3106 9.05193C50.3344 9.04761 50.353 9.04998 50.3693 9.05558C50.3872 9.06169 50.4077 9.07368 50.4276 9.09355L51.1347 8.38645C50.8934 8.14508 50.5325 7.99519 50.1317 8.06806L50.3106 9.05193ZM50.4688 9.13043C50.5031 9.15787 50.5215 9.21802 50.5068 9.26189L51.4555 9.57811C51.6009 9.14198 51.4592 8.64213 51.0935 8.34956L50.4688 9.13043ZM50.4961 9.29873C50.4983 9.28977 50.501 9.28574 50.4984 9.29045C50.4968 9.29341 50.4939 9.29857 50.4883 9.30736C50.4824 9.31679 50.4757 9.32683 50.4652 9.34264L51.2972 9.89735C51.3335 9.84296 51.4225 9.7163 51.4662 9.54127L50.4961 9.29873ZM50.4593 9.35156C50.3157 9.57733 49.3726 11.1224 49.1702 11.4665L50.0321 11.9735C50.2297 11.6376 51.1667 10.1027 51.303 9.88844L50.4593 9.35156ZM49.1012 11.72C49.1012 11.7343 49.1006 11.7094 49.1033 11.6821C49.1074 11.6411 49.119 11.5813 49.1515 11.5164C49.1797 11.46 49.2121 11.4236 49.2211 11.4136C49.2291 11.4047 49.2364 11.3976 49.2276 11.4064L49.9347 12.1136C49.9359 12.1124 49.9507 12.0978 49.9644 12.0826C49.979 12.0664 50.0152 12.025 50.0459 11.9636C50.0808 11.8937 50.0937 11.8289 50.0984 11.7816C50.1004 11.7614 50.1009 11.7449 50.101 11.7366C50.1012 11.7287 50.1012 11.7211 50.1012 11.72H49.1012ZM49.1544 11.4994C47.7751 13.7584 46.5175 15.7944 45.2207 17.8094L46.0616 18.3506C47.3649 16.3256 48.6273 14.2816 50.0079 12.0206L49.1544 11.4994ZM45.2412 17.78C45.1363 17.9198 45.1351 17.9423 45.0371 18.0599L45.8053 18.7001C45.9073 18.5777 46.026 18.4002 46.0412 18.38L45.2412 17.78ZM45.0051 18.1026C44.9728 18.1511 44.9242 18.2139 44.8448 18.3228C44.7763 18.4166 44.6903 18.538 44.6241 18.6572L45.4983 19.1428C45.532 19.082 45.586 19.0034 45.6526 18.9122C45.7081 18.8361 45.7895 18.7289 45.8372 18.6574L45.0051 18.1026ZM45.0696 19.3999C46.2495 19.3799 47.5058 19.36 48.8612 19.36V18.36C47.4965 18.36 46.2328 18.3801 45.0527 18.4001L45.0696 19.3999ZM48.8612 19.36C48.9083 19.36 48.9412 19.3771 48.9626 19.3986C48.984 19.42 49.0012 19.4529 49.0012 19.5H50.0012C50.0012 18.8639 49.4973 18.36 48.8612 18.36V19.36ZM49.0012 19.5C49.0012 19.5471 48.984 19.58 48.9626 19.6014C48.9412 19.6229 48.9083 19.64 48.8612 19.64V20.64C49.4973 20.64 50.0012 20.1361 50.0012 19.5H49.0012ZM48.8612 19.64C47.1372 19.64 45.6125 19.66 44.1673 19.7002L44.1951 20.6998C45.6298 20.66 47.1451 20.64 48.8612 20.64V19.64ZM44.1658 19.7002C42.8674 19.7402 41.5395 19.7804 40.2305 19.8609L40.2919 20.8591C41.5829 20.7796 42.895 20.7398 44.1965 20.6998L44.1658 19.7002ZM40.1296 19.8776C39.9671 19.9219 39.775 19.94 39.5812 19.94V20.94C39.8273 20.94 40.1152 20.9181 40.3927 20.8424L40.1296 19.8776ZM39.5812 19.94C39.3021 19.94 39.033 19.8911 38.7503 19.8028L38.452 20.7572C38.8093 20.8689 39.1802 20.94 39.5812 20.94V19.94ZM38.7767 19.8118C38.7058 19.7852 38.6654 19.7037 38.6927 19.6264L37.7497 19.2936C37.5369 19.8963 37.8565 20.5348 38.4256 20.7482L38.7767 19.8118Z" fill="black"/>
<path d="M9.50239 12.1855C10.6611 12.2177 17.2398 12.8061 12.6909 12.7169C11.573 12.695 10.5846 12.2492 9.50239 12.1855ZM9.50239 12.1855C8.98042 12.1548 12.7685 12.1855 13.2223 12.1855" stroke="#292927" stroke-width="2" stroke-linecap="round"/>
</svg>
