<svg width="83" height="45" viewBox="0 0 83 45" fill="none" xmlns="http://www.w3.org/2000/svg">
<g id="Group 2622">
<g id="Vector 8694">
<path d="M40.254 24.6554C38.9121 21.4716 38.7872 17.8857 40.7221 13.7599C44.0753 6.6097 52.7504 1.56452 60.5018 1.03284C63.8654 0.802124 67.0428 1.80059 69.8711 3.60061C70.7338 3.93006 71.5845 4.30442 72.4182 4.72127C77.9088 7.46654 80.6486 13.7664 81.1793 19.9143C81.7895 22.2196 82.0761 24.5131 81.9838 26.6492C81.7379 32.339 77.1485 37.9494 72.2561 40.4301C63.9649 44.6341 47.796 45.6083 42.7487 35.7284C40.9975 32.3006 40.1981 28.4754 40.254 24.6554Z" fill="white"/>
<path d="M55.719 39.7005C47.2128 33.3926 35.0185 25.9219 40.7221 13.7599C44.0753 6.6097 52.7504 1.56452 60.5018 1.03284C72.7092 0.195506 82.4635 15.5485 81.9838 26.6492C81.7379 32.339 77.1485 37.9494 72.2561 40.4301C63.9649 44.6341 47.796 45.6083 42.7487 35.7284C38.1261 26.6799 40.135 14.8619 47.0046 7.68011C53.7415 0.636944 63.9559 0.490089 72.4182 4.72127C79.403 8.21367 81.9362 17.4588 81.1326 24.8252C80.1504 33.8288 72.1154 38.7981 63.7038 40.0248C53.1728 41.5605 44.8464 36.3843 42.5865 25.8385" stroke="#292927" stroke-width="2" stroke-linecap="round"/>
</g>
<g id="Vector 8695">
<path d="M2.58724 18.7858C2.16001 15.9473 2.48683 12.545 3.99938 10.3552C8.57716 3.72769 17.3332 4.00493 23.2158 8.11345C24.5046 8.80459 25.6432 9.71063 26.5353 10.8416C30.1549 15.4309 32.1669 23.2652 27.508 27.8651C25.2618 30.0829 22.4739 31.2038 19.5179 31.6651C17.8968 32.1986 16.1796 32.4168 14.4567 32.2426C9.72203 31.7638 3.29613 29.3592 2.62129 23.893C2.59085 23.6465 2.56446 23.3969 2.54226 23.1448C2.41882 21.7429 2.42499 20.2616 2.58724 18.7858Z" fill="white"/>
<path d="M17.7803 27.2977C12.3244 26.9921 5.01064 27.0804 3.02661 20.7315C2.07118 17.6741 2.11892 13.0777 3.99938 10.3552C11.5102 -0.518712 30.269 7.19476 29.1293 19.9208C28.4887 27.0739 21.5204 32.9569 14.4567 32.2426C9.72203 31.7638 3.29613 29.3592 2.62129 23.893C1.91198 18.1476 3.39661 10.7377 9.02537 7.9233C14.3204 5.27576 22.703 5.98281 26.5353 10.8416C30.1549 15.4309 32.1669 23.2652 27.508 27.8651C23.7622 31.5635 18.5101 32.2116 13.4839 31.8373C5.19533 31.22 4.39222 26.5602 1 20.0019" stroke="#292927" stroke-width="2" stroke-linecap="round"/>
</g>
<path id="Vector 8698" d="M12.6731 16.3561C14.2639 16.4003 23.2956 17.2082 17.0506 17.0857C15.5158 17.0556 14.1588 16.4435 12.6731 16.3561ZM12.6731 16.3561C11.9565 16.314 17.157 16.3561 17.7801 16.3561" stroke="#292927" stroke-width="2" stroke-linecap="round"/>
<path id="Vector 8750" d="M51.6626 18.7231C50.6176 18.8538 55.6609 24.0307 56.1726 24.5425C57.2418 25.6117 58.266 26.7068 59.2642 27.8159C59.4981 28.0758 60.2866 29.9734 60.7554 29.4526C61.5119 28.612 61.4308 25.9553 61.9738 24.7607C62.6659 23.238 62.8205 21.4836 63.6287 20.0143C64.4736 18.4782 65.6928 17.1887 66.3929 15.6134C66.8395 14.6086 67.583 13.6722 68.0296 12.6674C68.2964 12.067 69.9959 11.1943 69.3389 11.1943" stroke="#292927" stroke-width="2" stroke-linecap="round"/>
</g>
</svg>
