<svg width="61" height="33" viewBox="0 0 61 33" fill="none" xmlns="http://www.w3.org/2000/svg">
<path d="M29.5922 18.2305C28.6148 15.9115 28.5239 13.2995 29.9332 10.2943C32.3757 5.08609 38.6946 1.4112 44.3407 1.02392C46.7907 0.855868 49.1051 1.58315 51.1653 2.89428C51.7937 3.13425 52.4133 3.40693 53.0206 3.71056C57.0199 5.71021 59.0156 10.299 59.4021 14.7771C59.8466 16.4563 60.0553 18.1269 59.9881 19.6828C59.809 23.8272 56.4661 27.9138 52.9025 29.7207C46.8632 32.7829 35.0859 33.4925 31.4094 26.296C30.1339 23.7993 29.5515 21.013 29.5922 18.2305Z" fill="white"/>
<path d="M40.8569 29.1893C34.6611 24.5947 25.7788 19.153 29.9332 10.2943C32.3757 5.08609 38.6946 1.4112 44.3407 1.02392C53.2326 0.414009 60.3375 11.5971 59.9881 19.6828C59.809 23.8272 56.4661 27.9138 52.9025 29.7207C46.8632 32.7829 35.0859 33.4925 31.4094 26.296C28.0423 19.7051 29.5056 11.097 34.5094 5.86577C39.4165 0.735551 46.8566 0.628582 53.0206 3.71056C58.1083 6.25442 59.9535 12.9885 59.3681 18.3542C58.6527 24.9124 52.8 28.532 46.673 29.4255C39.0023 30.5442 32.9373 26.7738 31.2913 19.0923" stroke="#292927" stroke-width="2" stroke-linecap="round"/>
<path d="M2.15614 13.9551C1.84495 11.8875 2.083 9.40934 3.18474 7.81429C6.51918 2.98681 12.8971 3.18875 17.1819 6.18138C18.1207 6.68481 18.95 7.34476 19.5998 8.16857C22.2364 11.5114 23.7018 17.2179 20.3084 20.5684C18.6722 22.1839 16.6415 23.0003 14.4884 23.3363C13.3076 23.7249 12.0568 23.8839 10.8018 23.757C7.3531 23.4082 2.67249 21.6567 2.18094 17.6751C2.15877 17.4956 2.13955 17.3138 2.12338 17.1301C2.03346 16.109 2.03796 15.03 2.15614 13.9551Z" fill="white"/>
<path d="M13.2227 20.1551C9.24865 19.9326 3.92134 19.9968 2.47617 15.3723C1.78025 13.1453 1.81502 9.79731 3.18474 7.81429C8.65563 -0.106256 22.3194 5.51221 21.4893 14.7818C21.0227 19.9921 15.947 24.2773 10.8018 23.757C7.3531 23.4082 2.67249 21.6567 2.18094 17.6751C1.66428 13.4902 2.74568 8.09286 6.84565 6.04288C10.7026 4.11442 16.8084 4.62943 19.5998 8.16857C22.2364 11.5114 23.7018 17.2179 20.3084 20.5684C17.5799 23.2623 13.7543 23.7344 10.0932 23.4617C4.05586 23.0121 3.47088 19.6179 1 14.8409" stroke="#292927" stroke-width="2" stroke-linecap="round"/>
<path d="M9.50239 12.1855C10.6611 12.2177 17.2398 12.8061 12.6909 12.7169C11.573 12.695 10.5846 12.2492 9.50239 12.1855ZM9.50239 12.1855C8.98042 12.1548 12.7685 12.1855 13.2223 12.1855" stroke="#292927" stroke-width="2" stroke-linecap="round"/>
<path d="M43.2427 20.58C43.2027 20.58 43.1427 20.58 43.1027 20.56L41.6827 20.24C41.5827 20.2 41.4827 20.16 41.4027 20.08L40.4227 19.2C39.8227 18.66 39.4827 18.02 39.4027 17.28C39.1627 16.64 39.3227 16.02 39.8827 15.56C40.1427 15.34 40.5427 15.38 40.7827 15.64C41.0027 15.92 40.9627 16.32 40.7027 16.54C40.5227 16.68 40.5627 16.74 40.6027 16.86C40.6427 16.92 40.6627 16.98 40.6627 17.06C40.7027 17.52 40.9027 17.9 41.2627 18.24L42.1427 19.02L43.2827 19.3L45.0227 19.04C45.7627 18.92 46.3227 18.58 46.7227 18C46.7627 17.94 46.8027 17.9 46.8627 17.86C47.1427 17.62 47.3227 17.34 47.3827 16.98C47.4027 16.9 47.4227 16.84 47.4627 16.76C47.6227 16.52 47.6627 16.28 47.6227 16.02C47.6027 15.98 47.6027 15.96 47.6027 15.92C47.6027 15.4 47.4027 14.96 47.0427 14.68C46.6027 14.32 45.9627 14.2 45.3027 14.32C45.2027 14.34 45.1027 14.36 45.0027 14.4L44.4627 14.72C44.2627 14.84 44.0227 14.96 43.8027 15.08C43.5227 15.24 43.2427 15.38 43.0027 15.54C42.7427 15.72 42.3827 15.68 42.1627 15.44C41.9627 15.2 41.9627 14.84 42.1627 14.6C42.7027 13.98 43.5227 13.5 44.4627 13.22C45.1627 12.76 45.8227 12.26 46.4427 11.72C46.4627 11.72 46.4627 11.7 46.4827 11.7C46.9627 11.32 46.9827 11 46.8227 10.64C46.6827 10.28 46.4627 10.14 46.0627 10.14C45.0627 10.14 43.7627 11.04 43.2627 11.56C43.3227 11.66 43.3427 11.76 43.3427 11.88C43.3427 12.22 43.0627 12.52 42.6827 12.5H42.4627C42.2827 12.5 42.1027 12.4 41.9827 12.24C41.8827 12.12 41.6627 11.76 41.9427 11.22C42.4627 10.24 44.6027 8.76 46.2027 8.86C47.0627 8.9 47.7027 9.36 48.0227 10.16C48.4027 11.14 48.1427 12.04 47.2827 12.7L46.7627 13.12C47.1627 13.24 47.5227 13.42 47.8427 13.68C48.4827 14.2 48.8627 14.96 48.8827 15.84C48.9627 16.36 48.8827 16.86 48.6227 17.32C48.4827 17.92 48.1827 18.4 47.7227 18.8C47.1227 19.62 46.2827 20.14 45.2227 20.32L43.3427 20.58H43.2427Z" fill="#1A1A1A"/>
<path d="M43.1027 20.56L43.3263 20.1128L43.272 20.0856L43.2127 20.0722L43.1027 20.56ZM41.6827 20.24L41.497 20.7042L41.534 20.719L41.5728 20.7278L41.6827 20.24ZM41.4027 20.08L41.7563 19.7264L41.7468 19.7169L41.7368 19.708L41.4027 20.08ZM40.4227 19.2L40.0883 19.5716L40.0887 19.572L40.4227 19.2ZM39.4027 17.28L39.8998 17.2263L39.8931 17.1635L39.8709 17.1044L39.4027 17.28ZM39.8827 15.56L40.2001 15.9464L40.2057 15.9417L39.8827 15.56ZM40.7827 15.64L41.1759 15.3311L41.1636 15.3155L41.1501 15.3009L40.7827 15.64ZM40.7027 16.54L41.0097 16.9347L41.0178 16.9283L41.0257 16.9217L40.7027 16.54ZM40.6027 16.86L40.1284 17.0181L40.1496 17.0816L40.1867 17.1374L40.6027 16.86ZM40.6627 17.06H40.1627V17.0817L40.1646 17.1033L40.6627 17.06ZM41.2627 18.24L40.9194 18.6035L40.9252 18.6089L40.9311 18.6142L41.2627 18.24ZM42.1427 19.02L41.8111 19.3942L41.9035 19.4761L42.0235 19.5056L42.1427 19.02ZM43.2827 19.3L43.1635 19.7856L43.2592 19.8091L43.3566 19.7945L43.2827 19.3ZM45.0227 19.04L45.0966 19.5345L45.1028 19.5336L45.0227 19.04ZM46.7227 18L47.1344 18.2839L47.1388 18.2773L46.7227 18ZM46.8627 17.86L47.1401 18.276L47.1652 18.2593L47.1881 18.2396L46.8627 17.86ZM47.3827 16.98L46.8977 16.8587L46.8928 16.8781L46.8895 16.8978L47.3827 16.98ZM47.4627 16.76L47.0467 16.4827L47.0294 16.5086L47.0155 16.5364L47.4627 16.76ZM47.6227 16.02L48.1169 15.944L48.105 15.8665L48.0699 15.7964L47.6227 16.02ZM47.0427 14.68L46.726 15.0671L46.7358 15.0747L47.0427 14.68ZM45.3027 14.32L45.2133 13.828L45.2047 13.8297L45.3027 14.32ZM45.0027 14.4L44.817 13.9358L44.7811 13.9501L44.7478 13.9699L45.0027 14.4ZM44.4627 14.72L44.2078 14.2898L44.2055 14.2913L44.4627 14.72ZM43.8027 15.08L43.5633 14.641L43.5547 14.6459L43.8027 15.08ZM43.0027 15.54L42.7253 15.1239L42.7181 15.1289L43.0027 15.54ZM42.1627 15.44L41.7786 15.7601L41.7862 15.7692L41.7942 15.7779L42.1627 15.44ZM42.1627 14.6L41.7856 14.2715L41.7786 14.2799L42.1627 14.6ZM44.4627 13.22L44.6055 13.6992L44.6759 13.6782L44.7373 13.6379L44.4627 13.22ZM46.4427 11.72V11.22H46.2555L46.1143 11.343L46.4427 11.72ZM46.4827 11.7V12.2H46.6567L46.7931 12.092L46.4827 11.7ZM46.8227 10.64L46.3567 10.8212L46.361 10.8323L46.3658 10.8431L46.8227 10.64ZM43.2627 11.56L42.9023 11.2134L42.6372 11.4892L42.834 11.8172L43.2627 11.56ZM42.6827 12.5L42.709 12.0007L42.6959 12H42.6827V12.5ZM41.9827 12.24L42.3827 11.94L42.375 11.9298L42.3668 11.9199L41.9827 12.24ZM41.9427 11.22L41.501 10.9856L41.4989 10.9898L41.9427 11.22ZM46.2027 8.86L46.1715 9.35909L46.1795 9.35946L46.2027 8.86ZM48.0227 10.16L48.4889 9.97923L48.487 9.9743L48.0227 10.16ZM47.2827 12.7L46.9782 12.3032L46.9686 12.311L47.2827 12.7ZM46.7627 13.12L46.4486 12.731L45.7112 13.3266L46.6191 13.5989L46.7627 13.12ZM47.8427 13.68L47.5274 14.0681L47.8427 13.68ZM48.8827 15.84L48.3829 15.8514L48.3836 15.8839L48.3885 15.916L48.8827 15.84ZM48.6227 17.32L48.1875 17.074L48.1521 17.1365L48.1358 17.2064L48.6227 17.32ZM47.7227 18.8L47.3946 18.4227L47.3523 18.4595L47.3192 18.5047L47.7227 18.8ZM45.2227 20.32L45.2912 20.8153L45.2989 20.8142L45.3064 20.8129L45.2227 20.32ZM43.3427 20.58V21.08H43.3771L43.4112 21.0753L43.3427 20.58ZM43.2427 20.08C43.2321 20.08 43.2271 20.08 43.2228 20.0799C43.2187 20.0798 43.2191 20.0796 43.2225 20.08C43.2255 20.0803 43.2358 20.0814 43.2511 20.085C43.2657 20.0885 43.293 20.0961 43.3263 20.1128L42.8791 21.0072C42.9793 21.0573 43.075 21.0702 43.123 21.075C43.1765 21.0804 43.2255 21.08 43.2427 21.08V20.08ZM43.2127 20.0722L41.7927 19.7522L41.5728 20.7278L42.9928 21.0478L43.2127 20.0722ZM41.8684 19.7758C41.8143 19.7541 41.7887 19.7434 41.7681 19.7325C41.7514 19.7238 41.7513 19.7214 41.7563 19.7264L41.0492 20.4336C41.213 20.5974 41.4112 20.6699 41.497 20.7042L41.8684 19.7758ZM41.7368 19.708L40.7568 18.828L40.0887 19.572L41.0687 20.452L41.7368 19.708ZM40.7572 18.8284C40.2403 18.3631 39.9654 17.8331 39.8998 17.2263L38.9056 17.3337C39 18.2069 39.4052 18.9569 40.0883 19.5716L40.7572 18.8284ZM39.8709 17.1044C39.7832 16.8705 39.7761 16.6634 39.825 16.4844C39.874 16.3051 39.9886 16.1201 40.2001 15.9464L39.5654 15.1736C39.2168 15.4599 38.9714 15.8149 38.8604 16.2206C38.7494 16.6266 38.7823 17.0495 38.9346 17.4556L39.8709 17.1044ZM40.2057 15.9417C40.2245 15.9258 40.2535 15.9141 40.2943 15.9179C40.3361 15.9217 40.3808 15.9417 40.4153 15.9791L41.1501 15.3009C40.7479 14.8651 40.0453 14.7675 39.5598 15.1783L40.2057 15.9417ZM40.3896 15.9489C40.4486 16.0241 40.4278 16.1176 40.3798 16.1583L41.0257 16.9217C41.4976 16.5224 41.5568 15.8159 41.1759 15.3311L40.3896 15.9489ZM40.3958 16.1453C40.2858 16.2309 40.1153 16.3832 40.0764 16.6295C40.0576 16.7485 40.077 16.8473 40.093 16.9075C40.1047 16.9517 40.128 17.017 40.1284 17.0181L41.0771 16.7019C41.072 16.6866 41.0626 16.6596 41.0614 16.6561C41.0578 16.6456 41.0581 16.6459 41.0594 16.6506C41.0623 16.6614 41.0754 16.714 41.0641 16.7855C41.0522 16.8608 41.0206 16.9127 41.0017 16.9373C40.9868 16.9566 40.982 16.9562 41.0097 16.9347L40.3958 16.1453ZM40.1867 17.1374C40.1846 17.1343 40.1764 17.1208 40.1698 17.0995C40.1633 17.0783 40.1627 17.063 40.1627 17.06H41.1627C41.1627 16.8782 41.1118 16.7222 41.0188 16.5826L40.1867 17.1374ZM40.1646 17.1033C40.2166 17.7016 40.4829 18.1912 40.9194 18.6035L41.606 17.8765C41.3226 17.6088 41.1888 17.3384 41.1609 17.0167L40.1646 17.1033ZM40.9311 18.6142L41.8111 19.3942L42.4744 18.6458L41.5944 17.8658L40.9311 18.6142ZM42.0235 19.5056L43.1635 19.7856L43.402 18.8144L42.262 18.5344L42.0235 19.5056ZM43.3566 19.7945L45.0966 19.5345L44.9488 18.5455L43.2088 18.8055L43.3566 19.7945ZM45.1028 19.5336C45.9658 19.3936 46.6507 18.9852 47.1343 18.2839L46.3111 17.7161C45.9948 18.1748 45.5597 18.4464 44.9427 18.5464L45.1028 19.5336ZM47.1388 18.2773C47.1416 18.273 47.1428 18.2716 47.1426 18.2719C47.1421 18.2724 47.1408 18.274 47.1388 18.2761C47.1368 18.2781 47.1352 18.2794 47.1347 18.2798C47.1343 18.2801 47.1358 18.2789 47.1401 18.276L46.5854 17.444C46.4705 17.5206 46.3833 17.6077 46.3067 17.7226L47.1388 18.2773ZM47.1881 18.2396C47.5408 17.9373 47.7934 17.5576 47.8759 17.0622L46.8895 16.8978C46.8521 17.1224 46.7446 17.3027 46.5373 17.4804L47.1881 18.2396ZM47.8678 17.1013C47.8809 17.0489 47.8895 17.0246 47.9099 16.9836L47.0155 16.5364C46.956 16.6554 46.9246 16.7511 46.8977 16.8587L47.8678 17.1013ZM47.8788 17.0373C48.1144 16.6839 48.1741 16.3156 48.1169 15.944L47.1285 16.096C47.1514 16.2444 47.1311 16.3561 47.0467 16.4827L47.8788 17.0373ZM48.0699 15.7964C48.0723 15.8011 48.0778 15.8127 48.0837 15.8296C48.0899 15.8476 48.095 15.8673 48.0984 15.8878C48.1017 15.9073 48.1025 15.922 48.1027 15.9277C48.1028 15.931 48.1027 15.9325 48.1027 15.92H47.1027C47.1027 15.9302 47.1015 15.9887 47.112 16.0522C47.1247 16.1281 47.1493 16.1911 47.1755 16.2436L48.0699 15.7964ZM48.1027 15.92C48.1027 15.2687 47.8486 14.6733 47.3497 14.2853L46.7358 15.0747C46.9569 15.2467 47.1027 15.5313 47.1027 15.92H48.1027ZM47.3594 14.293C46.7771 13.8166 45.9763 13.6893 45.2133 13.8281L45.3922 14.8119C45.9492 14.7107 46.4284 14.8234 46.7261 15.067L47.3594 14.293ZM45.2047 13.8297C45.1105 13.8485 44.9662 13.8761 44.817 13.9358L45.1884 14.8642C45.2393 14.8439 45.295 14.8315 45.4008 14.8103L45.2047 13.8297ZM44.7478 13.9699L44.2078 14.2899L44.7176 15.1501L45.2576 14.8301L44.7478 13.9699ZM44.2055 14.2913C44.016 14.4049 43.8076 14.5078 43.5633 14.6411L44.0422 15.5189C44.2379 15.4122 44.5095 15.2751 44.72 15.1487L44.2055 14.2913ZM43.5547 14.6459C43.3098 14.7858 42.9833 14.952 42.7254 15.124L43.2801 15.956C43.5022 15.808 43.7357 15.6942 44.0508 15.5141L43.5547 14.6459ZM42.7181 15.1289C42.6668 15.1644 42.5852 15.1609 42.5313 15.1021L41.7942 15.7779C42.1803 16.1991 42.8186 16.2756 43.2873 15.9511L42.7181 15.1289ZM42.5468 15.1199C42.5014 15.0653 42.5014 14.9747 42.5468 14.9201L41.7786 14.2799C41.4241 14.7053 41.4241 15.3347 41.7786 15.7601L42.5468 15.1199ZM42.5398 14.9284C43.0028 14.3967 43.7321 13.9593 44.6055 13.6992L44.32 12.7408C43.3133 13.0407 42.4026 13.5633 41.7857 14.2716L42.5398 14.9284ZM44.7373 13.6379C45.4558 13.1657 46.1338 12.6521 46.7711 12.097L46.1143 11.343C45.5117 11.8679 44.8697 12.3543 44.1881 12.8021L44.7373 13.6379ZM46.4427 12.22C46.4877 12.22 46.5355 12.2143 46.5842 12.2006C46.6331 12.1869 46.6757 12.1673 46.7119 12.1456C46.7469 12.1246 46.7731 12.1032 46.7897 12.0886C46.798 12.0813 46.8046 12.075 46.8088 12.0709C46.8127 12.0671 46.8161 12.0637 46.8163 12.0636C46.8174 12.0625 46.8152 12.0646 46.8126 12.0672C46.8096 12.07 46.8043 12.0751 46.7974 12.0813C46.7834 12.0936 46.7601 12.1127 46.7281 12.1319C46.6951 12.1517 46.6559 12.1697 46.6109 12.1823C46.5661 12.1949 46.5227 12.2 46.4827 12.2V11.2C46.4378 11.2 46.39 11.2057 46.3413 11.2194C46.2924 11.2331 46.2497 11.2527 46.2136 11.2744C46.1785 11.2954 46.1524 11.3168 46.1358 11.3314C46.1275 11.3387 46.1209 11.345 46.1166 11.3491C46.1127 11.3529 46.1093 11.3563 46.1092 11.3564C46.1081 11.3575 46.1102 11.3554 46.1129 11.3528C46.1158 11.35 46.1211 11.3449 46.1281 11.3388C46.142 11.3264 46.1654 11.3073 46.1974 11.2881C46.2304 11.2683 46.2696 11.2503 46.3146 11.2377C46.3594 11.2251 46.4028 11.22 46.4427 11.22V12.22ZM46.7931 12.092C47.0784 11.8662 47.2936 11.6067 47.3765 11.2887C47.4612 10.9641 47.3839 10.6716 47.2796 10.4369L46.3658 10.8431C46.4215 10.9684 46.4143 11.0159 46.4089 11.0363C46.4019 11.0633 46.3671 11.1538 46.1724 11.308L46.7931 12.092ZM47.2887 10.4588C47.1948 10.2172 47.0509 9.99134 46.8136 9.83636C46.5801 9.68386 46.3169 9.64 46.0627 9.64V10.64C46.2086 10.64 46.2554 10.6661 46.2668 10.6736C46.2745 10.6787 46.3107 10.7028 46.3567 10.8212L47.2887 10.4588ZM46.0627 9.64C45.4335 9.64 44.7674 9.9152 44.229 10.2198C43.6813 10.5297 43.191 10.9132 42.9023 11.2134L43.6232 11.9066C43.8345 11.6868 44.2442 11.3603 44.7215 11.0902C45.2081 10.8148 45.692 10.64 46.0627 10.64V9.64ZM42.834 11.8172C42.8376 11.8232 42.8382 11.8255 42.8388 11.8283C42.84 11.8331 42.8427 11.8475 42.8427 11.88H43.8427C43.8427 11.6963 43.8102 11.5007 43.6915 11.3028L42.834 11.8172ZM42.8427 11.88C42.8427 11.9124 42.8291 11.9445 42.8055 11.9677C42.7849 11.9878 42.7551 12.0031 42.709 12.0007L42.6565 12.9993C43.3374 13.0352 43.8427 12.4913 43.8427 11.88H42.8427ZM42.6827 12H42.4627V13H42.6827V12ZM42.4627 12C42.4655 12 42.4571 12.0006 42.4397 11.9911C42.4222 11.9815 42.4013 11.9648 42.3827 11.94L41.5827 12.54C41.7806 12.8039 42.0997 13 42.4627 13V12ZM42.3668 11.9199C42.3556 11.9064 42.3243 11.8624 42.3116 11.7949C42.3007 11.7369 42.2958 11.6252 42.3866 11.4502L41.4989 10.9898C41.3096 11.3548 41.2748 11.6931 41.3289 11.9801C41.3812 12.2576 41.5099 12.4536 41.5986 12.5601L42.3668 11.9199ZM42.3844 11.4544C42.5825 11.081 43.158 10.5239 43.925 10.0637C44.6871 9.60647 45.5176 9.31815 46.1715 9.35903L46.2339 8.36097C45.2879 8.30185 44.2484 8.70353 43.4105 9.20625C42.5775 9.70606 41.823 10.379 41.5011 10.9856L42.3844 11.4544ZM46.1795 9.35946C46.8416 9.39026 47.3105 9.72574 47.5585 10.3457L48.487 9.9743C48.095 8.99426 47.2838 8.40974 46.226 8.36054L46.1795 9.35946ZM47.5566 10.3408C47.7131 10.7444 47.7275 11.1012 47.6376 11.4104C47.5474 11.7207 47.3396 12.0261 46.9783 12.3033L47.5871 13.0967C48.0859 12.7139 48.4381 12.2393 48.5979 11.6896C48.758 11.1388 48.7124 10.5556 48.4889 9.97924L47.5566 10.3408ZM46.9686 12.311L46.4486 12.731L47.0769 13.509L47.5969 13.089L46.9686 12.311ZM46.6191 13.5989C46.9646 13.7026 47.2644 13.8543 47.5274 14.0681L48.158 13.2919C47.7811 12.9857 47.3608 12.7774 46.9064 12.6411L46.6191 13.5989ZM47.5274 14.0681C48.052 14.4942 48.3661 15.1157 48.3829 15.8514L49.3826 15.8286C49.3593 14.8043 48.9135 13.9058 48.158 13.2919L47.5274 14.0681ZM48.3885 15.916C48.4527 16.3328 48.3885 16.7182 48.1875 17.074L49.058 17.566C49.3769 17.0018 49.4728 16.3872 49.3769 15.764L48.3885 15.916ZM48.1358 17.2064C48.0208 17.6991 47.7792 18.0883 47.3946 18.4227L48.0508 19.1773C48.5863 18.7117 48.9446 18.1409 49.1097 17.4336L48.1358 17.2064ZM47.3192 18.5047C46.7983 19.2167 46.0746 19.6682 45.139 19.8271L45.3064 20.8129C46.4909 20.6118 47.4472 20.0233 48.1263 19.0953L47.3192 18.5047ZM45.1542 19.8247L43.2742 20.0847L43.4112 21.0753L45.2912 20.8153L45.1542 19.8247ZM43.3427 20.08H43.2427V21.08H43.3427V20.08Z" fill="black"/>
</svg>
