<svg width="61" height="33" viewBox="0 0 61 33" fill="none" xmlns="http://www.w3.org/2000/svg">
<g id="Group 2622">
<g id="Vector 8694">
<path d="M29.5922 18.2305C28.6148 15.9115 28.5239 13.2995 29.9332 10.2943C32.3757 5.08609 38.6946 1.4112 44.3407 1.02392C46.7907 0.855868 49.1051 1.58315 51.1653 2.89428C51.7937 3.13425 52.4133 3.40693 53.0206 3.71056C57.0199 5.71021 59.0156 10.299 59.4021 14.7771C59.8466 16.4563 60.0553 18.1269 59.9881 19.6828C59.809 23.8272 56.4661 27.9138 52.9025 29.7207C46.8632 32.7829 35.0859 33.4925 31.4094 26.296C30.1339 23.7993 29.5515 21.013 29.5922 18.2305Z" fill="white"/>
<path d="M40.8569 29.1893C34.6611 24.5947 25.7788 19.153 29.9332 10.2943C32.3757 5.08609 38.6946 1.4112 44.3407 1.02392C53.2326 0.414009 60.3375 11.5971 59.9881 19.6828C59.809 23.8272 56.4661 27.9138 52.9025 29.7207C46.8632 32.7829 35.0859 33.4925 31.4094 26.296C28.0423 19.7051 29.5056 11.097 34.5094 5.86577C39.4165 0.735551 46.8566 0.628582 53.0206 3.71056C58.1083 6.25442 59.9535 12.9885 59.3681 18.3542C58.6527 24.9124 52.8 28.532 46.673 29.4255C39.0023 30.5442 32.9373 26.7738 31.2913 19.0923" stroke="#292927" stroke-width="2" stroke-linecap="round"/>
</g>
<g id="Vector 8695">
<path d="M2.15614 13.9551C1.84495 11.8875 2.083 9.40934 3.18474 7.81429C6.51918 2.98681 12.8971 3.18875 17.1819 6.18138C18.1207 6.68481 18.95 7.34476 19.5998 8.16857C22.2364 11.5114 23.7018 17.2179 20.3084 20.5684C18.6722 22.1839 16.6415 23.0003 14.4884 23.3363C13.3076 23.7249 12.0568 23.8839 10.8018 23.757C7.3531 23.4082 2.67249 21.6567 2.18094 17.6751C2.15877 17.4956 2.13955 17.3138 2.12338 17.1301C2.03346 16.109 2.03796 15.03 2.15614 13.9551Z" fill="white"/>
<path d="M13.2227 20.1551C9.24865 19.9326 3.92134 19.9968 2.47617 15.3723C1.78025 13.1453 1.81502 9.79731 3.18474 7.81429C8.65563 -0.106256 22.3194 5.51221 21.4893 14.7818C21.0227 19.9921 15.947 24.2773 10.8018 23.757C7.3531 23.4082 2.67249 21.6567 2.18094 17.6751C1.66428 13.4902 2.74568 8.09286 6.84565 6.04288C10.7026 4.11442 16.8084 4.62943 19.5998 8.16857C22.2364 11.5114 23.7018 17.2179 20.3084 20.5684C17.5799 23.2623 13.7543 23.7344 10.0932 23.4617C4.05586 23.0121 3.47088 19.6179 1 14.8409" stroke="#292927" stroke-width="2" stroke-linecap="round"/>
</g>
<path id="Vector 8698" d="M9.50239 12.1855C10.6611 12.2177 17.2398 12.8061 12.6909 12.7169C11.573 12.695 10.5846 12.2492 9.50239 12.1855ZM9.50239 12.1855C8.98042 12.1548 12.7685 12.1855 13.2223 12.1855" stroke="#292927" stroke-width="2" stroke-linecap="round"/>
<path id="Vector 8750" d="M37.9024 13.9097C37.1412 14.0049 40.8147 17.7758 41.1874 18.1485C41.9662 18.9273 42.7122 19.725 43.4393 20.5328C43.6097 20.7222 44.184 22.1044 44.5255 21.725C45.0765 21.1128 45.0175 19.1776 45.413 18.3075C45.9171 17.1983 46.0297 15.9205 46.6184 14.8502C47.2338 13.7313 48.1218 12.792 48.6318 11.6446C48.9571 10.9127 49.4987 10.2306 49.824 9.49873C50.0183 9.06145 51.2562 8.42578 50.7777 8.42578" stroke="#292927" stroke-width="2" stroke-linecap="round"/>
</g>
</svg>
