<svg width="61" height="33" viewBox="0 0 61 33" fill="none" xmlns="http://www.w3.org/2000/svg">
<path d="M29.5922 18.2305C28.6148 15.9115 28.5239 13.2995 29.9332 10.2943C32.3757 5.08609 38.6946 1.4112 44.3407 1.02392C46.7907 0.855868 49.1051 1.58315 51.1653 2.89428C51.7937 3.13425 52.4133 3.40693 53.0206 3.71056C57.0199 5.71021 59.0156 10.299 59.4021 14.7771C59.8466 16.4563 60.0553 18.1269 59.9881 19.6828C59.809 23.8272 56.4661 27.9138 52.9025 29.7207C46.8632 32.7829 35.0859 33.4925 31.4094 26.296C30.1339 23.7993 29.5515 21.013 29.5922 18.2305Z" fill="white"/>
<path d="M40.8569 29.1893C34.6611 24.5947 25.7788 19.153 29.9332 10.2943C32.3757 5.08609 38.6946 1.4112 44.3407 1.02392C53.2326 0.414009 60.3375 11.5971 59.9881 19.6828C59.809 23.8272 56.4661 27.9138 52.9025 29.7207C46.8632 32.7829 35.0859 33.4925 31.4094 26.296C28.0423 19.7051 29.5056 11.097 34.5094 5.86577C39.4165 0.735551 46.8566 0.628582 53.0206 3.71056C58.1083 6.25442 59.9535 12.9885 59.3681 18.3542C58.6527 24.9124 52.8 28.532 46.673 29.4255C39.0023 30.5442 32.9373 26.7738 31.2913 19.0923" stroke="#292927" stroke-width="2" stroke-linecap="round"/>
<path d="M2.15614 13.9551C1.84495 11.8875 2.083 9.40934 3.18474 7.81429C6.51918 2.98681 12.8971 3.18875 17.1819 6.18138C18.1207 6.68481 18.95 7.34476 19.5998 8.16857C22.2364 11.5114 23.7018 17.2179 20.3084 20.5684C18.6722 22.1839 16.6415 23.0003 14.4884 23.3363C13.3076 23.7249 12.0568 23.8839 10.8018 23.757C7.3531 23.4082 2.67249 21.6567 2.18094 17.6751C2.15877 17.4956 2.13955 17.3138 2.12338 17.1301C2.03346 16.109 2.03796 15.03 2.15614 13.9551Z" fill="white"/>
<path d="M13.2227 20.1551C9.24865 19.9326 3.92134 19.9968 2.47617 15.3723C1.78025 13.1453 1.81502 9.79731 3.18474 7.81429C8.65563 -0.106256 22.3194 5.51221 21.4893 14.7818C21.0227 19.9921 15.947 24.2773 10.8018 23.757C7.3531 23.4082 2.67249 21.6567 2.18094 17.6751C1.66428 13.4902 2.74568 8.09286 6.84565 6.04288C10.7026 4.11442 16.8084 4.62943 19.5998 8.16857C22.2364 11.5114 23.7018 17.2179 20.3084 20.5684C17.5799 23.2623 13.7543 23.7344 10.0932 23.4617C4.05586 23.0121 3.47088 19.6179 1 14.8409" stroke="#292927" stroke-width="2" stroke-linecap="round"/>
<path d="M9.50239 12.1855C10.6611 12.2177 17.2398 12.8061 12.6909 12.7169C11.573 12.695 10.5846 12.2492 9.50239 12.1855ZM9.50239 12.1855C8.98042 12.1548 12.7685 12.1855 13.2223 12.1855" stroke="#292927" stroke-width="2" stroke-linecap="round"/>
<path d="M38.5839 17.28C38.2839 17.28 38.0239 17.08 37.9639 16.76C37.9039 16.44 38.0839 16.14 38.4039 16.04L38.8039 15.92C39.2039 15.68 39.6839 15 39.9839 14.6C40.1039 14.42 40.2239 14.24 40.3439 14.12C41.7239 12.38 43.0639 10.68 44.1439 8.88C44.1439 8.8 44.1639 8.72 44.1839 8.64C44.3039 8.3 44.6639 8.12 45.0039 8.24L45.0839 8.28C45.2639 8.34 45.4239 8.48 45.4839 8.66C45.5439 8.84 45.5239 9.04 45.4439 9.2C44.2839 11.2 42.8439 13.04 41.3239 14.92C41.2439 15.02 41.1239 15.18 41.0239 15.34L40.9239 15.46C41.6039 15.36 42.3439 15.28 43.1639 15.2L46.6839 15C46.7239 15 46.7639 14.98 46.8039 14.98C47.3239 14.9 47.8239 14.88 48.3239 14.92L47.9639 15.56L47.6239 16.14C47.6239 16.16 47.6039 16.18 47.6039 16.18C47.3439 16.2 47.1039 16.22 46.8639 16.26C46.8439 16.26 46.8239 16.26 46.8039 16.28L46.0439 16.32L46.5239 15.5L46.8439 14.92C47.3839 14 47.9239 13.04 48.3639 12.06C48.3239 11.88 48.3439 11.68 48.4639 11.52L48.7439 11.14C48.9239 10.88 49.2839 10.8 49.5639 10.96C49.8439 11.1 49.9639 11.44 49.8639 11.74C49.4639 12.86 48.9039 13.9 48.3239 14.92C48.8239 14.96 49.3239 15.06 49.8039 15.22C50.1439 15.34 50.3239 15.7 50.2239 16.04C50.1239 16.36 49.7639 16.56 49.4239 16.44C48.8239 16.26 48.2239 16.16 47.6039 16.18C47.3039 16.7 47.0239 17.2 46.7239 17.7C46.2239 18.56 45.7039 19.46 45.2239 20.34C45.1039 20.56 44.8839 20.68 44.6639 20.68C44.5639 20.68 44.4439 20.64 44.3439 20.6C44.0439 20.42 43.9239 20.04 44.1039 19.72C44.5839 18.82 45.1039 17.92 45.6239 17.06L46.0439 16.32L43.2439 16.48C41.6639 16.62 40.3439 16.82 39.2439 17.12C39.0639 17.22 38.8439 17.28 38.6439 17.28H38.5839Z" fill="#1A1A1A"/>
<path d="M37.9639 16.76L37.4725 16.8521L37.9639 16.76ZM38.4039 16.04L38.2602 15.5611L38.2548 15.5628L38.4039 16.04ZM38.8039 15.92L38.9476 16.3989L39.0075 16.3809L39.0612 16.3487L38.8039 15.92ZM39.9839 14.6L40.3839 14.9L40.3922 14.8889L40.3999 14.8773L39.9839 14.6ZM40.3439 14.12L40.6975 14.4736L40.7178 14.4532L40.7357 14.4307L40.3439 14.12ZM44.1439 8.88L44.5727 9.13725L44.6439 9.01849V8.88H44.1439ZM44.1839 8.64L43.7124 8.47359L43.7046 8.49584L43.6988 8.51873L44.1839 8.64ZM45.0039 8.24L45.2275 7.79279L45.1997 7.77887L45.1703 7.76851L45.0039 8.24ZM45.0839 8.28L44.8603 8.72721L44.8921 8.7431L44.9258 8.75434L45.0839 8.28ZM45.4439 9.2L45.8764 9.45086L45.8842 9.43746L45.8911 9.42361L45.4439 9.2ZM41.3239 14.92L40.9351 14.6056L40.9335 14.6077L41.3239 14.92ZM41.0239 15.34L41.408 15.6601L41.4298 15.6339L41.4479 15.605L41.0239 15.34ZM40.9239 15.46L40.5398 15.1399L39.7022 16.145L40.9967 15.9547L40.9239 15.46ZM43.1639 15.2L43.1355 14.7008L43.1254 14.7014L43.1154 14.7024L43.1639 15.2ZM46.6839 15V14.5H46.6697L46.6555 14.5008L46.6839 15ZM46.8039 14.98V15.48H46.8421L46.8799 15.4742L46.8039 14.98ZM48.3239 14.92L48.7597 15.1651L49.1429 14.4839L48.3638 14.4216L48.3239 14.92ZM47.9639 15.56L48.3953 15.8129L48.3997 15.8051L47.9639 15.56ZM47.6239 16.14L47.1926 15.8871L47.1239 16.0043V16.14H47.6239ZM47.6039 16.18L47.6423 16.6785L47.8267 16.6643L47.9575 16.5336L47.6039 16.18ZM46.8639 16.26V16.76H46.9053L46.9461 16.7532L46.8639 16.26ZM46.8039 16.28L46.8302 16.7793L47.0218 16.7692L47.1575 16.6336L46.8039 16.28ZM46.0439 16.32L45.6124 16.0674L45.1437 16.8681L46.0702 16.8193L46.0439 16.32ZM46.5239 15.5L46.9556 15.7527L46.9617 15.7415L46.5239 15.5ZM46.8439 14.92L46.4125 14.6668L46.4061 14.6785L46.8439 14.92ZM48.3639 12.06L48.82 12.2648L48.888 12.1135L48.852 11.9515L48.3639 12.06ZM48.4639 11.52L48.8639 11.82L48.8664 11.8166L48.4639 11.52ZM48.7439 11.14L49.1464 11.4366L49.1508 11.4307L49.155 11.4246L48.7439 11.14ZM49.5639 10.96L49.3158 11.3941L49.3279 11.401L49.3403 11.4072L49.5639 10.96ZM49.8639 11.74L50.3349 11.9082L50.3382 11.8981L49.8639 11.74ZM48.3239 14.92L47.8893 14.6728L47.5009 15.3558L48.284 15.4184L48.3239 14.92ZM49.8039 15.22L49.9703 14.7484L49.962 14.7457L49.8039 15.22ZM50.2239 16.04L50.7012 16.1892L50.7036 16.1811L50.2239 16.04ZM49.4239 16.44L49.5903 15.9685L49.579 15.9645L49.5676 15.9611L49.4239 16.44ZM47.6039 16.18L47.5878 15.6803L47.3098 15.6892L47.1708 15.9301L47.6039 16.18ZM46.7239 17.7L46.2951 17.4427L46.2917 17.4487L46.7239 17.7ZM45.2239 20.34L45.6629 20.5794L45.2239 20.34ZM44.3439 20.6L44.0867 21.0287L44.121 21.0494L44.1582 21.0642L44.3439 20.6ZM44.1039 19.72L44.5398 19.9652L44.5451 19.9553L44.1039 19.72ZM45.6239 17.06L46.0519 17.3188L46.0587 17.3068L45.6239 17.06ZM46.0439 16.32L46.4787 16.5668L46.9319 15.7684L46.0154 15.8208L46.0439 16.32ZM43.2439 16.48L43.2154 15.9808L43.2076 15.9813L43.1998 15.982L43.2439 16.48ZM39.2439 17.12L39.1123 16.6376L39.054 16.6535L39.0011 16.6829L39.2439 17.12ZM38.5839 16.78C38.5461 16.78 38.5187 16.7679 38.5005 16.753C38.4836 16.7392 38.4641 16.7145 38.4553 16.6679L37.4725 16.8521C37.5779 17.4146 38.0494 17.78 38.5839 17.78V16.78ZM38.4553 16.6679C38.4477 16.6274 38.4561 16.5979 38.4687 16.5772C38.4812 16.5566 38.5058 16.532 38.553 16.5172L38.2548 15.5628C37.697 15.7371 37.365 16.2788 37.4725 16.8521L38.4553 16.6679ZM38.5476 16.5189L38.9476 16.3989L38.6602 15.4411L38.2602 15.5611L38.5476 16.5189ZM39.0612 16.3487C39.3403 16.1813 39.6065 15.892 39.8161 15.6393C40.034 15.3768 40.2413 15.0902 40.3839 14.9L39.5839 14.3C39.4265 14.5098 39.2438 14.7632 39.0467 15.0007C38.8413 15.248 38.6675 15.4187 38.5467 15.4913L39.0612 16.3487ZM40.3999 14.8773C40.5295 14.6831 40.6201 14.5509 40.6975 14.4736L39.9904 13.7664C39.8277 13.9291 39.6783 14.1569 39.5679 14.3226L40.3999 14.8773ZM40.7357 14.4307C42.1126 12.6946 43.4732 10.9697 44.5727 9.13725L43.7152 8.62275C42.6546 10.3903 41.3352 12.0654 39.9522 13.8093L40.7357 14.4307ZM44.6439 8.88C44.6439 8.88085 44.6439 8.8734 44.6478 8.85214C44.6521 8.82929 44.6583 8.80383 44.669 8.76127L43.6988 8.51873C43.6818 8.587 43.6439 8.7277 43.6439 8.88H44.6439ZM44.6554 8.80641C44.6869 8.71721 44.7674 8.68675 44.8375 8.71149L45.1703 7.76851C44.5604 7.55325 43.9209 7.88279 43.7124 8.47359L44.6554 8.80641ZM44.7803 8.68721L44.8603 8.72721L45.3075 7.83279L45.2275 7.79279L44.7803 8.68721ZM44.9258 8.75434C44.949 8.76206 44.9717 8.77559 44.9887 8.7914C45.0055 8.807 45.0094 8.81776 45.0096 8.81811L45.9582 8.50189C45.8401 8.14738 45.5442 7.90638 45.242 7.80566L44.9258 8.75434ZM45.0096 8.81811C45.0254 8.86558 45.0206 8.9285 44.9967 8.97639L45.8911 9.42361C46.0272 9.1515 46.0624 8.81442 45.9582 8.50189L45.0096 8.81811ZM45.0114 8.94914C43.8727 10.9124 42.4548 12.726 40.9351 14.6056L41.7127 15.2344C43.233 13.354 44.6951 11.4876 45.8764 9.45086L45.0114 8.94914ZM40.9335 14.6077C40.8459 14.7171 40.7134 14.8934 40.5999 15.075L41.4479 15.605C41.5344 15.4666 41.6419 15.3229 41.7143 15.2323L40.9335 14.6077ZM40.6398 15.0199L40.5398 15.1399L41.308 15.7801L41.408 15.6601L40.6398 15.0199ZM40.9967 15.9547C41.6642 15.8565 42.3943 15.7775 43.2125 15.6976L43.1154 14.7024C42.2935 14.7825 41.5436 14.8635 40.8512 14.9653L40.9967 15.9547ZM43.1923 15.6992L46.7123 15.4992L46.6555 14.5008L43.1355 14.7008L43.1923 15.6992ZM46.6839 15.5C46.7348 15.5 46.7773 15.4937 46.8061 15.4883C46.8332 15.4832 46.8577 15.4769 46.8652 15.4751C46.8777 15.4719 46.8732 15.4732 46.8661 15.4746C46.8573 15.4762 46.8348 15.48 46.8039 15.48V14.48C46.7531 14.48 46.7105 14.4863 46.6818 14.4917C46.6546 14.4968 46.6301 14.5031 46.6226 14.5049C46.6101 14.5081 46.6146 14.5068 46.6218 14.5054C46.6305 14.5038 46.6531 14.5 46.6839 14.5V15.5ZM46.8799 15.4742C47.3637 15.3998 47.8248 15.3817 48.284 15.4184L48.3638 14.4216C47.823 14.3783 47.2841 14.4002 46.7279 14.4858L46.8799 15.4742ZM47.8881 14.6749L47.5281 15.3149L48.3997 15.8051L48.7597 15.1651L47.8881 14.6749ZM47.5326 15.3071L47.1926 15.8871L48.0553 16.3929L48.3953 15.8129L47.5326 15.3071ZM47.1239 16.14C47.1239 16.0635 47.1425 16.0041 47.1565 15.969C47.171 15.9328 47.1872 15.9062 47.1979 15.8901C47.2091 15.8733 47.2196 15.8603 47.2274 15.8512C47.2315 15.8463 47.2355 15.8419 47.2392 15.8379C47.2411 15.8359 47.243 15.834 47.2448 15.8321C47.2458 15.8311 47.2467 15.8302 47.2476 15.8292C47.2481 15.8288 47.2485 15.8283 47.249 15.8278C47.2492 15.8276 47.2494 15.8274 47.2497 15.8271C47.2498 15.827 47.2499 15.8269 47.25 15.8268C47.2501 15.8267 47.2502 15.8266 47.2502 15.8266C47.2503 15.8265 47.2504 15.8264 47.6039 16.18C47.9575 16.5336 47.9575 16.5335 47.9576 16.5334C47.9577 16.5334 47.9577 16.5333 47.9578 16.5332C47.9579 16.5331 47.958 16.533 47.9582 16.5329C47.9584 16.5326 47.9586 16.5324 47.9589 16.5321C47.9593 16.5317 47.9598 16.5312 47.9603 16.5307C47.9613 16.5296 47.9624 16.5286 47.9634 16.5275C47.9656 16.5253 47.9679 16.5229 47.9703 16.5203C47.9751 16.5151 47.9807 16.509 47.9867 16.502C47.9982 16.4885 48.0137 16.4692 48.0299 16.4449C48.0515 16.4125 48.1239 16.3003 48.1239 16.14H47.1239ZM47.5656 15.6815C47.3065 15.7014 47.0462 15.7227 46.7817 15.7668L46.9461 16.7532C47.1617 16.7173 47.3813 16.6986 47.6423 16.6785L47.5656 15.6815ZM46.8639 15.76C46.8365 15.76 46.6258 15.751 46.4504 15.9264L47.1575 16.6336C47.102 16.689 47.0312 16.7286 46.9552 16.7476C46.8959 16.7624 46.8446 16.76 46.8639 16.76V15.76ZM46.7776 15.7807L46.0176 15.8207L46.0702 16.8193L46.8302 16.7793L46.7776 15.7807ZM46.4754 16.5726L46.9554 15.7526L46.0924 15.2474L45.6124 16.0674L46.4754 16.5726ZM46.9617 15.7415L47.2817 15.1615L46.4061 14.6785L46.0861 15.2585L46.9617 15.7415ZM47.2751 15.1731C47.8171 14.2497 48.3685 13.2706 48.82 12.2648L47.9078 11.8552C47.4793 12.8094 46.9507 13.7503 46.4127 14.6669L47.2751 15.1731ZM48.852 11.9515C48.835 11.875 48.8529 11.8346 48.8639 11.82L48.0639 11.22C47.8349 11.5254 47.8128 11.885 47.8758 12.1685L48.852 11.9515ZM48.8664 11.8166L49.1464 11.4366L48.3414 10.8434L48.0614 11.2234L48.8664 11.8166ZM49.155 11.4246C49.1687 11.4048 49.1919 11.3879 49.224 11.3808C49.256 11.3737 49.2885 11.3785 49.3158 11.3941L49.812 10.5259C49.3116 10.24 48.6636 10.3775 48.3328 10.8554L49.155 11.4246ZM49.3403 11.4072C49.3576 11.4158 49.376 11.433 49.3882 11.4656C49.401 11.4996 49.4029 11.5419 49.3896 11.5819L50.3382 11.8981C50.5073 11.391 50.3163 10.7772 49.7875 10.5128L49.3403 11.4072ZM49.393 11.5718C49.0086 12.6481 48.4673 13.6563 47.8893 14.6728L48.7586 15.1672C49.3405 14.1437 49.9192 13.0718 50.3348 11.9082L49.393 11.5718ZM48.284 15.4184C48.7448 15.4553 49.205 15.5474 49.6458 15.6943L49.962 14.7457C49.4428 14.5726 48.903 14.4647 48.3638 14.4216L48.284 15.4184ZM49.6375 15.6915C49.7248 15.7223 49.7698 15.8119 49.7442 15.8989L50.7036 16.1811C50.878 15.5881 50.563 14.9577 49.9703 14.7485L49.6375 15.6915ZM49.7467 15.8909C49.7389 15.9158 49.718 15.9434 49.6842 15.9609C49.653 15.977 49.6211 15.9794 49.5903 15.9685L49.2575 16.9115C49.8764 17.1299 50.5204 16.7675 50.7011 16.1891L49.7467 15.8909ZM49.5676 15.9611C48.9281 15.7693 48.2734 15.6581 47.5878 15.6803L47.62 16.6797C48.1745 16.6619 48.7197 16.7507 49.2802 16.9189L49.5676 15.9611ZM47.1708 15.9301C46.8665 16.4575 46.5923 16.9475 46.2952 17.4428L47.1527 17.9572C47.4555 17.4525 47.7413 16.9425 48.037 16.4299L47.1708 15.9301ZM46.2917 17.4487C45.7916 18.3088 45.2685 19.214 44.785 20.1006L45.6629 20.5794C46.1393 19.706 46.6562 18.8112 47.1562 17.9513L46.2917 17.4487ZM44.785 20.1006C44.7536 20.158 44.7032 20.18 44.6639 20.18V21.18C45.0646 21.18 45.4542 20.962 45.6629 20.5794L44.785 20.1006ZM44.6639 20.18C44.6753 20.18 44.6679 20.1815 44.6355 20.1726C44.6059 20.1646 44.5703 20.1521 44.5296 20.1358L44.1582 21.0642C44.26 21.1049 44.4589 21.18 44.6639 21.18V20.18ZM44.6012 20.1713C44.5597 20.1464 44.5347 20.1104 44.5247 20.0751C44.5153 20.0424 44.517 20.0055 44.5397 19.9651L43.6681 19.4749C43.3467 20.0463 43.5701 20.7188 44.0867 21.0287L44.6012 20.1713ZM44.5451 19.9553C45.0198 19.0651 45.5351 18.1731 46.0518 17.3187L45.196 16.8013C44.6727 17.6669 44.148 18.5749 43.6627 19.4847L44.5451 19.9553ZM46.0587 17.3068L46.4787 16.5668L45.6091 16.0732L45.1891 16.8132L46.0587 17.3068ZM46.0154 15.8208L43.2154 15.9808L43.2724 16.9792L46.0724 16.8192L46.0154 15.8208ZM43.1998 15.982C41.6056 16.1232 40.2528 16.3266 39.1123 16.6376L39.3755 17.6024C40.435 17.3134 41.7222 17.1168 43.288 16.978L43.1998 15.982ZM39.0011 16.6829C38.8901 16.7446 38.7531 16.78 38.6439 16.78V17.78C38.9347 17.78 39.2377 17.6954 39.4867 17.5571L39.0011 16.6829ZM38.6439 16.78H38.5839V17.78H38.6439V16.78Z" fill="black"/>
</svg>
