<svg width="61" height="33" viewBox="0 0 61 33" fill="none" xmlns="http://www.w3.org/2000/svg">
<path d="M29.5922 18.2305C28.6148 15.9115 28.5239 13.2995 29.9332 10.2943C32.3757 5.08609 38.6946 1.4112 44.3407 1.02392C46.7907 0.855868 49.1051 1.58315 51.1653 2.89428C51.7937 3.13425 52.4133 3.40693 53.0206 3.71056C57.0199 5.71021 59.0156 10.299 59.4021 14.7771C59.8466 16.4563 60.0553 18.1269 59.9881 19.6828C59.809 23.8272 56.4661 27.9138 52.9025 29.7207C46.8632 32.7829 35.0859 33.4925 31.4094 26.296C30.1339 23.7993 29.5515 21.013 29.5922 18.2305Z" fill="white"/>
<path d="M40.8569 29.1893C34.6611 24.5947 25.7788 19.153 29.9332 10.2943C32.3757 5.08609 38.6946 1.4112 44.3407 1.02392C53.2326 0.414009 60.3375 11.5971 59.9881 19.6828C59.809 23.8272 56.4661 27.9138 52.9025 29.7207C46.8632 32.7829 35.0859 33.4925 31.4094 26.296C28.0423 19.7051 29.5056 11.097 34.5094 5.86577C39.4165 0.735551 46.8566 0.628582 53.0206 3.71056C58.1083 6.25442 59.9535 12.9885 59.3681 18.3542C58.6527 24.9124 52.8 28.532 46.673 29.4255C39.0023 30.5442 32.9373 26.7738 31.2913 19.0923" stroke="#292927" stroke-width="2" stroke-linecap="round"/>
<path d="M2.15614 13.9551C1.84495 11.8875 2.083 9.40934 3.18474 7.81429C6.51918 2.98681 12.8971 3.18875 17.1819 6.18138C18.1207 6.68481 18.95 7.34476 19.5998 8.16857C22.2364 11.5114 23.7018 17.2179 20.3084 20.5684C18.6722 22.1839 16.6415 23.0003 14.4884 23.3363C13.3076 23.7249 12.0568 23.8839 10.8018 23.757C7.3531 23.4082 2.67249 21.6567 2.18094 17.6751C2.15877 17.4956 2.13955 17.3138 2.12338 17.1301C2.03346 16.109 2.03796 15.03 2.15614 13.9551Z" fill="white"/>
<path d="M13.2227 20.1551C9.24865 19.9326 3.92134 19.9968 2.47617 15.3723C1.78025 13.1453 1.81502 9.79731 3.18474 7.81429C8.65563 -0.106256 22.3194 5.51221 21.4893 14.7818C21.0227 19.9921 15.947 24.2773 10.8018 23.757C7.3531 23.4082 2.67249 21.6567 2.18094 17.6751C1.66428 13.4902 2.74568 8.09286 6.84565 6.04288C10.7026 4.11442 16.8084 4.62943 19.5998 8.16857C22.2364 11.5114 23.7018 17.2179 20.3084 20.5684C17.5799 23.2623 13.7543 23.7344 10.0932 23.4617C4.05586 23.0121 3.47088 19.6179 1 14.8409" stroke="#292927" stroke-width="2" stroke-linecap="round"/>
<path d="M9.50239 12.1855C10.6611 12.2177 17.2398 12.8061 12.6909 12.7169C11.573 12.695 10.5846 12.2492 9.50239 12.1855ZM9.50239 12.1855C8.98042 12.1548 12.7685 12.1855 13.2223 12.1855" stroke="#292927" stroke-width="2" stroke-linecap="round"/>
<path d="M39.9173 20.4C39.7773 20.4 39.6573 20.36 39.5373 20.26C39.2973 20.08 39.1973 19.76 39.3373 19.48C39.6173 18.88 40.1573 18.32 40.6773 17.88C41.1773 17.38 41.7173 16.88 42.2973 16.38C42.4173 16.24 42.5773 16.12 42.8173 15.96C43.0773 15.74 43.3773 15.54 43.7373 15.32C44.1373 15.08 44.5373 14.86 44.9173 14.64C45.1573 14.52 45.3773 14.4 45.6173 14.26C45.8173 14.14 46.0373 14.02 46.2573 13.9L46.7973 13.58C47.1973 13.36 47.6173 13.02 47.8773 12.7C48.1773 12.34 48.3973 11.8 48.3573 11.54C48.2973 11.12 47.6573 10.66 47.1973 10.6C46.9173 10.56 46.4973 10.68 46.1573 10.76L45.9373 10.82C45.3773 10.98 44.8973 11.24 44.4373 11.64C43.9573 12.08 43.4773 12.6 43.0773 13.14L42.6773 13.72C42.6373 13.88 42.6573 14 42.7573 14.14C42.9773 14.44 42.8973 14.84 42.6173 15.04C42.3373 15.24 41.9373 15.18 41.7173 14.9C41.3573 14.36 41.2773 13.78 41.5173 13.18L41.5773 13.06L42.0373 12.4C42.4973 11.76 43.0373 11.18 43.5973 10.68C44.1973 10.16 44.8773 9.78 45.6173 9.58L45.8173 9.54C46.2573 9.42 46.8173 9.26 47.3573 9.32C48.3173 9.44 49.4573 10.3 49.6173 11.34C49.7573 12.18 49.1973 13.1 48.8573 13.52C48.4973 13.96 47.9773 14.38 47.4373 14.7L46.8773 15.02C46.6773 15.12 46.4573 15.24 46.2573 15.36C46.0173 15.5 45.7773 15.64 45.5373 15.76C45.1573 15.98 44.7773 16.18 44.4173 16.42L44.1173 16.6C44.7173 16.72 45.2373 17.08 45.6373 17.66C45.7173 17.78 45.7973 17.9 45.8773 18.04C46.1573 18.48 46.3973 18.86 46.7573 18.98C47.1973 19.12 47.6973 18.72 48.2973 18.18C48.4373 18.06 48.5773 17.94 48.7173 17.84C48.9773 17.62 49.3773 17.66 49.6173 17.94C49.8373 18.2 49.7773 18.6 49.5173 18.84C49.3973 18.92 49.2773 19.02 49.1573 19.14C48.4773 19.74 47.5373 20.58 46.3573 20.18C45.5573 19.92 45.1373 19.26 44.7973 18.7C44.7373 18.6 44.6573 18.48 44.5773 18.38C44.4173 18.12 43.8773 17.34 42.3173 18.28C42.0773 18.42 41.8173 18.62 41.5573 18.82C41.5373 18.86 41.4973 18.88 41.4773 18.92C41.3173 19.08 41.1773 19.26 41.0173 19.46C40.8173 19.72 40.6173 19.98 40.3573 20.22C40.2373 20.34 40.0773 20.4 39.9173 20.4Z" fill="#1A1A1A"/>
<path d="M39.5373 20.26L39.8574 19.8759L39.8475 19.8677L39.8373 19.86L39.5373 20.26ZM39.3373 19.48L39.7846 19.7037L39.7904 19.6914L39.3373 19.48ZM40.6773 17.88L41.0002 18.2617L41.0161 18.2483L41.0308 18.2336L40.6773 17.88ZM42.2973 16.38L42.6237 16.7587L42.6523 16.7341L42.6769 16.7054L42.2973 16.38ZM42.8173 15.96L43.0946 16.376L43.1184 16.3602L43.1402 16.3417L42.8173 15.96ZM43.7373 15.32L43.48 14.8912L43.4765 14.8934L43.7373 15.32ZM44.9173 14.64L44.6937 14.1928L44.68 14.1996L44.6667 14.2073L44.9173 14.64ZM45.6173 14.26L45.8692 14.6919L45.8745 14.6887L45.6173 14.26ZM46.2573 13.9L46.4967 14.3389L46.5045 14.3347L46.5122 14.3301L46.2573 13.9ZM46.7973 13.58L46.5563 13.1419L46.5493 13.1458L46.5424 13.1499L46.7973 13.58ZM47.8773 12.7L47.4931 12.3799L47.4892 12.3847L47.8773 12.7ZM48.3573 11.54L47.8623 11.6107L47.8631 11.616L48.3573 11.54ZM47.1973 10.6L47.1265 11.095L47.1326 11.0958L47.1973 10.6ZM46.1573 10.76L46.0427 10.2733L46.0342 10.2753L46.0257 10.2776L46.1573 10.76ZM45.9373 10.82L45.8057 10.3376L45.7999 10.3392L45.9373 10.82ZM44.4373 11.64L44.1091 11.2626L44.0994 11.2714L44.4373 11.64ZM43.0773 13.14L42.6755 12.8424L42.6705 12.8492L42.6657 12.8561L43.0773 13.14ZM42.6773 13.72L42.2657 13.4361L42.2142 13.5108L42.1922 13.5987L42.6773 13.72ZM42.7573 14.14L42.3504 14.4306L42.3541 14.4357L42.7573 14.14ZM41.7173 14.9L41.3012 15.1774L41.3121 15.1936L41.3241 15.2089L41.7173 14.9ZM41.5173 13.18L41.0701 12.9564L41.0608 12.975L41.053 12.9943L41.5173 13.18ZM41.5773 13.06L41.1671 12.7741L41.1463 12.8039L41.1301 12.8364L41.5773 13.06ZM42.0373 12.4L41.6312 12.1082L41.6271 12.1141L42.0373 12.4ZM43.5973 10.68L43.2698 10.3021L43.2643 10.307L43.5973 10.68ZM45.6173 9.58L45.5192 9.08971L45.5029 9.09297L45.4868 9.09732L45.6173 9.58ZM45.8173 9.54L45.9153 10.0303L45.9322 10.0269L45.9488 10.0224L45.8173 9.54ZM47.3573 9.32L47.4193 8.82381L47.4125 8.82306L47.3573 9.32ZM49.6173 11.34L49.123 11.416L49.1241 11.4222L49.6173 11.34ZM48.8573 13.52L49.2443 13.8366L49.2459 13.8346L48.8573 13.52ZM47.4373 14.7L47.6854 15.1342L47.6922 15.1301L47.4373 14.7ZM46.8773 15.02L47.1009 15.4672L47.1133 15.461L47.1253 15.4541L46.8773 15.02ZM46.2573 15.36L46.5092 15.7919L46.5145 15.7887L46.2573 15.36ZM45.5373 15.76L45.3137 15.3128L45.3 15.3196L45.2867 15.3273L45.5373 15.76ZM44.4173 16.42L44.6745 16.8487L44.6847 16.8426L44.6946 16.836L44.4173 16.42ZM44.1173 16.6L43.86 16.1713L42.751 16.8367L44.0192 17.0903L44.1173 16.6ZM45.6373 17.66L46.0533 17.3826L46.0489 17.3761L45.6373 17.66ZM45.8773 18.04L45.4431 18.2881L45.449 18.2984L45.4554 18.3084L45.8773 18.04ZM46.7573 18.98L46.5991 19.4544L46.6057 19.4565L46.7573 18.98ZM48.2973 18.18L47.9718 17.8003L47.9628 17.8084L48.2973 18.18ZM48.7173 17.84L49.0079 18.2469L49.0246 18.2349L49.0402 18.2217L48.7173 17.84ZM49.6173 17.94L49.999 17.617L49.9969 17.6146L49.6173 17.94ZM49.5173 18.84L49.7946 19.256L49.8274 19.2341L49.8564 19.2074L49.5173 18.84ZM49.1573 19.14L49.4881 19.5149L49.4998 19.5046L49.5108 19.4936L49.1573 19.14ZM46.3573 20.18L46.5178 19.7064L46.5118 19.7045L46.3573 20.18ZM44.7973 18.7L44.3685 18.9573L44.3699 18.9595L44.7973 18.7ZM44.5773 18.38L44.1514 18.642L44.1676 18.6683L44.1868 18.6923L44.5773 18.38ZM42.3173 18.28L42.5692 18.7119L42.5753 18.7083L42.3173 18.28ZM41.5573 18.82L41.2524 18.4237L41.1614 18.4937L41.1101 18.5964L41.5573 18.82ZM41.4773 18.92L41.8308 19.2736L41.8882 19.2162L41.9245 19.1436L41.4773 18.92ZM41.0173 19.46L40.6268 19.1476L40.621 19.1551L41.0173 19.46ZM40.3573 20.22L40.0181 19.8526L40.0108 19.8594L40.0037 19.8664L40.3573 20.22ZM39.9173 19.9C39.8964 19.9 39.8898 19.8973 39.8891 19.8971C39.8884 19.8968 39.8785 19.8935 39.8574 19.8759L39.2172 20.6441C39.428 20.8198 39.6616 20.9 39.9173 20.9V19.9ZM39.8373 19.86C39.8037 19.8348 39.7846 19.8032 39.7771 19.7759C39.7705 19.7515 39.772 19.7285 39.7845 19.7036L38.8901 19.2564C38.6289 19.7787 38.8284 20.3533 39.2373 20.66L39.8373 19.86ZM39.7904 19.6914C40.0241 19.1905 40.4975 18.6871 41.0002 18.2617L40.3543 17.4983C39.8171 17.9529 39.2104 18.5695 38.8842 19.2686L39.7904 19.6914ZM41.0308 18.2336C41.5214 17.7429 42.0523 17.2513 42.6237 16.7587L41.9708 16.0013C41.3822 16.5087 40.8331 17.0171 40.3237 17.5264L41.0308 18.2336ZM42.6769 16.7054C42.7481 16.6223 42.8566 16.5347 43.0946 16.376L42.5399 15.544C42.2979 15.7053 42.0864 15.8577 41.9176 16.0546L42.6769 16.7054ZM43.1402 16.3417C43.3709 16.1465 43.6452 15.9622 43.998 15.7466L43.4765 14.8934C43.1093 15.1178 42.7836 15.3335 42.4943 15.5783L43.1402 16.3417ZM43.9945 15.7487C44.3918 15.5103 44.7734 15.3011 45.1678 15.0727L44.6667 14.2073C44.3012 14.4189 43.8827 14.6497 43.48 14.8913L43.9945 15.7487ZM45.1409 15.0872C45.3916 14.9618 45.6211 14.8366 45.8692 14.6919L45.3653 13.8281C45.1334 13.9634 44.9229 14.0782 44.6937 14.1928L45.1409 15.0872ZM45.8745 14.6887C46.0641 14.575 46.2747 14.46 46.4967 14.3389L46.0178 13.4611C45.7998 13.58 45.5704 13.705 45.36 13.8313L45.8745 14.6887ZM46.5122 14.3301L47.0522 14.0101L46.5424 13.1499L46.0024 13.4699L46.5122 14.3301ZM47.0382 14.0181C47.4868 13.7714 47.9593 13.3919 48.2653 13.0153L47.4892 12.3847C47.2752 12.6481 46.9077 12.9486 46.5563 13.1419L47.0382 14.0181ZM48.2614 13.0201C48.4478 12.7964 48.6027 12.5264 48.7071 12.2729C48.8018 12.043 48.8932 11.7356 48.8515 11.464L47.8631 11.616C47.8602 11.5972 47.8657 11.6131 47.8522 11.6766C47.8401 11.7336 47.8173 11.8074 47.7824 11.8921C47.7118 12.0636 47.6068 12.2436 47.4932 12.3799L48.2614 13.0201ZM48.8522 11.4693C48.7945 11.0651 48.4929 10.7415 48.2342 10.5403C47.9611 10.3279 47.6045 10.1489 47.2619 10.1042L47.1326 11.0958C47.2501 11.1111 47.4435 11.1921 47.6203 11.3297C47.7042 11.3949 47.7693 11.4615 47.8122 11.5201C47.8571 11.5814 47.8626 11.6126 47.8623 11.6107L48.8522 11.4693ZM47.268 10.105C47.0412 10.0726 46.7975 10.1072 46.6056 10.1439C46.4097 10.1815 46.1946 10.2376 46.0427 10.2733L46.2718 11.2467C46.4599 11.2024 46.6249 11.1585 46.7939 11.1261C46.9671 11.0928 47.0733 11.0874 47.1266 11.095L47.268 10.105ZM46.0257 10.2776L45.8057 10.3376L46.0688 11.3024L46.2888 11.2424L46.0257 10.2776ZM45.7999 10.3392C45.168 10.5198 44.6232 10.8157 44.1092 11.2627L44.7654 12.0173C45.1713 11.6643 45.5865 11.4402 46.0746 11.3008L45.7999 10.3392ZM44.0994 11.2714C43.5987 11.7304 43.0966 12.2738 42.6755 12.8424L43.479 13.4376C43.8579 12.9262 44.3158 12.4296 44.7751 12.0086L44.0994 11.2714ZM42.6657 12.8561L42.2657 13.4361L43.0889 14.0039L43.4889 13.4239L42.6657 12.8561ZM42.1922 13.5987C42.1601 13.7271 42.1441 13.872 42.1731 14.0285C42.2022 14.1854 42.2696 14.3175 42.3504 14.4306L43.1641 13.8494C43.1541 13.8353 43.1513 13.829 43.1516 13.8296C43.1517 13.83 43.1525 13.8319 43.1536 13.835C43.1546 13.8382 43.1556 13.8421 43.1564 13.8465C43.1572 13.8508 43.1576 13.8548 43.1578 13.8581C43.158 13.8614 43.1579 13.8634 43.1579 13.8638C43.1579 13.8644 43.1582 13.8578 43.1623 13.8413L42.1922 13.5987ZM42.3541 14.4357C42.4044 14.5044 42.3867 14.5902 42.3266 14.6331L42.9079 15.4469C43.4078 15.0898 43.5501 14.3756 43.1605 13.8443L42.3541 14.4357ZM42.3266 14.6331C42.2719 14.6723 42.1712 14.6685 42.1104 14.5911L41.3241 15.2089C41.7033 15.6915 42.4027 15.8077 42.9079 15.4469L42.3266 14.6331ZM42.1333 14.6226C41.8572 14.2086 41.8074 13.8009 41.9815 13.3657L41.053 12.9943C40.7471 13.7591 40.8573 14.5114 41.3012 15.1774L42.1333 14.6226ZM41.9645 13.4036L42.0245 13.2836L41.1301 12.8364L41.0701 12.9564L41.9645 13.4036ZM41.9875 13.3459L42.4475 12.6859L41.6271 12.1141L41.1671 12.7741L41.9875 13.3459ZM42.4433 12.6918C42.8792 12.0853 43.3937 11.5321 43.9303 11.053L43.2643 10.307C42.6809 10.8279 42.1154 11.4347 41.6313 12.1082L42.4433 12.6918ZM43.9247 11.0578C44.4744 10.5815 45.0884 10.2409 45.7477 10.0627L45.4868 9.09732C44.6661 9.31913 43.9202 9.73851 43.2698 10.3022L43.9247 11.0578ZM45.7153 10.0703L45.9153 10.0303L45.7192 9.04971L45.5192 9.08971L45.7153 10.0703ZM45.9488 10.0224C46.4118 9.89612 46.8747 9.76946 47.3021 9.81694L47.4125 8.82306C46.7598 8.75054 46.1028 8.94388 45.6857 9.05762L45.9488 10.0224ZM47.2952 9.81614C47.6642 9.86226 48.101 10.059 48.4641 10.3665C48.8277 10.6746 49.0667 11.0496 49.1231 11.416L50.1115 11.264C50.0078 10.5904 49.5968 10.0154 49.1104 9.60348C48.6235 9.19102 48.0103 8.89774 47.4193 8.82386L47.2952 9.81614ZM49.1241 11.4222C49.1723 11.7113 49.1029 12.0494 48.9572 12.3916C48.8137 12.7288 48.6152 13.0244 48.4686 13.2054L49.2459 13.8346C49.4393 13.5956 49.6909 13.2212 49.8773 12.7834C50.0616 12.3506 50.2023 11.8087 50.1105 11.2578L49.1241 11.4222ZM48.4703 13.2034C48.1556 13.588 47.6846 13.9722 47.1824 14.2699L47.6922 15.1301C48.27 14.7878 48.839 14.332 49.2442 13.8366L48.4703 13.2034ZM47.1892 14.2659L46.6292 14.5859L47.1253 15.4541L47.6853 15.1341L47.1892 14.2659ZM46.6537 14.5728C46.4428 14.6782 46.2116 14.8043 46 14.9313L46.5145 15.7887C46.703 15.6757 46.9117 15.5618 47.1009 15.4672L46.6537 14.5728ZM46.0053 14.9281C45.7626 15.0697 45.5367 15.2013 45.3137 15.3128L45.7609 16.2072C46.0178 16.0787 46.2719 15.9303 46.5092 15.7919L46.0053 14.9281ZM45.2867 15.3273C44.93 15.5338 44.5173 15.7524 44.1399 16.004L44.6946 16.836C45.0372 16.6076 45.3845 16.4262 45.7878 16.1927L45.2867 15.3273ZM44.16 15.9913L43.86 16.1713L44.3745 17.0287L44.6745 16.8487L44.16 15.9913ZM44.0192 17.0903C44.4742 17.1813 44.8885 17.455 45.2257 17.9439L46.0489 17.3761C45.586 16.705 44.9603 16.2587 44.2153 16.1097L44.0192 17.0903ZM45.2212 17.9373C45.302 18.0585 45.3729 18.1651 45.4431 18.2881L46.3114 17.7919C46.2217 17.6349 46.1325 17.5015 46.0533 17.3827L45.2212 17.9373ZM45.4554 18.3084C45.59 18.5199 45.7393 18.757 45.906 18.9535C46.0758 19.1537 46.2976 19.3538 46.5992 19.4543L46.9154 18.5057C46.8569 18.4862 46.7787 18.4363 46.6685 18.3065C46.5553 18.173 46.4445 18.0001 46.2991 17.7716L45.4554 18.3084ZM46.6057 19.4565C47.0263 19.5903 47.4185 19.4438 47.7208 19.266C48.0251 19.0869 48.3348 18.8189 48.6317 18.5516L47.9628 17.8084C47.6598 18.0811 47.4194 18.2831 47.2138 18.404C47.0061 18.5262 46.9282 18.5097 46.9089 18.5035L46.6057 19.4565ZM48.6227 18.5596C48.7663 18.4365 48.8892 18.3317 49.0079 18.2469L48.4266 17.4331C48.2654 17.5483 48.1082 17.6835 47.9719 17.8004L48.6227 18.5596ZM49.0402 18.2217C49.0711 18.1956 49.1596 18.1744 49.2376 18.2654L49.9969 17.6146C49.5949 17.1456 48.8835 17.0444 48.3943 17.4583L49.0402 18.2217ZM49.2356 18.263C49.2448 18.2739 49.2561 18.295 49.251 18.3364C49.2456 18.3805 49.2218 18.4323 49.1781 18.4726L49.8564 19.2074C50.2706 18.8251 50.427 18.123 49.999 17.617L49.2356 18.263ZM49.2399 18.424C49.0882 18.5251 48.943 18.6471 48.8037 18.7864L49.5108 19.4936C49.6115 19.3929 49.7063 19.3149 49.7946 19.256L49.2399 18.424ZM48.8265 18.7651C48.4773 19.0732 48.12 19.3873 47.7202 19.5883C47.3378 19.7805 46.9486 19.8525 46.5178 19.7065L46.1967 20.6535C46.9459 20.9075 47.6167 20.7595 48.1693 20.4817C48.7045 20.2127 49.1572 19.8068 49.4881 19.5149L48.8265 18.7651ZM46.5118 19.7045C45.9081 19.5083 45.5712 19.0112 45.2247 18.4405L44.3699 18.9595C44.7034 19.5088 45.2065 20.3317 46.2027 20.6555L46.5118 19.7045ZM45.226 18.4428C45.1579 18.3292 45.0653 18.1896 44.9677 18.0677L44.1868 18.6923C44.2493 18.7704 44.3167 18.8708 44.3685 18.9572L45.226 18.4428ZM45.0031 18.118C44.9073 17.9622 44.6508 17.5692 44.1222 17.403C43.5845 17.234 42.9072 17.3407 42.0592 17.8517L42.5753 18.7083C43.2873 18.2793 43.66 18.306 43.8224 18.357C43.9937 18.4108 44.0873 18.5378 44.1514 18.642L45.0031 18.118ZM42.0653 17.8481C41.7921 18.0075 41.5051 18.2293 41.2524 18.4237L41.8621 19.2163C42.1295 19.0107 42.3624 18.8325 42.5692 18.7119L42.0653 17.8481ZM41.1101 18.5964C41.1276 18.5612 41.1465 18.5368 41.1574 18.5239C41.1662 18.5135 41.1736 18.5065 41.1637 18.5164C41.1586 18.5215 41.1362 18.5435 41.1137 18.5702C41.089 18.5993 41.0576 18.6412 41.0301 18.6964L41.9245 19.1436C41.9069 19.1788 41.888 19.2032 41.8771 19.2161C41.8683 19.2265 41.8609 19.2335 41.8708 19.2236C41.8759 19.2185 41.8983 19.1965 41.9208 19.1698C41.9455 19.1407 41.9769 19.0988 42.0045 19.0436L41.1101 18.5964ZM41.1237 18.5664C40.9393 18.7508 40.7789 18.9575 40.6268 19.1477L41.4077 19.7723C41.5756 19.5625 41.6952 19.4092 41.8308 19.2736L41.1237 18.5664ZM40.621 19.1551C40.418 19.4189 40.2423 19.6457 40.0181 19.8526L40.6964 20.5874C40.9922 20.3143 41.2165 20.0211 41.4136 19.7649L40.621 19.1551ZM40.0037 19.8664C39.9836 19.8865 39.9536 19.9 39.9173 19.9V20.9C40.2009 20.9 40.4909 20.7935 40.7108 20.5736L40.0037 19.8664Z" fill="black"/>
</svg>
