<svg fill="none" height="54" viewBox="0 0 100 54" width="100" xmlns="http://www.w3.org/2000/svg"><path d="m48.1985 29.4727c-1.5911-3.7752-1.7392-8.0272.5551-12.9194 3.9761-8.47844 14.2626-14.46079 23.4539-15.09123 3.9884-.27358 7.756.91036 11.1097 3.04474 1.023.39066 2.0317.83455 3.0203 1.32883 6.5104 3.25523 9.7592 10.72536 10.3885 18.01516.7235 2.7336 1.0634 5.4531.9539 7.986-.2915 6.7467-5.7335 13.3993-11.5347 16.3408-9.8313 4.9849-29.0036 6.1401-34.9886-5.5751-2.0764-4.0645-3.0244-8.6002-2.9581-13.1298z" fill="#fff"/><path d="m66.5362 47.3125c-10.0862-7.4797-24.5456-16.3381-17.7826-30.7592 3.9761-8.47844 14.2626-14.46079 23.4539-15.09123 14.475-.992877 26.0412 17.21203 25.4724 30.37473-.2915 6.7467-5.7335 13.3993-11.5347 16.3408-9.8313 4.9849-29.0036 6.1401-34.9886-5.5751-5.4812-10.7293-3.0992-24.7425 5.0465-33.25839 7.9883-8.35148 20.1001-8.525614 30.1344-3.50847 8.2822 4.14114 11.286 15.10356 10.3331 23.83836-1.1646 10.6761-10.6922 16.5684-20.6663 18.023-12.4872 1.821-22.3603-4.3167-25.0399-16.8215" stroke="#292927" stroke-linecap="round" stroke-width="2.7442"/><path d="m3.53503 22.5127c-.50658-3.3658-.11906-7.4 1.67446-9.9966 5.42811-7.85867 15.81071-7.52994 22.78601-2.65823 1.5282.81953 2.8783 1.89383 3.936 3.23493 4.2921 5.4417 6.6778 14.7314 1.1535 20.1857-2.6635 2.6298-5.9692 3.9589-9.4743 4.5059-1.9223.6325-3.9585.8913-6.0014.6847-5.6141-.5677-13.2337-3.419-14.0339-9.9006-.03608-.2923-.06738-.5882-.0937-.8872-.14637-1.6622-.13906-3.4187.05333-5.1686z" fill="#fff"/><g stroke="#292927" stroke-linecap="round" stroke-width="2.7442"><path d="m21.5503 32.6057c-6.4694-.3623-15.14171-.2577-17.49428-7.786-1.13291-3.6252-1.0763-9.0755 1.15346-12.3036 8.90602-12.89387 31.14932-3.74757 29.79792 11.3424-.7595 8.4819-9.0222 15.4576-17.3981 14.6106-5.6141-.5677-13.2337-3.419-14.0339-9.9006-.84106-6.8126.91934-15.5989 7.5937-18.9361 6.2786-3.13934 16.2183-2.30095 20.7624 3.4604 4.2921 5.4417 6.6778 14.7314 1.1535 20.1857-4.4416 4.3854-10.6694 5.1538-16.6292 4.71-9.82821-.7319-10.7805-6.2573-14.80285-14.0339"/><path d="m15.4944 19.6318c1.8863.0524 12.5957 1.0103 5.1906.8651-1.8198-.0357-3.4289-.7615-5.1906-.8651zm0 0c-.8497-.05 5.3168 0 6.0557 0"/><path d="m61.7261 22.4384c-1.2391.1549 4.741 6.2936 5.3478 6.9004 1.2678 1.2678 2.4822 2.5663 3.6658 3.8814.2774.3082 1.2124 2.5583 1.7682 1.9407.897-.9966.8009-4.1469 1.4448-5.5634.8207-1.8055 1.004-3.8858 1.9623-5.628 1.0018-1.8215 2.4474-3.3505 3.2776-5.2184.5295-1.1915 1.4112-2.3019 1.9407-3.4933.3164-.7119 2.3316-1.7467 1.5526-1.7467"/></g></svg>