<svg width="41" height="49" viewBox="0 0 41 49" fill="none" xmlns="http://www.w3.org/2000/svg">
<path d="M32.1928 33.98C32.4409 31.8882 32.0987 31.8711 32.1457 29.7665C32.1671 28.7399 32.2612 27.7262 32.2655 26.6996C32.2698 25.6259 32.5307 24.6249 32.6291 23.5598C32.6847 22.9524 32.7189 22.3407 32.7916 21.7376C32.8558 21.1943 32.8259 20.6682 32.8772 20.1292C32.89 20.0009 32.9713 19.8726 32.9798 19.7571C33.0012 19.5347 32.9841 19.6458 32.8986 19.5047C32.8045 19.3464 32.535 19.2096 32.3895 19.0983C31.8762 18.7005 31.3929 18.401 30.7384 18.2941C30.3064 18.2214 29.8872 18.2086 29.4509 18.1957C28.7451 18.1743 28.0863 18.0759 27.3891 17.9604C26.5635 17.8236 25.7422 17.6653 24.9124 17.537C23.8687 17.3787 22.8207 17.2932 21.7855 17.0922C19.882 16.72 17.9314 16.3735 15.9979 16.1767C15.3135 16.1083 14.642 16.1468 13.9576 16.1255C13.4229 16.1083 12.9267 15.9501 12.4005 15.8945C11.9343 15.8474 11.4424 15.8644 11.0061 16.0441C10.6938 16.1682 10.4243 16.4163 10.1591 16.6173C9.23515 17.3274 8.37963 18.0503 7.85349 19.5347C7.36158 21.5922 7.1477 23.6882 6.73278 25.7585C6.33496 27.7561 5.91147 29.728 5.91147 31.7684C5.91147 32.0635 5.97565 32.4101 5.90721 32.6924C5.83449 32.9918 5.67622 33.2998 5.57783 33.5992C5.3939 34.1638 5.40246 34.7285 5.42385 35.3231C5.43668 35.7722 5.65912 36.1145 5.66767 36.5379C5.67195 36.7646 5.68904 36.8758 5.86442 37.0127C5.91575 37.0555 6.08687 37.1025 6.15104 37.1368C6.35636 37.2565 6.54029 37.402 6.76272 37.5089C7.29314 37.7742 7.84921 38.0565 8.43524 38.1549C9.08115 38.2661 9.69711 38.373 10.3302 38.5441C11.0745 38.7451 11.7675 38.805 12.5246 38.8735C13.4956 38.9633 14.4923 38.8862 15.4376 39.1429C16.3402 39.3867 17.2812 39.575 18.1966 39.7632C19.0992 39.9514 20.0317 40.1267 20.9471 40.2166C21.8197 40.3021 21.0027 40.3749 21.871 40.5161" stroke="white" stroke-width="2" stroke-miterlimit="10" stroke-linecap="round" stroke-linejoin="round"/>
<path d="M18.9067 31.6744C18.3805 31.8113 18.2094 31.8541 17.7346 31.5931C17.2213 31.3151 16.6653 31.0841 16.1904 30.7419C15.2537 30.0618 14.8901 29.0951 14.796 27.9743C14.7361 27.2643 14.6976 26.5243 14.9585 25.8441C15.2922 24.9758 15.9851 24.2785 16.7508 23.778C17.2727 23.4358 17.7731 23.1236 18.4062 23.0594C19.2061 22.9782 20.0745 22.991 20.853 23.1835C22.1961 23.5171 23.18 24.3299 23.9841 25.4378C24.8311 26.6056 25.3145 28.0727 25.1006 29.5228C25.0108 30.1516 24.6514 30.5194 24.2023 30.913C23.3126 31.6958 22.2688 32.1407 21.1781 32.5684C20.2456 32.9363 19.296 33.287 18.2865 33.3768C17.4053 33.4538 16.9476 33.2015 16.6011 32.4058" stroke="white" stroke-width="2" stroke-miterlimit="10" stroke-linecap="round" stroke-linejoin="round"/>
<path d="M27.0467 23.2905C26.7088 22.7044 26.6061 21.9344 27.4916 21.8189C27.8637 21.7718 28.3214 21.8403 28.531 22.1868C29.0486 23.0295 27.6499 23.1878 27.1665 23.2905" stroke="white" stroke-width="2" stroke-miterlimit="10" stroke-linecap="round" stroke-linejoin="round"/>
<path d="M23.2313 42.8942C22.6196 42.5178 22.2688 41.9831 22.1747 41.2944C22.1875 41.0335 22.2004 40.7769 22.2175 40.516C22.2303 39.4893 22.5426 38.7963 23.1885 37.975C23.8814 37.0938 24.8097 36.4523 25.5326 35.5882C26.2298 34.7541 26.6319 33.89 26.9698 32.8591C27.0896 33.1756 27.7483 34.2878 27.7612 34.6258C27.7483 34.7498 27.7997 34.8225 27.9109 34.8439C28.0093 35.477 27.8125 35.9645 27.6029 36.5634C27.5516 36.7131 27.2564 37.4575 27.3206 37.6115C27.6842 38.467 29.2498 37.0425 29.3054 36.9997C31.0335 35.6737 32.4408 34.3605 33.1295 32.2858C33.523 31.101 33.8738 29.9118 34.4299 28.7868C35.0074 27.6148 35.6276 26.9047 36.7355 26.2331C37.5782 25.7241 38.5534 25.1424 38.9726 24.197C39.1908 24.3981 38.9128 26.0364 39.0026 26.2845C39.4004 27.4224 39.58 28.6072 39.7597 29.7964C39.918 30.8401 40.0549 31.8667 39.9779 32.9233C39.8709 34.3734 39.148 35.6951 38.284 36.8244C37.6894 37.6029 37.1333 38.3986 36.6071 39.2241C36.1409 39.9599 35.5634 40.7255 35.5805 41.6366C35.5848 41.9104 35.6319 42.3211 35.8244 42.535C36.3248 43.091 37.1632 42.3553 37.5953 42.1029C37.5995 42.7745 38.7673 42.9755 38.6347 43.6385C38.4807 44.417 38.207 44.725 37.5995 45.2683C36.6157 46.1494 35.2298 46.9536 33.8781 47.052C33.1894 47.0691 32.5135 46.9964 31.842 46.8338C31.1148 46.7269 30.379 46.6371 29.6476 46.5772C28.9974 46.4917 28.39 46.2264 27.7312 46.2179C27.1538 46.2136 26.5891 46.4574 26.0245 46.4532C25.4898 46.4489 24.7926 46.2821 24.3177 46.0254C23.783 45.6233 23.4323 45.0886 23.274 44.4128C23.0345 43.63 23.5478 43.647 23.2313 42.8942Z" stroke="white" stroke-width="2" stroke-miterlimit="10" stroke-linecap="round" stroke-linejoin="round"/>
<path d="M5.32983 32.0721C4.56842 32.2218 3.56321 31.1568 3.09696 30.6777C2.23289 29.7966 1.60407 28.3293 1.58268 27.1016C1.56985 26.3531 1.54846 25.566 1.58268 24.8217C1.61263 24.1244 1.77518 23.4658 1.74952 22.7643C1.71102 21.7633 1.41586 20.8265 1.18059 19.8641C0.988103 19.0684 0.992392 18.3327 1.00522 17.5114C1.48431 18.2899 2.5152 19.8555 3.35788 20.2918C3.98668 20.6212 4.77802 20.4714 5.00473 19.8084C5.40254 18.6577 5.03041 17.3959 5.20579 16.211C5.27851 15.7148 5.30845 15.3042 5.18012 14.808C4.84647 13.5161 4.35882 12.2799 4.87641 11.0137C5.163 10.3036 5.24427 9.56798 5.45815 8.84079C5.9629 7.1426 6.95529 5.6198 8.05035 4.2467C8.83314 3.26714 9.45339 2.78377 10.4586 2.09508C10.8949 1.79565 11.6264 1.08127 12.1868 1C12.3065 1.42348 12.1654 1.78281 12.0413 2.18917C11.5964 3.67348 11.327 5.2091 11.297 6.76185C11.2842 7.43771 11.22 8.25043 11.4895 8.88779C12.0328 10.1839 12.4306 11.8051 13.7866 12.4682C14.9543 13.0413 16.4643 13.3194 17.7476 13.2253C18.3379 13.1825 19.2276 13.0541 19.6725 12.6392C20.3184 12.0318 20.3569 10.7101 20.4467 9.89734C20.5836 8.69106 20.3654 7.65163 20.0831 6.48814C20.2927 7.02283 21.4733 7.79271 21.8712 8.11781C22.1492 8.34452 22.3973 8.5927 22.6454 8.84936C23.4795 9.70487 24.3778 10.4577 24.8868 11.5698C25.7381 13.4306 25.3787 15.1159 24.2152 16.72" stroke="white" stroke-width="2" stroke-miterlimit="10" stroke-linecap="round" stroke-linejoin="round"/>
<path d="M27.8896 42.7787C27.4062 42.9327 27.1667 42.4237 27.1111 42.0387C27.0041 41.2773 27.1624 40.7084 27.496 40.024C27.834 40.5886 28.1248 40.7127 28.8007 40.7897C29.1771 40.8325 29.5065 40.8667 29.8572 40.6742C30.285 40.4432 30.4347 40.0839 30.7085 39.7118C31.3287 38.8691 32.1885 38.4285 33.1338 38.0564C33.1681 38.2703 32.8986 38.9119 32.8515 39.1215C32.7104 39.7332 32.4323 40.332 32.1414 40.8881C31.7992 41.5425 31.6923 42.2098 32.4794 42.552C32.659 43.5273 31.4057 44.122 30.6101 44.1348C29.3311 44.1519 29.0958 43.0867 27.8896 42.7787Z" stroke="white" stroke-width="2" stroke-miterlimit="10" stroke-linecap="round" stroke-linejoin="round"/>
</svg>
