<svg width="42" height="46" viewBox="0 0 42 46" fill="none" xmlns="http://www.w3.org/2000/svg">
<path d="M33.321 32.9174C33.8384 31.4151 34.3726 29.9602 34.5284 28.3633C34.6035 27.6039 34.6535 26.7025 34.3754 25.982C34.1751 25.4618 33.7717 25.2003 33.2181 25.331C32.9844 25.3867 32.8286 25.4813 32.6589 25.6287C32.5782 25.6982 32.5838 25.7734 32.4864 25.8012C32.4447 25.7233 32.4391 25.6398 32.4697 25.5508C32.4753 25.1975 32.428 24.847 32.3278 24.5048C32.1776 24.0541 31.8939 23.6786 31.4182 23.5589C30.6058 23.3559 28.6696 23.9901 28.3024 24.6689C28.0437 24.2683 27.9435 23.801 27.6765 23.4143C27.5234 23.1917 27.3287 22.9247 27.1117 22.755C26.8808 22.5769 24.8528 22.6159 24.569 22.6214C24.4132 22.6242 24.1462 22.5658 23.9959 22.6075C23.7817 22.6659 23.6037 22.8746 23.4423 23.0109C22.7663 23.5923 22.3268 23.8483 22.1543 24.7023C22.4047 24.5104 22.2767 23.8149 22.2767 23.5422C22.2767 22.9274 22.3045 22.3098 22.2517 21.6978C22.1348 20.3013 21.9596 18.9159 21.9095 17.5138C21.8566 15.9865 21.9039 14.3591 21.4811 12.8763C21.3559 12.4368 21.1361 11.3351 20.563 11.2155C20.0929 11.1181 19.4948 11.3601 19.0608 11.5271C18.1789 11.8665 17.7672 12.7261 17.4918 13.5634C17.3499 13.9974 17.1746 14.3952 17.1357 14.8515C17.0801 15.4635 17.1941 15.9309 17.3249 16.5067C17.3694 16.707 17.3694 16.9101 17.3749 17.1132C17.3889 17.9533 17.3777 18.7935 17.3749 19.6308C17.3694 21.4141 17.3638 23.1945 17.3694 24.9777C17.3722 26.2268 17.4417 27.3869 17.6281 28.6137C17.7255 29.2424 16.8297 30.3135 16.8881 30.945C16.9465 31.6071 16.1314 31.1898 15.856 31.0702C15.052 30.7196 14.529 30.3385 14.0505 29.6069C13.6305 28.9642 13.4357 28.2242 12.9544 27.6178C12.7569 27.3674 12.6596 27.0475 12.5038 26.7721C12.2506 26.3214 11.7888 25.6955 11.2074 26.0404C10.6371 26.3798 10.5175 27.4425 10.5008 28.049C10.4674 29.2536 10.6733 30.5249 11.0238 31.6711C11.3576 32.7644 11.9029 33.7659 12.7013 34.5865C13.2326 35.1318 13.8669 35.5407 14.415 36.0693C14.9352 36.5701 15.3302 37.1459 15.7865 37.6967C15.8783 37.808 15.9784 37.9054 16.0953 37.9944C16.3206 38.1641 16.532 38.2976 16.7101 38.5258C17.1969 39.1545 17.4028 40.0976 17.6058 40.8542C17.6559 41.0378 17.9786 42.8934 18.3542 42.8183C18.6713 43.3218 18.93 43.269 19.4614 43.5666C19.8175 43.7669 20.2042 43.9283 20.5909 44.0618C21.3865 44.3344 22.2044 44.3011 23.0306 44.2955C24.2547 44.2899 27.4316 44.3901 28.5416 43.792C28.767 43.6696 28.9895 43.5611 29.2288 43.4692C29.4986 43.3663 30.9536 43.3468 31.2012 43.2133C31.6073 42.9963 31.5183 42.2981 31.5739 41.9142C31.7242 40.8876 31.6045 39.7609 31.599 38.7288C31.5962 37.8164 31.6101 36.7231 32.0413 35.8913C32.1748 35.6298 32.3696 35.4072 32.517 35.1568C32.9315 34.4836 33.0678 33.6546 33.321 32.9174Z" stroke="white" stroke-width="2" stroke-miterlimit="10" stroke-linecap="round" stroke-linejoin="round"/>
<path d="M19.8314 2.05444C19.8231 3.75142 19.9705 5.44563 19.9566 7.13983C19.9566 7.11757 19.9538 7.09532 19.9538 7.07307" stroke="white" stroke-width="2" stroke-miterlimit="10" stroke-linecap="round" stroke-linejoin="round"/>
<path d="M23.1363 8.78961C23.3338 8.85081 24.4382 8.05796 24.2769 8.16646C24.8667 7.77421 25.4064 7.3263 26.0768 7.07593" stroke="white" stroke-width="2" stroke-miterlimit="10" stroke-linecap="round" stroke-linejoin="round"/>
<path d="M26.0768 13.4409C26.789 13.413 27.4622 13.3407 28.1577 13.196" stroke="white" stroke-width="2" stroke-miterlimit="10" stroke-linecap="round" stroke-linejoin="round"/>
<path d="M11.6274 8.05518C12.1532 9.13735 12.9154 10.3085 14.0755 10.7481" stroke="white" stroke-width="2" stroke-miterlimit="10" stroke-linecap="round" stroke-linejoin="round"/>
<path d="M39 1.20382C35.7852 1.01485 32.5703 1.00571 29.3524 1.17335C27.3595 1.24955 25.3727 1.39585 23.3891 1.61531C20.7681 1.84695 18.144 2.02068 15.5168 2.12736C12.902 2.23099 10.2873 2.34681 7.67561 2.48702C6.45684 2.48397 5.25361 2.61503 4.06592 2.88325C3.42234 3.09051 2.80673 3.35874 2.21911 3.69097C1.89576 3.87385 1.88021 4.04758 1.66257 4.36152C1.47292 4.63279 1.34855 4.96807 1.22419 5.27286C0.981677 5.85197 1.00033 6.43109 1.00033 7.04678C1.00033 7.92154 1.09982 8.76583 1.19621 9.63449C1.32679 10.8049 1.48846 11.9662 1.5351 13.1458C1.56619 13.8986 1.54132 14.6301 1.72165 15.3708C1.87089 15.9956 2.15382 16.5839 2.30616 17.2026C2.37145 17.4617 2.39944 17.9097 2.67615 18.0713C2.9311 18.2206 3.55603 18.2602 3.82341 18.3273C5.08882 18.6565 6.3418 18.9094 7.65696 18.9521C8.37827 18.9643 9.09959 18.9369 9.8178 18.8729C10.5142 18.8515 11.2107 18.8698 11.904 18.9308C12.4979 18.9491 13.0886 18.9674 13.6824 18.9887C14.1208 19.0436 14.5592 19.0649 15.0007 19.0497C15.607 18.9826 16.1977 18.8668 16.7978 18.7418" stroke="white" stroke-width="2" stroke-miterlimit="10" stroke-linecap="round" stroke-linejoin="round"/>
<path d="M22 18.0487C23.809 18.0729 25.6054 17.8402 27.4176 17.8251C28.5562 17.816 29.6947 17.81 30.8333 17.8372C31.4753 17.8523 32.0793 17.9792 32.715 18.0306C33.6164 18.1061 34.4924 17.9974 35.3653 17.7737C35.6626 17.6982 35.9441 17.6347 36.2509 17.6196C36.6051 17.6015 36.8518 17.4534 37.168 17.2963C37.6203 17.3235 37.5634 16.9941 37.8512 16.7161C38.4805 16.1118 39.17 15.5014 39.6033 14.7489C40.0524 13.9693 40.0113 13.09 39.9859 12.2258C39.9543 11.1742 39.8689 10.1286 39.8594 9.07705C39.8531 8.08591 39.8784 7.13707 39.7551 6.15197C39.6539 5.33912 39.5274 4.54137 39.5179 3.72247C39.5116 3.15438 39.4198 2.61952 39.4104 2.05444" stroke="white" stroke-width="2" stroke-miterlimit="10" stroke-linecap="round" stroke-linejoin="round"/>
<path d="M4.76161 16.1226C4.71432 16.348 4.66981 16.5733 4.62251 16.7986C4.62808 15.8027 4.66703 14.8012 4.6865 13.8025C4.68093 14.0334 4.58913 11.5325 4.86176 11.2793C5.37085 11.513 5.93837 11.6131 6.45859 11.8245C7.34881 12.1862 8.24459 12.5089 9.07917 12.9874C9.44083 13.1933 10.4256 13.8554 10.2142 14.4451C10.128 14.6844 9.65504 14.7678 9.44639 14.8763C8.76482 15.2269 8.11662 15.633 7.43505 15.9808C6.61716 16.398 5.76033 16.7235 4.89236 17.024C4.70597 17.088 4.28312 17.3856 4.08004 17.2966C4.06056 17.2187 4.68372 16.1672 4.76161 16.1226Z" stroke="white" stroke-width="2" stroke-miterlimit="10" stroke-linecap="round" stroke-linejoin="round"/>
</svg>
