<svg width="48" height="42" viewBox="0 0 48 42" fill="none" xmlns="http://www.w3.org/2000/svg">
<path d="M3.23757 24.6729C3.10191 23.9906 4.41861 22.4864 4.58619 22.251C5.67147 20.7069 6.78867 18.9074 8.07744 17.5109C10.0046 15.4162 12.7896 13.8202 15.439 12.8586C18.8823 11.6097 22.4015 10.7798 25.9965 10.1174C27.3292 9.87405 28.6618 9.67855 30.0224 9.67456C31.1835 9.67456 32.177 10.0935 33.2623 10.4686C35.0698 11.091 37.0408 11.7135 38.6687 12.7269C40.0493 13.5888 41.4178 14.4625 42.8183 15.2885C43.9395 15.9508 44.4343 16.7648 45.0687 17.8899C45.4437 18.5523 45.8308 19.2944 46.3455 19.869C46.5968 20.1523 46.916 20.268 46.9998 20.667" stroke="white" stroke-width="2" stroke-miterlimit="10" stroke-linecap="round" stroke-linejoin="round"/>
<path d="M3.6527 21.9154C3.50906 21.7598 3.36941 21.6002 3.22577 21.4446C3.39335 24.1299 7.16788 27.8206 8.56039 29.1533C11.493 31.9622 15.6466 34.053 19.1259 34.9707C23.6944 36.1757 28.2151 35.7208 32.7717 34.7472C34.1482 34.452 35.453 34.5916 36.7298 33.8455C38.0584 33.0675 39.6265 32.3493 40.8754 31.3597C42.0923 30.3942 43.3412 28.459 44.0634 26.8032C44.5701 25.6421 44.8973 24.2616 45.4519 23.1404C45.8868 22.2586 46.5412 21.5484 47 20.6626" stroke="white" stroke-width="2" stroke-miterlimit="10" stroke-linecap="round" stroke-linejoin="round"/>
<path d="M9.91696 14.3145C8.93542 14.8372 6.89654 12.6228 6.32198 12.1479C4.90553 10.9829 3.45716 9.94149 1.90106 8.97192" stroke="white" stroke-width="2" stroke-miterlimit="10" stroke-linecap="round" stroke-linejoin="round"/>
<path d="M23.9495 10.3089C23.7141 7.27649 23.6184 4.34385 23.6144 1.2915" stroke="white" stroke-width="2" stroke-miterlimit="10" stroke-linecap="round" stroke-linejoin="round"/>
<path d="M41.3186 13.6486C41.558 12.2721 43.6847 10.8437 44.6582 9.97388" stroke="white" stroke-width="2" stroke-miterlimit="10" stroke-linecap="round" stroke-linejoin="round"/>
<path d="M20.1432 15.7832C18.1363 16.8724 16.8595 18.1213 16.2969 20.4155C15.6585 23.013 16.7078 25.1676 18.5712 26.999C21.0091 29.397 23.5507 30.3427 26.9741 30.1152C29.009 29.9796 31.1516 29.0978 32.7197 27.813C34.2638 26.5442 35.8 24.6808 35.2813 22.5621C34.6509 19.9846 33.0748 17.2395 30.8444 15.7473C29.1008 14.5822 27.6245 14.4186 25.5577 14.4385C23.3273 14.4625 21.839 14.3627 20.1432 15.7832Z" stroke="white" stroke-width="2" stroke-miterlimit="10" stroke-linecap="round" stroke-linejoin="round"/>
<path d="M12.255 32.3538C12.1672 32.9961 11.473 33.4749 11.074 33.9458C10.4156 34.7158 9.84905 35.5458 9.25055 36.3637" stroke="white" stroke-width="2" stroke-miterlimit="10" stroke-linecap="round" stroke-linejoin="round"/>
<path d="M29.2925 36.6985C29.2726 38.087 29.3524 39.3399 29.6277 40.7085" stroke="white" stroke-width="2" stroke-miterlimit="10" stroke-linecap="round" stroke-linejoin="round"/>
<path d="M40.9827 30.686C42.5947 32.294 43.9752 33.2795 45.9942 34.3608" stroke="white" stroke-width="2" stroke-miterlimit="10" stroke-linecap="round" stroke-linejoin="round"/>
<path d="M20.9774 15.9508C22.6373 17.4152 24.4647 18.6959 26.0966 20.1922C26.6113 20.663 27.0941 21.1697 27.5848 21.6645C27.7405 21.8201 27.8921 22.0316 28.0836 22.1473C28.1434 21.9518 28.0996 21.7203 28.1275 21.5169C28.2153 20.8984 28.5145 20.2002 28.73 19.6376C29.0212 18.8795 29.3006 18.1254 29.5679 17.3593C29.6237 17.2037 29.9509 16.5932 29.7754 16.4935C29.2527 16.8885 28.9016 18.4047 28.7699 18.8157C28.5704 19.4381 28.4307 20.655 27.8282 20.9982C28.311 19.087 29.0691 17.2555 29.4801 15.3284C28.4148 17.0281 27.8043 18.9513 27.0183 20.7787C27.2617 19.5777 27.6447 18.4126 27.9918 17.2356C28.1594 16.661 28.722 15.4361 28.5784 14.7817C27.4572 16.1383 26.8307 17.8381 26.2642 19.486C26.5993 17.9817 27.1699 16.5653 27.5888 15.093C27.0542 16.1902 26.6352 17.3673 26.0327 18.4246C26.2681 17.2316 26.6632 16.0665 26.7988 14.8616C26.2841 15.0531 26.0607 15.8471 25.8133 16.3059C25.7095 16.5015 25.3066 17.5707 25.0831 17.6745C25.2427 16.8406 25.4382 16.0147 25.6298 15.1887C25.2308 16.0346 25.0033 16.9843 24.6921 17.87C24.6043 17.0082 24.6841 16.0984 24.724 15.2326C24.4128 15.9827 24.1176 16.8486 23.531 17.4231C23.152 16.8366 23.0722 15.9907 22.6013 15.488C22.4936 15.6955 22.5654 15.8949 22.8128 16.0785C23.2358 16.7009 23.7545 17.2196 24.3729 17.6386C25.4263 18.4805 26.711 19.0391 27.6886 19.9648C26.7509 19.067 25.8452 18.1852 24.7599 17.4631C23.942 16.9164 22.8487 16.1822 21.8153 16.2421C23.2597 17.5149 25.0392 18.3847 26.5515 19.5937C26.1724 19.2785 25.7973 18.9553 25.4303 18.6281" stroke="white" stroke-width="2" stroke-miterlimit="10" stroke-linecap="round" stroke-linejoin="round"/>
<path d="M18.3076 19.6615C18.2917 19.6216 18.2757 19.5816 18.2597 19.5417C19.2134 20.6988 20.953 21.2135 22.2019 21.9716C22.8403 22.3587 23.4747 22.7617 24.0173 23.2804C24.2567 23.5078 24.4841 23.8629 24.8033 23.9746C24.556 24.1741 24.5001 24.8484 24.4083 25.2235C24.2447 25.8699 24.1609 26.7796 23.6702 27.2744C23.5984 26.0055 23.7141 24.7327 23.6662 23.4639C22.9121 24.6848 22.4971 26.0933 22.15 27.4739C22.1659 26.5282 22.1699 25.5786 22.1699 24.633C22.1699 24.1662 22.2537 23.5637 22.15 23.0929C21.8827 23.5876 21.8308 24.1781 21.7231 24.7247C21.5794 25.4469 21.4557 26.1771 21.2842 26.8913C21.3041 25.2275 21.4916 23.5676 21.6113 21.9118C21.364 22.1432 21.0887 23.3961 20.969 23.7671C20.6458 24.7726 20.3705 25.7861 20.147 26.8155C20.1989 24.7646 20.5181 22.7218 20.7455 20.6869C20.2747 22.5422 19.764 24.3856 19.3251 26.245C19.2453 26.0016 19.4647 24.0904 19.4966 23.6993C19.5605 22.8694 19.7759 21.816 19.6483 20.9781C19.2971 22.0395 18.942 23.1088 18.4194 24.0983C18.2637 23.3602 18.2957 22.618 18.3036 21.8679C18.3076 21.5607 18.4153 20.8704 18.3076 20.5552C18.1201 21.0819 17.9326 21.6086 17.7371 22.1352C17.5136 22.4904 17.4059 22.8654 17.4139 23.2684C18.2398 23.2245 18.942 23.017 19.6523 23.5956C20.2468 24.2699 20.6537 25.0479 20.8732 25.9257C20.8493 26.5362 21.0527 27.007 21.4876 27.3382C21.8667 26.4484 22.1779 25.5347 22.4173 24.5971C22.4772 24.1342 22.6408 23.7193 22.9041 23.3562C22.964 24.8804 22.8842 26.4085 22.9201 27.9367C23.4068 27.7891 23.4068 26.3766 23.4946 25.8938C23.6023 25.2913 23.7659 24.6489 23.8138 24.0345C23.3629 25.7103 22.924 27.3861 22.5889 29.0938C22.6846 28.3756 22.7924 27.6574 22.9041 26.9432" stroke="white" stroke-width="2" stroke-miterlimit="10" stroke-linecap="round" stroke-linejoin="round"/>
<path d="M26.7704 29.0141C26.7385 28.7229 26.9818 28.3877 27.1215 28.1483C27.4048 27.6575 27.6641 27.1548 27.9314 26.656C28.115 26.3089 28.2706 25.9099 28.4741 25.5827C28.5579 25.4431 28.514 25.3234 28.6896 25.2795C29.0407 25.1957 29.6511 25.7543 29.8786 25.9419C30.6008 26.5364 31.1314 27.3264 31.8177 27.9688C31.1274 27.2226 30.2816 26.5364 29.4556 25.9419C29.324 26.3289 29.4636 26.7678 29.5274 27.1628C29.5793 27.5059 29.6113 27.9448 29.7709 28.264C29.6033 27.5817 29.32 26.9234 28.901 26.3608C28.6217 27.1308 28.5978 28.0366 28.5499 28.8505C28.4462 28.3558 28.3624 27.853 28.2866 27.3543C28.2387 27.0351 28.2507 26.6321 28.0751 26.3528C27.7679 27.1867 27.6881 28.1124 27.5524 28.9902C27.7878 28.9104 27.9235 28.7189 27.9554 28.4156" stroke="white" stroke-width="2" stroke-miterlimit="10" stroke-linecap="round" stroke-linejoin="round"/>
<path d="M32.7077 18.9194C32.2329 20.3838 31.6783 21.8082 31.3431 23.3204C31.7661 22.9852 32.0015 22.283 32.2728 21.8202C32.4962 21.4212 32.7436 21.0381 33.011 20.6671C33.2384 20.5234 33.3262 20.3519 33.2783 20.1484C32.5601 21.2297 32.3446 22.6062 31.9855 23.8391C32.6159 23.085 33.011 22.1434 33.6334 21.3773C33.8688 21.5888 33.9725 22.686 33.8967 23.0252C33.5576 22.8895 32.576 21.8401 32.3207 22.3109C32.1531 22.6261 32.8753 23.5 32.9431 23.5878C33.3222 24.0985 33.7172 24.6092 34.2199 25.0002C34.1441 24.1982 32.3686 23.5359 31.774 23.2406C31.8538 23.5319 32.6359 24.1184 32.7316 24.2102C33.1346 24.6052 33.5496 25.1838 34.0563 25.4351C33.5696 24.6172 32.9431 23.887 32.4284 23.085C32.7316 22.8536 34.1002 24.0905 34.3436 24.258" stroke="white" stroke-width="2" stroke-miterlimit="10" stroke-linecap="round" stroke-linejoin="round"/>
</svg>
