<svg width="47" height="54" viewBox="0 0 47 54" fill="none" xmlns="http://www.w3.org/2000/svg">
<path d="M3.50729 40.0731C3.51192 40.0238 3.51955 39.9756 3.52717 39.9275C3.62149 39.3234 3.66965 38.7431 3.82 38.1529C3.93364 37.6987 4.01906 37.2749 4.18762 36.8377C4.68731 35.5237 5.13021 34.1887 5.49914 32.8331C5.9176 31.2886 6.04431 29.6599 6.45082 28.1109C6.7293 27.055 6.88456 25.9738 7.23401 24.9374C7.58867 23.896 8.0267 22.8957 8.36044 21.8466C8.75709 20.5999 9.17135 19.3698 9.61882 18.1419C10.1297 16.7335 10.4679 15.268 10.9358 13.8471C11.6164 11.7776 12.4421 9.77531 13.3369 7.78841C13.9066 6.52412 14.2916 5.1711 14.905 3.92639C15.1058 3.52145 15.2831 3.03305 15.6125 2.7029C15.8376 2.48029 16.1759 2.37432 16.5287 2.34851C16.7563 2.33071 17.4928 2.44347 17.5317 2.79773C19.5939 2.58861 21.8258 3.45508 23.82 4.12823C25.3762 4.65296 26.9932 5.01327 28.5159 5.63777C29.2773 5.95002 30.015 6.30789 30.7848 6.6063C31.6863 6.95337 32.641 7.21141 33.5645 7.49869C34.4701 7.77934 35.3768 8.05699 36.2744 8.36863C37.1558 8.67774 37.9646 9.08231 38.8298 9.42618C39.8684 9.8342 40.9562 10.0633 41.9923 10.4874C42.6124 10.7406 43.2813 11.2565 43.644 11.7646C43.8137 12.0041 44.0077 12.4259 43.9249 12.6774C43.8836 12.7981 44.3573 12.8407 44.091 12.6233C43.7795 14.3841 42.9727 16.0229 42.4882 17.7368C41.8171 20.1021 41.1669 22.4752 40.5077 24.8449C39.8644 27.1628 39.1055 29.4345 38.4113 31.7335C37.9907 33.1277 37.4317 34.4367 36.8825 35.7834C36.3617 37.0624 35.9696 38.3889 35.4051 39.6484C34.7874 41.0241 34.2608 42.4199 33.7407 43.835C33.212 45.264 32.6564 46.6831 32.1457 48.1187C31.9072 48.7544 31.7175 49.4048 31.5757 50.0729C31.381 50.4155 31.3423 50.7682 31.4655 51.1333C31.5324 50.9711 31.6022 50.81 31.669 50.6478C31.3666 51.4467 31.6695 52.0244 30.6163 52.2806C30.1191 52.4025 29.6239 52.5286 29.0858 52.5131C28.3653 52.4946 27.6396 52.3247 26.9326 52.1413C26.5124 52.0369 26.0978 51.9174 25.6868 51.779C25.1268 51.6296 24.5625 51.4922 23.9989 51.3619C22.915 50.9847 21.918 50.3814 20.8688 49.9286C19.7578 49.4497 18.6318 49.0025 17.5319 48.4936C16.3546 47.9459 15.1958 47.3575 14.0045 46.8386C12.1519 46.0309 10.3012 45.2273 8.47122 44.3769C7.57509 43.9605 6.81908 43.4225 5.9567 42.9607C5.64743 42.7953 5.2071 42.6902 4.94574 42.4779C4.70012 42.2783 4.48738 42.0908 4.20899 41.9063C3.87146 41.6794 3.68616 41.4545 3.57942 41.1092C3.47157 40.7668 3.46811 40.4086 3.50729 40.0731Z" stroke="white" stroke-width="2" stroke-miterlimit="10" stroke-linecap="round" stroke-linejoin="round"/>
<path d="M8.31691 34.5687C9.1623 34.9018 10.1017 34.9809 10.9759 35.2363C12.1986 35.5968 13.3648 36.2662 14.4891 36.8283C15.8468 37.5039 17.3005 38.1403 18.7439 38.6301C20.0636 39.0775 21.367 39.5325 22.6819 40.0019C23.7607 40.384 24.8997 40.6219 25.9409 41.1056C26.7962 41.5036 27.6116 41.9548 28.4784 42.3401C29.3741 42.7394 30.484 42.3853 31.3502 42.2027C31.6346 42.1414 31.6558 41.7992 31.7269 41.5978C31.9137 41.0653 32.1155 40.5384 32.3112 40.0092C32.7216 38.9001 33.1648 37.8031 33.5261 36.6793C33.8368 35.7202 34.2119 34.6694 34.2405 33.6366C34.2484 33.3948 34.2876 33.2428 34.4016 33.0267C34.6961 32.4695 34.8979 31.878 35.0788 31.2788C35.4201 30.1543 35.7669 29.042 36.178 27.94C36.5449 26.9575 36.9517 25.9865 37.2648 24.9841C37.534 24.1185 37.5631 23.1946 37.7704 22.3128C38.0524 21.1188 38.4531 19.962 38.6929 18.7626C38.8192 18.1364 39.0397 17.5314 39.107 16.8901C39.1313 16.668 39.311 16.1363 39.1361 15.9017C38.6193 15.2041 37.8295 14.9595 36.9155 14.6281C36.1749 14.3609 35.4404 14.1504 34.6895 13.9202C33.2026 13.4653 31.6942 13.0228 30.2267 12.4969C28.8101 11.9898 27.4215 11.398 25.9758 10.9787C24.8058 10.641 23.6198 10.3926 22.471 9.96079C21.702 9.66947 20.9225 9.32335 20.1296 9.11496C19.5346 8.95941 18.9816 8.78204 18.4038 8.5615C17.7405 8.30589 17.0587 8.18282 16.3782 7.92766C15.4923 10.3223 14.2482 13.2166 13.6186 15.6993C12.9835 18.1969 11.835 20.5114 11.244 23.0185C10.9408 24.3066 10.3339 25.5061 10.1678 26.828C10.0769 27.5421 9.97902 28.1006 9.72043 28.7629C9.49059 29.3474 9.25666 29.9338 9.15349 30.5618C9.01575 31.3843 8.92026 32.1477 8.62673 32.9228C8.46702 33.3361 8.24765 34.0944 8.31691 34.5687Z" stroke="white" stroke-width="2" stroke-miterlimit="10" stroke-linecap="round" stroke-linejoin="round"/>
<path d="M33.3232 10.6042C32.6864 10.3687 32.0526 10.1342 31.4159 9.89862C30.9525 9.72719 30.4743 9.57747 30.0205 9.38921C29.7379 9.27108 29.4878 9.05617 29.2001 8.97015C29.173 8.9975 29.147 9.02187 29.1169 9.04812" stroke="white" stroke-width="2" stroke-miterlimit="10" stroke-linecap="round" stroke-linejoin="round"/>
<path d="M26.0914 7.9288C26.0993 7.87057 26.1097 7.86081 26.1278 7.89468C26.0817 7.76207 26.0203 7.63401 25.9489 7.50562" stroke="white" stroke-width="2" stroke-miterlimit="10" stroke-linecap="round" stroke-linejoin="round"/>
<path d="M19.1814 41.5452C18.6823 41.2959 18.0038 41.0076 17.4412 41.0034C17.045 40.9995 16.5705 41.1061 16.2369 41.2546C15.8593 41.4208 15.7194 41.8448 15.4879 42.1398C14.9459 42.8332 14.8175 44.1452 15.6195 44.8803C16.1443 45.3634 17.3961 45.7279 18.1235 45.6911C18.7326 45.6615 19.1615 45.375 19.4978 44.9896C19.7903 44.6491 20.1952 44.3537 20.4402 43.9855C20.6778 43.6282 20.5449 43.2799 20.291 42.9005C20.2054 42.7737 20.0895 42.6458 20.0468 42.5043C20.0085 42.378 20.0581 42.2807 19.9799 42.143C19.8193 41.8695 19.4731 41.6939 19.1814 41.5452Z" stroke="white" stroke-width="2" stroke-miterlimit="10" stroke-linecap="round" stroke-linejoin="round"/>
<path d="M27.5704 37.4636C27.9717 37.2518 27.7811 36.7564 27.6567 36.3943C27.374 35.5692 26.5766 34.7848 26.0037 34.0733C25.4444 33.3803 24.7856 32.7356 24.3685 31.9797C25.0333 32.1304 25.8489 30.624 26.268 30.3271C26.6686 30.0436 26.905 29.5975 27.1824 29.2243C27.5021 28.792 27.7856 28.3564 27.9912 27.8649C28.2175 27.3267 28.462 26.7578 28.5986 26.1863C28.7396 25.603 28.4174 25.0317 28.1075 24.482C27.7033 23.7649 27.1039 23.1251 26.4923 22.5182C25.826 21.8571 25.1753 21.3377 24.1978 21.1596C22.7692 20.8962 22.035 21.4844 20.9428 22.0388C19.8681 22.5827 19.5045 23.777 19.2598 24.8149C19.0368 25.7486 19.2849 26.7683 19.091 27.7059C18.9891 28.2018 19.2457 28.776 19.1001 29.2523C17.4684 28.0403 15.1877 28.7022 14.1128 29.7796C13.5341 30.3608 12.805 31.0087 12.4863 31.7507C12.4306 31.883 12.3824 32.0317 12.3386 32.1685C12.2731 32.3822 12.2283 32.3656 12.4436 32.4725C12.5209 32.4841 12.5907 32.4793 12.6611 32.4543C12.7944 32.4799 12.9084 32.539 13.0054 32.6259C13.5721 32.9409 14.0352 33.3059 14.6619 33.5412C15.5726 33.8815 16.5325 33.9511 17.4703 34.1723C18.383 34.3876 19.2351 34.7946 20.1479 35.0099C21.3217 35.2912 22.2667 35.5389 23.2956 36.1846C23.8826 36.5547 24.5336 36.816 25.1547 37.1307C25.612 37.3645 27.1692 37.6754 27.5704 37.4636Z" stroke="white" stroke-width="2" stroke-miterlimit="10" stroke-linecap="round" stroke-linejoin="round"/>
</svg>
