<svg width="30" height="36" viewBox="0 0 30 36" fill="none" xmlns="http://www.w3.org/2000/svg">
<g id="Group 2643">
<path id="Vector" d="M7.24924 30.5037C6.43135 30.2693 5.57854 30.0449 4.77063 29.7756C4.10236 29.5512 3.76325 29.2071 3.1648 28.878C1.65869 28.0501 1.14003 27.0476 1.01535 25.2672C0.840805 22.7837 2.1923 20.1854 3.14982 17.9562C3.64853 16.7992 4.30185 15.5873 4.58611 14.3604C4.68585 13.9166 4.5113 13.4328 4.95515 13.1286C4.95515 14.4402 5.16959 17.1233 6.06727 18.1906C7.39883 19.7814 10.4061 18.2903 11.3237 16.9138C12.4558 15.2032 11.4584 13.757 11.199 12.0065C10.6255 8.09663 12.1915 4.10198 14.4656 1C14.4656 2.11213 18.3505 4.69543 19.0188 5.27892C21.1333 7.12415 23.9211 9.47306 24.6991 12.3057C24.9884 13.5475 24.9734 14.7844 24.6642 16.0262C24.35 17.1483 24.1505 18.2853 24.0658 19.4473C24.6891 21.2826 27.3523 20.0906 28.5641 19.6917C28.5691 22.2401 29.7311 24.988 28.24 27.2322C26.9882 29.1173 24.3101 31.197 22.4649 32.4288C20.9189 33.4611 19.4277 34.1543 17.5526 34.1743C15.5777 34.1942 12.9894 34.1543 11.189 33.1868C10.3562 32.7379 9.71784 31.9998 9.06952 31.3316C8.20675 30.4389 8.41124 30.8378 7.24924 30.5037Z" stroke="#ED9D24" stroke-width="2" stroke-miterlimit="10" stroke-linecap="round" stroke-linejoin="round"/>
<path id="Vector_2" d="M14.1318 27.2277C12.9299 27.4422 12.4212 27.5718 11.4787 26.714C10.6259 25.941 9.92267 24.4599 10.197 23.2929C11.4687 24.0808 13.7079 23.9861 15.0195 22.7842C15.987 21.8965 16.8797 20.4004 17.4931 19.2334C17.8821 18.4953 18.3808 16.2711 19.3832 16.0815C19.4231 17.8719 18.9643 20.8792 19.0291 22.6396C19.074 23.8515 20.256 24.0609 21.3531 23.9512C21.2983 24.8738 21.009 26.0458 20.3408 26.5794C19.7024 27.0881 18.4756 27.5868 17.7425 27.7713C15.997 28.2002 14.2864 29.043 14.1318 27.2277Z" stroke="#ED9D24" stroke-width="2" stroke-miterlimit="10" stroke-linecap="round" stroke-linejoin="round"/>
</g>
</svg>
