<svg width="79" height="78" viewBox="0 0 79 78" fill="none" xmlns="http://www.w3.org/2000/svg">
<path d="M50.0675 3.58545C50.1936 4.21198 50.2429 4.77059 50.3105 5.41419C50.4669 6.98587 50.8207 8.52393 51.0196 10.0865C51.496 13.8439 52.4687 17.5521 53.2665 21.2535C53.6357 22.9661 54.0006 24.6797 54.3782 26.3904C54.7824 28.2245 54.9617 30.1292 55.2205 31.9901C55.5853 34.6109 56.1395 37.1819 55.9669 39.8473C55.8909 41.0422 55.5416 42.1448 55.2621 43.3035C55.0805 44.0497 54.9135 44.8016 54.666 45.531C54.2019 46.8851 53.4778 48.1885 52.688 49.3727C51.9624 50.463 51.081 51.449 50.0156 52.2212C49.4807 52.6077 49.0797 52.6453 48.6185 53.1671C48.0927 53.7607 47.5035 54.1012 46.7471 54.3265C45.7947 54.6118 45.275 55.4399 44.4025 55.828C44.1306 55.9489 43.8519 55.9556 43.569 56.0255C43.2946 56.0935 43.1159 56.2343 42.8592 56.343C42.2762 56.5888 41.6253 56.6223 41.0146 56.7806C40.4166 56.9362 39.8726 57.218 39.2704 57.3745C38.3598 57.6063 37.6697 57.4171 36.7742 57.2855C35.9564 57.1638 35.1811 57.322 34.3852 57.0133C33.1947 56.545 31.8977 56.3043 30.7599 55.709C29.9323 55.2737 29.0578 54.7862 28.3754 54.1373C27.7924 53.5781 27.2524 52.9296 26.6945 52.3428C26.0917 51.7123 25.7088 50.9676 25.1936 50.2693C24.7411 49.6553 24.2841 49.1446 23.8974 48.4852C23.4128 47.6603 22.8761 47.0066 22.5276 46.1122C22.3221 45.5918 22.1003 45.017 21.8025 44.5431C21.6279 44.2694 21.5497 44.1128 21.4673 43.7926C21.3715 43.4308 21.1514 43.1936 21.0462 42.8294C20.7041 41.6135 20.5119 40.3297 20.2462 39.0973C19.7397 36.7472 19.2426 34.3996 18.7233 32.0523C18.3337 30.2863 18.0643 28.4588 17.873 26.6633C17.6725 24.7632 17.1577 22.8908 16.7556 21.0252C16.0246 17.6339 15.2927 14.2385 14.5617 10.8472C18.8411 9.92482 23.3602 9.80461 27.5554 8.55348C31.8177 7.28344 36.1814 6.58742 40.5213 5.65643C42.6078 5.20668 44.7026 4.95975 46.7934 4.50908C47.4138 4.37534 48.121 4.10729 48.7476 4.10562C49.3971 4.08571 49.396 3.73018 50.0675 3.58545Z" stroke="#C7B4FF" stroke-width="3" stroke-miterlimit="10" stroke-linecap="round" stroke-linejoin="round"/>
<path d="M32.2104 25.0537C32.5421 23.3945 32.8541 21.7886 33.3064 20.1524C33.5936 19.1122 33.727 17.9983 34.1342 16.9989C34.5028 17.0173 34.6816 17.4546 34.851 17.7249C35.3575 18.5274 35.9395 19.2469 36.5792 19.9451C37.3247 20.7627 38.1147 21.5397 38.8711 22.3461C39.1311 22.6236 39.2515 22.8111 39.5932 22.9109C40.3905 23.1437 41.4926 22.6037 42.3496 22.4946C43.176 22.3877 44.0286 22.444 44.8599 22.3805C45.3845 22.3385 45.9597 22.2012 46.4796 22.3026C47.2459 22.4532 47.0706 22.6511 46.7405 23.327C45.9021 25.0286 44.8791 26.4721 43.6411 27.9085C43.072 28.5693 43.108 28.695 43.2899 29.5185C43.9078 32.3026 45.1701 34.8989 45.8872 37.6483C45.6315 37.8857 45.2815 37.6232 45.0096 37.5172C43.9555 37.1041 42.9305 36.6401 41.9567 36.0629C41.0698 35.5381 40.228 34.9546 39.3478 34.4195C38.9589 34.1831 38.5019 33.9614 38.1521 33.6588C37.7679 33.795 37.487 34.0601 37.3072 34.4636C36.5381 35.4965 35.7475 36.5119 34.931 37.5106C34.2458 38.3342 33.5123 39.1194 32.7432 39.8633C32.5348 40.0105 32.3686 40.1886 32.2456 40.4019C32.185 40.2237 32.0846 40.0675 32.0112 39.8921C31.5889 38.9025 31.5824 37.7788 31.5061 36.7235C31.4147 35.4535 31.4719 34.027 31.0572 32.8045C29.4642 33.1923 27.6802 32.2605 26.3821 31.4374C25.8364 31.0925 25.3407 30.6702 24.7968 30.3338C24.622 30.2247 24.1327 30.0589 24.0222 29.856C24.9469 29.4832 25.9233 28.917 26.7905 28.4632C27.3692 28.1562 27.9436 27.85 28.5213 27.5387C29.6654 26.8429 30.9055 26.3444 32.2104 25.0537Z" stroke="#C7B4FF" stroke-width="3" stroke-miterlimit="10" stroke-linecap="round" stroke-linejoin="round"/>
<path d="M39.4151 57.5301C39.7853 59.3092 40.0816 61.0552 39.8846 62.8854C39.612 65.4168 37.9579 66.7383 36.072 68.181C35.4574 68.6514 35.0032 69.1852 34.2541 69.3822C34.0061 69.449 33.7466 69.4827 33.4958 69.5368C32.8329 69.6797 32.2975 69.5683 32.2993 70.3817C32.3023 71.097 32.579 71.8646 32.724 72.5582C32.7791 72.9376 32.8682 73.3098 32.9904 73.6703C33.1299 73.7603 33.265 73.7268 33.3966 73.5739C35.0988 73.1358 36.7917 72.5308 38.4899 72.0536C40.4606 71.4998 42.4415 70.9928 44.3799 70.3304C47.954 69.1064 51.6771 68.4507 55.3658 67.6556C56.866 67.3322 58.5527 67.1732 59.9901 66.641C60.082 66.1187 59.7297 65.2474 59.57 64.7749C59.3729 64.1903 59.2541 63.371 58.9656 62.8372C57.5921 62.9643 56.2338 63.5328 54.933 63.9555C53.8816 64.2977 52.9354 64.6529 51.8182 64.5869C51.0202 64.5365 50.1584 64.4376 49.3981 64.1701C48.2906 63.7774 47.8952 62.9332 47.6337 61.8644C47.3075 60.5161 46.6939 59.2787 46.3729 57.9337C46.2495 57.3199 46.1209 56.7028 45.9933 56.0899C45.9407 55.8255 45.8797 55.563 45.8186 55.3004C45.8361 54.9275 45.814 54.9901 46.0914 54.6679" stroke="#C7B4FF" stroke-width="3" stroke-miterlimit="10" stroke-linecap="round" stroke-linejoin="round"/>
<path d="M50.6842 11.1504C52.0931 11.2291 53.3311 11.0512 54.693 10.6643C57.2292 9.94862 59.7034 9.19296 62.2839 8.6412C63.0528 8.45324 63.8299 8.30352 64.6152 8.19206C64.9686 8.16036 65.3238 8.13716 65.6793 8.13613C65.9907 8.03343 66.22 7.79724 66.5524 7.73004C66.2612 9.247 67.3753 11.1148 67.4255 12.6471C67.4875 14.5237 67.2522 16.3 66.9882 18.149C66.7262 19.9666 66.5377 21.7327 66.0713 23.5097C65.7123 24.8768 65.4774 26.2838 64.7712 27.5256C64.0101 28.8636 63.1236 30.1976 62.1212 31.3654C61.1088 32.5486 59.881 33.3513 58.7072 34.3426C57.7666 35.1368 56.8685 35.9218 55.6756 36.2056" stroke="#C7B4FF" stroke-width="3" stroke-miterlimit="10" stroke-linecap="round" stroke-linejoin="round"/>
<path d="M15.8979 17.025C14.7673 17.8869 13.4235 18.1721 12.0518 18.4722C11.2358 18.6481 10.4269 18.8358 9.60181 18.9691C8.62614 19.1261 7.50635 19.1095 6.58623 19.5035C5.29163 20.0583 4.13867 20.7337 2.75578 21.0851C2.48563 21.1523 2.36715 21.0978 2.22714 21.3147C2.08621 21.5274 2.17399 21.8109 1.98998 22.0507C2.2447 23.2943 2.13882 24.3711 2.52953 25.5855C3.34902 28.1082 4.03259 30.7225 5.48755 32.9749C6.50872 34.5558 7.71714 36.0564 8.82024 37.5842C9.80928 38.9541 11.0153 39.7215 12.4091 40.6173C13.709 41.4489 15.153 42.1649 16.693 42.3978C17.3228 42.4932 18.0781 42.366 18.7089 42.3012C19.236 42.2499 19.7632 42.1584 20.2799 42.0382C20.1886 41.6354 20.0345 41.2506 19.8194 40.8923" stroke="#C7B4FF" stroke-width="3" stroke-miterlimit="10" stroke-linecap="round" stroke-linejoin="round"/>
</svg>
