<svg fill="none" height="31" viewBox="0 0 41 31" width="41" xmlns="http://www.w3.org/2000/svg"><g stroke="#ff6b00" stroke-linecap="round" stroke-width="3"><path d="m10.3657 4.23208c-.95798 0-1.91594 0-2.8739 0-1.50158 0-2.28223 1.57482-3.29391 2.58649-2.46546 2.46546-2.18858 5.22093-2.18858 8.53323 0 3.0044 1.70406 3.6034 4.37715 3.6034 2.02108 0 3.68094-1.1938 5.57094-1.1938.9568 0 2.5682-1.0217 3.1833-1.7906.4156-.5194-.3979 3.4004-.3979 3.9792v6.1678c0 1.1601-2.6293 3.6138-1.5917 3.095 1.4901-.7451 3.9154-2.818 4.9741-4.1119 1.0819-1.3223 3.0996-2.4258 3.7802-3.9571.5171-1.1634 1.5917-2.4864 1.5917-3.7803 0-1.9601 0-3.9203 0-5.8804 0-4.57614-1.5761-4.76814-5.3719-6.45518-3.3783-1.50144-7.1109-1.94053-10.54497-.79584"/><path d="m20.425 4.71524c0-2.61253 5.2085-2.71524 6.9239-2.71524h3.2583c.9568 0 2.1781 1.21726 3.1225 1.68948 3.1521 1.57602 4.6723 3.75865 5.1741 7.27082.5098 3.5692-1.1178 6.1789-2.2477 9.443-1.0027 2.8969-3.4248 5.0558-5.6114 6.9691-.7109.622-2.4468.66-3.017 1.3727-.815 1.0188.9676-2.4846 1.8403-3.4544.6933-.7702 1.224-5.5225-.0905-5.8981-1.5845-.4527-4.1348 1.7315-5.2796-.5581"/></g></svg>