<svg width="27" height="27" viewBox="0 0 27 27" fill="none" xmlns="http://www.w3.org/2000/svg">
<g id="Telegram - Negative" clip-path="url(#clip0_1690_13651)">
<path id="Subtract" fill-rule="evenodd" clip-rule="evenodd" d="M26.6012 13.3006C26.6012 20.6464 20.6464 26.6012 13.3006 26.6012C5.95489 26.6012 0 20.6464 0 13.3006C0 5.95489 5.95489 0 13.3006 0C20.6464 0 26.6012 5.95489 26.6012 13.3006ZM13.7773 9.8191C12.4836 10.3572 9.89803 11.4709 6.02063 13.1602C5.391 13.4106 5.06117 13.6555 5.03115 13.8951C4.9804 14.2998 5.4873 14.4592 6.17756 14.6763C6.27145 14.7058 6.36873 14.7364 6.46847 14.7688C7.14757 14.9895 8.06109 15.2478 8.53599 15.2581C8.96677 15.2674 9.44757 15.0898 9.97839 14.7253C13.6012 12.2798 15.4713 11.0437 15.5887 11.0171C15.6715 10.9983 15.7863 10.9747 15.8641 11.0438C15.9418 11.1129 15.9342 11.2438 15.9259 11.2789C15.8757 11.493 13.886 13.3428 12.8563 14.3001C12.5353 14.5986 12.3076 14.8103 12.261 14.8586C12.1568 14.9669 12.0505 15.0694 11.9484 15.1678C11.3175 15.776 10.8443 16.2321 11.9746 16.9769C12.5177 17.3348 12.9523 17.6308 13.3859 17.9261C13.8595 18.2486 14.3317 18.5702 14.9428 18.9707C15.0985 19.0728 15.2472 19.1788 15.392 19.2821C15.9431 19.6749 16.4382 20.0279 17.0498 19.9716C17.4052 19.9389 17.7724 19.6047 17.9588 18.608C18.3994 16.2524 19.2655 11.1486 19.4657 9.0455C19.4832 8.86124 19.4612 8.62542 19.4435 8.5219C19.4257 8.41838 19.3887 8.27089 19.2542 8.1617C19.0948 8.0324 18.8488 8.00513 18.7388 8.00707C18.2385 8.01588 17.471 8.28276 13.7773 9.8191Z" fill="#1A1A1A"/>
</g>
<defs>
<clipPath id="clip0_1690_13651">
<rect width="26.6012" height="26.6012" fill="white"/>
</clipPath>
</defs>
</svg>
