<svg width="31" height="36" viewBox="0 0 31 36" fill="none" xmlns="http://www.w3.org/2000/svg">
<path d="M16.2167 12.9891C16.2167 27.3289 16.2589 26.8432 14.8862 28.2581C12.4364 30.8135 8.5716 30.37 6.79761 27.3289C6.31187 26.5053 6.20627 26.0618 6.20627 24.9424C6.20627 23.2952 6.67089 22.2181 7.93803 21.0777C8.99398 20.1062 10.0288 19.7894 11.5916 19.895L12.8376 19.9795V18.1844C12.8376 17.1918 12.901 15.7346 12.9644 14.9532L13.1122 13.5593L11.9295 13.4115C10.3878 13.2214 7.87468 13.7282 6.07956 14.6152C3.05954 16.0936 0.67309 19.4093 0.123995 22.8728C-0.953075 29.8421 5.15032 36.3256 12.0774 35.6076C16.6391 35.1429 20.1871 32.313 21.7288 27.878C22.1934 26.5686 22.2356 26.1674 22.299 19.2826L22.3834 12.081L23.5661 12.7779C25.1712 13.7282 27.6421 14.5308 29.5005 14.6997L31 14.8476V11.8909V8.95535L29.6061 8.65969C27.6843 8.30066 25.5513 7.18135 24.4531 5.99869C23.3338 4.77379 22.3412 2.683 22.1934 1.18355L22.0667 0.000888824H19.1522H16.2167V12.9891Z" fill="#1A1A1A"/>
</svg>
