<svg width="27" height="27" viewBox="0 0 27 27" fill="none" xmlns="http://www.w3.org/2000/svg">
<g id="Group">
<path id="Vector" d="M13.6971 2.39515C17.2509 2.39515 17.6717 2.41074 19.0693 2.47308C20.3682 2.53024 21.0696 2.74845 21.5372 2.93029C22.1555 3.16929 22.6023 3.46024 23.0647 3.92264C23.5323 4.39024 23.818 4.83187 24.057 5.45014C24.2389 5.91774 24.4571 6.62433 24.5143 7.91803C24.5766 9.32083 24.5922 9.74167 24.5922 13.2902C24.5922 16.844 24.5766 17.2648 24.5143 18.6624C24.4571 19.9613 24.2389 20.6627 24.057 21.1303C23.818 21.7486 23.5271 22.1954 23.0647 22.6578C22.5971 23.1254 22.1555 23.4112 21.5372 23.6502C21.0696 23.832 20.363 24.0502 19.0693 24.1074C17.6665 24.1697 17.2457 24.1853 13.6971 24.1853C10.1433 24.1853 9.72251 24.1697 8.3249 24.1074C7.02601 24.0502 6.32461 23.832 5.85701 23.6502C5.23874 23.4112 4.79192 23.1202 4.32952 22.6578C3.86192 22.1902 3.57616 21.7486 3.33717 21.1303C3.15532 20.6627 2.93711 19.9561 2.87996 18.6624C2.81761 17.2596 2.80203 16.8388 2.80203 13.2902C2.80203 9.73647 2.81761 9.31563 2.87996 7.91803C2.93711 6.61914 3.15532 5.91774 3.33717 5.45014C3.57616 4.83187 3.86712 4.38505 4.32952 3.92264C4.79712 3.45504 5.23874 3.16929 5.85701 2.93029C6.32461 2.74845 7.03121 2.53024 8.3249 2.47308C9.72251 2.41074 10.1433 2.39515 13.6971 2.39515ZM13.6971 0C10.0862 0 9.63418 0.0155867 8.2158 0.0779333C6.8026 0.14028 5.83104 0.368884 4.98936 0.696204C4.11131 1.03911 3.36834 1.49112 2.63057 2.23409C1.88761 2.97186 1.4356 3.71482 1.09269 4.58768C0.765369 5.43455 0.536764 6.40092 0.474418 7.81411C0.412071 9.2377 0.396484 9.68971 0.396484 13.3006C0.396484 16.9115 0.412071 17.3635 0.474418 18.7819C0.536764 20.1951 0.765369 21.1667 1.09269 22.0084C1.4356 22.8864 1.88761 23.6294 2.63057 24.3672C3.36834 25.1049 4.11131 25.5621 4.98416 25.8998C5.83104 26.2272 6.79741 26.4558 8.2106 26.5181C9.62899 26.5805 10.081 26.596 13.6919 26.596C17.3028 26.596 17.7548 26.5805 19.1732 26.5181C20.5864 26.4558 21.558 26.2272 22.3997 25.8998C23.2725 25.5621 24.0155 25.1049 24.7532 24.3672C25.491 23.6294 25.9482 22.8864 26.2859 22.0136C26.6133 21.1667 26.8419 20.2003 26.9042 18.7871C26.9666 17.3687 26.9821 16.9167 26.9821 13.3058C26.9821 9.69491 26.9666 9.24289 26.9042 7.82451C26.8419 6.41131 26.6133 5.43975 26.2859 4.59807C25.9586 3.71482 25.5066 2.97186 24.7636 2.23409C24.0259 1.49632 23.2829 1.03911 22.4101 0.7014C21.5632 0.37408 20.5968 0.145476 19.1836 0.0831289C17.76 0.0155867 17.308 0 13.6971 0Z" fill="#1A1A1A"/>
<path id="Vector_2" d="M13.6969 6.46826C9.92493 6.46826 6.86475 9.52844 6.86475 13.3004C6.86475 17.0724 9.92493 20.1326 13.6969 20.1326C17.4689 20.1326 20.5291 17.0724 20.5291 13.3004C20.5291 9.52844 17.4689 6.46826 13.6969 6.46826ZM13.6969 17.7322C11.2498 17.7322 9.26509 15.7475 9.26509 13.3004C9.26509 10.8533 11.2498 8.86861 13.6969 8.86861C16.144 8.86861 18.1287 10.8533 18.1287 13.3004C18.1287 15.7475 16.144 17.7322 13.6969 17.7322Z" fill="#1A1A1A"/>
<path id="Vector_3" d="M22.3947 6.19807C22.3947 7.08131 21.6777 7.7931 20.7996 7.7931C19.9164 7.7931 19.2046 7.07611 19.2046 6.19807C19.2046 5.31482 19.9216 4.60303 20.7996 4.60303C21.6777 4.60303 22.3947 5.32002 22.3947 6.19807Z" fill="#1A1A1A"/>
</g>
</svg>
