<svg fill="none" height="27" viewBox="0 0 27 27" width="27" xmlns="http://www.w3.org/2000/svg" xmlns:xlink="http://www.w3.org/1999/xlink"><clipPath id="a"><path d="m.594238.594238h26.087v26.087h-26.087z"/></clipPath><g clip-path="url(#a)" fill="#fefefe"><path d="m13.6377 2.94308c3.4851 0 3.8978.01529 5.2684.07643 1.2737.05605 1.9616.27004 2.4201.44837.6064.23437 1.0445.5197 1.498.97317.4586.45856.7388.89164.9732 1.49796.1783.45856.3923 1.15149.4483 2.42017.0612 1.37568.0765 1.78842.0765 5.26832 0 3.4851-.0153 3.8978-.0765 5.2684-.056 1.2737-.27 1.9616-.4483 2.4201-.2344.6064-.5197 1.0445-.9732 1.498-.4586.4586-.8916.7388-1.498.9732-.4585.1783-1.1515.3923-2.4201.4483-1.3757.0612-1.7884.0765-5.2684.0765-3.485 0-3.89774-.0153-5.26833-.0765-1.27377-.056-1.96161-.27-2.42017-.4483-.60632-.2344-1.0445-.5197-1.49796-.9732-.45856-.4586-.7388-.8916-.97317-1.498-.17833-.4585-.39232-1.1514-.44837-2.4201-.06114-1.3757-.07643-1.7884-.07643-5.2684 0-3.485.01529-3.89773.07643-5.26832.05605-1.27377.27004-1.96161.44837-2.42017.23437-.60632.5197-1.0445.97317-1.49796.45856-.45856.89164-.7388 1.49796-.97317.45856-.17833 1.15149-.39232 2.42017-.44837 1.37059-.06114 1.78333-.07643 5.26833-.07643zm0-2.348842c-3.5411 0-3.98436.015286-5.37532.076427-1.38587.061141-2.33866.285326-3.16407.606315-.86107.33628-1.58967.77955-2.31317 1.50816-.72861.7235-1.17188 1.4521-1.50816 2.30808-.320989.8305-.545174 1.77819-.606315 3.16406-.061141 1.39606-.076427 1.83932-.076427 5.38042s.015286 3.9844.076427 5.3754c.061141 1.3858.285326 2.3386.606315 3.164.33628.8611.77955 1.5897 1.50816 2.3132.7235.7235 1.4521 1.1719 2.30808 1.5031.8305.3209 1.77819.5451 3.16406.6063 1.39097.0611 1.83422.0764 5.37532.0764s3.9844-.0153 5.3754-.0764c1.3858-.0612 2.3386-.2854 3.164-.6063.856-.3312 1.5846-.7796 2.3081-1.5031s1.1719-1.4521 1.5031-2.3081c.321-.8305.5451-1.7782.6063-3.164.0611-1.391.0764-1.8343.0764-5.3754s-.0153-3.98436-.0764-5.37533c-.0612-1.38587-.2853-2.33865-.6063-3.16406-.321-.86617-.7643-1.59477-1.4929-2.31827-.7235-.72351-1.4521-1.17188-2.3081-1.50306-.8305-.320994-1.7782-.545179-3.164-.60632-1.3961-.066236-1.8394-.081522-5.3805-.081522z"/><path d="m13.6377 6.93774c-3.69906 0-6.70008 3.00102-6.70008 6.70006 0 3.6991 3.00102 6.7001 6.70008 6.7001 3.699 0 6.7001-3.001 6.7001-6.7001 0-3.69904-3.0011-6.70006-6.7001-6.70006zm0 11.04616c-2.3998 0-4.34614-1.9463-4.34614-4.3461s1.94634-4.34612 4.34614-4.34612 4.3461 1.94632 4.3461 4.34612-1.9463 4.3461-4.3461 4.3461z"/><path d="m22.167 6.6726c0 .86617-.7032 1.5642-1.5642 1.5642-.8662 0-1.5642-.70313-1.5642-1.5642 0-.86617.7031-1.5642 1.5642-1.5642.861 0 1.5642.70312 1.5642 1.5642z"/></g></svg>