<svg width="51" height="74" viewBox="0 0 51 74" fill="none" xmlns="http://www.w3.org/2000/svg">
<path d="M38.4333 52.3763C38.0406 50.4537 36.794 46.5686 36.3854 44.6501C36.1319 43.4542 35.737 42.2918 35.3328 41.1336C35.1776 40.6896 35.0337 40.3126 34.7346 39.9356C34.6045 39.7702 34.4858 39.611 34.3853 39.4267C33.7826 38.3188 33.7757 37.0558 33.0725 35.994C31.7939 34.0566 30.166 32.0335 28.15 30.6889C26.9034 29.8574 25.5518 29.6731 24.0563 29.4636C22.7595 29.2814 21.4489 29.1788 20.1475 29.0238C19.1087 28.9002 18.0333 28.6803 16.9808 28.6929C14.7045 28.718 13.015 29.87 11.4236 31.2648C9.43496 33.0074 7.33673 34.6619 5.58099 36.6139C4.74307 37.548 4.06726 38.5826 3.26359 39.5377C3.11747 39.7115 2.97363 39.8854 2.86404 40.0801C2.52156 40.677 2.55352 41.3933 2.33206 42.0321C1.5809 44.1977 1.27496 46.3508 1.18135 48.619C1.14482 49.5091 1.12884 50.3992 1.09916 51.2894C0.857145 58.5548 3.96451 65.8664 6.58101 72.6564" stroke="#1A1A1A" stroke-width="2" stroke-linecap="round" stroke-linejoin="round"/>
<path d="M24.4674 29.8491C24.73 29.3695 25.0199 28.9276 25.3464 28.4814C26.2003 27.3107 26.5884 26.0478 26.9309 24.6885C27.4515 22.6339 27.7346 20.6819 27.7757 18.5729C27.8099 16.8073 28.0382 15.0208 27.972 13.2573C27.9355 12.275 27.7803 11.0728 27.4378 10.1303C27.1433 9.3219 26.5519 8.64541 25.9195 8.03384C25.3487 7.48092 24.4537 7.33851 23.8623 7.9375C22.9263 8.88417 22.5153 10.0612 22.0724 11.2487C21.7801 12.032 21.3554 12.7735 21.1705 13.5882C20.9399 14.6061 20.876 15.6533 20.8029 16.6879C20.7413 17.5403 20.8029 18.4032 20.7344 19.2535C20.6774 19.9321 20.4878 20.5856 20.2869 21.2369C20.2002 21.5197 20.0472 21.859 20.0244 22.1564C20.0107 22.3197 20.1568 22.5019 19.9673 22.5815C19.8486 22.4601 19.8257 22.3134 19.8988 22.1438C19.9787 21.727 20.0198 21.3081 20.0221 20.8851C20.0792 19.7583 20.4399 18.6608 20.4148 17.5298C20.3874 16.3172 19.9992 15.1192 19.8577 13.9149C19.7253 12.7944 19.7504 11.6509 19.4969 10.5429C19.2481 9.44966 18.8714 8.3878 18.6202 7.29243C18.3942 6.30806 18.0266 5.42213 17.4193 4.58018C17.0951 4.15921 16.7572 3.74871 16.4033 3.34868C16.0654 2.89838 15.7023 2.46694 15.3119 2.05224C14.8142 1.6187 13.7617 1.05741 13.0584 1.00505C11.4328 0.885665 10.4168 2.91305 10.1497 4.05868C10.031 4.5006 9.94194 4.9488 9.88257 5.40328C9.93052 5.98762 10.0424 6.55939 10.2205 7.12279C10.515 8.45063 10.3575 9.71145 10.4762 11.0435C10.7068 13.6259 11.2479 16.1161 11.8027 18.6545C12.0379 19.7269 12.3392 20.8076 12.5173 21.8883C12.5858 22.303 12.6886 22.8957 12.5516 23.2999C12.0767 22.3428 11.7662 21.306 11.3963 20.3112C10.9077 19.0001 10.3735 17.7225 10.047 16.3654C9.84377 15.5234 9.4602 14.8155 8.98987 14.0762C8.48072 13.2761 8.03322 12.585 7.18845 12.0425C6.46012 11.5755 5.23178 10.9241 4.30482 11.2487C3.81851 11.4205 3.51941 12.0027 3.30022 12.4028C2.87556 13.1777 2.8436 14.1306 2.74542 14.9789C2.64724 15.8292 2.73629 16.6439 2.88697 17.4859C3.09474 18.6336 3.31392 19.8127 3.6564 20.9332C4.2523 22.8873 5.07196 24.7744 5.70211 26.718C6.31628 28.6134 7.28206 30.3643 8.09714 32.1864C8.60857 33.33 9.49216 34.3143 9.76157 35.5333" stroke="#1A1A1A" stroke-width="2" stroke-linecap="round" stroke-linejoin="round"/>
<path d="M13.4327 35.9687C13.7044 35.7195 13.9373 35.5121 14.3209 35.4137C14.7684 35.2964 15.3483 35.2126 15.8072 35.2503C16.3278 35.2922 16.7433 35.6462 17.2524 35.6692" stroke="#1A1A1A" stroke-width="2" stroke-linecap="round" stroke-linejoin="round"/>
<path d="M24.5606 36.2683C24.6679 36.0358 24.9967 35.9667 25.2273 35.8641C25.6428 35.6777 26.0835 35.5206 26.5584 35.5374C26.9694 35.552 28.079 35.7971 27.942 36.3688" stroke="#1A1A1A" stroke-width="2" stroke-linecap="round" stroke-linejoin="round"/>
<path d="M28.8051 43.0059C28.8805 43.4666 28.4513 43.9756 28.0974 44.2541C26.9238 45.1798 25.0288 44.2499 23.9352 43.7096" stroke="#1A1A1A" stroke-width="2" stroke-linecap="round" stroke-linejoin="round"/>
<path d="M18.6861 43.7119C18.8116 44.0763 18.0742 44.4135 17.807 44.4952C17.5353 44.579 17.202 44.5748 16.9212 44.5852C15.5239 44.6334 14.4234 43.5087 13.4325 42.7715" stroke="#1A1A1A" stroke-width="2" stroke-linecap="round" stroke-linejoin="round"/>
<path d="M23.5537 49.4462C23.5583 49.8882 22.5697 50.2044 22.2158 50.2631C21.25 50.307 20.3641 50.062 19.5582 49.5258C18.7111 49.0881 17.9508 48.5519 17.275 47.9194" stroke="#1A1A1A" stroke-width="2" stroke-linecap="round" stroke-linejoin="round"/>
<path d="M17.1311 46.9557V46.9033C17.122 47.0143 17.1585 47.1107 17.1425 47.2196C17.122 47.3871 17.0147 47.5128 16.8183 47.5987C16.4256 47.8856 15.9781 48.051 15.4781 48.0929" stroke="#1A1A1A" stroke-width="2" stroke-linecap="round" stroke-linejoin="round"/>
<path d="M34.2207 63.7468C34.4354 62.7038 34.8189 61.732 35.2322 60.7435C36.0039 58.8983 36.3692 56.9505 37.0747 55.0844C37.44 54.1189 37.9469 53.2853 38.4332 52.3743C38.6775 51.9177 38.9172 51.2098 39.3601 50.8663C39.5565 50.7134 39.8487 50.6715 40.0748 50.5815C40.5223 50.3993 40.8625 50.2233 41.3716 50.1752C42.4059 50.0809 43.4379 50.2087 44.4698 50.2715C44.8489 50.2945 45.1457 50.2485 45.511 50.1961C45.6594 50.1751 45.7918 50.1668 45.9425 50.1835C46.6799 50.2694 47.3443 50.4726 48.1069 50.4495C48.5681 50.437 48.8307 50.4663 49.0065 50.9417C49.1686 51.3857 49.4997 51.0506 49.3421 51.4486C47.6845 55.6394 45.9996 59.7884 43.7324 63.7427C43.7324 63.7112 44.3557 63.1081 44.3557 63.0766C44.3488 63.6903 44.2758 63.8704 43.5109 64.0757C41.9013 64.5071 40.1867 64.4108 38.5542 64.6914C38.1478 64.7605 37.7779 64.9009 37.3601 64.9092C36.7459 64.9218 36.214 64.7417 35.6249 64.6307C35.2824 64.5657 35.0518 64.4966 34.7162 64.438C34.6751 64.3521 34.2071 63.8369 34.2253 63.7447L34.2207 63.7468Z" stroke="#1A1A1A" stroke-width="2" stroke-linecap="round" stroke-linejoin="round"/>
<path d="M46.0363 53.2958C46.1322 53.2833 46.2372 53.1199 46.187 53.0424C46.066 52.8539 45.7828 53.2539 45.7965 53.367C45.8673 53.4424 45.9472 53.4445 46.0363 53.367" stroke="#1A1A1A" stroke-width="2" stroke-linecap="round" stroke-linejoin="round"/>
<path d="M44.3829 54.0186C44.3692 54.0668 44.3738 54.1129 44.3966 54.1568C44.529 54.1883 44.561 54.0312 44.5404 53.9453" stroke="#1A1A1A" stroke-width="2" stroke-linecap="round" stroke-linejoin="round"/>
<path d="M45.2486 55.317C45.55 55.3715 45.5933 54.9735 45.1709 55.1159C45.1869 55.1767 45.2463 55.1934 45.3262 55.1725" stroke="#1A1A1A" stroke-width="2" stroke-linecap="round" stroke-linejoin="round"/>
<path d="M46.9334 60.4417C47.0978 59.9055 46.4768 59.2542 46.0544 58.9798C45.3763 58.54 44.4927 58.0541 43.6434 57.9221C43.326 57.8719 42.9105 57.8258 42.6297 57.9954C42.3306 58.1776 42.2644 58.3619 42.4288 58.674C42.7826 59.3463 43.6229 59.8804 44.285 60.2951C45.2759 60.9171 46.6138 61.7151 47.7782 61.0595C47.2211 60.1212 45.8809 59.4929 44.8649 58.9965C44.5087 58.8227 42.8968 57.9933 42.511 58.6321C42.374 58.8332 42.4265 59.0342 42.6662 59.2353C43.0292 59.6961 43.4836 60.05 44.0338 60.2993C45.1389 60.938 46.4129 61.447 47.7394 61.4512C47.543 60.9736 47.0293 60.6742 46.6115 60.3621C46.0247 59.9223 45.3992 59.4824 44.7325 59.1494C44.3147 58.94 43.6251 58.5609 43.1297 58.6091C43.1343 58.7431 43.2507 58.8667 43.3466 58.9567C43.7507 59.3484 44.2598 59.6647 44.737 59.9767C45.2462 60.3118 45.7782 60.6071 46.349 60.848C46.5704 60.9422 47.2485 61.3192 47.4654 61.204C47.0362 60.5904 46.4311 60.0856 46.9357 60.4417H46.9334Z" stroke="#1A1A1A" stroke-width="2" stroke-linecap="round" stroke-linejoin="round"/>
<path d="M41.0247 64.6055C41.3306 66.1407 41.9791 67.6151 42.6069 69.0582" stroke="#1A1A1A" stroke-width="2" stroke-linecap="round" stroke-linejoin="round"/>
<path d="M47.5383 51.855C47.2004 51.9492 46.8511 51.9157 46.5017 51.9115C45.9698 51.9073 45.4218 51.922 44.9035 52.0393C44.6273 52.1021 44.4423 52.276 44.1957 52.3828C44.0313 52.4519 43.8487 52.433 43.6912 52.5231C43.4583 52.6592 43.4423 52.9189 43.3601 53.1409C43.2117 53.5389 43.0176 53.918 42.8898 54.3243C42.7619 54.7327 42.7003 55.0992 42.7003 55.5181C42.7003 55.6605 42.6797 55.7527 42.7756 55.8762C42.956 56.1066 43.3898 56.004 43.6592 56.0459C43.8624 56.0773 44.0656 56.1736 44.2597 56.2406C44.6364 56.3705 45.0474 56.2344 45.4423 56.2406C45.5656 56.2406 45.6478 56.2574 45.7437 56.1841C45.9446 56.0312 46.0588 55.7066 46.1981 55.5118C46.4309 55.1851 46.6867 54.8605 46.8716 54.5086C47.1707 53.9326 47.3191 53.2415 47.5428 51.8571L47.5383 51.855Z" stroke="#1A1A1A" stroke-width="2" stroke-linecap="round" stroke-linejoin="round"/>
<path d="M1.78864 55.8549C1.64252 56.8163 1.19502 60.5317 1.11511 61.4533C1.04433 62.2826 0.909626 62.5151 1.09 63.2105C1.08086 63.1749 1.2521 64.599 1.52152 64.6158C3.04438 63.4974 5.23165 61.9392 6.32072 60.4877C7.43718 58.9986 8.2888 57.5137 8.95548 55.8193C9.38928 54.7156 9.7523 53.6076 10.0674 52.4725C10.1062 52.3301 10.1108 52.1981 10.2135 52.0766C10.024 52.2651 9.91897 51.7374 9.88473 51.6557C9.36645 50.4367 8.61986 49.201 7.82076 48.1099C7.37782 47.5046 6.9052 46.7171 6.11066 46.4762C5.807 46.3841 5.42799 46.2793 5.18141 46.4909C4.83894 46.7862 5.20653 47.1758 5.41658 47.4417C5.95769 48.1287 6.71798 48.7612 7.39836 49.3246C8.13354 49.932 8.93036 50.4095 9.82308 50.7823C10.7386 50.0932 9.45093 48.8178 8.93265 48.2586C8.09017 47.3517 6.99653 46.2835 5.66088 46.0322C5.11292 45.9296 4.74762 45.8709 4.51018 46.3904C4.29784 46.8574 4.67912 47.4815 4.90287 47.9046C5.37777 48.8094 6.04216 49.6199 6.89607 50.2482C7.48284 50.6797 8.11299 51.065 8.88013 51.1153C9.24087 51.1384 9.60847 51.1488 9.8893 50.9268C10.2181 50.6671 10.1085 50.3655 9.99431 50.0283C9.62216 48.9392 8.78424 47.7475 7.75225 47.0836C7.23626 46.7527 6.63351 46.428 6.03075 46.2458C5.40288 46.0552 5.37092 46.2877 5.10151 46.7736" stroke="#1A1A1A" stroke-width="2" stroke-linecap="round" stroke-linejoin="round"/>
</svg>
