<svg width="70" height="73" viewBox="0 0 70 73" fill="none" xmlns="http://www.w3.org/2000/svg">
<path d="M19.0581 48.44C19.44 46.554 19.7708 45.7014 20.1682 43.8175C20.4146 42.6444 20.7987 41.5042 21.1917 40.3681C21.3426 39.9325 21.4825 39.5627 21.7733 39.1929C21.8999 39.0306 22.0153 38.8745 22.113 38.6937C22.6991 37.6069 22.7058 36.368 23.3896 35.3264C24.6329 33.426 26.2158 31.4414 28.1762 30.1225C29.3884 29.3068 30.7027 29.1261 32.1569 28.9206C33.4179 28.7419 34.6923 28.6412 35.9578 28.4892C36.9679 28.368 38.0136 28.1522 39.0371 28.1646C41.2506 28.1892 42.8935 29.3192 44.4409 30.6875C46.3746 32.3968 48.415 34.0198 50.1222 35.9345C50.937 36.8508 51.5942 37.8657 52.3757 38.8026C52.5178 38.9731 52.6576 39.1436 52.7642 39.3347C53.0972 39.9202 53.0661 40.6228 53.2815 41.2494C54.0119 43.3737 54.3094 45.4857 54.4004 47.7107C54.436 48.5838 54.4515 49.457 54.4804 50.3301C54.7157 57.457 51.6941 64.6292 49.1498 71.2897" stroke="#1A1A1A" stroke-width="2" stroke-linecap="round" stroke-linejoin="round"/>
<path d="M14.3483 68.8409C14.1107 69.2764 13.8244 69.4182 13.4913 69.2661C14.0597 67.8383 14.0308 68.4731 14.4238 67.0042C15.1809 64.1855 14.8278 66.2564 15.6848 63.4644" stroke="#1A1A1A" stroke-width="2" stroke-linecap="round" stroke-linejoin="round"/>
<path d="M31.756 29.299C31.5007 28.8285 31.2187 28.395 30.9012 27.9574C30.0709 26.809 29.6935 25.5701 29.3605 24.2368C28.8543 22.2213 28.579 20.3066 28.539 18.2378C28.5057 16.5058 28.2837 14.7534 28.3481 13.0235C28.3836 12.06 28.5346 10.8807 28.8676 9.95623C29.154 9.16321 29.729 8.49962 30.344 7.89972C30.899 7.35734 31.7693 7.21763 32.3443 7.80521C33.2546 8.73382 33.6542 9.88843 34.0849 11.0533C34.3691 11.8217 34.782 12.549 34.9619 13.3481C35.1861 14.3466 35.2483 15.3738 35.3193 16.3887C35.3792 17.2249 35.3193 18.0713 35.3859 18.9054C35.4414 19.5711 35.6257 20.2121 35.821 20.851C35.9054 21.1284 36.0542 21.4612 36.0764 21.7529C36.0897 21.9132 35.9476 22.0919 36.1319 22.17C36.2473 22.0508 36.2695 21.907 36.1985 21.7406C36.1208 21.3318 36.0808 20.9209 36.0786 20.5059C36.0231 19.4006 35.6723 18.324 35.6967 17.2146C35.7234 16.0251 36.1008 14.85 36.2384 13.6686C36.3672 12.5695 36.3428 11.4478 36.5892 10.361C36.8312 9.28853 37.1975 8.24692 37.4418 7.17244C37.6615 6.20684 38.019 5.3378 38.6095 4.51191C38.9248 4.09897 39.2534 3.69629 39.5975 3.30389C39.9261 2.86218 40.2791 2.43896 40.6587 2.03218C41.1427 1.60691 42.1662 1.05631 42.85 1.00495C44.4307 0.887846 45.4187 2.87657 45.6784 4.00035C45.7939 4.43385 45.8805 4.8735 45.9382 5.31931C45.8916 5.89251 45.7828 6.45338 45.6096 7.00603C45.3232 8.30856 45.4764 9.54534 45.361 10.852C45.1367 13.3851 44.6106 15.8279 44.0711 18.3179C43.8424 19.3698 43.5493 20.4299 43.3762 21.49C43.3096 21.8967 43.2097 22.4782 43.3429 22.8747C43.8047 21.9358 44.1066 20.9188 44.4663 19.943C44.9414 18.6569 45.4609 17.4036 45.7784 16.0724C45.9759 15.2465 46.3489 14.5521 46.8063 13.8268C47.3014 13.042 47.7365 12.3641 48.558 11.8319C49.2662 11.3738 50.4606 10.7349 51.362 11.0533C51.8349 11.2218 52.1257 11.7929 52.3389 12.1853C52.7518 12.9455 52.7829 13.8802 52.8783 14.7123C52.9738 15.5464 52.8872 16.3456 52.7407 17.1715C52.5387 18.2973 52.3255 19.454 51.9925 20.5531C51.4131 22.4699 50.616 24.321 50.0033 26.2275C49.4061 28.0868 48.4669 29.8044 47.6743 31.5917C47.177 32.7135 46.3178 33.6791 46.0559 34.8748" stroke="#1A1A1A" stroke-width="2" stroke-linecap="round" stroke-linejoin="round"/>
<path d="M42.4836 35.302C42.2194 35.0575 41.9929 34.8542 41.6199 34.7576C41.1848 34.6425 40.6209 34.5604 40.1746 34.5973C39.6684 34.6384 39.2644 34.9856 38.7693 35.0082" stroke="#1A1A1A" stroke-width="2" stroke-linecap="round" stroke-linejoin="round"/>
<path d="M31.6664 35.5981C31.5621 35.37 31.2424 35.3023 31.0181 35.2016C30.6141 35.0187 30.1856 34.8647 29.7238 34.8811C29.3242 34.8955 28.2452 35.1358 28.3784 35.6967" stroke="#1A1A1A" stroke-width="2" stroke-linecap="round" stroke-linejoin="round"/>
<path d="M6.22836 49.6323C5.87314 51.0067 5.71773 52.4078 5.41801 53.7925C5.11829 55.1772 4.82523 56.4469 4.82301 57.809C4.82301 58.0062 4.86742 58.2384 4.81858 58.4274C4.76529 58.6287 4.65206 58.8321 4.58102 59.0355C4.44781 59.4135 4.45669 59.7895 4.46779 60.1881C4.47667 60.488 4.63874 60.7161 4.64318 60.9996C4.6454 61.1516 4.65872 61.2256 4.78305 61.318C4.82079 61.3447 4.9429 61.3776 4.98952 61.4023C5.13827 61.4824 5.27149 61.5789 5.43134 61.6529C5.81542 61.8296 6.21504 62.0186 6.63908 62.0864C7.10531 62.1603 7.54934 62.2322 8.00891 62.3452C8.54618 62.4788 9.04793 62.5178 9.5963 62.5651C10.2979 62.6246 11.0194 62.5753 11.701 62.7459C12.3826 62.9164 13.0331 63.0335 13.6947 63.1609C14.3563 63.2882 15.0223 63.4033 15.6817 63.4649C16.3122 63.5224 16.9294 63.5389 17.5555 63.6334C18.2371 63.7361 18.9209 63.8573 19.6047 63.9498C20.1109 64.0196 20.6104 64.0402 21.1144 64.0874C21.2942 64.1039 21.4518 64.2004 21.6339 64.1675C21.8159 64.1347 22.089 63.9703 22.2022 63.8306C22.291 63.7217 22.3377 63.5861 22.4265 63.4773C22.5286 63.3499 22.6418 63.2389 22.7328 63.1033C23.2257 62.3719 23.5188 61.5399 23.6276 60.6914C23.8074 59.2923 23.7408 57.8809 23.7719 56.4757C23.7874 55.7895 23.854 55.1115 23.8585 54.4232C23.8629 53.7042 24.0494 53.0344 24.1226 52.3256C24.1648 51.9209 24.1893 51.5121 24.2381 51.1073C24.2825 50.7437 24.2625 50.3924 24.3003 50.0329C24.3091 49.9486 24.3669 49.8623 24.3757 49.7863C24.3913 49.6384 24.3802 49.7124 24.318 49.6179C24.2492 49.5131 24.056 49.4206 23.9495 49.3446C23.5787 49.0776 23.2302 48.8783 22.7573 48.8064C22.4464 48.7571 22.1423 48.7488 21.827 48.7386C21.3186 48.7242 20.8413 48.6584 20.3373 48.5824C19.7401 48.492 19.1473 48.3831 18.5479 48.301C17.7953 48.1962 17.0382 48.1366 16.29 48.0031C14.9157 47.7545 13.506 47.5223 12.1095 47.3908C11.6144 47.3436 11.1304 47.3703 10.6353 47.3559C10.249 47.3436 9.88936 47.2388 9.51194 47.2039C9.1767 47.1731 8.82148 47.1854 8.504 47.3025C8.27755 47.3867 8.08217 47.5511 7.89124 47.6867C7.2252 48.1633 6.60578 48.6461 6.22392 49.6364L6.22836 49.6323Z" stroke="#1A1A1A" stroke-width="2" stroke-linecap="round" stroke-linejoin="round"/>
<path d="M14.2168 57.7555C13.8371 57.8459 13.715 57.8767 13.3687 57.7021C12.9979 57.5151 12.5961 57.3631 12.2542 57.133C11.577 56.6769 11.3151 56.0318 11.2484 55.284C11.2063 54.8074 11.1774 54.3163 11.3661 53.8603C11.6081 53.2809 12.1099 52.8145 12.6605 52.4776C13.0357 52.2496 13.3998 52.04 13.8549 51.9969C14.4321 51.9414 15.0604 51.9496 15.6243 52.079C16.5945 52.3009 17.3072 52.8474 17.8844 53.5849C18.495 54.3636 18.8435 55.3456 18.6903 56.3153C18.6237 56.7344 18.3662 56.981 18.0398 57.246C17.396 57.7699 16.6434 58.0657 15.8552 58.3534C15.1803 58.5978 14.4943 58.8341 13.7661 58.8937C13.1311 58.945 12.8003 58.7766 12.5472 58.2445" stroke="#1A1A1A" stroke-width="2" stroke-linecap="round" stroke-linejoin="round"/>
<path d="M20.0953 52.1505C19.851 51.7581 19.7756 51.2424 20.415 51.1664C20.6836 51.1335 21.0144 51.1828 21.1676 51.4129C21.5428 51.9779 20.5304 52.0827 20.1818 52.1505" stroke="#1A1A1A" stroke-width="2" stroke-linecap="round" stroke-linejoin="round"/>
<path d="M40.4864 42.6651C40.4176 42.9753 40.7639 43.1602 40.9304 42.848C41.1547 42.4309 40.6307 42.1207 40.2511 42.2111C40.1379 42.661 40.3421 43.7355 41.0925 43.3266C41.168 42.9363 41.1835 42.4679 40.8416 42.1823C40.3887 41.8022 40.0046 41.9276 39.9935 42.5254C39.9869 42.8849 40.2244 43.641 40.7306 43.5609C41.4522 43.4479 40.9815 42.1987 40.7328 41.8618" stroke="#1A1A1A" stroke-width="2" stroke-linecap="round" stroke-linejoin="round"/>
<path d="M30.6543 43.6803C31.2737 43.6556 31.418 42.5421 30.8652 42.3531C30.5566 42.2483 30.5965 42.3572 30.49 42.614C30.2746 43.1338 30.6076 43.5961 30.9518 43.9679C31.6178 43.8837 31.0583 41.9258 31.0472 41.8662" stroke="#1A1A1A" stroke-width="2" stroke-linecap="round" stroke-linejoin="round"/>
<path d="M32.0811 49.032C32.181 50.5832 33.7817 51.1214 34.7341 51.1235C35.2536 51.1235 35.7909 51.0064 36.3104 50.7578C36.6901 50.577 37.0653 50.3613 37.4494 50.1846C37.7047 50.0675 37.8623 49.8456 38.0821 49.5806C38.1887 49.4512 38.5883 49.0649 38.666 48.878C38.7637 48.6458 38.6971 47.937 38.6482 47.7624C38.5727 47.4974 38.3552 47.1563 38.2153 46.9529C38.0266 46.6756 37.5914 46.6427 37.3095 46.6571C36.9765 46.6735 36.5591 46.8728 36.2438 47.105C35.7865 47.4419 35.3935 48.0212 34.8718 48.0747C34.1969 48.1404 33.6796 48.0891 33.2378 47.4707C32.8404 46.916 32.2032 47.8179 32.1077 48.4876C32.0811 48.6807 32.0722 48.8615 32.0833 49.03L32.0811 49.032Z" stroke="#1A1A1A" stroke-width="2" stroke-linecap="round" stroke-linejoin="round"/>
<path d="M2.71541 56.685C3.47469 55.5612 4.54924 54.8956 5.92794 54.5545C6.35865 54.4477 6.8271 54.3224 7.26891 54.4559C7.60859 54.5586 7.83948 54.9983 7.83282 55.3085C7.82172 55.6804 7.64411 55.8961 7.33551 56.1262C6.81822 56.5104 6.2099 56.8083 5.5927 57.0363C4.76681 57.3404 3.68783 57.402 2.81087 57.3897C2.57332 57.3856 2.12485 57.4534 2.02273 57.2068C1.9095 56.9377 2.24696 56.6336 2.42679 56.4775C2.9907 55.9865 3.65897 55.5777 4.33389 55.2346C5.18642 54.8031 6.10777 54.4169 7.03357 54.1334C7.29776 54.0532 8.30349 53.7656 8.49886 54.2505C8.64095 54.6038 8.39008 54.8832 8.16362 55.1421C7.71515 55.6537 7.21118 56.1447 6.63617 56.5371C6.24764 56.7836 5.82803 56.9685 5.37735 57.0918C4.8756 57.2767 4.35831 57.4205 3.8277 57.5191C3.35925 57.5951 2.81088 57.7348 2.38461 57.5047C2.89302 56.7446 3.80105 56.27 4.6225 55.8427C5.35737 55.4606 6.12109 55.1318 6.90924 54.8545C7.22228 54.7086 7.54864 54.6531 7.89054 54.686C8.44336 55.0188 7.2467 55.9803 7.01359 56.1324C6.45189 56.457 5.84136 56.6624 5.1842 56.7528C4.74239 56.8925 4.32945 56.8617 3.94314 56.6604C3.89874 56.3275 4.00753 56.0502 4.27172 55.8262C4.52926 55.4379 4.86672 55.1133 5.28188 54.8524" stroke="#1A1A1A" stroke-width="2" stroke-linecap="round" stroke-linejoin="round"/>
<path d="M51.0764 56.0912C52.4174 53.6011 54.0048 51.257 55.8342 49.0608C56.1827 48.8636 56.4958 48.6252 56.7755 48.35C57.2528 47.8836 57.6414 47.3248 58.0854 46.8296C58.243 46.655 58.4384 46.4866 58.5783 46.3017C58.6959 46.1455 58.7403 45.9627 58.8247 45.786C58.9912 45.5025 59.1333 45.2066 59.2465 44.9005C59.4086 44.3499 59.5795 43.8034 59.7572 43.257C60.1124 42.3653 60.4742 41.4737 60.8428 40.5862C61.2424 39.5528 61.6065 38.507 61.9307 37.4511C62.3725 36.2081 62.9897 35.0761 63.6202 33.9112C63.7645 33.6934 63.8799 33.4633 63.9621 33.2189C63.9443 33.149 63.951 33.0833 63.9776 33.0196C64.8834 32.9292 65.3785 32.0458 65.7338 31.3637C65.827 31.1829 66.3154 29.9461 66.7128 30.5173C66.9659 30.8809 66.5019 31.639 66.2977 31.8711C66.14 32.0499 65.5539 32.5779 65.192 32.3909C64.8302 32.204 64.95 31.4212 65.0278 31.1973C65.2009 30.8275 65.4429 30.5029 65.7559 30.2255C66.0579 29.8763 66.4087 29.5722 66.8039 29.3113L67.2967 29.1675C67.5964 29.3031 67.7274 29.5332 67.6897 29.8598C67.6964 30.5666 67.3167 31.1213 66.6995 31.5363C66.4375 31.7129 65.5961 32.3149 65.2697 31.9636C64.8368 31.4972 65.4651 30.5892 65.7271 30.2481C65.9602 29.9851 66.1933 29.7201 66.4264 29.4572C66.7706 29.0565 67.2079 28.8162 67.7407 28.7381C68.2625 28.7997 68.469 29.0812 68.429 29.5619C68.3469 30.5645 67.5254 31.2055 66.715 31.7746C66.1556 32.2019 65.5473 32.5614 64.8879 32.8511C64.5038 33.1654 64.1597 33.186 63.8555 32.9086C63.9576 32.4772 64.1841 32.1115 64.5393 31.8136C65.0411 31.1952 65.6116 30.6364 66.2533 30.1372C67.0481 29.5065 67.874 28.884 68.822 28.4648C69.0173 28.621 69.0529 28.8059 68.9241 29.0216C68.8664 29.4818 68.6577 29.8906 68.298 30.2461C67.8229 30.8542 67.2568 31.3698 66.6018 31.7972C66.0912 32.2368 65.5051 32.5676 64.8457 32.7936L64.153 32.8758C63.8511 32.7648 63.729 32.5738 63.7867 32.3026C63.7312 31.2979 64.7724 30.4515 65.5051 29.8249C65.8958 29.4243 66.3643 29.1202 66.9104 28.9148L67.572 28.9271C67.9073 29.1223 68.0271 29.3852 67.9339 29.716C67.9761 30.1906 67.8185 30.622 67.4632 31.0124C66.8904 31.7787 65.9802 32.621 64.9567 32.808L64.3395 32.8778C64.0886 32.7607 64.0154 32.5738 64.1264 32.317" stroke="#1A1A1A" stroke-width="2" stroke-linecap="round" stroke-linejoin="round"/>
</svg>
