<svg fill="none" height="35" viewBox="0 0 84 35" width="84" xmlns="http://www.w3.org/2000/svg"><g stroke="#6736d0" stroke-linecap="round" stroke-linejoin="round" stroke-width="3"><path d="m38.1674 12.3177c.3148-.2466.4933-.3201.8868-.3883.2362-.042.4566-.0683.698-.063.4723.0105 1.0863.2414 1.1808.7872.0997.5667-.7505.7084-1.1598.7452-.656.0629-1.4851.0944-1.6058-1.0811z"/><path d="m38.2935 22.7086c.1784-.1522.3253-.2781.572-.3148.1732-.0263.3568-.0105.53 0 .4776.0209 1.207.1574 1.3907.6979.1627.4881-.4566.6665-.8449.74-.2886.0525-.593.0367-.8764-.0263-.4776-.1102-.6402-.3778-.7714-1.0968z"/><path d="m34.4521 15.1465c-.6508.1417-.9604.5405-1.1651.8606-.2046.3097-.4145.6403-.551.9604-.2624.6088-.3306 1.207.0053 1.8158.1679.2991.2676.6035.4618.8973.1259.189.3778.3149.6245.4671.3043.1837.509.3621.7084.5773.1102.1207.2362.2309.4671.3043"/><path d="m45.2886 11.0583c.3253.2677.6087.4881.7924.8712.1942.4041.1627.8344.1522 1.27"/><path d="m45.9814 22.0159c.0263.6717-.1941 1.1912-.6297 1.7003"/><path d="m50.0909 6.56957c.9905.40957 1.8647 1.37232 2.3576 2.43613.493 1.0638.9766 2.101 1.4416 3.1648.4278.9734.6882 1.9468.8742 3.0106.107.617.2325 1.1809.2279 1.8138-.0047.5426-.0047 1.0851-.0047 1.6224 0 .8031.0698 1.6223-.1209 2.3988-.172.6968-.4929 1.3085-.6789 1.9947-.3999 1.4627-1.0695 2.718-1.8275 3.984-.3395.5691-.7301 1.2021-1.1951 1.6383-.6324.5957-1.2695.8989-1.9856 1.3457-1.6509 1.0212-3.5202 1.6382-5.3431 2.117-.9394.25-1.8694.3457-2.8134.5053-1.0602.1755-2.0926.3989-3.1621.3989-1.1672 0-2.3158-.1489-3.483-.1436-1.0975 0-2.2321.0957-3.3203-.0745-.7905-.1223-11.2488-.1702-12.044-.2287-.9998-.0691-1.9949-.2606-2.9994-.2766-1.9205-.0372-3.7992-.0745-5.6778-.5319-1.17655-.2872-2.61346-.7553-3.50165-1.7127-.59987-.649-1.12069-1.3564-1.70197-2.0266-.25111-.2925-.59057-.4787-.83238-.7766-.29297-.3617-.52548-.9095-.68358-1.3617-.15811-.4521-.24181-.9468-.39992-1.4095-.13486-.4043-.32086-.7926-.41387-1.2128-.093-.4202-.1767-.8829-.27901-1.3191-.12555-.5532-.33946-1.0744-.43712-1.6383-.38131-2.2021.59058-4.0531 1.01375-6.1009.43246-2.0904 1.14859-4.1063 2.52505-5.601 1.41831-1.53721 3.12493-2.58507 5.0083-3.17016 1.1625-.3617 2.3158-.74467 3.4737-1.13828.6324-.21809 1.2648-.44681 1.8879-.69148.6604-.26064 1.3579-.37765 2.0275-.61169 1.237-.43085 12.1789-.53723 13.453-.74999 1.4044-.23404 2.832-.32447 4.2364-.07447.6185.1117 1.1951.24467 1.8182.25531.7673.01596 1.4695.21277 2.2228.35106.6417.11702 1.2928.1117 1.9391.2234.5953.10106 1.1765.20213 1.7625.34575.5022.12234 1.0091.19148 1.5113.31382.5766.1383 1.1207.39893 1.6973.54255.6045.15425 1.1579.40425 1.7159.72339.865.49467 1.316 1.32976 1.7066 1.66486z"/><path d="m50.4843 11.7196c2.9335-2.7131 5.6309-4.79651 9.4934-6.19244 3.1644-1.12305 6.6333-1.97845 10.0076-1.63209.9394.09446 2.0572.34635 2.4351 1.33295.2204.57202.1679.97611-.105 1.52189-.3149.62975-1.0758 1.1178-1.6846 1.43267-1.6058.82392-3.2851 1.58486-4.9592 2.26182-2.3143 1.0338-4.6234 2.1149-7.0899 2.7551.8869.1312 1.779.084 2.6712-.1364 2.9913-.4985 6.0036-.7085 9.0421-.6245 2.9125.0787 5.8881.5983 8.6852 1.3749.7557.21 1.3277.6141 1.9102 1.1283.6665.5878 1.1336 1.3382 1.0129 2.2619-.1365 1.0391-1.4222 1.0286-2.3301 1.3067-2.9283.8869-5.9721 1.4222-9.0211 1.6268-2.1674.147-4.319.2834-6.4916.2047-.4776-.0157-1.1283-.1364-1.5691.0682.2834.3149.8816.4303 1.2752.5878.7295.2991 1.4484.614 2.1884.8921 2.2986.8764 4.8753.9551 6.649 2.7184.7295.7242 1.5744 1.1808 1.6006 2.3353.021.8502.0158 1.2753-.7242 1.7791-1.821 1.2437-5.0432.5457-6.9796.1102-1.4957-.3359-2.5767-.6088-4.0357-.5563-1.1807.042-1.779-.4776-2.7288-1.0234-.9184-.53-1.8735-.997-2.8182-1.4693-.4303-.2152-.9078-.719-1.3382-.8607-.5195-.1679-.7871-.0525-1.2962-.3149"/></g></svg>