<svg width="25" height="36" viewBox="0 0 25 36" fill="none" xmlns="http://www.w3.org/2000/svg">
<path d="M2.12644 12.8984C1.38565 13.0719 1.36982 14.2473 1.27168 14.7318C0.955104 16.312 0.743002 18.7179 1.65158 20.1714C2.11378 20.9119 2.65195 21.669 3.72831 21.6938C5.21305 21.7268 6.40338 17.7352 6.62815 17.1461" stroke="#6736D0" stroke-width="2" stroke-miterlimit="10" stroke-linecap="round" stroke-linejoin="round"/>
<path d="M7.34041 14.437C6.50465 15.8382 6.42867 17.2201 6.67876 18.8003C6.83389 19.772 7.008 22.4808 8.71118 22.3019C9.61342 22.2055 10.6676 20.4134 10.9525 19.8023C11.0728 19.5435 11.5857 18.5828 11.1267 18.3515" stroke="#6736D0" stroke-width="2" stroke-miterlimit="10" stroke-linecap="round" stroke-linejoin="round"/>
<path d="M14.6217 18.8497C14.1152 17.4788 13.7195 16.0749 13.2509 14.693C12.4721 12.4026 11.6839 10.115 11.5351 7.71454C11.4464 6.29407 11.3515 4.59558 11.9593 3.24393C12.2189 2.66584 12.8552 1.8097 13.7036 1.91981C14.0962 1.97212 14.3146 2.26116 14.5584 2.49791C14.7483 2.6851 14.9478 2.86404 15.0871 3.08426C15.5461 3.80826 15.6949 4.74698 15.9545 5.5398C16.5971 7.4888 17.2524 9.44056 17.7526 11.4226C18.4206 14.0763 19.3039 16.0529 20.0193 18.6956C20.0288 18.6405 20.5828 27.9231 20.5923 27.868" stroke="#6736D0" stroke-width="2" stroke-miterlimit="10" stroke-linecap="round" stroke-linejoin="round"/>
<path d="M16.8345 7.39806C16.9643 6.92457 17.7114 6.19782 17.9805 5.91152C18.7467 5.08842 19.5444 4.28735 20.5005 3.62943C21.2571 3.10639 23.0141 2.28604 23.7454 3.37341C24.4134 4.36993 23.5998 5.84546 23.2104 6.78417C22.6089 8.22941 21.8364 9.7765 20.9215 11.0924C20.3834 11.8659 19.6774 12.5954 19.2184 13.4047" stroke="#6736D0" stroke-width="2" stroke-miterlimit="10" stroke-linecap="round" stroke-linejoin="round"/>
<path d="M2.40192 12.8267C3.2915 12.1632 4.29187 12.1935 5.38723 12.4413C5.95706 12.5706 6.50157 12.7358 6.81182 13.2038C6.93212 13.3827 6.9796 13.5809 7.15688 13.7323C7.47346 14.0021 7.6001 13.9058 7.93567 13.7378C8.20792 13.6002 8.62263 13.4791 8.93921 13.4075C9.09433 13.3965 9.24945 13.3855 9.40458 13.3745C11.323 14.126 13.1877 14.9684 14.9985 15.9016" stroke="#6736D0" stroke-width="2" stroke-miterlimit="10" stroke-linecap="round" stroke-linejoin="round"/>
<path d="M17.7779 27.3805C17.607 27.0915 17.2841 27.064 16.8124 27.2925C15.7645 27.3861 14.7103 27.4356 13.6561 27.4329C12.4215 27.4218 10.655 27.4659 9.61345 26.7501C8.81885 26.2023 8.54659 25.3104 9.17658 24.5864C9.58496 24.1157 10.3891 23.89 11.0096 23.7138C11.9624 23.444 13.0198 23.2595 14.0044 23.1081C15.1504 22.932 16.2964 22.8549 17.436 22.6594C18.0692 22.5493 18.4079 22.7916 18.9714 23.0558C20.0763 23.5734 20.0066 24.2946 20.1554 25.382C20.2694 26.2133 20.4942 27.0309 20.5891 27.865C20.6968 28.8203 20.6145 29.7205 20.339 30.6454C19.9845 31.8264 19.44 32.5669 18.2275 33.167C17.4487 33.5496 16.5971 33.902 15.7044 34.0121C14.78 34.125 13.9505 33.88 13.08 33.6735C11.7282 33.3487 10.1421 33.3845 9.21773 32.3274C8.78086 31.8291 8.67322 31.1712 7.98942 30.8711C7.28345 30.5628 6.25775 30.3178 5.46631 30.216C5.00094 30.1554 4.51025 30.2105 4.05755 30.0921C3.37058 29.9132 2.85772 29.3406 2.44301 28.8588C0.752493 26.8878 0.993085 23.8679 1.78453 21.6602" stroke="#6736D0" stroke-width="2" stroke-miterlimit="10" stroke-linecap="round" stroke-linejoin="round"/>
</svg>
