<svg width="28" height="33" viewBox="0 0 28 33" fill="none" xmlns="http://www.w3.org/2000/svg">
<path d="M7.21603 27.8359C6.4721 27.6227 5.6964 27.4186 4.96154 27.1736C4.3537 26.9695 4.04525 26.6565 3.50091 26.3572C2.13099 25.6042 1.65923 24.6923 1.54583 23.0729C1.38706 20.8139 2.61635 18.4506 3.48729 16.423C3.94091 15.3706 4.53515 14.2682 4.79371 13.1523C4.88443 12.7486 4.72566 12.3086 5.12938 12.0319C5.12938 13.2249 5.32442 15.6654 6.14093 16.6361C7.35209 18.0832 10.0874 16.7268 10.9221 15.4749C11.9518 13.919 11.0445 12.6035 10.8087 11.0113C10.287 7.45494 11.7114 3.82149 13.7798 1C13.7798 2.01156 17.3135 4.36128 17.9214 4.89201C19.8447 6.57039 22.3804 8.70691 23.0881 11.2834C23.3512 12.413 23.3375 13.538 23.0563 14.6675C22.7705 15.6881 22.5891 16.7223 22.512 17.7793C23.079 19.4486 25.5013 18.3644 26.6036 18.0015C26.6081 20.3195 27.665 22.8189 26.3087 24.8602C25.1701 26.5749 22.7342 28.4665 21.0558 29.5869C19.6496 30.5259 18.2933 31.1564 16.5877 31.1746C14.7914 31.1927 12.4371 31.1564 10.7996 30.2764C10.042 29.8681 9.46141 29.1968 8.87171 28.5889C8.08696 27.7769 8.27296 28.1398 7.21603 27.8359Z" stroke="#6736D0" stroke-width="2" stroke-miterlimit="10" stroke-linecap="round" stroke-linejoin="round"/>
<path d="M13.4762 24.8561C12.383 25.0511 11.9203 25.1691 11.063 24.3888C10.2873 23.6857 9.64772 22.3385 9.89721 21.277C11.0539 21.9938 13.0907 21.9076 14.2837 20.8144C15.1637 20.0069 15.9757 18.6461 16.5336 17.5846C16.8874 16.9133 17.341 14.8901 18.2528 14.7178C18.2891 16.3463 17.8718 19.0816 17.9308 20.6828C17.9716 21.7851 19.0466 21.9756 20.0446 21.8759C19.9947 22.715 19.7316 23.781 19.1238 24.2664C18.5431 24.7291 17.4272 25.1827 16.7604 25.3505C15.1728 25.7406 13.6169 26.5073 13.4762 24.8561Z" stroke="#6736D0" stroke-width="2" stroke-miterlimit="10" stroke-linecap="round" stroke-linejoin="round"/>
</svg>
