<svg width="35" height="31" viewBox="0 0 35 31" fill="none" xmlns="http://www.w3.org/2000/svg">
<path d="M2.01592 24.4555C2.01592 22.445 1.80254 20.5992 2.93812 18.8726C4.0149 17.2354 5.67067 15.8285 7.31363 14.919C9.88735 13.4943 13.5903 12.1949 15.2209 9.35794C16.1325 7.77201 17.1744 6.44148 17.8698 4.70921C18.0832 4.17754 18.1953 0.847715 18.6939 1.00542C19.9647 1.4074 21.2923 1.38558 22.6672 1.38558C24.1003 1.38558 25.4957 1.77659 26.9151 1.77659C27.8934 1.77659 28.8506 2.16761 29.8289 2.16761C30.634 2.16761 31.5894 2.14741 32.3502 2.40656C32.6356 2.50379 33.8093 3.06828 33.9395 3.34065C34.2732 4.03852 33.1287 4.4642 32.88 4.90471C32.5503 5.48877 32.0152 5.78419 31.7223 6.46877C31.3675 7.29802 31.1434 8.22908 30.9669 9.10812C30.6797 10.5388 30.2666 13.1202 29.2991 14.1913C28.6573 14.9019 28.2984 15.9473 27.7098 16.7438C27.1794 17.4615 26.6191 18.1598 26.1107 18.8835C25.6759 19.5024 24.8797 20.0617 24.3546 20.6431C23.5631 21.5194 22.8612 22.4919 22.0687 23.3693C20.9387 24.6204 20.1638 25.7417 19.5376 27.3881C19.4215 27.6934 19.4675 29.1267 19.1452 29.1476C17.3401 29.2652 15.4742 29.315 13.6709 29.3432C11.5593 29.3761 9.52433 29.5387 7.41174 29.5387C6.40004 29.5387 5.38743 29.3432 4.39989 29.3432C4.02289 29.3432 2.80419 29.2207 2.71247 28.8652C2.53055 28.1603 2.78737 26.9704 2.4574 26.3128C2.26437 25.9281 2.19251 24.6971 2.19251 24.26" stroke="#6736D0" stroke-width="2" stroke-linecap="round"/>
<path d="M20.7345 12.334C18.8742 12.334 16.8495 12.6249 16.8495 15.0711C16.8495 15.6473 17.9361 15.5038 18.2622 16.1355C18.4955 16.5876 19.1181 17.2998 19.1451 17.8082C19.2559 19.8938 18.4903 21.183 16.457 21.1318C14.0277 21.0707 10.8454 19.8579 10.8454 16.6351" stroke="#6736D0" stroke-width="2" stroke-linecap="round"/>
<path d="M21.0876 12.5298C21.5026 12.5872 21.7939 14.4558 21.7939 14.8759" stroke="#6736D0" stroke-width="2" stroke-linecap="round"/>
<path d="M22.1472 9.20605C22.0746 9.84905 21.1347 10.8385 20.7737 11.3566C20.0854 12.3444 19.3317 13.2801 18.6546 14.2893C17.7041 15.7059 17.0617 17.5061 15.9665 18.7859C15.0539 19.8524 14.4479 21.2492 13.4942 22.3051C13.0705 22.7742 12.3889 24.0646 11.7283 24.0646" stroke="#6736D0" stroke-width="2" stroke-linecap="round"/>
</svg>
