<svg width="174" height="172" viewBox="0 0 174 172" fill="none" xmlns="http://www.w3.org/2000/svg">
<g id="Group 4586">
<path id="Vector 11512" d="M11.4183 9.08594C11.4183 12.6386 11.0146 16.3725 11.8797 19.8329C12.7198 23.1936 13.0875 26.7027 14.1862 29.999" stroke="#1A1A1A" stroke-width="3" stroke-linecap="round"/>
<path id="Vector 11513" d="M16.6465 6.31787C16.6465 9.9443 16.6566 13.7403 18.1842 17.0819C19.0318 18.9361 19.1927 21.0129 19.8757 22.9253C20.1793 23.7754 20.6446 24.8468 20.6446 25.6932" stroke="#1A1A1A" stroke-width="3" stroke-linecap="round"/>
<path id="Vector 11514" d="M6.80518 23.5404C7.12735 21.6074 11.7898 19.8616 13.2636 18.6881C14.5997 17.6241 16.0173 16.7232 17.2617 15.5443C18.1958 14.6593 20.4426 13.7956 20.9522 12.7764" stroke="#1A1A1A" stroke-width="3" stroke-linecap="round"/>
<path id="Vector 11515" d="M38.0869 26.0703C38.5476 29.0071 39.9109 31.7109 40.4167 34.6336C40.6003 35.6945 40.9044 36.7178 41.1105 37.7711C41.3627 39.0602 41.2554 40.4137 41.2554 41.7266C41.2554 42.9649 41.1057 44.3223 41.3486 45.5371C41.5775 46.6813 41.4551 47.917 41.8146 48.9955" stroke="#1A1A1A" stroke-width="3" stroke-linecap="round"/>
<path id="Vector 11516" d="M32.6816 39.3034C35.0693 39.3034 36.6815 37.3436 38.0868 35.6172C39.3982 34.006 40.8804 32.5041 42.2286 30.9162C43.0355 29.9659 44.086 29.1302 44.7966 28.1204C45.3792 27.2924 45.998 26.3869 46.7019 25.656C47.4914 24.8361 48.1122 24.0593 48.897 23.2744" stroke="#1A1A1A" stroke-width="3" stroke-linecap="round"/>
<g id="Group 4585">
<g id="Group 4584">
<path id="Vector 11503" d="M3.36369 40.3495C3.36369 41.0161 3.27478 42.8938 3.96971 43.2617C5.0811 43.8501 6.34288 44.1371 7.61422 44.1371C10.2724 44.1371 12.7681 43.5201 15.2567 42.5463C16.3756 42.1085 17.5838 41.8771 18.6319 41.2585C19.9046 40.5074 21.4987 39.6784 22.6047 38.683C23.4373 37.9336 24.7007 37.5404 25.6179 36.8733C27.031 35.8457 28.392 34.7769 29.759 33.6833C31.6658 32.1579 33.7484 30.8723 35.4825 29.1382C37.3785 27.2423 39.4042 25.5195 41.307 23.6167C42.8693 22.0544 43.9503 20.0281 45.4481 18.4151C46.0916 17.7221 46.3197 16.6914 46.7695 15.8816C47.0644 15.351 47.5986 14.8254 47.788 14.2572C48.3496 12.5724 47.8113 11.768 46.4665 10.7221C45.9448 10.3163 45.2131 10.0157 44.7579 9.56056C44.042 8.84467 43.9578 9.2626 43.7395 10.0487C42.8229 13.3484 39.705 15.3648 37.5699 17.9269C36.6982 18.9729 35.9706 20.1332 35.1037 21.1927C34.3213 22.149 33.364 23.0254 32.4188 23.8356C30.1661 25.7665 27.7977 27.5684 25.559 29.5086C23.5548 31.2456 21.33 32.3472 19.1201 33.7591C17.5838 34.7406 15.9149 35.2853 14.2383 35.9559C13.3192 36.3235 12.4141 36.8168 11.4607 37.0838C10.6621 37.3074 9.78891 37.3892 8.96933 37.5046C7.9724 37.645 7.0766 38.1733 6.09076 38.3463C5.1086 38.5186 3.89093 38.683 2.90918 38.683" stroke="#1A1A1A" stroke-width="3" stroke-linecap="round"/>
<path id="Vector 11504" d="M2.90902 38.5315C2.90902 37.1538 2.64746 35.7165 2.42084 34.3567C2.23906 33.266 2.34236 32.1761 2.30301 31.0741C2.24734 29.5156 2 27.9929 2 26.4028C2 24.8327 2.11519 23.4858 2.75752 22.0176C3.30092 20.7755 3.83591 19.4662 4.30623 18.1963C5.43004 15.162 7.95274 13.1002 10.0381 10.8063C11.395 9.31374 12.5105 7.54755 14.2886 6.54736C15.9936 5.5883 17.8199 4.82353 19.4987 3.8287C23.0905 1.70022 27.5625 1.71614 31.5433 2.43992C32.9488 2.69548 34.1774 2.99868 35.516 3.53411C36.4811 3.92013 37.2351 4.63508 38.1505 5.05757C39.4303 5.64825 40.403 6.56207 41.5425 7.32171" stroke="#1A1A1A" stroke-width="3" stroke-linecap="round"/>
<path id="Vector 11505" d="M49.118 13.9879C49.118 15.8017 49.4456 17.4732 49.9512 19.2148C50.3202 20.4857 51.0024 21.5183 51.4242 22.7415C51.7999 23.831 52.2671 24.8915 52.451 26.0409C52.7425 27.8623 52.6025 29.7535 52.6025 31.596C52.6025 35.026 51.8908 38.8471 49.421 41.4101C47.6594 43.2382 46.3766 45.515 44.5728 47.3188C42.9225 48.9691 41.0289 51.0605 38.8914 52.0827C37.6658 52.6689 36.2013 52.6226 34.8766 52.8066C33.143 53.0473 31.427 53.6819 29.6581 53.6819C26.641 53.6819 23.64 54.0768 20.6352 53.5304C19.3193 53.2912 17.7558 52.7951 16.511 52.3184C14.662 51.6103 12.6352 50.6374 11.0147 49.5156C9.99597 48.8103 9.29642 47.255 8.21191 46.7127" stroke="#1A1A1A" stroke-width="3" stroke-linecap="round"/>
<path id="Vector 11506" d="M30.9375 53.9849C30.9989 54.5378 31.8589 55.2758 32.1748 55.6767C33.3209 57.1313 34.4235 58.5647 35.4658 60.0955C36.1388 61.0841 36.6662 62.1548 37.3091 63.1593C38.5249 65.059 39.9014 66.764 41.3071 68.5292C43.1902 70.8941 45.394 72.9993 47.2157 75.4142C48.5074 77.1264 49.9747 78.7812 51.0875 80.6159C52.091 82.2703 53.7311 83.4524 54.9929 84.8917C57.4612 87.707 59.715 90.6897 62.1473 93.5274" stroke="#1A1A1A" stroke-width="3" stroke-linecap="round"/>
<path id="Vector 11507" d="M62.6016 93.9818C63.3783 94.9139 64.036 95.9335 64.8405 96.8604C65.5391 97.6654 66.3462 98.3811 67.0288 99.2003C67.8331 100.165 68.5713 101.233 69.4529 102.129C70.6366 103.332 71.989 104.397 73.1227 105.648C74.8728 107.579 76.7528 109.433 78.4421 111.413C79.5652 112.73 80.7365 114.17 81.9604 115.394C82.9418 116.376 83.6059 117.202 85.0241 117.162C86.5055 117.12 88.447 116.017 89.645 115.184C90.9678 114.264 92.3427 113.412 93.5925 112.39C94.3056 111.806 95.3503 111.508 95.7809 110.647" stroke="#1A1A1A" stroke-width="3" stroke-linecap="round"/>
<path id="Vector 11508" d="M95.7808 110.344C95.7808 109.744 96.1127 107.949 95.6293 107.466C94.7253 106.562 94.2293 105.462 93.4241 104.503C91.768 102.532 90.3224 100.36 89.123 98.0809C87.9315 95.817 86.4883 93.6965 85.327 91.4063C84.9533 90.6693 84.489 89.9857 84.0392 89.2937C83.6324 88.6678 83.419 87.9975 83.0545 87.3494C81.9464 85.3795 80.8258 83.423 79.9486 81.3313C79.4105 80.0481 78.7347 78.6086 77.8276 77.5437C76.9174 76.4753 75.897 75.1847 75.1763 73.9834" stroke="#1A1A1A" stroke-width="3" stroke-linecap="round"/>
<path id="Vector 11509" d="M75.0251 73.9834C74.9351 72.9027 74.2073 71.9282 73.6616 71.0375C72.9936 69.9473 72.3439 68.8258 71.7594 67.6875C71.4458 67.0768 71.0164 66.503 70.5978 65.9537C67.1999 61.4939 63.8453 57.1408 60.8595 52.3856C59.7033 50.5443 58.2589 48.8988 57.1561 47.0241C56.3584 45.668 55.7795 43.9553 54.7236 42.782C54.0008 41.9789 53.663 41.042 53.2759 40.0465C53.1206 39.6472 52.6025 39.2428 52.6025 38.8345" stroke="#1A1A1A" stroke-width="3" stroke-linecap="round"/>
<path id="Vector 11510" d="M35.1792 59.8936C36.1691 59.8936 37.1607 59.9109 38.1504 59.8852C39.8633 59.8407 41.2366 59.3107 42.7544 58.5637C44.3504 57.7782 45.8915 56.949 47.451 56.106C48.354 55.6179 49.1398 54.6273 49.7572 53.8334C50.5183 52.8548 51.6354 52.1293 52.4591 51.1821C53.0391 50.515 53.6316 49.907 54.1929 49.221C54.4231 48.9396 54.6745 48.2292 54.942 48.0763C55.3852 47.823 55.8284 46.9023 56.1625 46.4939C56.3398 46.2771 56.9999 45.8037 56.5412 45.8037" stroke="#1A1A1A" stroke-width="3" stroke-linecap="round"/>
<path id="Vector 11511" d="M87.2969 116.708C87.8856 117.362 88.369 117.819 89.1149 118.298C89.5392 118.571 89.9298 119.101 90.4785 119.132C92.2925 119.232 94.2465 118.635 95.7474 117.617C97.1607 116.658 95.6811 115.873 94.8721 115.041C94.2634 114.415 93.1313 113.529 92.751 112.768" stroke="#1A1A1A" stroke-width="3" stroke-linecap="round"/>
</g>
<path id="Vector 11517" d="M94.7336 119.5C102.5 150.5 90.1526 161.489 79.7037 164.102C72.1649 165.986 46.8682 170.918 46.5581 157.582C46.3682 149.417 50.7988 144.918 59.0997 143.995C70.8918 142.685 82.8094 140.829 94.7336 139.666C108.642 138.309 123.417 139.278 136.489 144.394C141.965 146.536 145.226 150.977 150.474 153.601C156.379 156.553 168.965 163.931 172 170" stroke="#1A1A1A" stroke-width="3" stroke-linecap="round"/>
</g>
</g>
</svg>
