<svg width="121" height="134" viewBox="0 0 121 134" fill="none" xmlns="http://www.w3.org/2000/svg">
<g id="Group 4586">
<path id="Vector 11512" d="M5.2786 4.21899C5.2786 5.83287 5.09517 7.52907 5.48816 9.10104C5.86983 10.6277 6.03684 12.2218 6.53598 13.7192" stroke="#1A1A1A" stroke-width="2" stroke-linecap="round"/>
<path id="Vector 11513" d="M7.65332 2.96143C7.65332 4.60881 7.65791 6.33322 8.35186 7.85123C8.73692 8.69354 8.80999 9.63695 9.12026 10.5057C9.25818 10.8919 9.46953 11.3786 9.46953 11.7631" stroke="#1A1A1A" stroke-width="2" stroke-linecap="round"/>
<path id="Vector 11514" d="M3.18262 10.7853C3.32897 9.90719 5.44701 9.11414 6.1165 8.58102C6.72347 8.0977 7.36742 7.68843 7.93272 7.15289C8.35704 6.75089 9.37771 6.35853 9.60922 5.89551" stroke="#1A1A1A" stroke-width="2" stroke-linecap="round"/>
<path id="Vector 11515" d="M17.3931 11.9346C17.6023 13.2687 18.2216 14.4969 18.4514 15.8246C18.5348 16.3066 18.673 16.7714 18.7666 17.2499C18.8812 17.8355 18.8324 18.4503 18.8324 19.0468C18.8324 19.6093 18.7644 20.2259 18.8748 20.7778C18.9787 21.2976 18.9231 21.8589 19.0864 22.3489" stroke="#1A1A1A" stroke-width="2" stroke-linecap="round"/>
<path id="Vector 11516" d="M14.9375 17.9458C16.0222 17.9458 16.7545 17.0555 17.3929 16.2713C17.9886 15.5394 18.6619 14.8571 19.2744 14.1357C19.641 13.7041 20.1182 13.3244 20.441 12.8657C20.7057 12.4896 20.9867 12.0782 21.3065 11.7462C21.6652 11.3737 21.9472 11.0209 22.3037 10.6643" stroke="#1A1A1A" stroke-width="2" stroke-linecap="round"/>
<g id="Group 4585">
<g id="Group 4584">
<path id="Vector 11503" d="M1.61956 18.4211C1.61956 18.7239 1.57917 19.5769 1.89485 19.744C2.39973 20.0113 2.97292 20.1417 3.55045 20.1417C4.75797 20.1417 5.89172 19.8614 7.02223 19.419C7.53048 19.2201 8.07937 19.115 8.55548 18.834C9.13363 18.4928 9.85777 18.1162 10.3602 17.664C10.7384 17.3236 11.3123 17.145 11.729 16.842C12.3709 16.3751 12.9892 15.8896 13.6102 15.3928C14.4764 14.6999 15.4225 14.1159 16.2102 13.3281C17.0715 12.4668 17.9918 11.6842 18.8561 10.8199C19.5658 10.1101 20.0569 9.18963 20.7373 8.45691C21.0297 8.14207 21.1332 7.67388 21.3376 7.30602C21.4715 7.06494 21.7142 6.82619 21.8003 6.56807C22.0554 5.80271 21.8109 5.43733 21.2 4.96218C20.963 4.77785 20.6306 4.64131 20.4238 4.43453C20.0986 4.10932 20.0603 4.29917 19.9611 4.6563C19.5448 6.15523 18.1284 7.07124 17.1585 8.23514C16.7625 8.71031 16.4319 9.23739 16.0382 9.71868C15.6827 10.1531 15.2478 10.5512 14.8185 10.9193C13.7951 11.7964 12.7192 12.615 11.7023 13.4963C10.7918 14.2854 9.78114 14.7859 8.77725 15.4272C8.07935 15.8731 7.32122 16.1205 6.55959 16.4252C6.14209 16.5922 5.73089 16.8163 5.29781 16.9375C4.93501 17.0391 4.53836 17.0763 4.16604 17.1287C3.71317 17.1925 3.30623 17.4325 2.85839 17.5111C2.41222 17.5893 1.85907 17.664 1.41309 17.664" stroke="#1A1A1A" stroke-width="2" stroke-linecap="round"/>
<path id="Vector 11504" d="M1.41294 17.5952C1.41294 16.9694 1.29412 16.3164 1.19118 15.6987C1.1086 15.2033 1.15553 14.7082 1.13765 14.2076C1.11236 13.4996 1 12.8079 1 12.0855C1 11.3723 1.05233 10.7604 1.34412 10.0934C1.59097 9.52919 1.834 8.93438 2.04765 8.35753C2.55817 6.97913 3.70416 6.04251 4.65149 5.00045C5.26788 4.32243 5.77464 3.52009 6.58238 3.06574C7.35691 2.63007 8.18654 2.28265 8.94916 1.83073C10.5808 0.863819 12.6123 0.87105 14.4207 1.19984C15.0592 1.31594 15.6173 1.45367 16.2254 1.6969C16.6638 1.87226 17.0063 2.19704 17.4222 2.38897C18.0035 2.6573 18.4454 3.07242 18.963 3.4175" stroke="#1A1A1A" stroke-width="2" stroke-linecap="round"/>
<path id="Vector 11505" d="M22.4042 6.4458C22.4042 7.26977 22.5531 8.02908 22.7828 8.82023C22.9504 9.39756 23.2603 9.86663 23.4519 10.4223C23.6226 10.9173 23.8348 11.399 23.9184 11.9211C24.0507 12.7486 23.9872 13.6077 23.9872 14.4447C23.9872 16.0028 23.6638 17.7386 22.5419 18.9029C21.7416 19.7334 21.1589 20.7677 20.3395 21.5871C19.5898 22.3368 18.7296 23.2868 17.7586 23.7512C17.2018 24.0175 16.5366 23.9964 15.9348 24.08C15.1473 24.1894 14.3677 24.4777 13.5642 24.4777C12.1936 24.4777 10.8303 24.657 9.46534 24.4088C8.86755 24.3002 8.15731 24.0748 7.5918 23.8583C6.75188 23.5366 5.83113 23.0946 5.09502 22.585C4.63222 22.2646 4.31444 21.5581 3.82178 21.3118" stroke="#1A1A1A" stroke-width="2" stroke-linecap="round"/>
<path id="Vector 11506" d="M14.1455 24.6152C14.1734 24.8664 14.5641 25.2017 14.7076 25.3838C15.2282 26.0446 15.7291 26.6957 16.2026 27.3911C16.5083 27.8402 16.7479 28.3266 17.0399 28.7829C17.5923 29.6459 18.2176 30.4204 18.8561 31.2223C19.7116 32.2966 20.7127 33.253 21.5403 34.35C22.127 35.1278 22.7936 35.8795 23.2991 36.7129C23.755 37.4645 24.5 38.0015 25.0732 38.6553C26.1945 39.9342 27.2183 41.2892 28.3232 42.5783" stroke="#1A1A1A" stroke-width="2" stroke-linecap="round"/>
<path id="Vector 11507" d="M28.5293 42.7847C28.8821 43.2081 29.1809 43.6713 29.5464 44.0923C29.8637 44.458 30.2304 44.7831 30.5405 45.1553C30.9059 45.5937 31.2412 46.0788 31.6417 46.4859C32.1794 47.0324 32.7938 47.5159 33.3087 48.0841C34.1038 48.9614 34.9578 49.8035 35.7252 50.7032C36.2354 51.3014 36.7675 51.9558 37.3235 52.5118C37.7693 52.9576 38.071 53.3331 38.7152 53.3147C39.3882 53.2955 40.2701 52.7948 40.8144 52.4162C41.4153 51.9982 42.0398 51.6113 42.6076 51.1468C42.9316 50.8817 43.4061 50.7465 43.6017 50.3553" stroke="#1A1A1A" stroke-width="2" stroke-linecap="round"/>
<path id="Vector 11508" d="M43.6022 50.2177C43.6022 49.9448 43.753 49.1296 43.5334 48.91C43.1228 48.4994 42.8975 47.9996 42.5316 47.5641C41.7794 46.6686 41.1226 45.6819 40.5778 44.6468C40.0365 43.6183 39.3809 42.6551 38.8534 41.6147C38.6836 41.2799 38.4727 40.9693 38.2684 40.655C38.0836 40.3706 37.9866 40.0662 37.821 39.7717C37.3177 38.8769 36.8086 37.9881 36.4101 37.0379C36.1657 36.455 35.8587 35.801 35.4466 35.3173C35.0332 34.832 34.5696 34.2457 34.2422 33.7" stroke="#1A1A1A" stroke-width="2" stroke-linecap="round"/>
<path id="Vector 11509" d="M34.1732 33.7001C34.1323 33.2091 33.8017 32.7665 33.5538 32.3618C33.2504 31.8666 32.9552 31.3571 32.6897 30.84C32.5472 30.5626 32.3522 30.302 32.1621 30.0524C30.6185 28.0264 29.0946 26.049 27.7382 23.8888C27.213 23.0524 26.5568 22.3049 26.0558 21.4532C25.6935 20.8372 25.4305 20.0591 24.9508 19.5262C24.6225 19.1613 24.4691 18.7357 24.2932 18.2835C24.2226 18.1021 23.9873 17.9184 23.9873 17.7329" stroke="#1A1A1A" stroke-width="2" stroke-linecap="round"/>
<path id="Vector 11510" d="M16.0723 27.2993C16.522 27.2993 16.9724 27.3072 17.422 27.2955C18.2001 27.2753 18.824 27.0345 19.5135 26.6952C20.2385 26.3383 20.9386 25.9616 21.647 25.5787C22.0572 25.357 22.4142 24.907 22.6947 24.5463C23.0404 24.1018 23.5478 23.7722 23.922 23.3419C24.1855 23.0389 24.4547 22.7627 24.7097 22.451C24.8142 22.3232 24.9284 22.0005 25.05 21.931C25.2513 21.816 25.4526 21.3977 25.6044 21.2122C25.6849 21.1137 25.9848 20.8987 25.7764 20.8987" stroke="#1A1A1A" stroke-width="2" stroke-linecap="round"/>
<path id="Vector 11511" d="M39.748 53.1083C40.0155 53.4054 40.2351 53.6131 40.5739 53.8309C40.7667 53.9548 40.9441 54.1956 41.1933 54.2095C42.0174 54.2552 42.9051 53.9839 43.5869 53.5212C44.2289 53.0856 43.5568 52.7292 43.1892 52.3512C42.9127 52.0668 42.3984 51.6643 42.2257 51.3188" stroke="#1A1A1A" stroke-width="2" stroke-linecap="round"/>
</g>
<path id="Vector 11517" d="M43.1262 54.377C46.6543 68.4594 41.0452 73.4516 36.2985 74.6383C32.8739 75.4944 21.3823 77.7348 21.2414 71.6766C21.1552 67.9673 23.1678 65.9235 26.9387 65.5045C32.2956 64.9093 37.7094 64.0661 43.1262 63.5376C49.4445 62.9212 56.1562 63.3617 62.0945 65.6854C64.5821 66.6588 66.0633 68.6759 68.4474 69.8679C71.13 71.2092 117.5 87.5 119.5 133" stroke="#1A1A1A" stroke-width="2" stroke-linecap="round"/>
</g>
</g>
</svg>
