<svg width="21" height="30" viewBox="0 0 21 30" fill="none" xmlns="http://www.w3.org/2000/svg">
<path d="M2.06812 2.14282C3.16379 2.24881 4.07271 3.64531 4.9163 4.23466C5.85527 4.89064 6.65815 5.81745 7.50662 6.5816C8.1878 7.19507 8.95615 7.74013 9.71016 8.26527C10.2348 8.6307 10.6622 9.12701 11.1929 9.48409C12.2637 10.2047 13.2324 10.9117 14.463 11.3775C15.983 11.9529 17.3628 13.0172 18.5243 14.0816C18.8461 14.3765 19.2926 14.4816 18.7353 14.8186C18.5741 14.916 18.383 15.2459 18.2899 15.4081C18.1273 15.6912 17.8081 15.756 17.5514 15.9183C16.1757 16.7885 15.1026 18.0188 13.8242 19.0306C12.0422 20.4409 10.0093 21.5902 8.29192 23.0669C7.62413 23.6411 6.9263 24.1844 6.2056 24.6938C5.571 25.1424 5.01099 25.7921 4.36542 26.2245C3.73325 26.6478 2.68396 27.8571 1.85714 27.8571" stroke="#FAFAFA" stroke-width="3" stroke-linecap="round"/>
</svg>
