<svg fill="none" height="141" viewBox="0 0 95 141" width="95" xmlns="http://www.w3.org/2000/svg"><g stroke="#1a1a1a" stroke-linecap="round" stroke-linejoin="round" stroke-width="3"><path d="m60.3815 49.3223c.7254.5587.8078 1.2749 1.4879 1.8711 1.0221.8925 2.2791 1.5187 3.293 2.4374 2.1102 1.9162 3.5403 4.3461 4.7644 6.791 2.3657 4.721 4.0143 10.0008 5.2507 15.0481.408 1.6611 1.1581 3.2473.9644 4.9385-.103.8737.2803 1.7512.3462 2.6211.1154 1.4625.3174 2.9061.4657 4.3648.2679 2.6699.0413 5.4373.0454 8.1184.0082 3.0449.0865 1.0162-.0825 4.0573"/><path d="m2.00145 126.367c-.08655-.634 3.56917-4.178 2.68306-2.52-.65531 1.23 3.32188-7.706 2.43165-4.2-.71301 2.816.77483-2.014 1.31061-4.86.34208-1.822 1.18698-3.465 1.55791-5.28.39982-1.923.36682-3.851.56872-5.793.3174-3.056.8408-6.0749 1.0881-9.146.3586-4.4961.8119-9.0221 1.426-13.4957.4451-3.2436.8861-6.7647 2.003-9.8733 1.0386-2.8874.1443-2.0437 1.5827-4.781"/><path d="m22.0687 44.294c-1.8299-1.8374-3.5114-3.7799-5.0487-5.8235-1.5992-1.8299-2.9056-3.8249-3.9195-5.9885-1.187-2.9436-1.7351-5.9097-1.6486-9.0484.033-1.1924-.1113-3.6748 1.7392-3.9635.7254.0937 1.4549.1875 2.1803.2812 1.8711.7125 3.3796 1.8112 4.5253 3.2924 2.2297 2.3136 3.6557 4.9647 5.2878 7.6234 1.0139 1.6462 2.1267 3.2398 3.1364 4.886-.7459-.27-1.8505-3.5623-1.7639-3.3523-1.9041-4.5861-3.9937-9.5996-4.3605-14.5344-.2432-3.2661-.1195-6.5772-.0824-9.84706.0206-1.93491.1772-4.24481 2.1019-5.42601 1.7722-1.0912 4.7397.35249 6.4542 1.13245 4.6572 2.11116 6.4129 6.57722 7.7689 10.80702 1.4342 4.4698 2.7284 9.0521 3.6681 13.6269.3833 1.8674.7212 3.7311.8284 5.6322-.0083-2.8011-.4451-5.5835-.5523-8.3771-.1195-2.6136-.0412-5.2197.2349-7.8259.1443-1.9011.6141-3.7273 1.4137-5.4822.5687-1.1625 1.5414-1.8037 2.9221-1.91996 1.7887.02246 3.0663.79876 3.837 2.32866.9727 2.0287 1.6898 4.1323 2.1514 6.311.4451 2.1711.7955 4.3573 1.0427 6.5584.4039 2.2462.7089 4.5036.9191 6.7722.0536 1.6049.066 1.5862.0206 3.1949"/><path d="m37.0006 73.1376-.0659.2475c-.4698-.0525-.3586-2.1412.2514-2.2762 1.2941-.285.9026 2.0062.6636 2.5386-.8861-.1649-1.1128-1.7061-.5729-2.2536"/><path d="m56.2725 70.6553c-1.4136.0262-.6553-1.9875-.2267-2.4937 1.3354.0338 1.1211 1.8674.7955 2.6062-.5976-.45-.5399-1.4887-.5729-2.0999"/><path d="m53.0414 60.3247c1.0057-.3862 1.5044-.615 2.5471-.33"/><path d="m33.8602 67.8691 4.5995.21"/><path d="m46.4058 80.0894c.0618.7612.1855 1.4737 1.0634 1.8374 1.4713.6075 3.2353.2288 4.686-.1612"/><path d="m74.9303 73.224c.0453-.4575 1.459-.5213 1.8382-.5962 1.529-.3 2.9921-.3975 4.5006.0149 3.4331.9375 5.3249 3.7311 5.9101 6.7873.2143 1.1249.2803 2.5311-.2432 3.6035-.7253 1.4812-2.5223 2.7187-4.0266 3.5399-1.9247 1.0499-4.0637.9074-6.1822.9037"/><path d="m10.5288 82.666c.6676-.8624 1.5496-1.4437 2.5388-1.9874 1.9741-1.0799 4.1255-1.1624 6.4253-1.1099 1.7681.0412 3.4373.2437 4.855 1.2937.9026.6674 1.4384 1.5824 1.9536 2.5086.6347 1.1437 1.3353 2.5349 1.2983 3.8511-.033 1.2187-.2597 2.4974-.8243 3.6073-1.4261 2.8086-4.5666 4.4811-7.905 4.6161-2.0895.0825-4.1915-.12-5.976-1.14-1.4467-.825-2.6584-2.2499-3.18591-3.7236-.50282-1.3987-.62646-2.8611-.39154-4.2973.1154-.7162.33384-1.3874.50282-2.0886.03709-.555.20603-1.0762.51103-1.56 2.2833-1.4437 4.7273-2.6174 7.3362-3.5323 0 .2587-.2473-1.5112-.6594-1.7062-.1319-.3375-.2391-1.0874.3503-1.0874.1442.1687 1.5909 2.2236.4162 2.0399l-.1112-.5025"/><path d="m90.2124 123.55c-.7624 1.11-1.3312 1.496-2.5182 2.096-1.2776.645-2.444 1.53-3.6433 2.284-2.4152 1.515-4.9746 2.955-7.8843 3.502-2.9922.563-6.7715.765-9.6772-.258-1.97-.694-4.2079-1.823-5.9596-2.918-1.7516-1.095-3.2394-2.703-4.7437-4.031-1.9577-1.729-3.0499-4.158-3.7382-6.528-.7748-2.678-.4492-5.546.1072-8.265.239-1.166.3956-2.486 1.018-3.532 1.088-1.935 2.5635-3.296 4.278-4.841 1.8918-1.7027 3.6434-3.0002 6.1492-3.9039 5.0488-1.8224 11.1238-2.7786 16.4693-1.5074 2.3039.5475 4.3151 1.7962 6.1492 3.1536 2.5141 1.8597 3.7917 4.5747 5.0158 7.2447 2.5223 5.49 2.4811 12.389-1.0304 17.504z"/><path d="m62.2692 129.719c-.5317 0-.6965.799-.7501 1.159-.136.978.8902 1.882 1.6156 2.459.9891.788 2.1679 1.212 3.396 1.605 1.2488.398 2.4935.87 3.8289.919 1.4754.053 3.0127.079 4.4841-.015 1.4713-.094 2.8314-.712 4.0596-1.294.6718-.318 1.3972-.682 1.9165-1.188.4657-.454.7872-.994 1.0963-1.553.2184-.397.511-.843.5935-1.293.0535-.304-.0042-.63 0-.938"/><path d="m61.0451 129.438c-.0618.209-.3503.168-.5193.254-.441.222-.7707.638-1.1252.964-.5893.536-1.5373 1.095-1.6197 1.931-.033.342.1772.578.3709.852.2556.36.441.753.7378 1.091.5852.675 1.3971 1.173 2.1885 1.627 3.3919 1.939 7.6411 2.284 11.5523 2.498.9727.052 1.933.183 2.9098.123 1.1045-.071 2.1967-.255 3.2889-.408 1.0922-.154 2.341-.593 3.3713-1.032 1.0798-.457 2.9592-.761 3.1529-2.013.0948-.626.1814-1.223.066-1.853-.0825-.435-.3215-.851-.5193-1.248-.1525-.304-.2927-.717-.5482-.964-.3215-.311-.7254-.611-1.2158-.559"/><path d="m61.5891 115.17c-.07-.315.5976-1.005.6801-1.114.5481-.709 1.1127-1.534 1.7639-2.179.9727-.964 2.3781-1.695 3.7176-2.137 1.7392-.574 3.5156-.956 5.3331-1.26.6718-.113 1.3477-.203 2.0319-.203.5852 0 1.088.195 1.6362.364.915.285 1.9082.57 2.7325 1.039.6965.394 1.3889.798 2.0937 1.177.5646.304.816.679 1.1375 1.196.1896.304.3833.645.643.908.1277.127.2885.184.3297.367"/><path d="m61.7994 113.906-.2143-.217c.0824 1.233 1.9906 2.928 2.6954 3.543 1.4796 1.29 3.5774 2.25 5.3373 2.674 2.308.555 4.5913.345 6.891-.101.6924-.135 1.356-.072 1.9989-.417.643-.345 1.4631-.686 2.0937-1.143.6306-.458 1.2447-1.335 1.6074-2.093.2555-.532.4203-1.17.7006-1.683.2184-.405.5523-.732.779-1.14"/><path d="m64.9647 110.415c-.4946.24-1.525-.777-1.8135-.998-.7171-.536-1.4466-1.012-2.2338-1.459"/><path d="m72.0495 108.569c-.1196-1.395-.169-2.741-.169-4.143"/><path d="m80.8198 110.107c.1195-.633 1.1952-1.29 1.6857-1.687"/><path d="m70.1288 111.086c-1.0139.498-1.6568 1.076-1.9412 2.13-.3215 1.192.206 2.182 1.1457 3.026 1.2323 1.102 2.5141 1.537 4.241 1.432 1.0262-.064 2.1102-.469 2.9015-1.057.7913-.589 1.5538-1.44 1.2941-2.415-.3173-1.185-1.1128-2.445-2.242-3.131-.882-.537-1.628-.612-2.6707-.6-1.1252.011-1.8753-.034-2.7325.618z"/><path d="m66.1434 118.702c-.0453.296-.3957.513-.5976.731-.3338.352-.6182.735-.9191 1.11"/><path d="m74.7489 120.697c-.0082.638.0289 1.211.169 1.841"/><path d="m80.6508 117.933c.8161.739 1.5126 1.193 2.5306 1.688"/><path d="m70.5492 111.164c.8366.672 1.7599 1.264 2.5841 1.95.2597.218.5029.45.7501.675.0783.072.1567.169.2515.222.0288-.09.0082-.199.0206-.289.0453-.285.1937-.604.3049-.863.1484-.348.2885-.693.4245-1.046.0289-.071.1938-.352.1031-.397-.2638.18-.441.877-.507 1.068-.0989.285-.1689.844-.4739 1.005.2431-.877.6264-1.717.8325-2.606-.5399.78-.8449 1.665-1.2405 2.505.1236-.551.3173-1.087.4904-1.627.0866-.263.3668-.829.2968-1.125-.5647.622-.882 1.402-1.1705 2.16.1689-.69.4574-1.343.6676-2.018-.272.503-.4822 1.046-.7872 1.53.1196-.547.3174-1.084.3875-1.639-.2597.09-.371.454-.4987.664-.0536.09-.2556.581-.3668.626.0783-.382.1813-.761.2761-1.143-.202.39-.3174.825-.474 1.23-.0453-.398 0-.814.0165-1.212-.1566.345-.305.743-.6017 1.005-.1896-.27-.2308-.656-.4699-.888-.0535.093-.0206.187.1072.273.2143.285.4781.525.7872.717.5317.386 1.1828.645 1.6733 1.068-.474-.412-.9314-.817-1.4796-1.151-.4121-.251-.9644-.589-1.4878-.562.7295.585 1.6279.986 2.3904 1.541-.1896-.146-.3792-.293-.5646-.446"/><path d="m69.1973 112.871-.0247-.056c.4822.532 1.3601.769 1.9906 1.117.3215.177.643.364.915.6.1195.105.2349.27.3957.319-.1237.094-.1525.401-.1979.574-.0824.296-.1236.716-.3709.941-.0371-.585.0206-1.166 0-1.751-.3792.562-.5894 1.207-.7666 1.841.0083-.435.0083-.87.0124-1.305 0-.214.0412-.491-.0124-.705-.136.225-.1607.499-.2143.75-.0701.334-.136.668-.2226.998.0083-.765.1031-1.527.1649-2.288-.1236.105-.2638.683-.3256.851-.1649.462-.3009.927-.4163 1.403.0248-.941.1855-1.879.3009-2.816-.239.851-.4946 1.698-.7171 2.553-.0412-.112.07-.99.0865-1.17.033-.382.1401-.866.0742-1.248-.1772.487-.3586.978-.6182 1.432-.0783-.337-.0618-.679-.0577-1.024 0-.142.0577-.457 0-.603-.0948.243-.1896.483-.2885.727-.1113.161-.169.338-.1649.521.4163-.018.7707-.116 1.1293.15.3009.312.5069.668.6141 1.073-.0124.281.0907.499.3091.649.1896-.409.3462-.829.4699-1.26.0288-.214.1112-.405.2472-.57.0289.701-.0082 1.402.0083 2.103.2473-.067.2473-.716.2926-.937.0536-.278.136-.574.1607-.855-.2266.772-.4492 1.541-.6182 2.325.0495-.33.1031-.66.1608-.986"/><path d="m73.4713 117.168c-.0165-.135.1071-.289.1772-.398.1443-.225.2761-.457.408-.686.0948-.157.169-.341.272-.495.0413-.063.0206-.12.1113-.138.1772-.038.4864.217.6018.303.3668.274.6347.638.9767.93-.3503-.341-.7748-.66-1.1911-.93-.0659.18.0042.379.0371.559.0289.157.0412.36.1237.506-.0866-.311-.2267-.615-.4369-.874-.1401.353-.1525.769-.1772 1.144-.0536-.229-.0948-.457-.1319-.686-.0247-.146-.0206-.33-.1072-.461-.1566.382-.1937.806-.2637 1.211.1195-.038.1854-.124.2019-.263"/><path d="m76.4717 112.53c-.239.675-.5193 1.327-.6883 2.021.2144-.154.3298-.476.4699-.69.1113-.184.239-.36.375-.529.1154-.067.1608-.146.136-.24-.3626.495-.4698 1.129-.6511 1.695.3173-.345.5151-.78.8325-1.129.1195.098.1731.6.1319.758-.1731-.06-.6677-.544-.7955-.326-.0865.142.2803.547.3133.588.1937.233.3915.469.647.649-.0371-.367-.9355-.671-1.2364-.81.0412.135.4369.405.4822.446.2061.18.4122.447.6677.563-.2473-.375-.5605-.713-.8202-1.08.1525-.105.8449.461.9644.54"/><path d="m88.6465 97.6958c-.305-.5287-1.5909-.5025-2.0608-.5025-1.6114 0-4.6819.66-5.16 2.3737-.6347 2.28 3.565 2.764 5.0652 2.711 1.7393-.056 4.2039-.562 4.7315-2.3285.9067-3.0524-6.2605-.7125-7.4434-.0113-.5234.3078-.9685.6828-1.3394 1.1328.0165.547.408.776 1.1746.682 2.5429.469 5.1312-.484 6.8581-2.1335-.1319-.8362-.713-1.335-1.7475-1.5-.9397-.3749-1.867-.4162-2.7902-.12-1.3725.2813-2.9922.7763-3.6393 2.0025 1.0634 1.369 2.8974 1.451 4.5748 1.147 2.238-.401 4.1792-1.4733 5.1436-3.3857-.4493-.7237-1.1581-1.0349-2.1308-.93-.915.045-1.7599.285-2.5264.7125-1.253.5775-2.2668 1.29-3.1942 2.2424 1.5002.6038 3.8247-.1537 5.1725-.4275"/><path d="m9.32935 99.5518c3.75875 3.0222 13.08145 13.7432 17.35945 16.3082 1.4673.881 3.495 2.46 5.395 2.152 1.9412-.319 3.8742-.66 5.8154-.964 2.6212-.408 5.2465-1.091 7.8925-1.331.8078-.075 1.7063-.067 2.4935-.247.2431-.056.441-.274.7047-.21-.8242.071-1.9494-.049-2.514-.611.849-1.437 3.5073-.81 4.8839-.63 1.1416.06 2.2338.292 3.2724.701.5234.21.6924.54.5028.99-1.4507.544-3.0663.562-4.6284.592-1.2735.124-2.4976-.033-3.6639-.468-.408-.229-.5028-.503-.2762-.825.1937-1.433 3.2931-1.44 4.4059-1.384 2.0442.101 3.9936.727 4.9993 2.422l-.4493.462-2.3657.303c-1.0592.135-2.4687.019-3.3672.383-.3009.123-.5646.24-.9438.288-.8037.102-1.6197.072-2.4275.098-1.3848.041-2.815.135-3.5321-1.211-1.0757-2.018 3.7299-2.404 4.6902-2.468 2.2544-.153 4.6943.225 6.5366 1.459-.1978.746-.7666.986-1.5249 1.275-1.2571.48-2.6419.532-3.9855.476-.6883-.03-1.3806-.075-2.0689-.142-.5235-.049-.6059-.083-.6265-.66-.0453-1.226 1.3518-1.913 2.4275-2.306"/><path d="m15.5816 67.1793c.272-.4162.5152-.4987 1.0757-.7612 2.6748-1.2449 5.7783-2.0474 8.6468-2.8048 1.9247-.48 3.87-.8775 5.8359-1.1887 2.4152-.375 4.7933-.9113 7.1301-1.6125 4.0596-1.1062 8.2017-2.2386 12.08-3.7873 1.1416-.4012 2.2297-.9075 3.26-1.5149 1.6321-.7875 3.1859-1.6875 4.6696-2.6924 1.187-1.08 1.5826-1.9462 2.0772-3.3224.3668-1.0162-.7583-2.0249-.4575-3.0598.1484-.5588.2968-1.1212.441-1.68.3297-.8812.2514-1.7061-.2431-2.4711l-.7089-.0113"/><path d="m72.8613 63.6207c.1979-.4012.3421-.8962.6141-1.2637.3462-.465.8243-.7575 1.084-1.2974.6306-1.3237.375-3.2587.1648-4.5973-.0824-.5363-.0989-1.1287-.3709-1.6237-.1236-.2213-.3586-.3713-.4616-.5887-.305-.6488-.1525-1.7437-.2267-2.4487-.0824-.795-.1937-1.5862-.3833-2.3661-.6264-2.6174-1.665-5.0398-3.5609-7.1097-1.1622-1.2712-2.3904-2.5687-4.0349-3.3149-1.6197-.7349-3.3177-1.2674-4.991-1.8749-2.1844-.7875-4.274-1.5937-6.5943-1.9799-2.5347-.42-5.1436-.4237-7.6783-.8362-2.2297-.3637-4.1049-.1388-6.3181.2737-2.4976.465-5.1601.27-7.4804 1.4137-1.8465.9112-3.4579 2.3849-4.6614 3.9298-1.2035 1.545-3.1323 2.8462-4.6325 4.2599-.9232.8699-1.4178 1.8186-2.1514 2.7973-1.0963 1.455-2.7325 2.7712-4.006 4.0911-1.1046 1.1474-2.341 2.2424-3.3631 3.4461-.9315 1.0949-1.698 2.2949-2.6583 3.3748-.3504.3938-.8243.93-1.2983 1.2375-.3091.1987-.58936.2025-.83665.5025-.54815.6637-.4039 2.1149-.35444 2.9098.18546 3.0562 1.69389 6.0748 3.35899 8.6921.6058.9525 1.018 1.9687 2.172 2.4262"/><path d="m15.3507 53.7813 1.4425-1.0425c1.3024-.6262 2.6542-1.1437 4.0514-1.5562 4.4099-1.4549 8.9476-2.6398 13.3122-4.196 2.8768-1.0237 5.667-2.0512 8.2429-3.6224 1.2735-1.0237 2.6171-1.9611 4.0266-2.8198 1.5126-1.08 3.19-1.9012 5.0364-2.4599"/></g></svg>