<svg fill="none" height="145" viewBox="0 0 126 145" width="126" xmlns="http://www.w3.org/2000/svg" xmlns:xlink="http://www.w3.org/1999/xlink"><clipPath id="a"><path d="m-1171-1517h1440v11481h-1440z"/></clipPath><path d="m0 0h126v145h-126z" fill="#474747"/><g clip-path="url(#a)"><path d="m0 0h1440v11481h-1440z" fill="#1a1a1a" transform="translate(-1171 -1517)"/><rect fill="#fefefe" height="1184" rx="50" transform="matrix(-1 0 0 1 269 -744)" width="1440"/><path d="m-1170 93 1439-.0001" stroke="#1a1a1a"/><circle cx="70.5" cy="93.5" fill="#ffecd0" r="70.5"/><g stroke="#1a1a1a" stroke-linecap="round" stroke-width="3"><path d="m124.332 137.814c-4.885-9.332-8.702-19.221-11.37-29.409-2.475-9.4548-2.34-19.6424-5.282-28.7907-.278-.8673-.536-1.6038-1.072-2.3403-.233-.3232-.446-.6341-.626-.9942-1.08-2.1643-1.092-4.6314-2.352-6.7057-2.291-3.7845-5.2086-7.7368-8.8213-10.3635-2.2339-1.6242-4.656-1.9843-7.3358-2.3934-2.3239-.356-4.6724-.5565-7.0045-.8592-1.8615-.2414-3.7886-.671-5.6747-.6464-4.0791.0491-9.2915 3.6309-12.8669 5.8281-4.1856 2.5722-5.6952 5.2107-8.8415 9.0238-1.7044 2.0713-3.1097 6.5141-4.3745 8.9647-.6137 1.166-.5564 2.5653-.9533 3.8131-1.346 4.2305-1.1084 6.8646-1.2761 11.2956-.8075 21.3271 4.9338 34.7861 6.0145 38.1261" stroke-linejoin="round"/><path d="m65.2881 58.2994c-.4856-.936-1.022-1.7984-1.6259-2.669-1.5795-2.2848-2.2975-4.7494-2.931-7.402-.963-4.0096-1.4866-7.8189-1.5626-11.9348-.0634-3.4455-.4857-6.9319-.3632-10.3734.0675-1.9169.3547-4.263.9882-6.1022.5448-1.5777 1.6387-2.8979 2.8085-4.0914 1.0558-1.079 2.7114-1.3569 3.8052-.188 1.7316 1.8475 2.4918 4.1445 3.3111 6.462.5406 1.5286 1.3262 2.9755 1.6682 4.5654.4266 1.9864.5448 4.03.68 6.0491.114 1.6635 0 3.3475.1267 5.0069.1055 1.3243.4561 2.5995.8278 3.8706.1605.5518.4434 1.2139.4856 1.7943.0253.3188-.2449.6744.1056.8297.2196-.237.2619-.5231.1267-.8542-.1478-.8134-.2238-1.6308-.2281-2.4564-.1055-2.199-.7728-4.3407-.7264-6.5478.0507-2.3665.7687-4.7044 1.0306-7.0546.2449-2.1867.1984-4.4183.6672-6.5804.4604-2.1336 1.1572-4.2058 1.6218-6.3435.4181-1.921 1.098-3.6499 2.2214-5.29293.5997-.82153 1.2248-1.62263 1.8794-2.4033.625-.87875 1.2966-1.72073 2.0187-2.53.9207-.84606 2.8677-1.94144 4.1685-2.04362 3.007-.23298 4.8864 3.72347 5.3805 5.95919.2196.86241.3843 1.73709.4941 2.62406-.0887 1.1403-.2956 2.2561-.625 3.3556-.5448 2.5913-.2534 5.0518-.473 7.6513-.4266 5.0396-1.4275 9.8993-2.4538 14.853-.435 2.0927-.9925 4.2017-1.3219 6.3107-.1267.8093-.3167 1.966-.0633 2.7549.8784-1.8679 1.4528-3.8911 2.137-5.8325.9037-2.5587 1.892-5.0519 2.4959-7.7004.3759-1.6431 1.0854-3.0246 1.9554-4.4674.9418-1.5613 1.7696-2.9101 3.3322-3.9687 1.3473-.9114 3.6198-2.1826 5.3338-1.549.9.3351 1.453 1.4714 1.859 2.252.785 1.5123.844 3.372 1.026 5.0273.181 1.6595.017 3.2494-.262 4.8925-.384 2.2398-.79 4.5409-1.423 6.7276-1.103 3.8134-2.619 7.496-3.7844 11.2889-1.1656 3.793-2.9225 7.1159-4.4302 10.6718" stroke-linejoin="round"/><path d="m88.454 74.4583c-.4177-.5956-.7774-1.0927-1.4358-1.3904-.7674-.3526-1.7805-.6633-2.6104-.6862-.9411-.0279-1.7793.6368-2.6949.5711" stroke-linejoin="round"/><path d="m68.3049 72.4854c-.1291-.514-.6961-.7337-1.0794-1.0019-.6904-.4864-1.4333-.9166-2.2835-.9884-.7358-.0617-2.7773.2044-2.6858 1.4399" stroke-linejoin="round"/><path d="m85.7275 88.1748c-.5232 1.3896-1.8299 2.4662-3.3245 2.7408s-3.1212-.2701-4.1394-1.3748c-1.7259-.283-.6823-.4251-.4072-2.1082" stroke-linejoin="round"/><path d="m65.5312 86.575c-.8157 1.4578-2.5524 2.318-4.1789 2.0784-1.6266-.2396-3.0403-1.5703-3.4026-3.2025" stroke-linejoin="round"/><path d="m66.7994 94.8892-1.2391-.0754c.5582 1.2314 1.1118 2.4662 1.6701 3.6976-1.1118-.4055-2.3781.6113-2.4354 1.7406-.0574 1.129.8029 2.17 1.8496 2.718 1.0468.548 2.2589.701 3.4374.851" stroke-linejoin="round"/><path d="m99.8678 111.242c-.8101.949-6.2107 5.048-6.8121 6.141-1.5179 2.757-3.1258 5.45-4.8238 8.101-2.107 3.289-3.8295 6.8-6.1084 9.966-.0695.099-.3887.675-.5932.79-.4419.254-1.8657 0-2.3648.02-3.7191.14-7.1272.974-10.7808 1.592-4.9465.839-9.9298 1.232-14.9417 1.457-4.4555.2-8.9233 1.133-13.3461.339-.9001-.159-1.8002-.356-2.7289-.515-.4664-.078-1.7593-.18-1.923-.753 1.1293-.606 2.1971-.945 3.4941-.88 1.0228.053 3.3999.557 3.5022 2.005.135 1.825-4.2551 1.579-5.1429 1.432-1.2192-.201-3.449-.683-3.7681-2.169-.7406-3.457 8.5591-4.255 8.5632-1.153 0 2.27-4.1118 2.455-5.4497 2.414-2.1316-.066-4.746-.516-5.957-2.435 3.5431-2.414 8.7269-3.031 12.3027-.36-.0818.814-.5605 1.244-1.4319 1.297-1.5589.794-3.2445 1.072-5.0611.847-.986-.098-4.8565-.323-4.6192-1.894 1.072-.863 2.324-1.248 3.7478-1.154 1.3951-.11 2.1397.426 2.2379 1.608" stroke-linejoin="round"/><path d="m52.8889 132.854c.1718 1.089.5687 2.169.8714 3.22.5114 1.768 1.7879 5.041 2.7412 6.612" stroke-linejoin="round"/><path d="m2.33616 81.6558c.71701 2.7125-.10542 5.7084.55871 8.4676.29578 1.2289.08357 2.4342.40652 3.6559.2254.8528.45081 1.7055.67621 2.5583.71177 2.6927 4.69469 5.4394 7.4272 5.3304.9427-.038 1.445.162 2.4893-.114 1.1323-.299 2.0223-.221 3.0823-.752 1.6824-.8439 1.7444-2.2128 2.7671-3.5932.9029-1.2187-.0568-3.192-.0027-4.5402.0522-1.3026-.4766-3.0972-.806-4.3435-.7724-2.9223-3.256-4.9054-4.0099-7.7575-.2331-.8818-.8567-1.1231-1.0766-1.9548-.2255-.8532-.5712.151-1.1774.3112-1.4851.3926-2.5029 1.1361-3.91707 1.5952-1.42455.4625-2.87986.7613-4.31705 1.1412-2.31756.6125-1.90724-.3138-1.1354-.8727.98463-.7129 4.78829-1.6294 5.67456-1.8637 1.38956-.3673 3.15316-.3112 4.61726-.3112"/><path d="m7.12719 91.6512c-.90478.0638-3.35181.4446-3.58556-.8323-.12472-1.7688 5.95598-1.5052 7.34767-1.6033 1.014-.0715 7.2721-.6444 7.4999.5564.4227 2.228-5.6107 2.0234-7.0546 2.1252-1.50669.1062-2.8017-.3451-4.20741-.246z"/><path d="m13.24 101.727c-.7272.293.8461 1.532 1.0312 1.843.4254.715.8223 1.993 1.0331 2.79.4327 1.637 1.5512 4.018 1.2834 5.679-.2068 1.283 1.0189 1.69-.7514 2.158-.6447.171-1.9111.597-2.5288.964-.8546.509-1.3182.896-1.0079 2.071.2923 1.105 3.8634.378 4.5974.184.9666-.256 3.3779-1.033 4.3479-1.289 1.0587-.28 2.4646-1.002 2.7052-1.415.1924-.331.0368-.92-.6729-1.222s-2.2792-.027-2.593-.014c-1.395.055-1.4548.32-1.8194-1.059-.2421-.916-.6631-1.714-.9051-2.63-.3051-1.154-.8202-1.779-1.1051-2.857-.4683-1.772-1.6941-4.173-.1614-5.906"/><path d="m21.2367 105.075c-1.6868.174-3.3871.652-4.9644 1.267-.6475.252-6.61104 2.586-5.4491 3.413.4432.316 1.2446.296 1.7517.284 1.6213-.039 3.2382-.418 4.7914-.858 1.2361-.351 2.4783-.738 3.6627-1.24.6547-.277 1.662-.644 1.9525-1.371.9288-2.322-5.8711-.769-6.6746-.498-1.092.368-3.731 1.225-3.9051 2.617-.2001 1.601 2.978.436 3.6558.249 2.0602-.567 4.6049-1.234 6.1346-2.859 1.1342-1.205-1.8217-.848-2.2295-.755-2.1082.479-4.1596 1.021-6.1276 1.932-.4921.227-1.3138.516-1.5163 1.087-.2908.819.6765.706 1.177.664 1.6961-.139 3.3757-.476 5.0267-.879 1.3496-.329 2.8643-.667 4.0436-1.44.2331-.153 1.1051-.783.8308-1.184-.3721-.544-2.0313-.213-2.5064-.152-2.5923.332-5.337 1.069-7.7478 2.084-1.2221.514-.5737 1.188.4224 1.322.9797.133 2.0428-.14 2.998-.325 1.4157-.275 2.8672-.585 4.2097-1.122.5347-.214 1.5164-.531 1.6825-1.184.1214-.477-.3907-.733-.7755-.775-2.3202-.255-5.13.798-7.1731 1.758-.2855.134-3.4677 1.823-2.1602 2.202.6084.177 1.2348-.016 1.814-.201 1.144-.365 2.3214-.687 3.4412-1.121.5503-.214 1.3613-.554 1.5855-1.17.1262-.347-.1629-.674-.4985-.721-.6972-.096-1.5441.219-2.2156.354-1.3057.261-2.5294.626-3.7666 1.114-.402.159-3.30263 1.554-1.3848 1.717 2.3251.198 4.9336-.99 7.0554-1.786.6218-.233 1.8348-.487 2.278-1.052.302-.386-.8282-.336-.9278-.319-.7735.132-1.5423.362-2.278.63-.4193.153-1.1578.286-1.4886.616-.1959.196.5562.05.8309.014 1.2908-.167 2.5381-.519 3.8081-.789.9242-.196 1.8408-.361 2.7418-.651.0261-.008-.2452-.052-.36-.098-.2257-.09.3975-.033.4985-.027"/><path d="m23.4172 105.741c.4027.921.7726 1.824 1.1014 2.768.9714 2.788 1.7719 5.624 2.8072 8.395.7333 1.963.9247 4.198 2.1055 6.021.8869 1.37.7469 3.196 1.7155 4.516.6549.892 1.0844 2.53 1.2281 3.579.0519.378 2.6248-.965 2.8852-1.121.6876-.412 1.222-.999 1.852-1.472.9461-.71 2.0336-1.235 2.9925-1.931 1.8582-1.349 6.0799-3.57 8.1671-4.644"/></g></g></svg>