<svg width="34" height="37" viewBox="0 0 34 37" fill="none" xmlns="http://www.w3.org/2000/svg">
<path d="M26.5953 26.041C26.7989 24.4528 26.5181 24.4397 26.5567 22.8418C26.5743 22.0623 26.6515 21.2926 26.655 20.5131C26.6585 19.6979 26.8726 18.9379 26.9533 18.1291C26.9989 17.6679 27.027 17.2035 27.0867 16.7455C27.1393 16.3331 27.1148 15.9336 27.1569 15.5243C27.1674 15.4269 27.2341 15.3295 27.2411 15.2418C27.2586 15.0729 27.2446 15.1573 27.1744 15.0502C27.0972 14.93 26.8761 14.8261 26.7568 14.7416C26.3356 14.4396 25.939 14.2122 25.4021 14.131C25.0476 14.0758 24.7036 14.066 24.3457 14.0563C23.7666 14.0401 23.2261 13.9653 22.654 13.8777C21.9766 13.7737 21.3028 13.6536 20.6219 13.5561C19.7656 13.4359 18.9057 13.3711 18.0564 13.2184C16.4946 12.9358 14.8942 12.6727 13.3079 12.5233C12.7463 12.4714 12.1953 12.5006 11.6338 12.4844C11.1951 12.4714 10.788 12.3512 10.3563 12.309C9.97373 12.2733 9.57012 12.2862 9.21214 12.4226C8.95593 12.5168 8.73483 12.7052 8.51724 12.8579C7.75916 13.397 7.05723 13.9459 6.62554 15.0729C6.22194 16.6351 6.04646 18.2266 5.70602 19.7986C5.37963 21.3153 5.03216 22.8125 5.03216 24.3618C5.03216 24.5859 5.08482 24.849 5.02867 25.0634C4.969 25.2907 4.83914 25.5245 4.75842 25.7519C4.6075 26.1806 4.61453 26.6093 4.63208 27.0608C4.64261 27.4018 4.82511 27.6616 4.83213 27.9832C4.83564 28.1553 4.84966 28.2397 4.99356 28.3436C5.03567 28.3761 5.17607 28.4119 5.22872 28.4378C5.39718 28.5288 5.54809 28.6393 5.73059 28.7205C6.16579 28.9218 6.62203 29.1362 7.10285 29.2109C7.6328 29.2953 8.13818 29.3765 8.65761 29.5064C9.26828 29.6591 9.83685 29.7045 10.4581 29.7565C11.2547 29.8247 12.0725 29.7662 12.8481 29.9611C13.5886 30.1462 14.3608 30.2892 15.1118 30.4321C15.8524 30.575 16.6174 30.7081 17.3685 30.7763C18.0845 30.8413 17.4141 30.8965 18.1266 31.0037" stroke="#6736D0" stroke-width="2" stroke-miterlimit="10" stroke-linecap="round" stroke-linejoin="round"/>
<path d="M15.6939 24.2903C15.2622 24.3942 15.1218 24.4267 14.7322 24.2286C14.3111 24.0175 13.8548 23.8421 13.4653 23.5823C12.6966 23.0659 12.3983 22.3318 12.3211 21.4809C12.272 20.9418 12.2404 20.3799 12.4545 19.8635C12.7282 19.2042 13.2968 18.6747 13.925 18.2947C14.3532 18.0349 14.7638 17.7978 15.2832 17.7491C15.9395 17.6874 16.652 17.6972 17.2908 17.8433C18.3928 18.0966 19.2 18.7137 19.8598 19.5549C20.5547 20.4416 20.9513 21.5556 20.7758 22.6566C20.7021 23.134 20.4073 23.4133 20.0388 23.7121C19.3088 24.3065 18.4524 24.6443 17.5575 24.9691C16.7924 25.2484 16.0132 25.5147 15.185 25.5829C14.462 25.6414 14.0865 25.4498 13.8022 24.8456" stroke="#6736D0" stroke-width="2" stroke-miterlimit="10" stroke-linecap="round" stroke-linejoin="round"/>
<path d="M22.3755 17.9245C22.0982 17.4795 22.014 16.8949 22.7405 16.8072C23.0458 16.7714 23.4214 16.8234 23.5933 17.0865C24.018 17.7263 22.8704 17.8465 22.4738 17.9245" stroke="#6736D0" stroke-width="2" stroke-miterlimit="10" stroke-linecap="round" stroke-linejoin="round"/>
<path d="M19.2417 32.8094C18.7398 32.5236 18.452 32.1176 18.3748 31.5947C18.3853 31.3966 18.3959 31.2018 18.4099 31.0037C18.4205 30.2242 18.6766 29.698 19.2066 29.0744C19.7752 28.4053 20.5368 27.9182 21.1299 27.2621C21.702 26.6288 22.0319 25.9727 22.3091 25.19C22.4074 25.4303 22.9479 26.2748 22.9584 26.5314C22.9479 26.6256 22.99 26.6808 23.0812 26.697C23.162 27.1777 23.0005 27.5479 22.8285 28.0026C22.7864 28.1163 22.5443 28.6815 22.5969 28.7984C22.8952 29.4479 24.1797 28.3664 24.2254 28.3339C25.6433 27.327 26.7979 26.3299 27.363 24.7547C27.6859 23.8551 27.9737 22.9522 28.4299 22.098C28.9037 21.2081 29.4126 20.6689 30.3216 20.159C31.013 19.7725 31.8132 19.3308 32.1571 18.613C32.3361 18.7657 32.108 20.0097 32.1817 20.198C32.5081 21.062 32.6555 21.9616 32.8029 22.8645C32.9327 23.657 33.0451 24.4365 32.9819 25.2387C32.8941 26.3398 32.301 27.3433 31.5921 28.2007C31.1043 28.7919 30.648 29.396 30.2163 30.0228C29.8337 30.5815 29.36 31.1628 29.374 31.8546C29.3775 32.0624 29.4161 32.3743 29.5741 32.5367C29.9847 32.9589 30.6725 32.4003 31.027 32.2086C31.0305 32.7185 31.9887 32.8711 31.8799 33.3746C31.7535 33.9657 31.5289 34.1995 31.0305 34.612C30.2233 35.2811 29.0862 35.8917 27.9772 35.9664C27.4121 35.9793 26.8576 35.9241 26.3066 35.8007C25.71 35.7195 25.1063 35.6514 24.5061 35.6059C23.9727 35.5409 23.4743 35.3395 22.9338 35.333C22.46 35.3298 21.9968 35.5149 21.5335 35.5117C21.0948 35.5084 20.5227 35.3818 20.1331 35.1869C19.6944 34.8816 19.4067 34.4756 19.2768 33.9624C19.0803 33.3681 19.5014 33.3811 19.2417 32.8094Z" stroke="#6736D0" stroke-width="2" stroke-miterlimit="10" stroke-linecap="round" stroke-linejoin="round"/>
<path d="M4.55252 24.5925C3.9278 24.7061 3.10305 23.8975 2.7205 23.5337C2.01156 22.8647 1.49563 21.7506 1.47808 20.8185C1.46755 20.2501 1.45 19.6525 1.47808 19.0873C1.50265 18.5579 1.63602 18.0578 1.61496 17.5252C1.58337 16.7652 1.3412 16.0539 1.14817 15.3231C0.990239 14.719 0.993758 14.1604 1.00429 13.5368C1.39737 14.1279 2.24319 15.3166 2.93458 15.6479C3.4505 15.898 4.09977 15.7843 4.28578 15.2808C4.61218 14.4072 4.30685 13.4491 4.45074 12.5494C4.51041 12.1727 4.53498 11.8609 4.42969 11.4841C4.15594 10.5033 3.75583 9.56459 4.1805 8.60322C4.41564 8.06408 4.48232 7.5055 4.6578 6.95336C5.07194 5.66396 5.88617 4.50772 6.78463 3.46516C7.4269 2.7214 7.93579 2.35438 8.76056 1.83147C9.11854 1.60412 9.7187 1.06171 10.1785 1C10.2767 1.32154 10.1609 1.59437 10.0591 1.90292C9.69412 3.02992 9.47302 4.19589 9.44845 5.37486C9.43792 5.88803 9.38528 6.50511 9.60639 6.98904C10.0521 7.97315 10.3785 9.20412 11.4911 9.70754C12.4492 10.1428 13.6881 10.3539 14.741 10.2824C15.2253 10.2499 15.9553 10.1525 16.3203 9.83743C16.8503 9.37623 16.8819 8.37267 16.9556 7.75557C17.0679 6.83968 16.8889 6.05045 16.6572 5.16704C16.8292 5.57302 17.7979 6.15757 18.1243 6.40441C18.3524 6.57655 18.5559 6.76499 18.7595 6.95986C19.4439 7.60944 20.1809 8.18102 20.5985 9.02546C21.297 10.4383 21.0022 11.718 20.0475 12.9359" stroke="#6736D0" stroke-width="2" stroke-miterlimit="10" stroke-linecap="round" stroke-linejoin="round"/>
</svg>
