<svg width="129" height="138" viewBox="0 0 129 138" fill="none" xmlns="http://www.w3.org/2000/svg">
<path d="M42.6694 126.674C42.4524 126.316 41.6074 126.064 41.2446 125.792C40.6248 125.328 40.2482 124.763 39.7334 124.19C37.8091 122.046 36.5722 119.167 35.4028 116.555C34.8511 115.324 34.2723 114.1 33.7464 112.857C33.3822 111.996 33.3756 111.043 33.0051 110.183C32.6941 109.462 32.3493 108.754 32.0415 108.031C31.1928 106.038 30.3939 104.013 29.5039 102.025" stroke="#1A1A1A" stroke-width="3" stroke-linecap="round"/>
<path d="M29.2772 101.519C26.5411 95.4092 23.939 89.2594 21.2035 83.1509C20.7756 82.1953 20.1124 81.3931 19.6845 80.4374C19.3952 79.7915 19.0278 79.2924 18.5594 78.7546C17.3913 77.4133 19.324 75.7829 20.077 74.791C20.9848 73.5951 22.2285 72.5126 23.3873 71.5695C24.5015 70.6627 25.5548 69.6602 26.6204 68.7033C27.698 67.7358 28.8595 66.3066 30.1228 65.59C30.5545 65.3451 31.243 65.2672 31.434 64.7664C31.7822 63.8534 32.0478 62.9524 32.814 62.2489C33.5601 61.5638 34.645 61.4339 35.4504 60.8404C36.6294 59.9715 37.8966 59.213 39.2392 58.6118" stroke="#1A1A1A" stroke-width="3" stroke-linecap="round"/>
<path d="M39.2391 58.6119C37.6592 59.3194 36.0794 60.0269 34.4995 60.7344C32.7528 61.5166 30.7829 61.3127 28.8823 61.2744C26.9455 61.2354 25.0619 61.3136 23.2303 60.5298C21.123 59.6281 18.714 59.3794 16.9874 57.7874" stroke="#1A1A1A" stroke-width="3" stroke-linecap="round"/>
<path d="M16.8043 57.7175C16.3764 56.7621 15.8406 55.9468 15.3072 55.0532C14.6703 53.9861 14.1261 52.8432 13.4065 51.8267C12.4625 50.4934 11.1946 48.4689 11.3254 46.7647C11.5368 44.0084 12.6882 41.5782 13.2873 38.9296C13.5076 37.956 13.5516 37.3213 13.3715 36.3086C13.2379 35.5578 12.8693 34.3766 13.0033 33.62C13.1755 32.6466 14.7044 31.4891 15.4263 30.9056C16.5636 29.9862 18.1174 29.3563 19.5369 29.0563C22.4832 28.4337 25.9564 27.9227 28.7813 29.1883C31.4439 30.3813 33.9619 32.211 36.3408 33.8908C40.1781 36.6003 43.7471 39.4834 46.4064 43.3975C47.3132 44.7322 48.3161 45.9479 49.1564 47.3327C49.6652 48.1712 50.0796 49.2911 50.8464 49.919" stroke="#1A1A1A" stroke-width="3" stroke-linecap="round"/>
<path d="M51.0862 50.1154C52.2249 49.6055 54.0038 48.3057 55.2816 48.625C55.9832 48.8004 56.6522 49.4561 57.3931 48.9289C58.3032 48.2813 58.9928 47.4865 60.0336 47.0204C61.1113 46.5378 61.4871 46.5252 62.5822 46.9428" stroke="#1A1A1A" stroke-width="3" stroke-linecap="round"/>
<path d="M62.4557 46.9994C62.0067 47.2005 58.6099 49.0122 58.3808 48.7398C58.0834 48.3862 58.0041 47.7023 57.4653 47.5626C57.2848 47.5158 57.1643 47.0919 57.1263 46.9377C56.8053 45.6326 57.0396 43.9251 57.032 42.5984C57.0152 39.6764 57.2675 36.7593 57.2366 33.8366C57.2086 31.1885 57.0896 28.5381 57.4059 25.901C57.8882 21.8804 59.5291 17.9293 62.4951 15.0952C63.2943 14.3316 63.9458 14.4505 64.9935 14.4154C68.8387 14.2865 73.0908 12.0771 76.8241 13.6679C78.3616 14.323 80.2457 15.9401 80.7187 17.6139C81.2546 19.5103 80.9352 22.9262 79.3056 24.2239C78.0157 25.251 76.507 25.9608 75.2533 27.0516C73.7085 28.3957 72.4748 30.0803 71.2138 31.6803C69.5396 33.8046 67.4868 35.8567 66.1079 38.188C65.4301 39.3338 64.313 40.3094 63.8063 41.5318C63.5513 42.1472 63.1498 42.7022 62.7408 43.2247C62.2408 43.8634 61.9584 44.6123 61.5356 45.284" stroke="#1A1A1A" stroke-width="3" stroke-linecap="round"/>
<path d="M62.2936 14.4004C65.0624 13.1605 67.7723 11.6317 70.7797 11.1236C72.0533 10.9085 72.9802 10.7159 74.2974 10.9667C75.3951 11.1756 76.4587 11.5261 77.5385 11.7947C82.4566 13.0177 85.4016 17.9142 85.6819 22.7024C85.736 23.6256 85.8692 24.6882 85.532 25.5724C85.0557 26.8211 84.5594 28.0942 84.0201 29.3224C83.7553 29.9256 83.1481 31.1801 83.3459 31.87C83.4711 32.3068 83.4409 32.5972 83.3241 33.0279C82.8278 34.8588 81.9108 36.5433 81.2024 38.3005C80.4673 40.124 79.0476 41.7241 78.006 43.379" stroke="#1A1A1A" stroke-width="3" stroke-linecap="round"/>
<path d="M51.0031 50.6084C51.2383 51.1335 51.4734 51.6586 51.7085 52.1836C52.2903 53.4827 52.2619 54.6862 52.1968 56.1017C52.1575 56.9563 51.7996 57.8164 52.1522 58.6037C52.5991 59.6016 53.9538 58.5465 54.714 58.2163C56.9343 57.2518 59.331 56.9086 61.5513 55.9143C62.4452 55.514 63.7337 55.2881 64.0675 54.3316C64.2645 53.7672 63.9122 52.8828 63.8084 52.3202C63.6045 51.2151 63.117 49.9101 62.6862 48.8717C62.5162 48.4618 62.2217 47.2872 61.6962 47.3395" stroke="#1A1A1A" stroke-width="3" stroke-linecap="round"/>
<path d="M52.0521 58.0407C48.238 59.7487 46.2946 64.0665 45.3418 67.9599C44.4324 71.6762 44.4312 75.6353 45.9999 79.1383C46.3288 79.8728 45.3779 79.2849 44.9564 79.1835C43.6168 78.8613 42.3254 78.7833 40.9609 78.5751C39.2211 78.3096 37.5736 77.8255 35.9392 77.2022C35.2685 76.9464 34.525 76.9286 34.2051 76.2143C33.9918 75.738 33.9644 75.4569 33.9637 74.921C33.9615 73.3624 34.1272 71.7964 34.2768 70.2473C34.481 68.1323 34.6013 65.9327 35.2 63.882C35.7098 62.1358 37.0845 60.851 38.4499 59.7336C39.7485 58.6708 41.1134 57.5089 42.6419 56.7842C43.8242 56.2236 45.0733 55.9435 46.3241 55.5995C47.1082 55.3839 47.8683 55.0962 48.6463 54.8467C49.0387 54.7208 49.2986 54.4233 49.6488 54.7101" stroke="#1A1A1A" stroke-width="3" stroke-linecap="round"/>
<path d="M49.6488 54.71C48.8586 52.9454 46.0846 52.3429 44.4305 51.8802C42.5793 51.3623 40.8023 50.6493 38.9602 50.1087C37.2193 49.5978 35.4504 49.3449 33.6671 49.0346C31.4788 48.6537 29.1596 48.1376 26.9333 48.0991C25.0886 48.0672 23.3518 48.0048 21.5949 48.7337C19.3559 49.6626 19.0506 52.2964 18.689 54.4419C18.4656 55.7674 19.5136 57.9192 20.6791 58.5654" stroke="#1A1A1A" stroke-width="3" stroke-linecap="round"/>
<path d="M61.4315 43.3552C61.6941 43.1959 61.0666 42.2183 60.9787 42.0046C60.5198 40.8892 60.8108 39.5389 60.8714 38.3718C61.0354 35.2126 61.8852 32.1011 63.6314 29.4533C65.7524 26.2374 68.2919 19.7773 73.2925 20.298C73.845 20.3555 74.8326 21.548 74.7847 22.1033C74.7629 22.3565 74.9634 22.5397 74.9416 22.7929C74.9086 23.1749 74.9444 23.5565 74.9237 23.9406C74.888 24.6016 74.5786 25.4902 74.6661 26.099C74.7179 26.4591 74.7516 27.3443 74.2853 27.2657" stroke="#1A1A1A" stroke-width="3" stroke-linecap="round"/>
<path d="M62.2763 48.2956C63.9453 47.5482 65.6142 46.8008 67.2832 46.0535C68.9725 45.297 70.6946 44.2751 72.544 44.0015C73.5936 43.8462 74.736 43.8851 75.7607 43.6248C76.6099 43.409 77.1955 43.2934 78.0627 43.5056C78.8138 43.6894 79.4496 43.6477 80.1359 44.0631C80.2708 44.1447 81.262 44.606 80.925 44.8072C80.4943 45.0643 80.3263 45.7744 80.1857 46.2104C79.8184 47.3502 79.5033 48.6753 79.6226 49.8733C79.6918 50.5682 79.8985 51.3377 80.1848 51.977C80.2782 52.1856 80.6576 52.8127 80.1202 52.6812C79.7987 52.6025 79.5324 52.3985 79.2265 52.2879C78.6423 52.0767 77.9929 52.2198 77.399 52.2789C75.3111 52.4869 73.1602 52.3661 71.0899 52.7066C69.7985 52.919 68.483 53.29 67.2052 53.3825C66.6037 53.4261 65.2438 53.932 64.7836 53.5552" stroke="#1A1A1A" stroke-width="3" stroke-linecap="round"/>
<path d="M81.6146 44.6501C84.3951 43.405 87.553 42.8221 90.5486 42.3547C92.6989 42.0192 94.939 41.7481 97.1102 41.586C98.0417 41.5165 98.9922 41.636 99.9194 41.5437C100.714 41.4645 101.581 41.1397 102.362 41.4375" stroke="#1A1A1A" stroke-width="3" stroke-linecap="round"/>
<path d="M101.729 41.7211C103.873 46.5076 106.016 51.2941 108.16 56.0806C109.402 58.8536 110.608 61.6315 112.005 64.3288C113.261 66.7519 114.595 69.1315 115.726 71.6198C117.426 75.3584 119.387 79.1391 120.717 83.0277C121.239 84.5555 121.849 85.8222 121.971 87.4303C122.115 89.3394 119.922 90.7906 118.712 91.8784C116.184 94.1494 113.839 96.5691 111.198 98.7214C109.02 100.496 106.774 102.184 104.509 103.844C102.613 105.234 100.548 106.421 98.7149 107.891C95.1785 110.726 91.7327 113.767 88.4401 116.882C88.1105 117.194 87.7448 117.444 87.4232 117.76C87.0517 118.124 86.8809 118.577 86.3997 118.792" stroke="#1A1A1A" stroke-width="3" stroke-linecap="round"/>
<path d="M86.1597 118.596C85.7996 117.792 85.4396 116.988 85.0795 116.184C84.1041 114.005 83.5934 111.69 82.6817 109.49C80.5753 104.408 78.1092 99.4233 75.5479 94.5594C73.8917 91.4143 72.5152 88.1265 71.063 84.8837C70.357 83.3072 69.7423 81.6159 68.8513 80.1334C67.5692 78.0001 66.5819 75.7389 65.3578 73.5763C65.1597 73.2264 64.5903 72.0289 64.0476 72.272" stroke="#1A1A1A" stroke-width="3" stroke-linecap="round"/>
<path d="M61.6784 71.0535C60.9677 71.3718 60.1392 71.1873 59.3865 71.1765C58.4555 71.1632 57.7813 71.2935 56.9345 71.6583C55.5823 72.2408 53.5966 72.3146 52.1441 72.1404C51.3762 72.0483 50.562 72.3518 49.7899 72.3504C48.6409 72.3483 47.4645 72.4961 46.3472 72.4485" stroke="#1A1A1A" stroke-width="3" stroke-linecap="round"/>
<path d="M33.8744 73.779C30.6781 75.2103 27.4344 77.0692 24.0271 77.9186C23.4066 78.0733 22.8715 78.211 22.2339 78.156C21.6863 78.1087 21.1129 78.5738 20.51 78.5481" stroke="#1A1A1A" stroke-width="3" stroke-linecap="round"/>
<path d="M43.2191 126.884C46.1057 125.591 48.9187 124.508 52.0116 123.782C57.2897 122.543 62.5721 121.961 67.9181 121.108C70.3435 120.721 72.733 119.934 75.1758 119.707C76.7047 119.564 78.189 119.379 79.7046 119.131C81.4304 118.848 83.4677 118.889 85.0601 118.176" stroke="#1A1A1A" stroke-width="3" stroke-linecap="round"/>
<path d="M49.0219 62.1331C54.1554 59.8342 60.0137 60.1872 65.5128 59.746C67.3677 59.5972 69.2994 59.8714 71.1374 59.5995C72.8814 59.3415 74.5871 59.3786 76.3398 59.3212C79.3359 59.2232 81.0147 61.4955 82.7821 63.6967C87.3757 69.4178 89.9808 76.5671 92.9461 83.1887" stroke="#1A1A1A" stroke-width="3" stroke-linecap="round"/>
<path d="M93.1163 83.5685C94.3171 86.2501 95.518 88.9316 96.7188 91.6132C97.7354 93.8834 98.4846 96.235 99.5014 98.5055C100.239 100.153 100.77 101.899 101.453 103.541C101.655 104.027 102.444 105.787 102.023 106.173" stroke="#1A1A1A" stroke-width="3" stroke-linecap="round"/>
<path d="M79.7141 49.9082C80.6577 49.4856 82.2349 50.2138 83.2076 50.3193C84.2088 50.4278 85.2621 50.4465 86.2363 50.7105C86.8626 50.8803 87.7193 51.1807 88.35 51.2076" stroke="#1A1A1A" stroke-width="3" stroke-linecap="round"/>
<path d="M88.2235 51.2641C90.1584 55.5848 92.0577 59.9031 94.2428 64.1024C96.8073 69.0308 98.8455 74.3051 101.117 79.3775C103.222 84.0773 105.326 88.7771 107.431 93.4769C108.106 94.9836 108.789 96.4656 109.324 98.0239C109.476 98.4686 110.167 99.3597 109.807 99.8" stroke="#1A1A1A" stroke-width="3" stroke-linecap="round"/>
<path d="M58.3263 60.8537C54.5211 62.5577 49.8312 63.822 47.2762 67.3217C46.8126 67.9567 46.2034 68.7362 45.8418 69.4161C45.6348 69.8055 45.8055 70.4954 45.6669 70.9296C45.5657 71.2469 45.8561 71.7458 45.7472 71.9574C45.6901 72.0685 45.7643 72.2766 45.7556 72.4096C45.7395 72.6527 45.5447 72.5833 45.417 72.7469C45.0614 73.2024 45.5006 74.6494 45.5511 75.1013C45.7697 77.0563 46.2296 79.0451 46.6668 80.9672C47.5701 84.9391 49.8738 88.8425 52.0214 92.2458C53.2625 94.2125 54.4029 96.259 55.6752 98.1992C56.8093 99.9288 57.8743 101.639 58.742 103.521C59.9552 106.151 61.2392 108.757 62.4271 111.41C62.9404 112.556 63.4537 113.703 63.967 114.849C64.1856 115.337 64.4308 115.826 64.3405 116.362" stroke="#1A1A1A" stroke-width="3" stroke-linecap="round"/>
<path d="M65.461 119.203C65.7027 119.743 65.8829 120.43 66.3245 120.792" stroke="#1A1A1A" stroke-width="3" stroke-linecap="round"/>
<path d="M35.0818 77.4933C40.2211 88.9696 45.3604 100.446 50.4997 111.922C51.7313 114.673 52.7008 117.516 53.9309 120.263C54.0981 120.637 54.9971 122.606 54.8246 122.598" stroke="#1A1A1A" stroke-width="3" stroke-linecap="round"/>
</svg>
