<svg width="21" height="30" viewBox="0 0 21 30" fill="none" xmlns="http://www.w3.org/2000/svg">
<path d="M18.5032 2.14282C17.4075 2.24881 16.4986 3.64531 15.655 4.23466C14.716 4.89064 13.9131 5.81745 13.0647 6.5816C12.3835 7.19507 11.6151 7.74013 10.8611 8.26527C10.3364 8.6307 9.90908 9.12701 9.37844 9.48409C8.30761 10.2047 7.33889 10.9117 6.1083 11.3775C4.58828 11.9529 3.20849 13.0172 2.04701 14.0816C1.72523 14.3765 1.27868 14.4816 1.83603 14.8186C1.99714 14.916 2.18826 15.2459 2.28142 15.4081C2.44403 15.6912 2.76315 15.756 3.01984 15.9183C4.39559 16.7885 5.46867 18.0188 6.74709 19.0306C8.5291 20.4409 10.562 21.5902 12.2794 23.0669C12.9472 23.6411 13.645 24.1844 14.3657 24.6938C15.0003 25.1424 15.5603 25.7921 16.2059 26.2245C16.838 26.6478 17.8873 27.8571 18.7141 27.8571" stroke="#FAFAFA" stroke-width="3" stroke-linecap="round"/>
</svg>
