<svg width="89" height="96" viewBox="0 0 89 96" fill="none" xmlns="http://www.w3.org/2000/svg">
<path d="M79.0436 44.4996C78.999 44.32 78.8574 44.2231 78.6881 44.1918C78.4031 44.1379 78.1179 44.1427 77.838 44.1389C76.4642 44.1354 75.0868 44.1767 73.7093 44.2768C71.0184 44.4685 68.3891 44.9676 65.8731 45.9814C64.6039 46.4874 63.4535 47.206 62.3238 47.9489C62.3238 47.9489 62.3238 47.9489 62.3187 47.9575C62.2373 48.0144 62.1474 48.0661 62.0661 48.1229C62.0419 48.1436 62.009 48.1591 61.9848 48.1798C60.578 49.2849 59.2679 50.4834 58.1839 51.8531C58.8265 50.9231 59.3345 49.9239 59.8908 48.9421C60.747 47.4236 61.5513 45.8739 62.2814 44.2913C64.1614 40.2149 65.6319 35.9981 66.5084 31.5768C67.1374 28.4054 67.4744 25.2111 67.3622 21.9818C67.3257 21.0665 67.3134 20.1305 66.9104 19.2769C66.8313 19.0178 66.7471 18.7673 66.6766 18.5134C65.7966 15.6215 63.8537 13.8299 60.9777 13.0404C58.1414 12.2631 55.4189 12.7414 52.8402 14.0349C48.4645 16.2223 45.248 19.7064 42.3731 23.5604C41.095 25.2718 39.9895 27.087 38.8926 28.9074C38.6437 28.9693 38.5725 29.185 38.4547 29.361C37.9541 30.0943 37.6088 30.921 37.16 31.6854C36.3213 33.0969 35.6034 34.5811 34.8252 36.0289C34.5599 36.5276 34.2464 37.009 34.0502 37.5492C34.0989 37.3904 34.1251 37.2299 34.1426 37.0641C34.3507 35.5672 34.4015 34.058 34.4887 32.5471C34.6501 30.0347 34.7302 27.5205 34.4941 25.0042C34.2409 22.3601 33.6783 19.8001 32.4034 17.4465C32.2965 17.2529 32.2451 16.9869 31.9549 16.9417C31.6756 16.5269 31.3963 16.112 31.1171 15.6972C31.0326 15.5642 30.9377 15.4483 30.7476 15.5103C30.585 15.5653 30.5347 15.6878 30.512 15.8622C30.4576 16.3232 30.3895 16.7877 30.2989 17.2503C29.3398 22.5505 26.8041 27.0906 23.6452 31.338C22.1488 33.353 20.63 35.3663 19.3563 37.5388C17.3409 40.9812 16.6696 44.6326 17.5186 48.552C18.287 52.0585 19.6296 55.3344 21.3405 58.4674C21.3781 58.6781 21.402 58.8923 21.5226 59.0824C22.2931 60.3215 23.0254 61.5848 23.9447 62.7136C24.4397 63.317 24.6513 63.9026 24.5135 64.6778C24.2587 66.1937 24.8979 67.3774 26.0144 68.3545C26.5855 68.8509 27.1879 69.2954 27.7799 69.7573C27.7799 69.7573 27.7885 69.7625 27.7972 69.7677C27.8576 69.804 27.9215 69.8542 27.9819 69.8905C28.6914 70.3525 29.4061 70.8059 30.1727 71.173C29.5044 70.8768 28.8014 70.6773 28.1383 70.3725L28.1297 70.3673C28.09 70.3552 28.0416 70.3379 28.0019 70.3257C27.1677 70.0121 26.3787 69.5845 25.6295 69.1104C24.4539 68.368 23.3649 67.5015 22.3521 66.5279C22.2088 66.3948 22.0778 66.2219 21.834 66.2751C21.5194 66.368 21.3619 66.5318 21.6085 66.8447C22.3396 67.7781 22.4952 68.8473 22.3827 69.9903C22.322 70.1301 22.2267 70.2491 22.2058 70.4011C22.0603 71.6183 21.6834 72.7903 21.5242 74.011C21.3616 75.1592 21.3251 76.3127 21.6879 77.4477C22.2191 79.1424 23.702 80.1166 25.4322 79.8408C26.2602 79.7158 26.9953 79.3351 27.6424 78.8076C28.3951 78.2024 29.034 77.4935 29.6641 76.7794C30.161 76.2085 30.6579 75.6375 31.2929 75.2084C31.3067 75.2049 31.3171 75.1877 31.3309 75.1842C31.3551 75.1635 31.3828 75.1567 31.407 75.136C31.4831 75.0877 31.5593 75.0395 31.6302 74.9998C33.1887 74.0918 34.8135 73.8349 36.5284 74.502C36.8617 74.6319 37.183 74.7429 37.5375 74.5447C37.7122 74.45 37.9005 74.5279 38.0766 74.5869C39.5586 75.0551 41.0527 75.4835 42.5451 75.8757C42.5987 75.8844 42.6557 75.907 42.7092 75.9157C42.7178 75.9209 42.7403 75.9226 42.7489 75.9278C44.5454 76.3619 46.3436 76.8322 48.1489 77.2127C48.4823 77.2839 48.8088 77.3275 49.1424 77.2813C49.3083 77.2988 49.4793 77.3077 49.64 77.3338C51.9258 77.639 53.9469 77.0562 55.7171 75.582C57.1534 74.3889 58.3239 72.9537 59.4099 71.4441C59.6333 71.1318 59.9879 70.9337 60.1993 70.6024C61.0794 69.2394 61.8956 67.8261 62.6117 66.3644C63.8046 63.9553 64.735 61.4353 65.7655 58.9638C66.6624 56.8115 67.5973 54.6939 68.9432 52.7529C69.9825 51.2623 71.196 49.9705 72.6218 48.8533C74.3365 47.5103 76.2184 46.4559 78.1383 45.4361C78.4029 45.2897 78.671 45.1571 78.896 44.9398C79.0189 44.8139 79.0969 44.6845 79.0436 44.4996ZM48.0347 18.0678C50.0976 16.2054 52.3502 14.6335 55.0422 13.796C57.276 13.0943 59.514 13.0299 61.7246 13.8893C62.9835 14.3762 64.0537 15.1374 64.8728 16.2177C64.9504 16.3232 65.1334 16.4098 65.0329 16.5961C65.0416 16.5426 65.04 16.5064 64.9986 16.4579C64.2431 15.5452 63.2851 14.9102 62.1936 14.477C60.0868 13.6212 58.0179 13.8344 56.01 14.8247C55.7229 14.9694 55.4358 15.1141 55.1126 15.143C54.4074 15.2008 53.7159 15.3726 53.0519 15.5963C50.4895 16.4529 48.5377 17.9942 47.5346 20.5762C47.4097 20.9007 47.2226 21.1526 46.9354 21.356C46.4337 21.7007 46.0234 22.1474 45.6684 22.6391C44.6153 24.0745 43.64 25.5566 42.6474 27.0283C41.1784 29.2126 39.8855 31.5145 38.5287 33.7663C38.4507 33.8957 38.3762 34.039 38.2982 34.1684C38.3017 34.1235 38.3139 34.0838 38.3174 34.0389C38.4888 32.8372 38.7102 31.6304 38.7467 30.4182C41.2824 25.8782 44.1425 21.5803 48.0347 18.0678ZM31.0103 16.5381C31.1981 16.8509 31.3136 17.0496 31.4377 17.2536L30.8355 17.7259C30.881 17.3772 30.9352 17.0336 31.0103 16.5381ZM17.8125 46.3662C17.4904 43.5631 18.1652 40.9598 19.4929 38.5025C20.6404 36.3834 22.0657 34.4667 23.5136 32.5518C25.9139 29.3879 28.0466 26.063 29.4697 22.3349C29.527 22.1812 29.5843 22.0276 29.6554 21.8706C29.5833 22.6148 29.7619 23.3334 29.7762 24.0707C29.8096 26.9236 28.9982 29.5974 28.0227 32.2313C26.9761 35.0223 25.6532 37.7058 24.4926 40.4517C22.8793 44.2418 21.7928 48.1724 21.4646 52.2888C21.3322 54.0311 21.4572 55.7754 21.5062 57.5092C19.6491 53.9943 18.2639 50.3402 17.8125 46.3662ZM22.8834 68.1639C22.9955 68.2901 23.118 68.3991 23.2249 68.5339C23.7233 69.1511 23.7233 69.1511 23.0195 69.48C22.9735 69.0292 22.931 68.5923 22.8834 68.1639ZM53.0873 76.4334C52.2435 76.7604 51.3792 76.8871 50.4859 76.8082C50.6796 76.7014 50.9129 76.7241 51.11 76.6312C53.3791 75.5393 55.6636 74.4802 57.6052 72.8388C56.3516 74.3533 54.9704 75.7089 53.0873 76.4334Z" fill="#1A1A1A"/>
<path d="M21.4977 57.5005C21.4539 55.7582 21.3151 54.0174 21.4562 52.2805C21.7843 48.1643 22.8741 44.2477 24.4787 40.4526C25.6392 37.7068 26.9706 35.0286 28.0085 32.2326C28.9926 29.604 29.8039 26.9303 29.7619 24.0725C29.7476 23.3351 29.5742 22.608 29.6411 21.8724C30.0895 23.4703 29.9935 25.0933 29.7317 26.6989C29.3232 29.2505 28.4553 31.6668 27.4595 34.0416C26.0579 37.3827 24.4197 40.6287 23.2805 44.0807C21.9259 48.2024 21.2779 52.4201 21.6372 56.7616C21.68 57.0224 21.6864 57.2849 21.4977 57.5005Z" fill="#DDDDDD"/>
<path d="M65.0279 16.5977C63.2871 14.8808 61.2531 13.9042 58.7418 14.1686C57.812 14.2675 56.9372 14.5289 56.1122 14.9612C55.6971 15.1817 55.2632 15.2968 54.7879 15.3636C51.8979 15.7881 49.5421 17.1216 48.1209 19.7341C47.6252 20.6348 47.0641 21.3905 46.3423 22.12C45.1151 23.3565 44.2606 24.9112 43.2802 26.3432C41.4822 28.976 39.8741 31.723 38.2487 34.4596C38.1727 34.4491 38.1434 34.4197 38.1192 34.3817C38.0969 34.3212 38.116 34.2505 38.1247 34.197C38.3549 32.9367 38.3708 31.6416 38.7306 30.4005C38.6975 31.6265 38.4726 32.8194 38.3013 34.021C38.2977 34.0659 38.2856 34.1056 38.2821 34.1505C38.36 34.0211 38.4346 33.8779 38.5125 33.7485C39.8779 31.502 41.1622 29.1949 42.6311 27.0106C43.6237 25.539 44.5903 24.0517 45.652 22.6216C46.0157 22.1351 46.4259 21.6884 46.919 21.3385C47.2062 21.1351 47.3932 20.8832 47.5182 20.5587C48.5298 17.9819 50.4816 16.4407 53.0353 15.5789C53.6992 15.3553 54.3855 15.1921 55.0958 15.1257C55.419 15.0967 55.7061 14.9521 55.9932 14.8074C58.0011 13.8171 60.0699 13.6039 62.1767 14.4597C63.2629 14.9014 64.2209 15.5364 64.9815 16.4405C65.035 16.508 65.0367 16.5442 65.0279 16.5977Z" fill="#DDDDDD"/>
<path d="M57.6017 72.8353C55.6596 74.4773 53.3692 75.5453 51.1047 76.6289C50.9075 76.7219 50.6776 76.713 50.4804 76.806C50.8007 76.5283 51.2209 76.4166 51.5963 76.2426C53.6929 75.2814 55.6602 74.0662 57.6017 72.8353Z" fill="#DDDDDD"/>
<path d="M59.418 71.4382C60.142 70.4515 60.7761 69.399 61.3792 68.3395C62.4572 66.4138 63.3694 64.4119 64.2039 62.3633C65.1339 60.0783 66.0241 57.7811 67.0853 55.5515C69.0499 51.4322 72.172 48.4558 76.1584 46.3284C77.0076 45.8753 77.8586 45.3999 78.7043 44.933C78.8651 44.8417 79.0433 44.7607 78.9763 44.5206C78.9127 44.2943 78.7433 44.3218 78.5671 44.3215C75.1164 44.2912 71.6759 44.4198 68.3221 45.341C66.2528 45.9065 64.3196 46.7536 62.5723 47.9946C62.4235 48.1049 62.2592 48.1824 62.107 48.2789C62.0054 48.0768 62.1301 47.9284 62.2236 47.7731C62.7572 46.9657 63.27 46.134 63.7259 45.2799C63.8108 45.1194 63.8923 44.9451 64.1221 44.954C65.963 43.5577 67.8762 42.2754 69.7894 40.9932C70.8585 40.2728 71.9551 39.6042 73.0155 38.8786C74.5586 37.8203 76.1292 37.9069 77.6431 38.8293C79.1828 39.7671 79.8422 41.2098 79.7062 42.9968C79.6268 44.0069 79.2607 44.9268 78.4872 45.5664C75.9108 47.6957 74.1973 50.4615 72.5476 53.2774C70.7888 56.2746 69.2682 59.4032 67.4317 62.3537C65.2973 65.7595 62.8281 68.8818 59.5893 71.3297C59.5356 71.3797 59.4699 71.4107 59.418 71.4382Z" fill="#6736D0"/>
<path d="M38.8981 28.9112C37.172 31.893 35.5893 34.9492 33.9788 38.0123C33.8616 37.836 33.9466 37.6755 33.9589 37.5183C34.3006 33.6334 34.6336 29.7432 34.3947 25.8265C34.2063 22.7041 33.5616 19.6951 31.9556 16.9543C34.481 15.4759 37.6592 17.3639 38.1631 19.865C38.7287 22.6736 38.9815 25.4939 38.8921 28.3551C38.8866 28.5399 38.895 28.7212 38.8981 28.9112Z" fill="#6736D0"/>
<path d="M42.8337 75.8098C43.8013 75.9215 44.7236 76.2647 45.679 76.4749C46.8434 76.7285 48.0008 77.0132 49.16 77.2755C46.4603 78.4377 43.6323 78.8175 40.7015 78.6652C38.6123 78.5607 36.5441 78.2454 34.4969 77.837C34.0252 77.7414 33.7451 77.855 33.4421 78.2017C32.4724 79.3231 31.3251 80.2317 29.9416 80.8102C26.5242 82.2462 22.5774 80.989 20.8439 77.9127C19.312 75.2046 19.9969 71.7255 22.4037 69.9757C22.3761 71.0171 22.0772 72.0011 21.8803 73.0111C21.6119 74.3544 21.4161 75.6943 21.7733 77.0729C22.3812 79.4017 24.4086 80.3507 26.5758 79.2913C27.6568 78.766 28.4342 77.9052 29.2202 77.0496C29.8539 76.3493 30.4203 75.5849 31.2472 75.0713C31.7568 75.2015 32.0915 75.6026 32.4833 75.9088C34.9049 77.765 38.9145 78.6837 42.2318 76.106C42.3962 75.9698 42.5693 75.7801 42.8337 75.8098Z" fill="#6736D0"/>
<path d="M28.101 70.5344C25.8989 69.6801 24.0155 68.3358 22.3124 66.7119C22.1571 66.5597 22.0018 66.4075 21.8413 66.264C20.8259 63.7135 20.7956 61.109 21.3427 58.4639C22.3301 60.1628 23.3938 61.8136 24.6339 63.3471C24.7908 63.5355 24.7992 63.7169 24.7591 63.9396C24.6159 64.7822 24.5264 65.6336 24.8275 66.4612C25.1595 67.4133 25.8912 68.0532 26.6385 68.6673C27.0079 68.9717 27.4413 69.2089 27.7656 69.5685C27.9552 69.8589 28.2417 70.1253 28.101 70.5344Z" fill="#6736D0"/>
<path d="M69.5737 50.7359C68.3879 52.0796 67.4955 53.5997 66.6704 55.1838C65.6892 57.0854 64.9274 59.0719 64.1344 61.0515C63.5272 62.5668 62.906 64.0855 62.1986 65.5524C61.5276 66.9588 60.765 68.322 59.93 69.6298C59.3011 70.6149 58.6464 71.5845 57.9139 72.5074C57.8187 72.6264 57.7028 72.7213 57.5955 72.8213C55.654 74.4627 53.3645 75.5303 51.1008 76.6135C50.9037 76.7065 50.6739 76.6976 50.4768 76.7906C49.288 76.7925 48.1585 76.4423 47.0167 76.1904C45.8042 75.9195 44.6142 75.5916 43.4138 75.281C43.3969 75.0358 43.5717 74.8823 43.724 74.7271C45.839 72.6025 47.6383 70.2409 49.2857 67.7409C50.2713 66.2416 51.2518 64.751 52.2288 63.2465C53.4467 61.3814 54.6386 59.5008 55.8478 57.6305C57.1349 55.6309 58.4393 53.6416 59.7006 51.6264C60.0471 51.0708 60.5127 50.6104 60.923 50.105C61.863 49.0718 62.9909 48.2928 64.1895 47.5915C66.8081 46.0753 69.6758 45.4142 72.6398 45.0813C74.0673 44.9174 75.4999 44.8622 76.9375 44.8571C77.0913 44.8556 77.2624 44.8058 77.461 44.9252C76.8037 45.2938 76.1742 45.6557 75.5446 46.0175C73.348 47.3408 71.2807 48.8007 69.5737 50.7359Z" fill="#6736D0"/>
<path d="M24.9818 62.8997C23.6162 61.1262 22.451 59.391 21.4916 57.5093C21.4478 55.767 21.309 54.0262 21.4501 52.2892C21.7835 48.1644 22.8734 44.2477 24.4781 40.4525C25.6387 37.7067 26.9702 35.0284 28.0082 32.2324C28.9923 29.6037 29.8037 26.93 29.7617 24.0721C29.7474 23.3348 29.5741 22.6076 29.641 21.872C30.1184 20.5137 30.4853 19.1241 30.8211 17.7275L31.4232 17.2552C32.3953 18.7449 32.9283 20.4171 33.309 22.1271C34.0209 25.3174 33.9879 28.5533 33.846 31.7943C33.7436 34.1305 33.4893 36.4458 33.2573 38.7629C33.1801 39.5157 32.8645 40.1369 32.5524 40.772C31.8468 42.2164 31.072 43.6193 30.3577 45.0585C29.6365 46.5288 28.9238 48.0043 28.2509 49.4919C27.3699 51.442 26.5907 53.4182 26.0706 55.4914C25.6601 57.1486 25.4431 58.8164 25.5162 60.5295C25.5616 61.3325 25.106 62.0105 24.9818 62.8997Z" fill="#6736D0"/>
<path d="M30.7531 74.6426C29.6332 75.6619 28.7618 76.9128 27.6213 77.9079C27.038 78.4269 26.391 78.8371 25.6423 79.0451C24.1502 79.4525 22.8656 78.7152 22.3893 77.2414C21.9629 75.9387 22.0964 74.6436 22.375 73.3418C22.6433 72.0573 22.9565 70.7762 23.0192 69.4621C23.7231 69.1331 23.7231 69.1331 23.2247 68.5159C23.1212 68.3949 22.9952 68.2721 22.8831 68.1459C23.0594 68.1461 23.1527 68.167 23.2786 68.2898C24.1138 69.0507 25.0928 69.5925 26.0406 70.1861C26.8331 70.6862 27.733 70.9689 28.541 71.4431C29.3033 72.4423 29.9513 73.5139 30.743 74.4837C30.7844 74.5321 30.7618 74.5891 30.7531 74.6426Z" fill="#6736D0"/>
<path d="M32.8068 41.6421C32.5206 43.3857 32.1378 44.9773 31.667 46.5393C31.0137 48.6969 30.1153 50.754 29.1288 52.7816C28.0938 54.9093 26.9965 57.0231 26.0769 59.3495C26.0633 58.2013 26.2273 57.2069 26.4536 56.2264C26.9426 54.1463 27.6819 52.1581 28.5318 50.2011C29.5915 47.7592 30.786 45.3865 32.0235 43.0398C32.261 42.6067 32.4189 42.1493 32.8068 41.6421Z" fill="#6736D0"/>
<path d="M32.3674 46.2106C32.7 44.6829 33.1396 43.1726 33.3841 41.6154C33.419 41.4014 33.4988 41.1908 33.4975 40.9784C33.5148 39.8958 34.0674 39.0176 34.5458 38.1066C35.5771 36.1412 36.6223 34.1723 37.6622 32.2121C37.9915 31.5875 38.3674 31.0026 38.7227 30.3936C38.6895 31.6195 38.4647 32.8123 38.2933 34.0139C38.2898 34.0588 38.2777 34.0985 38.2741 34.1434C38.2567 34.2504 38.253 34.354 38.2408 34.4524C37.2754 36.2694 36.2616 38.069 35.3394 39.912C34.3686 41.855 33.4064 43.8032 32.5754 45.8068C32.532 45.957 32.4368 46.076 32.3674 46.2106Z" fill="#6736D0"/>
<path d="M29.0288 54.3092C28.631 55.5745 28.2073 56.8242 27.8319 58.0912C27.3089 59.8571 27.0346 61.6786 26.895 63.5106C26.4367 62.7295 26.2238 61.8727 26.1527 60.9954C26.1172 60.5273 26.3943 60.1063 26.5592 59.6766C27.2742 57.8263 28.1187 56.0539 29.0288 54.3092Z" fill="#6736D0"/>
<path d="M27.0232 66.1951C27.015 66.9897 27.2679 67.7416 27.3928 68.5105C25.6349 67.2886 24.8674 66.1802 25.3098 64.1768C25.8964 64.8824 26.4641 65.5413 27.0232 66.1951Z" fill="#6736D0"/>
<path d="M26.9402 64.8292C26.9366 64.9329 26.9329 65.0365 26.9241 65.1488C26.4789 64.6576 26.0094 64.1871 25.6023 63.6717C25.2279 63.1996 25.6695 62.7596 25.7601 62.2968C26.0508 63.2007 26.4886 64.0167 26.9402 64.8292Z" fill="#6736D0"/>
<path d="M64.1126 44.9607C63.4593 46.084 62.8285 47.209 62.0975 48.2856C60.3933 49.6113 58.9151 51.1669 57.485 52.8573C57.501 52.5966 57.6429 52.4586 57.7313 52.3119C58.9354 50.3916 60.0359 48.409 61.0535 46.3882C62.5617 43.4167 63.8558 40.3517 64.8564 37.1688C66.4057 32.2944 67.2848 27.3225 67.1775 22.1922C67.155 21.2148 67.0045 20.2545 66.8765 19.296C67.4955 20.1032 67.7997 21.0619 68.1316 22.0138C69.6399 26.3413 69.4962 30.6977 68.3434 35.0701C67.46 38.4292 66.0293 41.5649 64.324 44.5707C64.2513 44.6915 64.1819 44.8261 64.1126 44.9607Z" fill="#A979FF"/>
<path d="M56.1949 53.5943C55.405 54.7882 54.6634 55.9995 53.7837 57.1276C52.8434 58.3369 51.7496 59.4303 50.6729 60.534C47.4846 63.835 44.0858 66.8801 40.3903 69.6175C39.3679 70.3777 38.2541 70.9772 37.0627 71.4713C36.0771 71.8775 35.2341 71.6761 34.3484 71.2139C31.4531 69.6958 29.1119 67.5119 26.9057 65.1624C26.8644 65.0553 26.7557 64.9429 26.9218 64.8429C28.4389 66.9308 30.5622 68.2079 32.8154 69.328C32.9069 69.3713 33.0036 69.406 33.0917 69.4355C33.2592 69.4892 33.3958 69.4186 33.4704 69.2754C33.5519 69.1011 33.4518 68.9939 33.2999 68.9142C32.9615 68.7342 32.6145 68.549 32.2709 68.3776C30.3821 67.3944 28.6388 66.2283 27.4011 64.4378C27.1977 64.1508 27.0513 63.8277 26.8807 63.5253C26.7211 62.8534 26.8363 62.1939 26.9289 61.5327C27.2749 59.202 27.8904 56.9511 28.7977 54.7817C28.8376 54.6764 28.912 54.5919 28.9606 54.4918C28.9918 54.44 29.0091 54.3917 29.0144 54.3243C30.332 51.7082 31.4959 49.0349 32.3403 46.2283C33.1323 43.8014 34.3248 41.5685 35.4569 39.2993C36.2717 37.6737 37.1435 36.0706 38.0326 34.4779C38.0568 34.4573 38.0776 34.4227 38.0932 34.3969C38.1486 34.3244 38.2006 34.2381 38.256 34.1657C38.334 34.0363 38.4086 33.893 38.4865 33.7636C39.8519 31.5171 41.1361 29.2101 42.605 27.0258C43.5976 25.5542 44.5643 24.0669 45.6259 22.6368C45.9895 22.1503 46.3998 21.7036 46.8929 21.3537C47.18 21.1503 47.3671 20.8984 47.492 20.574C48.5037 17.9972 50.4554 16.4559 53.009 15.5941C53.6729 15.3705 54.3592 15.2073 55.0695 15.1409C55.3927 15.1119 55.6798 14.9673 55.9668 14.8226C57.9747 13.8323 60.0434 13.6191 62.1501 14.4748C63.2363 14.9165 64.1942 15.5515 64.9548 16.4556C64.9876 16.4988 64.9979 16.5402 64.9891 16.5938C65.5396 17.0659 65.7355 17.7361 65.9469 18.3805C66.6158 20.393 66.6245 22.4669 66.5329 24.551C66.3152 29.7915 65.1456 34.8357 63.2921 39.727C61.4973 44.6184 59.0654 49.2206 56.1949 53.5943Z" fill="#A979FF"/>
<path d="M60.9308 50.1301C60.1356 51.3914 59.3404 52.6526 58.5279 53.9035C56.792 56.6088 55.051 59.3227 53.3065 62.0229C51.8617 64.2451 50.4342 66.4777 48.9428 68.6601C47.3095 71.0392 45.5397 73.3128 43.4353 75.3028C40.4887 74.553 37.5715 73.7153 34.6636 72.5304C35.17 72.4707 35.578 72.3399 36.027 72.4925C39.298 73.5431 41.997 72.5571 44.3043 70.172C45.8154 68.6008 47.1349 66.8792 48.4803 65.1732C49.6439 63.7104 50.7954 62.2286 51.9297 60.7364C52.6605 59.7773 53.2981 58.7386 54.0875 57.8382C56.2949 55.2872 58.3072 52.5718 60.7768 50.2491C60.8132 50.1887 60.8737 50.1663 60.9308 50.1301Z" fill="#A979FF"/>
<path d="M42.8372 75.8103C39.0137 79.2475 34.0609 77.9027 31.2415 75.0666C33.0151 73.841 34.8976 73.586 36.894 74.4694C37.1082 74.563 37.3155 74.6288 37.4663 74.3786C37.5286 74.2751 37.5996 74.2354 37.7136 74.2805C39.389 74.8768 41.1357 75.2572 42.8372 75.8103Z" fill="#A979FF"/>
<path d="M37.0773 72.1144C39.944 71.0647 42.1712 69.0662 44.4501 67.1576C46.3466 65.5714 48.1551 63.8971 49.9274 62.1656C49.9758 62.1243 50.0036 62.0587 50.1418 62.083C49.5236 62.8748 48.9365 63.6736 48.3166 64.4291C47.0267 66.004 45.8127 67.6481 44.4243 69.152C43.2974 70.3783 42.0843 71.494 40.447 72.0254C39.3336 72.3901 38.2173 72.3887 37.0773 72.1144Z" fill="#A979FF"/>
<path d="M27.0262 66.1931C27.8841 66.9561 28.6727 67.7949 29.5496 68.5458C30.9686 69.7637 32.4897 70.8315 34.1235 71.7319C34.1753 71.7631 34.2358 71.7995 34.3653 71.8774C33.6598 71.9939 33.0844 71.8947 32.5196 71.602C30.7371 70.6945 28.9963 69.718 27.3958 68.5084C27.0114 67.8774 26.9641 67.1553 26.8979 66.4452C26.8911 66.3588 26.9311 66.2535 27.0262 66.1931Z" fill="#A979FF"/>
<path d="M30.752 74.6449C29.879 73.673 29.0821 72.6528 28.5482 71.4499C29.9942 71.9199 31.4629 72.2742 32.9681 72.5093C33.6472 72.6121 34.2706 73.0222 34.92 73.3305C33.3765 73.2957 31.9825 73.7154 30.752 74.6449Z" fill="#A979FF"/>
<path d="M28.1033 70.5332C27.9794 70.2117 27.8174 69.9143 27.7678 69.567C28.7609 70.1643 29.7626 70.7668 30.7557 71.3642C29.8276 71.2057 28.9446 70.9334 28.1033 70.5332Z" fill="#A979FF"/>
<path d="M48.3477 28.0274C47.8243 27.7831 47.4775 27.3629 47.5581 26.6823C47.6546 25.8583 48.5336 25.3757 49.2868 25.7464C49.5217 25.8642 49.7548 26.0044 49.9828 26.1533C50.6028 26.5497 50.7711 27.2271 50.4105 27.8452C50.0551 28.4545 49.3736 28.6092 48.719 28.2507C48.6016 28.1918 48.5031 28.1209 48.3477 28.0274Z" fill="#1A1A1A"/>
<path d="M48.2871 29.7063C48.883 30.0646 49.0408 30.8181 48.6559 31.4568C48.2485 32.1525 47.5048 32.352 46.8571 31.9624C46.2613 31.604 46.1035 30.8506 46.4935 30.2032C46.9044 29.5214 47.6308 29.3115 48.2871 29.7063Z" fill="#1A1A1A"/>
<path d="M51.9087 34.2232C51.2835 33.8354 51.0981 33.0889 51.4673 32.476C51.84 31.877 52.594 31.7191 53.2279 32.112C53.8444 32.4946 54.0229 33.2723 53.6502 33.8713C53.2897 34.4306 52.4994 34.5902 51.9087 34.2232Z" fill="#1A1A1A"/>
<path d="M57.7896 38.2792C57.1419 37.8897 56.9615 37.1932 57.3412 36.5631C57.7052 35.9589 58.4091 35.8061 59.0395 36.1852C59.6958 36.58 59.89 37.273 59.519 37.9083C59.1722 38.5229 58.4545 38.6792 57.7896 38.2792Z" fill="#1A1A1A"/>
<path d="M52.3922 48.1232C52.0282 48.7274 51.3398 48.9131 50.7474 48.5685C50.155 48.224 49.9747 47.4688 50.3612 46.8663C50.7287 46.276 51.4395 46.092 52.0095 46.4348C52.6192 46.7898 52.7805 47.4983 52.3922 48.1232Z" fill="#1A1A1A"/>
<path d="M41.9762 41.9776C41.6122 42.5818 40.91 42.7709 40.3348 42.4367C39.7424 42.0922 39.5621 41.337 39.9348 40.738C40.2937 40.1424 41.0097 39.9499 41.5849 40.284C42.1859 40.6338 42.3507 41.3561 41.9762 41.9776Z" fill="#1A1A1A"/>
<path d="M42.4381 38.4454C41.8423 38.087 41.6826 37.4148 42.0518 36.802C42.4177 36.1753 43.1147 35.9948 43.7278 36.3636C44.3236 36.722 44.4781 37.4028 44.1227 38.0122C43.7569 38.6389 43.0512 38.8142 42.4381 38.4454Z" fill="#1A1A1A"/>
<path d="M51.5973 38.5038C51.2229 39.1253 50.512 39.3092 49.9128 38.937C49.348 38.5856 49.1884 37.8546 49.5473 37.259C49.9165 36.6462 50.6637 36.4606 51.2405 36.831C51.8173 37.2015 51.97 37.9048 51.5973 38.5038Z" fill="#1A1A1A"/>
<path d="M59.1219 32.8045C59.505 32.1882 60.1571 32.0042 60.753 32.3626C61.3661 32.7314 61.5119 33.407 61.1271 34.0458C60.7336 34.6793 60.0642 34.8529 59.4529 34.4617C58.8761 34.0912 58.7389 33.4208 59.1219 32.8045Z" fill="#1A1A1A"/>
<path d="M44.2471 34.0706C44.6215 33.4491 45.2874 33.2617 45.8798 33.6062C46.4895 33.9612 46.6474 34.6559 46.2626 35.2946C45.8777 35.9333 45.1859 36.1052 44.5866 35.733C44.0098 35.3625 43.8726 34.692 44.2471 34.0706Z" fill="#1A1A1A"/>
<path d="M38.0743 46.1665C37.4785 45.8081 37.305 45.1393 37.6518 44.5247C38.0089 43.8928 38.7111 43.7037 39.3243 44.0725C39.9288 44.436 40.0988 45.091 39.7382 45.7091C39.3534 46.3478 38.7013 46.5318 38.0743 46.1665Z" fill="#1A1A1A"/>
<path d="M35.9806 49.6067C35.3933 49.2536 35.2302 48.5675 35.5857 47.9581C35.9567 47.3228 36.6485 47.1509 37.2702 47.5249C37.8661 47.8833 38.0258 48.5555 37.6565 49.1684C37.2717 49.8071 36.6023 49.9807 35.9806 49.6067Z" fill="#1A1A1A"/>
<path d="M47.4748 53.935C48.1017 54.3003 48.27 54.9777 47.8904 55.6078C47.5211 56.2207 46.8552 56.4081 46.2594 56.0497C45.6324 55.6844 45.4607 54.9931 45.8403 54.363C46.1992 53.7675 46.8875 53.5818 47.4748 53.935Z" fill="#1A1A1A"/>
<path d="M45.6232 46.134C45.0014 45.7601 44.8435 45.0654 45.2266 44.4491C45.6045 43.8415 46.2686 43.6765 46.8731 44.04C47.4948 44.414 47.6545 45.0862 47.261 45.7198C46.8831 46.3274 46.2276 46.4976 45.6232 46.134Z" fill="#1A1A1A"/>
<path d="M57.8073 25.2307C58.4204 25.5994 58.587 26.2993 58.1953 26.9104C57.8087 27.5129 57.1532 27.683 56.5487 27.3195C55.927 26.9455 55.7794 26.2923 56.1694 25.6449C56.5525 25.0287 57.1942 24.8619 57.8073 25.2307Z" fill="#1A1A1A"/>
<path d="M54.1968 42.9335C54.7736 43.3039 54.9056 43.983 54.5139 44.5941C54.1308 45.2104 53.4356 45.3684 52.8294 44.9686C52.2578 44.5895 52.1189 43.8827 52.495 43.2975C52.8954 42.6917 53.5854 42.5422 54.1968 42.9335Z" fill="#1A1A1A"/>
<path d="M43.3245 49.3247C42.6803 48.949 42.5275 48.3044 42.9176 47.657C43.292 47.0356 43.9354 46.8464 44.5451 47.2013C45.1721 47.5666 45.3404 48.2441 44.9694 48.8794C44.5967 49.4784 43.9083 49.6641 43.3245 49.3247Z" fill="#1A1A1A"/>
<path d="M53.1028 23.7063C52.7231 24.3363 52.0901 24.5083 51.4684 24.1343C50.8639 23.7708 50.699 23.1071 51.0735 22.4857C51.4497 21.8418 52.1276 21.6733 52.758 22.0525C53.366 22.4299 53.4963 23.0727 53.1028 23.7063Z" fill="#1A1A1A"/>
<path d="M63.4792 29.9125C63.0944 30.5513 62.4648 30.737 61.8603 30.3735C61.2333 30.0081 61.0616 29.3169 61.4499 28.692C61.833 28.0757 62.4885 27.9055 63.093 28.2691C63.7061 28.6379 63.8589 29.2824 63.4792 29.9125Z" fill="#1A1A1A"/>
<path d="M56.5406 30.724C56.161 31.3541 55.5228 31.5347 54.9131 31.1798C54.2948 30.8196 54.1333 30.1699 54.5043 29.5346C54.891 28.8734 55.5517 28.6946 56.1734 29.0685C56.7727 29.4407 56.9255 30.0853 56.5406 30.724Z" fill="#1A1A1A"/>
<path d="M49.8052 41.677C49.429 42.3209 48.7942 42.5153 48.1845 42.1604C47.5437 41.7985 47.3754 41.1211 47.7603 40.4824C48.1295 39.8695 48.8041 39.6873 49.4051 40.037C50.0182 40.4058 50.1797 41.0556 49.8052 41.677Z" fill="#1A1A1A"/>
<path d="M50.1546 52.0312C49.7663 52.6561 49.1299 52.8143 48.5167 52.4455C47.9209 52.0871 47.7578 51.401 48.1357 50.7934C48.5257 50.1461 49.1985 49.9862 49.8185 50.3827C50.423 50.7462 50.5533 51.3891 50.1546 52.0312Z" fill="#1A1A1A"/>
<path d="M41.7415 53.2021C41.137 52.8385 40.998 52.1905 41.3777 51.5604C41.7573 50.9303 42.3956 50.7497 43.0087 51.1185C43.6391 51.4976 43.7815 52.1595 43.3828 52.8017C42.9911 53.4127 42.3546 53.5709 41.7415 53.2021Z" fill="#1A1A1A"/>
<path d="M56.9345 41.0079C56.5583 41.6519 55.9201 41.8324 55.3138 41.4913C54.6782 41.1208 54.5082 40.4658 54.8982 39.8185C55.2779 39.1884 55.9161 39.0078 56.5292 39.3766C57.1475 39.7367 57.3003 40.3813 56.9345 41.0079Z" fill="#1A1A1A"/>
<path d="M38.446 55.0389C38.7997 54.452 39.4552 54.2818 39.994 54.6176C40.5104 54.9517 40.658 55.6049 40.3251 56.1573C39.9819 56.727 39.3125 56.9006 38.7651 56.5596C38.2349 56.2289 38.1028 55.6086 38.446 55.0389Z" fill="#1A1A1A"/>
<path d="M44.0985 58.155C44.4469 57.5767 45.0385 57.4151 45.5963 57.7389C46.1715 58.073 46.3243 58.7176 45.962 59.2994C45.6291 59.8518 44.9823 60.0272 44.4417 59.7138C43.8838 59.39 43.7362 58.7368 44.0985 58.155Z" fill="#1A1A1A"/>
<path d="M35.0906 53.4302C34.7283 54.012 34.1558 54.1615 33.5945 53.8239C33.0332 53.4863 32.8769 52.8279 33.2236 52.2721C33.5703 51.7162 34.1929 51.5615 34.737 51.8887C35.3294 52.2333 35.4632 52.8312 35.0906 53.4302Z" fill="#1A1A1A"/>
<path d="M41.7178 62.2592C42.0316 61.7189 42.573 61.5623 43.0791 61.855C43.6249 62.1597 43.7743 62.7318 43.4605 63.2721C43.1571 63.7952 42.5379 63.9637 42.0284 63.6572C41.5414 63.3526 41.4144 62.7823 41.7178 62.2592Z" fill="#1A1A1A"/>
<path d="M36.4946 59.082C36.817 58.5468 37.3929 58.4111 37.9145 58.7365C38.4102 59.0464 38.5337 59.6029 38.2165 60.1294C37.9044 60.6473 37.332 60.7968 36.8293 60.518C36.3233 60.2254 36.1773 59.6085 36.4946 59.082Z" fill="#1A1A1A"/>
<path d="M32.7663 56.8971C32.4456 57.4098 31.8697 57.5455 31.374 57.2356C30.8749 56.9119 30.7515 56.2968 31.0808 55.7893C31.4101 55.2818 31.967 55.1581 32.4799 55.4784C33.0153 55.8004 33.113 56.3412 32.7663 56.8971Z" fill="#1A1A1A"/>
<path d="M40.9809 66.7415C40.6931 67.2387 40.1569 67.3866 39.6992 67.1113C39.2502 66.8412 39.1145 66.2657 39.404 65.8048C39.6883 65.3526 40.2193 65.2133 40.6563 65.4644C41.1416 65.7328 41.2687 66.2443 40.9809 66.7415Z" fill="#1A1A1A"/>
<path d="M30.3964 60.6541C30.1 61.1461 29.6278 61.2854 29.1563 61.0136C28.6675 60.7314 28.537 60.206 28.8144 59.7261C29.1004 59.2514 29.6729 59.1018 30.1167 59.3805C30.5658 59.6506 30.6773 60.188 30.3964 60.6541Z" fill="#1A1A1A"/>
<path d="M35.8837 63.8037C35.5907 64.3095 35.0822 64.4505 34.6107 64.1787C34.1443 63.8982 34.0225 63.378 34.3189 62.886C34.5997 62.42 35.1134 62.2703 35.5643 62.5179C36.0323 62.7759 36.1749 63.3203 35.8837 63.8037Z" fill="#1A1A1A"/>
</svg>
