<svg width="360" height="1872" viewBox="0 0 360 1872" fill="none" xmlns="http://www.w3.org/2000/svg">
<path d="M214.871 -10V941" stroke="#1A1A1A" stroke-width="1.5"/>
<path d="M352.351 -10V941" stroke="#1A1A1A" stroke-width="1.5"/>
<path d="M77.3904 -10V941" stroke="#1A1A1A" stroke-width="1.5"/>
<path d="M283.61 -10V941" stroke="#1A1A1A" stroke-width="1.5"/>
<path d="M8.6488 -10V941" stroke="#1A1A1A" stroke-width="1.5"/>
<path d="M146.129 -10V941" stroke="#1A1A1A" stroke-width="1.5"/>
<path d="M656 499.87L-295 499.87" stroke="#1A1A1A" stroke-width="1.5"/>
<path d="M656 224.909L-295 224.909" stroke="#1A1A1A" stroke-width="1.5"/>
<path d="M656 774.832L-295 774.832" stroke="#1A1A1A" stroke-width="1.5"/>
<path d="M656 87.428L-295 87.4279" stroke="#1A1A1A" stroke-width="1.5"/>
<path d="M656 637.352L-295 637.352" stroke="#1A1A1A" stroke-width="1.5"/>
<path d="M656 362.389L-295 362.389" stroke="#1A1A1A" stroke-width="1.5"/>
<path d="M656 912.315L-295 912.315" stroke="#1A1A1A" stroke-width="1.5"/>
<path d="M656 18.6866L-295 18.6865" stroke="#1A1A1A" stroke-width="1.5"/>
<path d="M656 568.611L-295 568.611" stroke="#1A1A1A" stroke-width="1.5"/>
<path d="M656 293.647L-295 293.647" stroke="#1A1A1A" stroke-width="1.5"/>
<path d="M656 843.571L-295 843.571" stroke="#1A1A1A" stroke-width="1.5"/>
<path d="M656 156.169L-295 156.169" stroke="#1A1A1A" stroke-width="1.5"/>
<path d="M656 706.088L-295 706.088" stroke="#1A1A1A" stroke-width="1.5"/>
<path d="M656 431.13L-295 431.13" stroke="#1A1A1A" stroke-width="1.5"/>
<path d="M214.871 941V1892" stroke="#1A1A1A" stroke-width="1.5"/>
<path d="M352.351 941V1892" stroke="#1A1A1A" stroke-width="1.5"/>
<path d="M77.3904 941V1892" stroke="#1A1A1A" stroke-width="1.5"/>
<path d="M283.61 941V1892" stroke="#1A1A1A" stroke-width="1.5"/>
<path d="M8.6488 941V1892" stroke="#1A1A1A" stroke-width="1.5"/>
<path d="M146.129 941V1892" stroke="#1A1A1A" stroke-width="1.5"/>
<path d="M656 1450.87L-295 1450.87" stroke="#1A1A1A" stroke-width="1.5"/>
<path d="M656 1175.91L-295 1175.91" stroke="#1A1A1A" stroke-width="1.5"/>
<path d="M656 1725.83L-295 1725.83" stroke="#1A1A1A" stroke-width="1.5"/>
<path d="M656 1038.43L-295 1038.43" stroke="#1A1A1A" stroke-width="1.5"/>
<path d="M656 1588.35L-295 1588.35" stroke="#1A1A1A" stroke-width="1.5"/>
<path d="M656 1313.39L-295 1313.39" stroke="#1A1A1A" stroke-width="1.5"/>
<path d="M656 1863.32L-295 1863.32" stroke="#1A1A1A" stroke-width="1.5"/>
<path d="M656 969.687L-295 969.686" stroke="#1A1A1A" stroke-width="1.5"/>
<path d="M656 1519.61L-295 1519.61" stroke="#1A1A1A" stroke-width="1.5"/>
<path d="M656 1244.65L-295 1244.65" stroke="#1A1A1A" stroke-width="1.5"/>
<path d="M656 1794.57L-295 1794.57" stroke="#1A1A1A" stroke-width="1.5"/>
<path d="M656 1107.17L-295 1107.17" stroke="#1A1A1A" stroke-width="1.5"/>
<path d="M656 1657.09L-295 1657.09" stroke="#1A1A1A" stroke-width="1.5"/>
<path d="M656 1382.13L-295 1382.13" stroke="#1A1A1A" stroke-width="1.5"/>
</svg>
