<svg width="14" height="16" viewBox="0 0 14 16" fill="none" xmlns="http://www.w3.org/2000/svg">
<path id="Vector" d="M7.52433 12.9694C6.08747 13.2895 4.53625 13.0784 3.28049 12.2522C2.32021 11.6212 1.28605 10.425 1.08351 9.31054C0.490178 6.00799 3.14467 2.64187 6.31623 1.51151C7.03346 1.25503 8.12242 0.882787 8.89685 1.03486C9.56642 1.16651 10.2837 1.75895 10.7745 2.16297C12.0589 3.22296 12.8118 4.72556 12.9429 6.32803C13.0382 7.48109 13.0978 8.94055 12.4068 9.94834C12.0374 10.4863 11.5561 10.7201 11.0104 11.0424C10.5386 11.3193 10.1597 11.6847 9.60454 11.7914C9.69509 12.436 10.3051 13.1124 10.672 13.6436C10.9103 13.9886 11.5037 14.4857 11.2844 14.9442C10.6887 15.0758 10.1169 14.9578 9.56165 14.7467C8.96833 14.5242 7.47667 14.1701 7.41948 13.437C7.59105 13.412 7.76738 13.3894 7.52433 12.9694Z" stroke="#FF8B37" stroke-width="2" stroke-miterlimit="10" stroke-linecap="round" stroke-linejoin="round"/>
</svg>
