<svg width="279" height="107" viewBox="0 0 279 107" fill="none" xmlns="http://www.w3.org/2000/svg">
<path d="M12.1849 61.9389C16.1581 61.9389 20.4773 61.5209 24.2073 63.193C29.3376 65.4928 32.7996 72.2189 34.7593 77.1182C37.7503 84.5956 41.9667 96.7666 35.1485 103.585C30.057 108.676 30.0888 99.6747 30.0888 96.1897C30.0888 86.9675 33.2089 75.5056 42.7166 71.28C49.4065 68.3067 60.4474 64.1156 67.8425 67.1284C72.6601 69.0911 75.9573 76.3034 78.308 80.5346C80.1361 83.8253 83.0218 86.7797 83.0218 90.6974C83.0218 93.17 81.162 97.7465 78.3512 97.7465C74.5743 97.7465 75.1861 86.4629 75.2375 83.7348C75.5187 68.8329 87.7561 61.1605 101.358 61.1605C112.707 61.1605 124.257 70.1356 129.727 79.6697C131.942 83.5293 135.481 91.6567 131.284 95.4112C125.019 101.017 123.5 89.5487 123.5 86.0269C123.5 78.9697 122.98 71.6568 123.543 64.6201C124.1 57.6551 125.76 50.9489 129.554 44.9865C132.119 40.9558 137.108 38.4088 141.577 37.2022C149.895 34.9562 160.631 33.513 169.081 35.6453C175.219 37.194 178.558 41.7076 182.314 46.3703C187.043 52.2398 191.659 58.0796 195.461 64.6201C199.452 71.4845 204.469 82.8683 196.629 89.1406C189.202 95.0819 179.839 88.1369 177.99 80.4481C175.664 70.7765 175.655 61.724 175.655 51.8193C175.655 25.0961 199.754 2 226.252 2C243.558 2 261.596 8.60626 273.736 21.4607C275.941 23.7944 278.062 24.3867 276.461 19.9038C274.584 14.649 267.769 -0.464746 271.012 4.07581C272.575 6.26342 271.878 10.8826 272.785 13.5034C273.695 16.1336 274.279 20.3878 275.899 22.4121C280.91 28.676 267.297 23.619 264.785 23.0608C259.986 21.9944 253.867 22.0348 249.605 19.9038" stroke="#FEFEFE" stroke-width="3" stroke-linecap="round"/>
<path d="M4.7306 62.5261C8.24915 62.5261 9.69275 69.627 6.853 68.9171C4.68741 68.3757 0.520656 60.4275 4.94522 60.4275C7.74229 60.4275 8.30301 63.8503 7.63995 65.9601C6.87267 68.4014 2.63746 69.2413 2.58436 66.0554C2.54916 63.9433 1.83618 61.4845 4.30135 60.9045C7.02561 60.2635 12.0278 60.547 12.0278 64.0046C12.0278 65.6234 11.9822 65.9118 10.3108 66.3893C9.2703 66.6866 8.22163 67.6198 7.06762 67.2001C5.31822 66.564 2.52318 59.6764 5.15985 59.5213C7.93813 59.3579 8.612 61.4802 9.88158 63.3846" stroke="#FEFEFE" stroke-width="3" stroke-linecap="round"/>
</svg>
