<svg width="140" height="101" viewBox="0 0 140 101" fill="none" xmlns="http://www.w3.org/2000/svg">
<path d="M133.38 4.90672C133.38 2.47811 136.364 -0.26433 137.941 2.62655C138.878 4.34434 140.019 8.98558 136.104 7.63025C134.947 7.22991 132.391 3.32185 134.521 3.19659C137.117 3.04387 135.716 5.21937 137.371 6.0468" stroke="#C7B4FF" stroke-width="2" stroke-linecap="round"/>
<path d="M135 7C127.362 11.3412 121.014 18.7881 113.909 24.1001C105.562 30.3407 97.0375 34.9789 87.4017 38.3958C75.9491 42.457 64.0733 44.8444 52.0276 45.6463C45.9692 46.0496 39.0761 46.5081 36.6683 39.285C36.0158 37.3277 34.8048 32.9186 36.5099 31.1454C39.1933 28.3548 43.6693 27.3149 47.214 27.3149C54.7231 27.3149 65.7361 25.1045 66.5636 36.2754C66.7541 38.8466 67.3096 43.5888 65.8986 45.7831C63.8086 49.0332 61.197 51.3626 58.3297 53.7859C49.1592 61.5365 39.1452 70.4469 27.8327 74.0667C22.6498 75.7251 1.74408 82.4285 1.07249 71.912C0.729874 66.547 1.46981 62.6635 6.17117 60.0788C11.338 57.2381 17.6172 55.225 23.304 54.1621C29.9022 52.9288 37.3743 52.6254 44.0471 53.2387C49.6766 53.7561 53.7221 58.3518 57.4747 62.4044C63.7364 69.1667 70.2619 75.8308 73.3091 85.0449C74.1448 87.5718 74.6589 90.5209 75.1459 93.1504C75.2606 93.7699 76.5231 98.8109 76.7293 98.5882C79.0843 96.045 79.7062 88.6865 79.7062 85.1817C79.7062 83.1696 80.2762 83.0994 80.2762 85.2159C80.2762 87.7582 79.7401 89.6914 78.6928 91.9534C77.5655 94.3881 77.0036 96.0154 76.856 98.725C76.6273 102.924 70.9599 95.4979 70.4589 94.4158C69.5445 92.4407 67.1873 90.4262 65.4552 89.491" stroke="#C7B4FF" stroke-width="2" stroke-linecap="round"/>
</svg>
