<svg width="252" height="103" viewBox="0 0 252 103" fill="none" xmlns="http://www.w3.org/2000/svg">
<path d="M4.07987 12.8142C4.17774 13.6951 7.81421 18.2032 5.00558 18.3685C2.30681 18.5272 1.10889 15.3778 2.74275 13.2771C4.77985 10.658 7.13922 12.4643 7.73126 15.1285C8.16356 17.0739 4.07987 17.3683 4.07987 14.6657" stroke="#C7B4FF" stroke-width="3" stroke-linecap="round"/>
<path d="M1.5 14.9162C72.1993 10.5448 73.5 36.5 79.5 56.5C79.5 56.5 85.0455 88.4084 71 84.0867C66.8025 82.7952 62.5 79.0528 66.5 67.4755C69.6011 58.5 71.5878 56.274 75.8948 48C80.1027 39.9164 91.3944 31.7483 100.5 29.5C108.906 27.4244 121.906 30.3429 130.056 35C138.325 39.725 142.881 58.0403 145.33 66.7041C147.466 74.2629 150.065 87.1372 146.667 94.7838C143.83 101.168 137.936 101.97 131.444 100.287C125.194 98.6662 123.185 92.4212 123.627 86.4524C124.187 78.9026 127.159 69.5413 130.056 62.6413C133.994 53.2601 136.957 45.3689 144.867 38.573C152.628 31.9051 165.022 26.9555 174.695 32.916C186.786 40.3659 197.854 54.3603 203.186 67.4755C205.225 72.4896 209.079 85.1348 204.009 89.641C197.921 95.0528 193.047 88.9998 189.815 84.0867C177.864 65.9217 183.038 45.2193 191.204 26.8475C199.416 8.37056 228.325 -0.639235 244.123 13.5791C244.593 14.0017 248.602 16.1899 247.98 15.0705C245.997 11.5008 243.918 8.41942 242.529 4.52775C239.841 -2.99642 244.155 8.47414 245.306 10.5448C246.039 11.8649 247.235 14.2223 248.546 14.9162C252.498 17.0087 249.401 16.5619 246.489 16.5619C244.055 16.5619 233.002 17.874 231.883 15.6362" stroke="#C7B4FF" stroke-width="3" stroke-linecap="round"/>
</svg>
