<svg width="1340" height="190" viewBox="0 0 1340 190" fill="none" xmlns="http://www.w3.org/2000/svg">
<mask id="mask0_1_1139" style="mask-type:alpha" maskUnits="userSpaceOnUse" x="0" y="0" width="1340" height="190">
<rect x="0.5" y="0.5" width="1339" height="189" rx="29.5" fill="white" stroke="#E8E8E8"/>
</mask>
<g mask="url(#mask0_1_1139)">
<path d="M387.281 -398.744V371.579" stroke="#333333"/>
<path d="M173.037 -398.744V371.579" stroke="#333333"/>
<path d="M601.527 -398.744V371.579" stroke="#333333"/>
<path d="M65.9141 -398.744V371.579" stroke="#333333"/>
<path d="M494.404 -398.744V371.579" stroke="#333333"/>
<path d="M280.158 -398.744V371.579" stroke="#333333"/>
<path d="M708.648 -398.744V371.579" stroke="#333333"/>
<path d="M12.3535 -398.744V371.579" stroke="#333333"/>
<path d="M440.844 -398.744V371.579" stroke="#333333"/>
<path d="M226.596 -398.744V371.579" stroke="#333333"/>
<path d="M655.088 -398.744V371.579" stroke="#333333"/>
<path d="M119.475 -398.744V371.579" stroke="#333333"/>
<path d="M547.965 -398.744V371.579" stroke="#333333"/>
<path d="M333.721 -398.744V371.579" stroke="#333333"/>
<path d="M731 14.2577L-9.99999 14.2577" stroke="#333333"/>
<path d="M731 125.62L-9.99999 125.62" stroke="#333333"/>
<path d="M731 69.9388L-9.99999 69.9387" stroke="#333333"/>
<path d="M731 181.297L-9.99999 181.297" stroke="#333333"/>
<path d="M1083.28 -398.744V371.579" stroke="#333333"/>
<path d="M869.037 -398.744V371.579" stroke="#333333"/>
<path d="M1297.53 -398.744V371.579" stroke="#333333"/>
<path d="M761.914 -398.744V371.579" stroke="#333333"/>
<path d="M1190.4 -398.744V371.579" stroke="#333333"/>
<path d="M976.158 -398.744V371.579" stroke="#333333"/>
<path d="M708.354 -398.744V371.579" stroke="#333333"/>
<path d="M1136.84 -398.744V371.579" stroke="#333333"/>
<path d="M922.596 -398.744V371.579" stroke="#333333"/>
<path d="M815.475 -398.744V371.579" stroke="#333333"/>
<path d="M1243.96 -398.744V371.579" stroke="#333333"/>
<path d="M1029.72 -398.744V371.579" stroke="#333333"/>
<path d="M1427 14.2577L686 14.2577" stroke="#333333"/>
<path d="M1427 125.62L686 125.62" stroke="#333333"/>
<path d="M1427 69.9388L686 69.9387" stroke="#333333"/>
<path d="M1427 181.297L686 181.297" stroke="#333333"/>
</g>
</svg>
