<svg width="119" height="21" viewBox="0 0 119 21" fill="none" xmlns="http://www.w3.org/2000/svg">
<g id="Group 3078">
<g id="Group 3067">
<path id="Vector 10313" d="M1.67041 1C5.94224 4.88348 10.7497 8.50816 14.8288 12.5872C16.5302 14.2886 18.9247 15.1611 20.6715 16.9079" stroke="#5668E6" stroke-width="2" stroke-linecap="round"/>
<path id="Vector 10314" d="M21.7686 1.32715C20.4891 1.46932 17.8682 3.21508 16.8833 4.00301C13.8044 6.46615 10.6596 8.99167 8.04562 11.9324C5.83601 14.4182 3.80072 17.1354 1 19.0026" stroke="#5668E6" stroke-width="2" stroke-linecap="round"/>
</g>
<g id="Group 3068">
<path id="Vector 10313_2" d="M25.6704 1C29.9422 4.88348 34.7497 8.50816 38.8288 12.5872C40.5302 14.2886 42.9247 15.1611 44.6715 16.9079" stroke="#5668E6" stroke-width="2" stroke-linecap="round"/>
<path id="Vector 10314_2" d="M45.7686 1.32715C44.4891 1.46932 41.8682 3.21508 40.8833 4.00301C37.8044 6.46615 34.6596 8.99167 32.0456 11.9324C29.836 14.4182 27.8007 17.1354 25 19.0026" stroke="#5668E6" stroke-width="2" stroke-linecap="round"/>
</g>
<g id="Group 3069">
<path id="Vector 10313_3" d="M49.6704 1C53.9422 4.88348 58.7497 8.50816 62.8288 12.5872C64.5302 14.2886 66.9247 15.1611 68.6715 16.9079" stroke="#5668E6" stroke-width="2" stroke-linecap="round"/>
<path id="Vector 10314_3" d="M69.7686 1.32715C68.4891 1.46932 65.8682 3.21508 64.8833 4.00301C61.8044 6.46615 58.6596 8.99167 56.0456 11.9324C53.836 14.4182 51.8007 17.1354 49 19.0026" stroke="#5668E6" stroke-width="2" stroke-linecap="round"/>
</g>
<g id="Group 3070">
<path id="Vector 10313_4" d="M73.6704 1C77.9422 4.88348 82.7497 8.50816 86.8288 12.5872C88.5302 14.2886 90.9247 15.1611 92.6715 16.9079" stroke="#5668E6" stroke-width="2" stroke-linecap="round"/>
<path id="Vector 10314_4" d="M93.7686 1.32715C92.4891 1.46932 89.8682 3.21508 88.8833 4.00301C85.8044 6.46615 82.6596 8.99167 80.0456 11.9324C77.836 14.4182 75.8007 17.1354 73 19.0026" stroke="#5668E6" stroke-width="2" stroke-linecap="round"/>
</g>
<g id="Group 3071">
<path id="Vector 10313_5" d="M97.6704 1C101.942 4.88348 106.75 8.50816 110.829 12.5872C112.53 14.2886 114.925 15.1611 116.671 16.9079" stroke="#5668E6" stroke-width="2" stroke-linecap="round"/>
<path id="Vector 10314_5" d="M117.769 1.32715C116.489 1.46932 113.868 3.21508 112.883 4.00301C109.804 6.46615 106.66 8.99167 104.046 11.9324C101.836 14.4182 99.8007 17.1354 97 19.0026" stroke="#5668E6" stroke-width="2" stroke-linecap="round"/>
</g>
</g>
</svg>
